<?xml version="1.0" encoding="UTF-8" standalone="no"?><svg xmlns="http://www.w3.org/2000/svg" xmlns:xlink="http://www.w3.org/1999/xlink" clip-rule="evenodd" stroke-miterlimit="4.00" viewBox="0 0 425 79"><desc>SVG generated by Keynote</desc><defs></defs><g transform="matrix(1.00, 0.00, -0.00, -1.00, 0.0, 79.0)"><text xml:space="preserve" font-family="Helvetica-Light" font-size="80.0" fill="#000000" transform="matrix(1.00, 0.00, -0.00, -1.00, 1.0, 18.0)">A</text><text xml:space="preserve" font-family="Helvetica-Light" font-size="80.0" fill="#000000" transform="matrix(1.00, 0.00, -0.00, -1.00, 54.4, 18.0)">d</text><text xml:space="preserve" font-family="Helvetica-Light" font-size="80.0" fill="#000000" transform="matrix(1.00, 0.00, -0.00, -1.00, 103.2, 18.0)">d</text><text xml:space="preserve" font-family="Helvetica-Light" font-size="80.0" fill="#000000" transform="matrix(1.00, 0.00, -0.00, -1.00, 152.1, 18.0)">i</text><text xml:space="preserve" font-family="Helvetica-Light" font-size="80.0" fill="#000000" transform="matrix(1.00, 0.00, -0.00, -1.00, 169.9, 18.0)">n</text><text xml:space="preserve" font-family="Helvetica-Light" font-size="80.0" fill="#000000" transform="matrix(1.00, 0.00, -0.00, -1.00, 214.4, 18.0)">g</text><text xml:space="preserve" font-family="Helvetica-Light" font-size="80.0" fill="#000000" transform="matrix(1.00, 0.00, -0.00, -1.00, 263.2, 18.0)"> </text><text xml:space="preserve" font-family="Helvetica-Light" font-size="80.0" fill="#000000" transform="matrix(1.00, 0.00, -0.00, -1.00, 285.5, 18.0)">ï¬</text><text xml:space="preserve" font-family="Helvetica-Light" font-size="80.0" fill="#000000" transform="matrix(1.00, 0.00, -0.00, -1.00, 325.5, 18.0)">l</text><text xml:space="preserve" font-family="Helvetica-Light" font-size="80.0" fill="#000000" transform="matrix(1.00, 0.00, -0.00, -1.00, 343.2, 18.0)">e</text><text xml:space="preserve" font-family="Helvetica-Light" font-size="80.0" fill="#000000" transform="matrix(1.00, 0.00, -0.00, -1.00, 387.7, 18.0)">s</text></g></svg>