<?xml version="1.0" encoding="UTF-8" standalone="no"?><svg xmlns="http://www.w3.org/2000/svg" xmlns:xlink="http://www.w3.org/1999/xlink" clip-rule="evenodd" stroke-miterlimit="4.00" viewBox="0 0 1024 768"><desc>SVG generated by Keynote</desc><defs></defs><g transform="matrix(1.00, 0.00, -0.00, -1.00, 0.0, 768.0)"><path d="M 0.0 768.0 L 1024.0 768.0 L 1024.0 0.0 L 0.0 0.0 Z M 0.0 768.0 " fill="#FEFFFF"></path><text xml:space="preserve" font-family="Helvetica-Light" font-size="80.0" fill="#000000" transform="matrix(1.00, 0.00, -0.00, -1.00, 283.0, 618.0)">U</text><text xml:space="preserve" font-family="Helvetica-Light" font-size="80.0" fill="#000000" transform="matrix(1.00, 0.00, -0.00, -1.00, 340.8, 618.0)">p</text><text xml:space="preserve" font-family="Helvetica-Light" font-size="80.0" fill="#000000" transform="matrix(1.00, 0.00, -0.00, -1.00, 389.6, 618.0)">d</text><text xml:space="preserve" font-family="Helvetica-Light" font-size="80.0" fill="#000000" transform="matrix(1.00, 0.00, -0.00, -1.00, 438.5, 618.0)">a</text><text xml:space="preserve" font-family="Helvetica-Light" font-size="80.0" fill="#000000" transform="matrix(1.00, 0.00, -0.00, -1.00, 483.0, 618.0)">t</text><text xml:space="preserve" font-family="Helvetica-Light" font-size="80.0" fill="#000000" transform="matrix(1.00, 0.00, -0.00, -1.00, 505.2, 618.0)">e</text><text xml:space="preserve" font-family="Helvetica-Light" font-size="80.0" fill="#000000" transform="matrix(1.00, 0.00, -0.00, -1.00, 549.7, 618.0)"> </text><text xml:space="preserve" font-family="Helvetica-Light" font-size="80.0" fill="#000000" transform="matrix(1.00, 0.00, -0.00, -1.00, 572.0, 618.0)">a</text><text xml:space="preserve" font-family="Helvetica-Light" font-size="80.0" fill="#000000" transform="matrix(1.00, 0.00, -0.00, -1.00, 616.4, 618.0)"> </text><text xml:space="preserve" font-family="Helvetica-Light" font-size="80.0" fill="#000000" transform="matrix(1.00, 0.00, -0.00, -1.00, 638.7, 618.0)">ï¬</text><text xml:space="preserve" font-family="Helvetica-Light" font-size="80.0" fill="#000000" transform="matrix(1.00, 0.00, -0.00, -1.00, 678.7, 618.0)">l</text><text xml:space="preserve" font-family="Helvetica-Light" font-size="80.0" fill="#000000" transform="matrix(1.00, 0.00, -0.00, -1.00, 696.4, 618.0)">e</text><text xml:space="preserve" font-family="Menlo-Regular" font-size="28.0" fill="#000000" transform="matrix(1.00, 0.00, -0.00, -1.00, 149.0, 487.0)">$</text><text xml:space="preserve" font-family="Menlo-Regular" font-size="28.0" fill="#000000" transform="matrix(1.00, 0.00, -0.00, -1.00, 165.9, 487.0)"> </text><text xml:space="preserve" font-family="Menlo-Regular" font-size="28.0" fill="#000000" transform="matrix(1.00, 0.00, -0.00, -1.00, 182.7, 487.0)">e</text><text xml:space="preserve" font-family="Menlo-Regular" font-size="28.0" fill="#000000" transform="matrix(1.00, 0.00, -0.00, -1.00, 199.6, 487.0)">c</text><text xml:space="preserve" font-family="Menlo-Regular" font-size="28.0" fill="#000000" transform="matrix(1.00, 0.00, -0.00, -1.00, 216.4, 487.0)">h</text><text xml:space="preserve" font-family="Menlo-Regular" font-size="28.0" fill="#000000" transform="matrix(1.00, 0.00, -0.00, -1.00, 233.3, 487.0)">o</text><text xml:space="preserve" font-family="Menlo-Regular" font-size="28.0" fill="#000000" transform="matrix(1.00, 0.00, -0.00, -1.00, 250.2, 487.0)"> </text><text xml:space="preserve" font-family="Menlo-Regular" font-size="28.0" fill="#000000" transform="matrix(1.00, 0.00, -0.00, -1.00, 267.0, 487.0)">"</text><text xml:space="preserve" font-family="Menlo-Regular" font-size="28.0" fill="#000000" transform="matrix(1.00, 0.00, -0.00, -1.00, 283.9, 487.0)">s</text><text xml:space="preserve" font-family="Menlo-Regular" font-size="28.0" fill="#000000" transform="matrix(1.00, 0.00, -0.00, -1.00, 300.7, 487.0)">o</text><text xml:space="preserve" font-family="Menlo-Regular" font-size="28.0" fill="#000000" transform="matrix(1.00, 0.00, -0.00, -1.00, 317.6, 487.0)">m</text><text xml:space="preserve" font-family="Menlo-Regular" font-size="28.0" fill="#000000" transform="matrix(1.00, 0.00, -0.00, -1.00, 334.5, 487.0)">e</text><text xml:space="preserve" font-family="Menlo-Regular" font-size="28.0" fill="#000000" transform="matrix(1.00, 0.00, -0.00, -1.00, 351.3, 487.0)"> </text><text xml:space="preserve" font-family="Menlo-Regular" font-size="28.0" fill="#000000" transform="matrix(1.00, 0.00, -0.00, -1.00, 368.2, 487.0)">f</text><text xml:space="preserve" font-family="Menlo-Regular" font-size="28.0" fill="#000000" transform="matrix(1.00, 0.00, -0.00, -1.00, 385.0, 487.0)">i</text><text xml:space="preserve" font-family="Menlo-Regular" font-size="28.0" fill="#000000" transform="matrix(1.00, 0.00, -0.00, -1.00, 401.9, 487.0)">l</text><text xml:space="preserve" font-family="Menlo-Regular" font-size="28.0" fill="#000000" transform="matrix(1.00, 0.00, -0.00, -1.00, 418.8, 487.0)">e</text><text xml:space="preserve" font-family="Menlo-Regular" font-size="28.0" fill="#000000" transform="matrix(1.00, 0.00, -0.00, -1.00, 435.6, 487.0)">"</text><text xml:space="preserve" font-family="Menlo-Regular" font-size="28.0" fill="#000000" transform="matrix(1.00, 0.00, -0.00, -1.00, 452.5, 487.0)"> </text><text xml:space="preserve" font-family="Menlo-Regular" font-size="28.0" fill="#000000" transform="matrix(1.00, 0.00, -0.00, -1.00, 469.3, 487.0)">&gt;</text><text xml:space="preserve" font-family="Menlo-Regular" font-size="28.0" fill="#000000" transform="matrix(1.00, 0.00, -0.00, -1.00, 486.2, 487.0)"> </text><text xml:space="preserve" font-family="Menlo-Regular" font-size="28.0" fill="#000000" transform="matrix(1.00, 0.00, -0.00, -1.00, 503.1, 487.0)">s</text><text xml:space="preserve" font-family="Menlo-Regular" font-size="28.0" fill="#000000" transform="matrix(1.00, 0.00, -0.00, -1.00, 519.9, 487.0)">o</text><text xml:space="preserve" font-family="Menlo-Regular" font-size="28.0" fill="#000000" transform="matrix(1.00, 0.00, -0.00, -1.00, 536.8, 487.0)">m</text><text xml:space="preserve" font-family="Menlo-Regular" font-size="28.0" fill="#000000" transform="matrix(1.00, 0.00, -0.00, -1.00, 553.6, 487.0)">e</text><text xml:space="preserve" font-family="Menlo-Regular" font-size="28.0" fill="#000000" transform="matrix(1.00, 0.00, -0.00, -1.00, 570.5, 487.0)">-</text><text xml:space="preserve" font-family="Menlo-Regular" font-size="28.0" fill="#000000" transform="matrix(1.00, 0.00, -0.00, -1.00, 587.4, 487.0)">f</text><text xml:space="preserve" font-family="Menlo-Regular" font-size="28.0" fill="#000000" transform="matrix(1.00, 0.00, -0.00, -1.00, 604.2, 487.0)">i</text><text xml:space="preserve" font-family="Menlo-Regular" font-size="28.0" fill="#000000" transform="matrix(1.00, 0.00, -0.00, -1.00, 621.1, 487.0)">l</text><text xml:space="preserve" font-family="Menlo-Regular" font-size="28.0" fill="#000000" transform="matrix(1.00, 0.00, -0.00, -1.00, 637.9, 487.0)">e</text><text xml:space="preserve" font-family="Menlo-Regular" font-size="28.0" fill="#000000" transform="matrix(1.00, 0.00, -0.00, -1.00, 149.0, 454.0)">$</text><text xml:space="preserve" font-family="Menlo-Regular" font-size="28.0" fill="#000000" transform="matrix(1.00, 0.00, -0.00, -1.00, 165.9, 454.0)"> </text><text xml:space="preserve" font-family="Menlo-Regular" font-size="28.0" fill="#000000" transform="matrix(1.00, 0.00, -0.00, -1.00, 182.7, 454.0)">g</text><text xml:space="preserve" font-family="Menlo-Regular" font-size="28.0" fill="#000000" transform="matrix(1.00, 0.00, -0.00, -1.00, 199.6, 454.0)">i</text><text xml:space="preserve" font-family="Menlo-Regular" font-size="28.0" fill="#000000" transform="matrix(1.00, 0.00, -0.00, -1.00, 216.4, 454.0)">t</text><text xml:space="preserve" font-family="Menlo-Regular" font-size="28.0" fill="#000000" transform="matrix(1.00, 0.00, -0.00, -1.00, 233.3, 454.0)"> </text><text xml:space="preserve" font-family="Menlo-Regular" font-size="28.0" fill="#000000" transform="matrix(1.00, 0.00, -0.00, -1.00, 250.2, 454.0)">a</text><text xml:space="preserve" font-family="Menlo-Regular" font-size="28.0" fill="#000000" transform="matrix(1.00, 0.00, -0.00, -1.00, 267.0, 454.0)">d</text><text xml:space="preserve" font-family="Menlo-Regular" font-size="28.0" fill="#000000" transform="matrix(1.00, 0.00, -0.00, -1.00, 283.9, 454.0)">d</text><text xml:space="preserve" font-family="Menlo-Regular" font-size="28.0" fill="#000000" transform="matrix(1.00, 0.00, -0.00, -1.00, 300.7, 454.0)"> </text><text xml:space="preserve" font-family="Menlo-Regular" font-size="28.0" fill="#000000" transform="matrix(1.00, 0.00, -0.00, -1.00, 317.6, 454.0)">s</text><text xml:space="preserve" font-family="Menlo-Regular" font-size="28.0" fill="#000000" transform="matrix(1.00, 0.00, -0.00, -1.00, 334.5, 454.0)">o</text><text xml:space="preserve" font-family="Menlo-Regular" font-size="28.0" fill="#000000" transform="matrix(1.00, 0.00, -0.00, -1.00, 351.3, 454.0)">m</text><text xml:space="preserve" font-family="Menlo-Regular" font-size="28.0" fill="#000000" transform="matrix(1.00, 0.00, -0.00, -1.00, 368.2, 454.0)">e</text><text xml:space="preserve" font-family="Menlo-Regular" font-size="28.0" fill="#000000" transform="matrix(1.00, 0.00, -0.00, -1.00, 385.0, 454.0)">-</text><text xml:space="preserve" font-family="Menlo-Regular" font-size="28.0" fill="#000000" transform="matrix(1.00, 0.00, -0.00, -1.00, 401.9, 454.0)">f</text><text xml:space="preserve" font-family="Menlo-Regular" font-size="28.0" fill="#000000" transform="matrix(1.00, 0.00, -0.00, -1.00, 418.8, 454.0)">i</text><text xml:space="preserve" font-family="Menlo-Regular" font-size="28.0" fill="#000000" transform="matrix(1.00, 0.00, -0.00, -1.00, 435.6, 454.0)">l</text><text xml:space="preserve" font-family="Menlo-Regular" font-size="28.0" fill="#000000" transform="matrix(1.00, 0.00, -0.00, -1.00, 452.5, 454.0)">e</text><text xml:space="preserve" font-family="Menlo-Regular" font-size="28.0" fill="#000000" transform="matrix(1.00, 0.00, -0.00, -1.00, 149.0, 388.0)">$</text><text xml:space="preserve" font-family="Menlo-Regular" font-size="28.0" fill="#000000" transform="matrix(1.00, 0.00, -0.00, -1.00, 165.9, 388.0)"> </text><text xml:space="preserve" font-family="Menlo-Regular" font-size="28.0" fill="#000000" transform="matrix(1.00, 0.00, -0.00, -1.00, 182.7, 388.0)">f</text><text xml:space="preserve" font-family="Menlo-Regular" font-size="28.0" fill="#000000" transform="matrix(1.00, 0.00, -0.00, -1.00, 199.6, 388.0)">i</text><text xml:space="preserve" font-family="Menlo-Regular" font-size="28.0" fill="#000000" transform="matrix(1.00, 0.00, -0.00, -1.00, 216.4, 388.0)">n</text><text xml:space="preserve" font-family="Menlo-Regular" font-size="28.0" fill="#000000" transform="matrix(1.00, 0.00, -0.00, -1.00, 233.3, 388.0)">d</text><text xml:space="preserve" font-family="Menlo-Regular" font-size="28.0" fill="#000000" transform="matrix(1.00, 0.00, -0.00, -1.00, 250.2, 388.0)"> </text><text xml:space="preserve" font-family="Menlo-Regular" font-size="28.0" fill="#000000" transform="matrix(1.00, 0.00, -0.00, -1.00, 267.0, 388.0)">.</text><text xml:space="preserve" font-family="Menlo-Regular" font-size="28.0" fill="#000000" transform="matrix(1.00, 0.00, -0.00, -1.00, 283.9, 388.0)">g</text><text xml:space="preserve" font-family="Menlo-Regular" font-size="28.0" fill="#000000" transform="matrix(1.00, 0.00, -0.00, -1.00, 300.7, 388.0)">i</text><text xml:space="preserve" font-family="Menlo-Regular" font-size="28.0" fill="#000000" transform="matrix(1.00, 0.00, -0.00, -1.00, 317.6, 388.0)">t</text><text xml:space="preserve" font-family="Menlo-Regular" font-size="28.0" fill="#000000" transform="matrix(1.00, 0.00, -0.00, -1.00, 334.5, 388.0)">/</text><text xml:space="preserve" font-family="Menlo-Regular" font-size="28.0" fill="#000000" transform="matrix(1.00, 0.00, -0.00, -1.00, 351.3, 388.0)">o</text><text xml:space="preserve" font-family="Menlo-Regular" font-size="28.0" fill="#000000" transform="matrix(1.00, 0.00, -0.00, -1.00, 368.2, 388.0)">b</text><text xml:space="preserve" font-family="Menlo-Regular" font-size="28.0" fill="#000000" transform="matrix(1.00, 0.00, -0.00, -1.00, 385.0, 388.0)">j</text><text xml:space="preserve" font-family="Menlo-Regular" font-size="28.0" fill="#000000" transform="matrix(1.00, 0.00, -0.00, -1.00, 401.9, 388.0)">e</text><text xml:space="preserve" font-family="Menlo-Regular" font-size="28.0" fill="#000000" transform="matrix(1.00, 0.00, -0.00, -1.00, 418.8, 388.0)">c</text><text xml:space="preserve" font-family="Menlo-Regular" font-size="28.0" fill="#000000" transform="matrix(1.00, 0.00, -0.00, -1.00, 435.6, 388.0)">t</text><text xml:space="preserve" font-family="Menlo-Regular" font-size="28.0" fill="#000000" transform="matrix(1.00, 0.00, -0.00, -1.00, 452.5, 388.0)">s</text><text xml:space="preserve" font-family="Menlo-Regular" font-size="28.0" fill="#000000" transform="matrix(1.00, 0.00, -0.00, -1.00, 469.3, 388.0)"> </text><text xml:space="preserve" font-family="Menlo-Regular" font-size="28.0" fill="#000000" transform="matrix(1.00, 0.00, -0.00, -1.00, 486.2, 388.0)">-</text><text xml:space="preserve" font-family="Menlo-Regular" font-size="28.0" fill="#000000" transform="matrix(1.00, 0.00, -0.00, -1.00, 503.1, 388.0)">t</text><text xml:space="preserve" font-family="Menlo-Regular" font-size="28.0" fill="#000000" transform="matrix(1.00, 0.00, -0.00, -1.00, 519.9, 388.0)">y</text><text xml:space="preserve" font-family="Menlo-Regular" font-size="28.0" fill="#000000" transform="matrix(1.00, 0.00, -0.00, -1.00, 536.8, 388.0)">p</text><text xml:space="preserve" font-family="Menlo-Regular" font-size="28.0" fill="#000000" transform="matrix(1.00, 0.00, -0.00, -1.00, 553.6, 388.0)">e</text><text xml:space="preserve" font-family="Menlo-Regular" font-size="28.0" fill="#000000" transform="matrix(1.00, 0.00, -0.00, -1.00, 570.5, 388.0)"> </text><text xml:space="preserve" font-family="Menlo-Regular" font-size="28.0" fill="#000000" transform="matrix(1.00, 0.00, -0.00, -1.00, 587.4, 388.0)">f</text><text xml:space="preserve" font-family="Menlo-Regular" font-size="28.0" fill="#000000" transform="matrix(1.00, 0.00, -0.00, -1.00, 149.0, 355.0)">.</text><text xml:space="preserve" font-family="Menlo-Regular" font-size="28.0" fill="#000000" transform="matrix(1.00, 0.00, -0.00, -1.00, 165.9, 355.0)">g</text><text xml:space="preserve" font-family="Menlo-Regular" font-size="28.0" fill="#000000" transform="matrix(1.00, 0.00, -0.00, -1.00, 182.7, 355.0)">i</text><text xml:space="preserve" font-family="Menlo-Regular" font-size="28.0" fill="#000000" transform="matrix(1.00, 0.00, -0.00, -1.00, 199.6, 355.0)">t</text><text xml:space="preserve" font-family="Menlo-Regular" font-size="28.0" fill="#000000" transform="matrix(1.00, 0.00, -0.00, -1.00, 216.4, 355.0)">/</text><text xml:space="preserve" font-family="Menlo-Regular" font-size="28.0" fill="#000000" transform="matrix(1.00, 0.00, -0.00, -1.00, 233.3, 355.0)">o</text><text xml:space="preserve" font-family="Menlo-Regular" font-size="28.0" fill="#000000" transform="matrix(1.00, 0.00, -0.00, -1.00, 250.2, 355.0)">b</text><text xml:space="preserve" font-family="Menlo-Regular" font-size="28.0" fill="#000000" transform="matrix(1.00, 0.00, -0.00, -1.00, 267.0, 355.0)">j</text><text xml:space="preserve" font-family="Menlo-Regular" font-size="28.0" fill="#000000" transform="matrix(1.00, 0.00, -0.00, -1.00, 283.9, 355.0)">e</text><text xml:space="preserve" font-family="Menlo-Regular" font-size="28.0" fill="#000000" transform="matrix(1.00, 0.00, -0.00, -1.00, 300.7, 355.0)">c</text><text xml:space="preserve" font-family="Menlo-Regular" font-size="28.0" fill="#000000" transform="matrix(1.00, 0.00, -0.00, -1.00, 317.6, 355.0)">t</text><text xml:space="preserve" font-family="Menlo-Regular" font-size="28.0" fill="#000000" transform="matrix(1.00, 0.00, -0.00, -1.00, 334.5, 355.0)">s</text><text xml:space="preserve" font-family="Menlo-Regular" font-size="28.0" fill="#000000" transform="matrix(1.00, 0.00, -0.00, -1.00, 351.3, 355.0)">/</text><text xml:space="preserve" font-family="Menlo-Regular" font-size="28.0" fill="#000000" transform="matrix(1.00, 0.00, -0.00, -1.00, 368.2, 355.0)">7</text><text xml:space="preserve" font-family="Menlo-Regular" font-size="28.0" fill="#000000" transform="matrix(1.00, 0.00, -0.00, -1.00, 385.0, 355.0)">a</text><text xml:space="preserve" font-family="Menlo-Regular" font-size="28.0" fill="#000000" transform="matrix(1.00, 0.00, -0.00, -1.00, 401.9, 355.0)">/</text><text xml:space="preserve" font-family="Menlo-Regular" font-size="28.0" fill="#000000" transform="matrix(1.00, 0.00, -0.00, -1.00, 418.8, 355.0)">1</text><text xml:space="preserve" font-family="Menlo-Regular" font-size="28.0" fill="#000000" transform="matrix(1.00, 0.00, -0.00, -1.00, 435.6, 355.0)">c</text><text xml:space="preserve" font-family="Menlo-Regular" font-size="28.0" fill="#000000" transform="matrix(1.00, 0.00, -0.00, -1.00, 452.5, 355.0)">6</text><text xml:space="preserve" font-family="Menlo-Regular" font-size="28.0" fill="#000000" transform="matrix(1.00, 0.00, -0.00, -1.00, 469.3, 355.0)">1</text><text xml:space="preserve" font-family="Menlo-Regular" font-size="28.0" fill="#000000" transform="matrix(1.00, 0.00, -0.00, -1.00, 486.2, 355.0)">3</text><text xml:space="preserve" font-family="Menlo-Regular" font-size="28.0" fill="#000000" transform="matrix(1.00, 0.00, -0.00, -1.00, 503.1, 355.0)">0</text><text xml:space="preserve" font-family="Menlo-Regular" font-size="28.0" fill="#000000" transform="matrix(1.00, 0.00, -0.00, -1.00, 519.9, 355.0)">c</text><text xml:space="preserve" font-family="Menlo-Regular" font-size="28.0" fill="#000000" transform="matrix(1.00, 0.00, -0.00, -1.00, 536.8, 355.0)">6</text><text xml:space="preserve" font-family="Menlo-Regular" font-size="28.0" fill="#000000" transform="matrix(1.00, 0.00, -0.00, -1.00, 553.6, 355.0)">5</text><text xml:space="preserve" font-family="Menlo-Regular" font-size="28.0" fill="#000000" transform="matrix(1.00, 0.00, -0.00, -1.00, 570.5, 355.0)">2</text><text xml:space="preserve" font-family="Menlo-Regular" font-size="28.0" fill="#000000" transform="matrix(1.00, 0.00, -0.00, -1.00, 587.4, 355.0)">b</text><text xml:space="preserve" font-family="Menlo-Regular" font-size="28.0" fill="#000000" transform="matrix(1.00, 0.00, -0.00, -1.00, 604.2, 355.0)">6</text><text xml:space="preserve" font-family="Menlo-Regular" font-size="28.0" fill="#000000" transform="matrix(1.00, 0.00, -0.00, -1.00, 621.1, 355.0)">e</text><text xml:space="preserve" font-family="Menlo-Regular" font-size="28.0" fill="#000000" transform="matrix(1.00, 0.00, -0.00, -1.00, 637.9, 355.0)">a</text><text xml:space="preserve" font-family="Menlo-Regular" font-size="28.0" fill="#000000" transform="matrix(1.00, 0.00, -0.00, -1.00, 654.8, 355.0)">9</text><text xml:space="preserve" font-family="Menlo-Regular" font-size="28.0" fill="#000000" transform="matrix(1.00, 0.00, -0.00, -1.00, 671.7, 355.0)">2</text><text xml:space="preserve" font-family="Menlo-Regular" font-size="28.0" fill="#000000" transform="matrix(1.00, 0.00, -0.00, -1.00, 688.5, 355.0)">f</text><text xml:space="preserve" font-family="Menlo-Regular" font-size="28.0" fill="#000000" transform="matrix(1.00, 0.00, -0.00, -1.00, 705.4, 355.0)">.</text><text xml:space="preserve" font-family="Menlo-Regular" font-size="28.0" fill="#000000" transform="matrix(1.00, 0.00, -0.00, -1.00, 722.2, 355.0)">.</text><text xml:space="preserve" font-family="Menlo-Regular" font-size="28.0" fill="#000000" transform="matrix(1.00, 0.00, -0.00, -1.00, 739.1, 355.0)">.</text><text xml:space="preserve" font-family="Menlo-Regular" font-size="28.0" fill="#000000" transform="matrix(1.00, 0.00, -0.00, -1.00, 149.0, 322.0)">.</text><text xml:space="preserve" font-family="Menlo-Regular" font-size="28.0" fill="#000000" transform="matrix(1.00, 0.00, -0.00, -1.00, 165.9, 322.0)">g</text><text xml:space="preserve" font-family="Menlo-Regular" font-size="28.0" fill="#000000" transform="matrix(1.00, 0.00, -0.00, -1.00, 182.7, 322.0)">i</text><text xml:space="preserve" font-family="Menlo-Regular" font-size="28.0" fill="#000000" transform="matrix(1.00, 0.00, -0.00, -1.00, 199.6, 322.0)">t</text><text xml:space="preserve" font-family="Menlo-Regular" font-size="28.0" fill="#000000" transform="matrix(1.00, 0.00, -0.00, -1.00, 216.4, 322.0)">/</text><text xml:space="preserve" font-family="Menlo-Regular" font-size="28.0" fill="#000000" transform="matrix(1.00, 0.00, -0.00, -1.00, 233.3, 322.0)">o</text><text xml:space="preserve" font-family="Menlo-Regular" font-size="28.0" fill="#000000" transform="matrix(1.00, 0.00, -0.00, -1.00, 250.2, 322.0)">b</text><text xml:space="preserve" font-family="Menlo-Regular" font-size="28.0" fill="#000000" transform="matrix(1.00, 0.00, -0.00, -1.00, 267.0, 322.0)">j</text><text xml:space="preserve" font-family="Menlo-Regular" font-size="28.0" fill="#000000" transform="matrix(1.00, 0.00, -0.00, -1.00, 283.9, 322.0)">e</text><text xml:space="preserve" font-family="Menlo-Regular" font-size="28.0" fill="#000000" transform="matrix(1.00, 0.00, -0.00, -1.00, 300.7, 322.0)">c</text><text xml:space="preserve" font-family="Menlo-Regular" font-size="28.0" fill="#000000" transform="matrix(1.00, 0.00, -0.00, -1.00, 317.6, 322.0)">t</text><text xml:space="preserve" font-family="Menlo-Regular" font-size="28.0" fill="#000000" transform="matrix(1.00, 0.00, -0.00, -1.00, 334.5, 322.0)">s</text><text xml:space="preserve" font-family="Menlo-Regular" font-size="28.0" fill="#000000" transform="matrix(1.00, 0.00, -0.00, -1.00, 351.3, 322.0)">/</text><text xml:space="preserve" font-family="Menlo-Regular" font-size="28.0" fill="#000000" transform="matrix(1.00, 0.00, -0.00, -1.00, 368.2, 322.0)">f</text><text xml:space="preserve" font-family="Menlo-Regular" font-size="28.0" fill="#000000" transform="matrix(1.00, 0.00, -0.00, -1.00, 385.0, 322.0)">d</text><text xml:space="preserve" font-family="Menlo-Regular" font-size="28.0" fill="#000000" transform="matrix(1.00, 0.00, -0.00, -1.00, 401.9, 322.0)">/</text><text xml:space="preserve" font-family="Menlo-Regular" font-size="28.0" fill="#000000" transform="matrix(1.00, 0.00, -0.00, -1.00, 418.8, 322.0)">4</text><text xml:space="preserve" font-family="Menlo-Regular" font-size="28.0" fill="#000000" transform="matrix(1.00, 0.00, -0.00, -1.00, 435.6, 322.0)">8</text><text xml:space="preserve" font-family="Menlo-Regular" font-size="28.0" fill="#000000" transform="matrix(1.00, 0.00, -0.00, -1.00, 452.5, 322.0)">0</text><text xml:space="preserve" font-family="Menlo-Regular" font-size="28.0" fill="#000000" transform="matrix(1.00, 0.00, -0.00, -1.00, 469.3, 322.0)">b</text><text xml:space="preserve" font-family="Menlo-Regular" font-size="28.0" fill="#000000" transform="matrix(1.00, 0.00, -0.00, -1.00, 486.2, 322.0)">8</text><text xml:space="preserve" font-family="Menlo-Regular" font-size="28.0" fill="#000000" transform="matrix(1.00, 0.00, -0.00, -1.00, 503.1, 322.0)">5</text><text xml:space="preserve" font-family="Menlo-Regular" font-size="28.0" fill="#000000" transform="matrix(1.00, 0.00, -0.00, -1.00, 519.9, 322.0)">9</text><text xml:space="preserve" font-family="Menlo-Regular" font-size="28.0" fill="#000000" transform="matrix(1.00, 0.00, -0.00, -1.00, 536.8, 322.0)">3</text><text xml:space="preserve" font-family="Menlo-Regular" font-size="28.0" fill="#000000" transform="matrix(1.00, 0.00, -0.00, -1.00, 553.6, 322.0)">f</text><text xml:space="preserve" font-family="Menlo-Regular" font-size="28.0" fill="#000000" transform="matrix(1.00, 0.00, -0.00, -1.00, 570.5, 322.0)">4</text><text xml:space="preserve" font-family="Menlo-Regular" font-size="28.0" fill="#000000" transform="matrix(1.00, 0.00, -0.00, -1.00, 587.4, 322.0)">d</text><text xml:space="preserve" font-family="Menlo-Regular" font-size="28.0" fill="#000000" transform="matrix(1.00, 0.00, -0.00, -1.00, 604.2, 322.0)">d</text><text xml:space="preserve" font-family="Menlo-Regular" font-size="28.0" fill="#000000" transform="matrix(1.00, 0.00, -0.00, -1.00, 621.1, 322.0)">2</text><text xml:space="preserve" font-family="Menlo-Regular" font-size="28.0" fill="#000000" transform="matrix(1.00, 0.00, -0.00, -1.00, 637.9, 322.0)">4</text><text xml:space="preserve" font-family="Menlo-Regular" font-size="28.0" fill="#000000" transform="matrix(1.00, 0.00, -0.00, -1.00, 654.8, 322.0)">7</text><text xml:space="preserve" font-family="Menlo-Regular" font-size="28.0" fill="#000000" transform="matrix(1.00, 0.00, -0.00, -1.00, 671.7, 322.0)">3</text><text xml:space="preserve" font-family="Menlo-Regular" font-size="28.0" fill="#000000" transform="matrix(1.00, 0.00, -0.00, -1.00, 688.5, 322.0)">3</text><text xml:space="preserve" font-family="Menlo-Regular" font-size="28.0" fill="#000000" transform="matrix(1.00, 0.00, -0.00, -1.00, 705.3, 322.0)">.</text><text xml:space="preserve" font-family="Menlo-Regular" font-size="28.0" fill="#000000" transform="matrix(1.00, 0.00, -0.00, -1.00, 722.2, 322.0)">.</text><text xml:space="preserve" font-family="Menlo-Regular" font-size="28.0" fill="#000000" transform="matrix(1.00, 0.00, -0.00, -1.00, 739.0, 322.0)">.</text><text xml:space="preserve" font-family="Menlo-Regular" font-size="28.0" fill="#000000" transform="matrix(1.00, 0.00, -0.00, -1.00, 149.0, 256.0)">$</text><text xml:space="preserve" font-family="Menlo-Regular" font-size="28.0" fill="#000000" transform="matrix(1.00, 0.00, -0.00, -1.00, 165.9, 256.0)"> </text><text xml:space="preserve" font-family="Menlo-Regular" font-size="28.0" fill="#000000" transform="matrix(1.00, 0.00, -0.00, -1.00, 182.7, 256.0)">g</text><text xml:space="preserve" font-family="Menlo-Regular" font-size="28.0" fill="#000000" transform="matrix(1.00, 0.00, -0.00, -1.00, 199.6, 256.0)">i</text><text xml:space="preserve" font-family="Menlo-Regular" font-size="28.0" fill="#000000" transform="matrix(1.00, 0.00, -0.00, -1.00, 216.4, 256.0)">t</text><text xml:space="preserve" font-family="Menlo-Regular" font-size="28.0" fill="#000000" transform="matrix(1.00, 0.00, -0.00, -1.00, 233.3, 256.0)"> </text><text xml:space="preserve" font-family="Menlo-Regular" font-size="28.0" fill="#000000" transform="matrix(1.00, 0.00, -0.00, -1.00, 250.2, 256.0)">c</text><text xml:space="preserve" font-family="Menlo-Regular" font-size="28.0" fill="#000000" transform="matrix(1.00, 0.00, -0.00, -1.00, 267.0, 256.0)">a</text><text xml:space="preserve" font-family="Menlo-Regular" font-size="28.0" fill="#000000" transform="matrix(1.00, 0.00, -0.00, -1.00, 283.9, 256.0)">t</text><text xml:space="preserve" font-family="Menlo-Regular" font-size="28.0" fill="#000000" transform="matrix(1.00, 0.00, -0.00, -1.00, 300.7, 256.0)">-</text><text xml:space="preserve" font-family="Menlo-Regular" font-size="28.0" fill="#000000" transform="matrix(1.00, 0.00, -0.00, -1.00, 317.6, 256.0)">f</text><text xml:space="preserve" font-family="Menlo-Regular" font-size="28.0" fill="#000000" transform="matrix(1.00, 0.00, -0.00, -1.00, 334.5, 256.0)">i</text><text xml:space="preserve" font-family="Menlo-Regular" font-size="28.0" fill="#000000" transform="matrix(1.00, 0.00, -0.00, -1.00, 351.3, 256.0)">l</text><text xml:space="preserve" font-family="Menlo-Regular" font-size="28.0" fill="#000000" transform="matrix(1.00, 0.00, -0.00, -1.00, 368.2, 256.0)">e</text><text xml:space="preserve" font-family="Menlo-Regular" font-size="28.0" fill="#000000" transform="matrix(1.00, 0.00, -0.00, -1.00, 385.0, 256.0)"> </text><text xml:space="preserve" font-family="Menlo-Regular" font-size="28.0" fill="#000000" transform="matrix(1.00, 0.00, -0.00, -1.00, 401.9, 256.0)">-</text><text xml:space="preserve" font-family="Menlo-Regular" font-size="28.0" fill="#000000" transform="matrix(1.00, 0.00, -0.00, -1.00, 418.8, 256.0)">p</text><text xml:space="preserve" font-family="Menlo-Regular" font-size="28.0" fill="#000000" transform="matrix(1.00, 0.00, -0.00, -1.00, 435.6, 256.0)"> </text><text xml:space="preserve" font-family="Menlo-Regular" font-size="28.0" fill="#000000" transform="matrix(1.00, 0.00, -0.00, -1.00, 452.5, 256.0)">7</text><text xml:space="preserve" font-family="Menlo-Regular" font-size="28.0" fill="#000000" transform="matrix(1.00, 0.00, -0.00, -1.00, 469.3, 256.0)">a</text><text xml:space="preserve" font-family="Menlo-Regular" font-size="28.0" fill="#000000" transform="matrix(1.00, 0.00, -0.00, -1.00, 486.2, 256.0)">1</text><text xml:space="preserve" font-family="Menlo-Regular" font-size="28.0" fill="#000000" transform="matrix(1.00, 0.00, -0.00, -1.00, 503.1, 256.0)">c</text><text xml:space="preserve" font-family="Menlo-Regular" font-size="28.0" fill="#000000" transform="matrix(1.00, 0.00, -0.00, -1.00, 519.9, 256.0)">6</text><text xml:space="preserve" font-family="Menlo-Regular" font-size="28.0" fill="#000000" transform="matrix(1.00, 0.00, -0.00, -1.00, 536.8, 256.0)">1</text><text xml:space="preserve" font-family="Menlo-Regular" font-size="28.0" fill="#000000" transform="matrix(1.00, 0.00, -0.00, -1.00, 149.0, 223.0)">s</text><text xml:space="preserve" font-family="Menlo-Regular" font-size="28.0" fill="#000000" transform="matrix(1.00, 0.00, -0.00, -1.00, 165.9, 223.0)">o</text><text xml:space="preserve" font-family="Menlo-Regular" font-size="28.0" fill="#000000" transform="matrix(1.00, 0.00, -0.00, -1.00, 182.7, 223.0)">m</text><text xml:space="preserve" font-family="Menlo-Regular" font-size="28.0" fill="#000000" transform="matrix(1.00, 0.00, -0.00, -1.00, 199.6, 223.0)">e</text><text xml:space="preserve" font-family="Menlo-Regular" font-size="28.0" fill="#000000" transform="matrix(1.00, 0.00, -0.00, -1.00, 216.4, 223.0)"> </text><text xml:space="preserve" font-family="Menlo-Regular" font-size="28.0" fill="#000000" transform="matrix(1.00, 0.00, -0.00, -1.00, 233.3, 223.0)">f</text><text xml:space="preserve" font-family="Menlo-Regular" font-size="28.0" fill="#000000" transform="matrix(1.00, 0.00, -0.00, -1.00, 250.2, 223.0)">i</text><text xml:space="preserve" font-family="Menlo-Regular" font-size="28.0" fill="#000000" transform="matrix(1.00, 0.00, -0.00, -1.00, 267.0, 223.0)">l</text><text xml:space="preserve" font-family="Menlo-Regular" font-size="28.0" fill="#000000" transform="matrix(1.00, 0.00, -0.00, -1.00, 283.9, 223.0)">e</text><text xml:space="preserve" font-family="Menlo-Regular" font-size="28.0" fill="#000000" transform="matrix(1.00, 0.00, -0.00, -1.00, 149.0, 157.0)">$</text><text xml:space="preserve" font-family="Menlo-Regular" font-size="28.0" fill="#000000" transform="matrix(1.00, 0.00, -0.00, -1.00, 165.9, 157.0)"> </text><text xml:space="preserve" font-family="Menlo-Regular" font-size="28.0" fill="#000000" transform="matrix(1.00, 0.00, -0.00, -1.00, 182.7, 157.0)">g</text><text xml:space="preserve" font-family="Menlo-Regular" font-size="28.0" fill="#000000" transform="matrix(1.00, 0.00, -0.00, -1.00, 199.6, 157.0)">i</text><text xml:space="preserve" font-family="Menlo-Regular" font-size="28.0" fill="#000000" transform="matrix(1.00, 0.00, -0.00, -1.00, 216.4, 157.0)">t</text><text xml:space="preserve" font-family="Menlo-Regular" font-size="28.0" fill="#000000" transform="matrix(1.00, 0.00, -0.00, -1.00, 233.3, 157.0)"> </text><text xml:space="preserve" font-family="Menlo-Regular" font-size="28.0" fill="#000000" transform="matrix(1.00, 0.00, -0.00, -1.00, 250.2, 157.0)">l</text><text xml:space="preserve" font-family="Menlo-Regular" font-size="28.0" fill="#000000" transform="matrix(1.00, 0.00, -0.00, -1.00, 267.0, 157.0)">s</text><text xml:space="preserve" font-family="Menlo-Regular" font-size="28.0" fill="#000000" transform="matrix(1.00, 0.00, -0.00, -1.00, 283.9, 157.0)">-</text><text xml:space="preserve" font-family="Menlo-Regular" font-size="28.0" fill="#000000" transform="matrix(1.00, 0.00, -0.00, -1.00, 300.7, 157.0)">f</text><text xml:space="preserve" font-family="Menlo-Regular" font-size="28.0" fill="#000000" transform="matrix(1.00, 0.00, -0.00, -1.00, 317.6, 157.0)">i</text><text xml:space="preserve" font-family="Menlo-Regular" font-size="28.0" fill="#000000" transform="matrix(1.00, 0.00, -0.00, -1.00, 334.5, 157.0)">l</text><text xml:space="preserve" font-family="Menlo-Regular" font-size="28.0" fill="#000000" transform="matrix(1.00, 0.00, -0.00, -1.00, 351.3, 157.0)">e</text><text xml:space="preserve" font-family="Menlo-Regular" font-size="28.0" fill="#000000" transform="matrix(1.00, 0.00, -0.00, -1.00, 368.2, 157.0)">s</text><text xml:space="preserve" font-family="Menlo-Regular" font-size="28.0" fill="#000000" transform="matrix(1.00, 0.00, -0.00, -1.00, 385.0, 157.0)"> </text><text xml:space="preserve" font-family="Menlo-Regular" font-size="28.0" fill="#000000" transform="matrix(1.00, 0.00, -0.00, -1.00, 401.9, 157.0)">-</text><text xml:space="preserve" font-family="Menlo-Regular" font-size="28.0" fill="#000000" transform="matrix(1.00, 0.00, -0.00, -1.00, 418.8, 157.0)">-</text><text xml:space="preserve" font-family="Menlo-Regular" font-size="28.0" fill="#000000" transform="matrix(1.00, 0.00, -0.00, -1.00, 435.6, 157.0)">s</text><text xml:space="preserve" font-family="Menlo-Regular" font-size="28.0" fill="#000000" transform="matrix(1.00, 0.00, -0.00, -1.00, 452.5, 157.0)">t</text><text xml:space="preserve" font-family="Menlo-Regular" font-size="28.0" fill="#000000" transform="matrix(1.00, 0.00, -0.00, -1.00, 469.3, 157.0)">a</text><text xml:space="preserve" font-family="Menlo-Regular" font-size="28.0" fill="#000000" transform="matrix(1.00, 0.00, -0.00, -1.00, 486.2, 157.0)">g</text><text xml:space="preserve" font-family="Menlo-Regular" font-size="28.0" fill="#000000" transform="matrix(1.00, 0.00, -0.00, -1.00, 503.1, 157.0)">e</text><text xml:space="preserve" font-family="Menlo-Regular" font-size="28.0" fill="#000000" transform="matrix(1.00, 0.00, -0.00, -1.00, 149.0, 124.0)">1</text><text xml:space="preserve" font-family="Menlo-Regular" font-size="28.0" fill="#000000" transform="matrix(1.00, 0.00, -0.00, -1.00, 165.9, 124.0)">0</text><text xml:space="preserve" font-family="Menlo-Regular" font-size="28.0" fill="#000000" transform="matrix(1.00, 0.00, -0.00, -1.00, 182.7, 124.0)">0</text><text xml:space="preserve" font-family="Menlo-Regular" font-size="28.0" fill="#000000" transform="matrix(1.00, 0.00, -0.00, -1.00, 199.6, 124.0)">6</text><text xml:space="preserve" font-family="Menlo-Regular" font-size="28.0" fill="#000000" transform="matrix(1.00, 0.00, -0.00, -1.00, 216.4, 124.0)">4</text><text xml:space="preserve" font-family="Menlo-Regular" font-size="28.0" fill="#000000" transform="matrix(1.00, 0.00, -0.00, -1.00, 233.3, 124.0)">4</text><text xml:space="preserve" font-family="Menlo-Regular" font-size="28.0" fill="#000000" transform="matrix(1.00, 0.00, -0.00, -1.00, 250.2, 124.0)"> </text><text xml:space="preserve" font-family="Menlo-Regular" font-size="28.0" fill="#000000" transform="matrix(1.00, 0.00, -0.00, -1.00, 267.0, 124.0)">7</text><text xml:space="preserve" font-family="Menlo-Regular" font-size="28.0" fill="#000000" transform="matrix(1.00, 0.00, -0.00, -1.00, 283.9, 124.0)">a</text><text xml:space="preserve" font-family="Menlo-Regular" font-size="28.0" fill="#000000" transform="matrix(1.00, 0.00, -0.00, -1.00, 300.7, 124.0)">1</text><text xml:space="preserve" font-family="Menlo-Regular" font-size="28.0" fill="#000000" transform="matrix(1.00, 0.00, -0.00, -1.00, 317.6, 124.0)">c</text><text xml:space="preserve" font-family="Menlo-Regular" font-size="28.0" fill="#000000" transform="matrix(1.00, 0.00, -0.00, -1.00, 334.5, 124.0)">6</text><text xml:space="preserve" font-family="Menlo-Regular" font-size="28.0" fill="#000000" transform="matrix(1.00, 0.00, -0.00, -1.00, 351.3, 124.0)">1</text><text xml:space="preserve" font-family="Menlo-Regular" font-size="28.0" fill="#000000" transform="matrix(1.00, 0.00, -0.00, -1.00, 368.2, 124.0)">3</text><text xml:space="preserve" font-family="Menlo-Regular" font-size="28.0" fill="#000000" transform="matrix(1.00, 0.00, -0.00, -1.00, 385.0, 124.0)">0</text><text xml:space="preserve" font-family="Menlo-Regular" font-size="28.0" fill="#000000" transform="matrix(1.00, 0.00, -0.00, -1.00, 401.9, 124.0)">c</text><text xml:space="preserve" font-family="Menlo-Regular" font-size="28.0" fill="#000000" transform="matrix(1.00, 0.00, -0.00, -1.00, 418.8, 124.0)">6</text><text xml:space="preserve" font-family="Menlo-Regular" font-size="28.0" fill="#000000" transform="matrix(1.00, 0.00, -0.00, -1.00, 435.6, 124.0)">5</text><text xml:space="preserve" font-family="Menlo-Regular" font-size="28.0" fill="#000000" transform="matrix(1.00, 0.00, -0.00, -1.00, 452.5, 124.0)">2</text><text xml:space="preserve" font-family="Menlo-Regular" font-size="28.0" fill="#000000" transform="matrix(1.00, 0.00, -0.00, -1.00, 469.3, 124.0)">b</text><text xml:space="preserve" font-family="Menlo-Regular" font-size="28.0" fill="#000000" transform="matrix(1.00, 0.00, -0.00, -1.00, 486.2, 124.0)">6</text><text xml:space="preserve" font-family="Menlo-Regular" font-size="28.0" fill="#000000" transform="matrix(1.00, 0.00, -0.00, -1.00, 503.1, 124.0)">e</text><text xml:space="preserve" font-family="Menlo-Regular" font-size="28.0" fill="#000000" transform="matrix(1.00, 0.00, -0.00, -1.00, 519.9, 124.0)">a</text><text xml:space="preserve" font-family="Menlo-Regular" font-size="28.0" fill="#000000" transform="matrix(1.00, 0.00, -0.00, -1.00, 536.8, 124.0)">9</text><text xml:space="preserve" font-family="Menlo-Regular" font-size="28.0" fill="#000000" transform="matrix(1.00, 0.00, -0.00, -1.00, 553.6, 124.0)">2</text><text xml:space="preserve" font-family="Menlo-Regular" font-size="28.0" fill="#000000" transform="matrix(1.00, 0.00, -0.00, -1.00, 570.5, 124.0)">f</text><text xml:space="preserve" font-family="Menlo-Regular" font-size="28.0" fill="#000000" transform="matrix(1.00, 0.00, -0.00, -1.00, 587.4, 124.0)">.</text><text xml:space="preserve" font-family="Menlo-Regular" font-size="28.0" fill="#000000" transform="matrix(1.00, 0.00, -0.00, -1.00, 604.2, 124.0)">.</text><text xml:space="preserve" font-family="Menlo-Regular" font-size="28.0" fill="#000000" transform="matrix(1.00, 0.00, -0.00, -1.00, 621.1, 124.0)">.</text><text xml:space="preserve" font-family="Menlo-Regular" font-size="28.0" fill="#000000" transform="matrix(1.00, 0.00, -0.00, -1.00, 637.9, 124.0)"> </text><text xml:space="preserve" font-family="Menlo-Regular" font-size="28.0" fill="#000000" transform="matrix(1.00, 0.00, -0.00, -1.00, 654.7, 124.0)">0</text><text xml:space="preserve" font-family="Menlo-Regular" font-size="28.0" fill="#000000" transform="matrix(1.00, 0.00, -0.00, -1.00, 671.6, 124.0)"> </text><text xml:space="preserve" font-family="Menlo-Regular" font-size="28.0" fill="#000000" transform="matrix(1.00, 0.00, -0.00, -1.00, 688.4, 124.0)"> </text><text xml:space="preserve" font-family="Menlo-Regular" font-size="28.0" fill="#000000" transform="matrix(1.00, 0.00, -0.00, -1.00, 705.3, 124.0)"> </text><text xml:space="preserve" font-family="Menlo-Regular" font-size="28.0" fill="#000000" transform="matrix(1.00, 0.00, -0.00, -1.00, 722.2, 124.0)">s</text><text xml:space="preserve" font-family="Menlo-Regular" font-size="28.0" fill="#000000" transform="matrix(1.00, 0.00, -0.00, -1.00, 739.0, 124.0)">o</text><text xml:space="preserve" font-family="Menlo-Regular" font-size="28.0" fill="#000000" transform="matrix(1.00, 0.00, -0.00, -1.00, 755.9, 124.0)">m</text><text xml:space="preserve" font-family="Menlo-Regular" font-size="28.0" fill="#000000" transform="matrix(1.00, 0.00, -0.00, -1.00, 772.7, 124.0)">e</text><text xml:space="preserve" font-family="Menlo-Regular" font-size="28.0" fill="#000000" transform="matrix(1.00, 0.00, -0.00, -1.00, 789.6, 124.0)">-</text><text xml:space="preserve" font-family="Menlo-Regular" font-size="28.0" fill="#000000" transform="matrix(1.00, 0.00, -0.00, -1.00, 806.5, 124.0)">f</text><text xml:space="preserve" font-family="Menlo-Regular" font-size="28.0" fill="#000000" transform="matrix(1.00, 0.00, -0.00, -1.00, 823.3, 124.0)">i</text><text xml:space="preserve" font-family="Menlo-Regular" font-size="28.0" fill="#000000" transform="matrix(1.00, 0.00, -0.00, -1.00, 840.2, 124.0)">l</text><text xml:space="preserve" font-family="Menlo-Regular" font-size="28.0" fill="#000000" transform="matrix(1.00, 0.00, -0.00, -1.00, 857.0, 124.0)">e</text></g></svg>