<?xml version="1.0" encoding="UTF-8" standalone="no"?><svg xmlns="http://www.w3.org/2000/svg" xmlns:xlink="http://www.w3.org/1999/xlink" clip-rule="evenodd" stroke-miterlimit="4.00" viewBox="0 0 992 664"><desc>SVG generated by Keynote</desc><defs></defs><g transform="matrix(1.00, 0.00, -0.00, -1.00, 0.0, 664.0)"><g><clipPath id="clip-84"><path d="M 1.0 1.0 L 991.0 1.0 L 991.0 663.0 L 1.0 663.0 Z M 1.0 1.0 "></path></clipPath><g clip-path="url(#clip-84)"><path d="M 16.8 52.6 L 66.3 52.6 C 73.1 52.6 78.7 47.1 78.7 40.2 L 78.7 15.5 C 78.7 8.6 73.1 3.1 66.3 3.1 L 16.8 3.1 C 10.0 3.1 4.4 8.6 4.4 15.5 L 4.4 40.2 C 4.4 47.1 10.0 52.6 16.8 52.6 Z M 16.8 52.6 " fill="#A0C4C8"></path><path d="M 27.5 494.5 L 63.5 494.5 C 68.5 494.5 72.5 498.5 72.5 503.5 L 72.5 521.5 C 72.5 526.5 68.5 530.5 63.5 530.5 L 27.5 530.5 C 22.5 530.5 18.5 526.5 18.5 521.5 L 18.5 503.5 C 18.5 498.5 22.5 494.5 27.5 494.5 Z M 27.5 494.5 " fill="none" stroke="#000000" stroke-width="0.25" stroke-miterlimit="0.00" stroke-linecap="round" stroke-linejoin="round" transform="matrix(1.38, 0.00, 0.00, -1.38, -21.0, 733.2)"></path><text xml:space="preserve" font-family="CourierNewPSMT" font-size="16.0" fill="#000000" transform="matrix(1.38, 0.00, -0.00, -1.38, 14.5, 23.2)">H</text><text xml:space="preserve" font-family="CourierNewPSMT" font-size="16.0" fill="#000000" transform="matrix(1.38, 0.00, -0.00, -1.38, 27.7, 23.2)">E</text><text xml:space="preserve" font-family="CourierNewPSMT" font-size="16.0" fill="#000000" transform="matrix(1.38, 0.00, -0.00, -1.38, 40.9, 23.2)">A</text><text xml:space="preserve" font-family="CourierNewPSMT" font-size="16.0" fill="#000000" transform="matrix(1.38, 0.00, -0.00, -1.38, 54.1, 23.2)">D</text><path d="M 16.8 144.8 L 115.8 144.8 C 122.6 144.8 128.2 139.3 128.2 132.4 L 128.2 107.7 C 128.2 100.8 122.6 95.3 115.8 95.3 L 16.8 95.3 C 10.0 95.3 4.4 100.8 4.4 107.7 L 4.4 132.4 C 4.4 139.3 10.0 144.8 16.8 144.8 Z M 16.8 144.8 " fill="#A0C4C8"></path><path d="M 27.5 427.5 L 99.5 427.5 C 104.5 427.5 108.5 431.5 108.5 436.5 L 108.5 454.5 C 108.5 459.5 104.5 463.5 99.5 463.5 L 27.5 463.5 C 22.5 463.5 18.5 459.5 18.5 454.5 L 18.5 436.5 C 18.5 431.5 22.5 427.5 27.5 427.5 Z M 27.5 427.5 " fill="none" stroke="#000000" stroke-width="0.25" stroke-miterlimit="0.00" stroke-linecap="round" stroke-linejoin="round" transform="matrix(1.38, 0.00, 0.00, -1.38, -21.0, 733.2)"></path><text xml:space="preserve" font-family="CourierNewPSMT" font-size="16.0" fill="#000000" transform="matrix(1.38, 0.00, -0.00, -1.38, 26.0, 114.5)">m</text><text xml:space="preserve" font-family="CourierNewPSMT" font-size="16.0" fill="#000000" transform="matrix(1.38, 0.00, -0.00, -1.38, 39.2, 114.5)">a</text><text xml:space="preserve" font-family="CourierNewPSMT" font-size="16.0" fill="#000000" transform="matrix(1.38, 0.00, -0.00, -1.38, 52.4, 114.5)">s</text><text xml:space="preserve" font-family="CourierNewPSMT" font-size="16.0" fill="#000000" transform="matrix(1.38, 0.00, -0.00, -1.38, 65.6, 114.5)">t</text><text xml:space="preserve" font-family="CourierNewPSMT" font-size="16.0" fill="#000000" transform="matrix(1.38, 0.00, -0.00, -1.38, 78.8, 114.5)">e</text><text xml:space="preserve" font-family="CourierNewPSMT" font-size="16.0" fill="#000000" transform="matrix(1.38, 0.00, -0.00, -1.38, 92.0, 114.5)">r</text><path d="M 147.4 535.7 L 246.4 535.7 C 253.3 535.7 258.8 530.1 258.8 523.3 L 258.8 498.5 C 258.8 491.7 253.3 486.1 246.4 486.1 L 147.4 486.1 C 140.6 486.1 135.1 491.7 135.1 498.5 L 135.1 523.3 C 135.1 530.1 140.6 535.7 147.4 535.7 Z M 147.4 535.7 " fill="#FEFCD3"></path><path d="M 122.5 143.5 L 194.5 143.5 C 199.5 143.5 203.5 147.5 203.5 152.5 L 203.5 170.5 C 203.5 175.5 199.5 179.5 194.5 179.5 L 122.5 179.5 C 117.5 179.5 113.5 175.5 113.5 170.5 L 113.5 152.5 C 113.5 147.5 117.5 143.5 122.5 143.5 Z M 122.5 143.5 " fill="none" stroke="#000000" stroke-width="0.25" stroke-miterlimit="0.00" stroke-linecap="round" stroke-linejoin="round" transform="matrix(1.38, 0.00, 0.00, -1.38, -21.0, 733.2)"></path><text xml:space="preserve" font-family="CourierNewPSMT" font-size="16.0" fill="#000000" transform="matrix(1.38, 0.00, -0.00, -1.38, 140.9, 505.4)">0</text><text xml:space="preserve" font-family="CourierNewPSMT" font-size="16.0" fill="#000000" transform="matrix(1.38, 0.00, -0.00, -1.38, 154.2, 505.4)">5</text><text xml:space="preserve" font-family="CourierNewPSMT" font-size="16.0" fill="#000000" transform="matrix(1.38, 0.00, -0.00, -1.38, 167.4, 505.4)">d</text><text xml:space="preserve" font-family="CourierNewPSMT" font-size="16.0" fill="#000000" transform="matrix(1.38, 0.00, -0.00, -1.38, 180.6, 505.4)">7</text><text xml:space="preserve" font-family="CourierNewPSMT" font-size="16.0" fill="#000000" transform="matrix(1.38, 0.00, -0.00, -1.38, 193.8, 505.4)">d</text><text xml:space="preserve" font-family="CourierNewPSMT" font-size="16.0" fill="#000000" transform="matrix(1.38, 0.00, -0.00, -1.38, 207.0, 505.4)">a</text><text xml:space="preserve" font-family="CourierNewPSMT" font-size="16.0" fill="#000000" transform="matrix(1.38, 0.00, -0.00, -1.38, 220.2, 505.4)">2</text><path d="M 320.7 535.7 L 419.7 535.7 C 426.5 535.7 432.1 530.1 432.1 523.3 L 432.1 498.5 C 432.1 491.7 426.5 486.1 419.7 486.1 L 320.7 486.1 C 313.9 486.1 308.3 491.7 308.3 498.5 L 308.3 523.3 C 308.3 530.1 313.9 535.7 320.7 535.7 Z M 320.7 535.7 " fill="#ADD0AB"></path><path d="M 248.5 143.5 L 320.5 143.5 C 325.5 143.5 329.5 147.5 329.5 152.5 L 329.5 170.5 C 329.5 175.5 325.5 179.5 320.5 179.5 L 248.5 179.5 C 243.5 179.5 239.5 175.5 239.5 170.5 L 239.5 152.5 C 239.5 147.5 243.5 143.5 248.5 143.5 Z M 248.5 143.5 " fill="none" stroke="#000000" stroke-width="0.25" stroke-miterlimit="0.00" stroke-linecap="round" stroke-linejoin="round" transform="matrix(1.38, 0.00, 0.00, -1.38, -21.0, 733.2)"></path><text xml:space="preserve" font-family="CourierNewPSMT" font-size="16.0" fill="#000000" transform="matrix(1.38, 0.00, -0.00, -1.38, 314.2, 505.4)">5</text><text xml:space="preserve" font-family="CourierNewPSMT" font-size="16.0" fill="#000000" transform="matrix(1.38, 0.00, -0.00, -1.38, 327.4, 505.4)">0</text><text xml:space="preserve" font-family="CourierNewPSMT" font-size="16.0" fill="#000000" transform="matrix(1.38, 0.00, -0.00, -1.38, 340.6, 505.4)">8</text><text xml:space="preserve" font-family="CourierNewPSMT" font-size="16.0" fill="#000000" transform="matrix(1.38, 0.00, -0.00, -1.38, 353.8, 505.4)">d</text><text xml:space="preserve" font-family="CourierNewPSMT" font-size="16.0" fill="#000000" transform="matrix(1.38, 0.00, -0.00, -1.38, 367.0, 505.4)">1</text><text xml:space="preserve" font-family="CourierNewPSMT" font-size="16.0" fill="#000000" transform="matrix(1.38, 0.00, -0.00, -1.38, 380.2, 505.4)">8</text><path d="M 555.8 535.7 L 654.8 535.7 C 661.6 535.7 667.2 530.1 667.2 523.3 L 667.2 498.5 C 667.2 491.7 661.6 486.1 654.8 486.1 L 555.8 486.1 C 549.0 486.1 543.4 491.7 543.4 498.5 L 543.4 523.3 C 543.4 530.1 549.0 535.7 555.8 535.7 Z M 555.8 535.7 " fill="#FFEDD3"></path><path d="M 419.5 143.5 L 491.5 143.5 C 496.5 143.5 500.5 147.5 500.5 152.5 L 500.5 170.5 C 500.5 175.5 496.5 179.5 491.5 179.5 L 419.5 179.5 C 414.5 179.5 410.5 175.5 410.5 170.5 L 410.5 152.5 C 410.5 147.5 414.5 143.5 419.5 143.5 Z M 419.5 143.5 " fill="none" stroke="#000000" stroke-width="0.25" stroke-miterlimit="0.00" stroke-linecap="round" stroke-linejoin="round" transform="matrix(1.38, 0.00, 0.00, -1.38, -21.0, 733.2)"></path><text xml:space="preserve" font-family="CourierNewPSMT" font-size="16.0" fill="#000000" transform="matrix(1.38, 0.00, -0.00, -1.38, 564.7, 505.4)">7</text><text xml:space="preserve" font-family="CourierNewPSMT" font-size="16.0" fill="#000000" transform="matrix(1.38, 0.00, -0.00, -1.38, 577.9, 505.4)">a</text><text xml:space="preserve" font-family="CourierNewPSMT" font-size="16.0" fill="#000000" transform="matrix(1.38, 0.00, -0.00, -1.38, 591.1, 505.4)">1</text><text xml:space="preserve" font-family="CourierNewPSMT" font-size="16.0" fill="#000000" transform="matrix(1.38, 0.00, -0.00, -1.38, 604.3, 505.4)">c</text><text xml:space="preserve" font-family="CourierNewPSMT" font-size="16.0" fill="#000000" transform="matrix(1.38, 0.00, -0.00, -1.38, 617.5, 505.4)">6</text><text xml:space="preserve" font-family="CourierNewPSMT" font-size="16.0" fill="#000000" transform="matrix(1.38, 0.00, -0.00, -1.38, 630.7, 505.4)">1</text><path d="M 320.7 438.0 L 419.7 438.0 C 426.5 438.0 432.1 432.4 432.1 425.6 L 432.1 400.8 C 432.1 394.0 426.5 388.4 419.7 388.4 L 320.7 388.4 C 313.9 388.4 308.3 394.0 308.3 400.8 L 308.3 425.6 C 308.3 432.4 313.9 438.0 320.7 438.0 Z M 320.7 438.0 " fill="#ADD0AB"></path><path d="M 248.5 214.5 L 320.5 214.5 C 325.5 214.5 329.5 218.5 329.5 223.5 L 329.5 241.5 C 329.5 246.5 325.5 250.5 320.5 250.5 L 248.5 250.5 C 243.5 250.5 239.5 246.5 239.5 241.5 L 239.5 223.5 C 239.5 218.5 243.5 214.5 248.5 214.5 Z M 248.5 214.5 " fill="none" stroke="#000000" stroke-width="0.25" stroke-miterlimit="0.00" stroke-linecap="round" stroke-linejoin="round" transform="matrix(1.38, 0.00, 0.00, -1.38, -21.0, 733.2)"></path><text xml:space="preserve" font-family="CourierNewPSMT" font-size="16.0" fill="#000000" transform="matrix(1.38, 0.00, -0.00, -1.38, 314.2, 408.4)">2</text><text xml:space="preserve" font-family="CourierNewPSMT" font-size="16.0" fill="#000000" transform="matrix(1.38, 0.00, -0.00, -1.38, 327.4, 408.4)">3</text><text xml:space="preserve" font-family="CourierNewPSMT" font-size="16.0" fill="#000000" transform="matrix(1.38, 0.00, -0.00, -1.38, 340.6, 408.4)">b</text><text xml:space="preserve" font-family="CourierNewPSMT" font-size="16.0" fill="#000000" transform="matrix(1.38, 0.00, -0.00, -1.38, 353.8, 408.4)">3</text><text xml:space="preserve" font-family="CourierNewPSMT" font-size="16.0" fill="#000000" transform="matrix(1.38, 0.00, -0.00, -1.38, 367.0, 408.4)">6</text><text xml:space="preserve" font-family="CourierNewPSMT" font-size="16.0" fill="#000000" transform="matrix(1.38, 0.00, -0.00, -1.38, 380.2, 408.4)">f</text><path d="M 147.4 438.0 L 246.4 438.0 C 253.3 438.0 258.8 432.4 258.8 425.6 L 258.8 400.8 C 258.8 394.0 253.3 388.4 246.4 388.4 L 147.4 388.4 C 140.6 388.4 135.1 394.0 135.1 400.8 L 135.1 425.6 C 135.1 432.4 140.6 438.0 147.4 438.0 Z M 147.4 438.0 " fill="#FEFCD3"></path><path d="M 122.5 214.5 L 194.5 214.5 C 199.5 214.5 203.5 218.5 203.5 223.5 L 203.5 241.5 C 203.5 246.5 199.5 250.5 194.5 250.5 L 122.5 250.5 C 117.5 250.5 113.5 246.5 113.5 241.5 L 113.5 223.5 C 113.5 218.5 117.5 214.5 122.5 214.5 Z M 122.5 214.5 " fill="none" stroke="#000000" stroke-width="0.25" stroke-miterlimit="0.00" stroke-linecap="round" stroke-linejoin="round" transform="matrix(1.38, 0.00, 0.00, -1.38, -21.0, 733.2)"></path><text xml:space="preserve" font-family="CourierNewPSMT" font-size="16.0" fill="#000000" transform="matrix(1.38, 0.00, -0.00, -1.38, 140.9, 408.4)">5</text><text xml:space="preserve" font-family="CourierNewPSMT" font-size="16.0" fill="#000000" transform="matrix(1.38, 0.00, -0.00, -1.38, 154.2, 408.4)">8</text><text xml:space="preserve" font-family="CourierNewPSMT" font-size="16.0" fill="#000000" transform="matrix(1.38, 0.00, -0.00, -1.38, 167.4, 408.4)">5</text><text xml:space="preserve" font-family="CourierNewPSMT" font-size="16.0" fill="#000000" transform="matrix(1.38, 0.00, -0.00, -1.38, 180.6, 408.4)">a</text><text xml:space="preserve" font-family="CourierNewPSMT" font-size="16.0" fill="#000000" transform="matrix(1.38, 0.00, -0.00, -1.38, 193.8, 408.4)">d</text><text xml:space="preserve" font-family="CourierNewPSMT" font-size="16.0" fill="#000000" transform="matrix(1.38, 0.00, -0.00, -1.38, 207.0, 408.4)">5</text><text xml:space="preserve" font-family="CourierNewPSMT" font-size="16.0" fill="#000000" transform="matrix(1.38, 0.00, -0.00, -1.38, 220.2, 408.4)">d</text><path d="M 372.9 341.6 L 471.9 341.6 C 478.8 341.6 484.3 336.1 484.3 329.2 L 484.3 304.5 C 484.3 297.6 478.8 292.1 471.9 292.1 L 372.9 292.1 C 366.1 292.1 360.6 297.6 360.6 304.5 L 360.6 329.2 C 360.6 336.1 366.1 341.6 372.9 341.6 Z M 372.9 341.6 " fill="#ADD0AB"></path><path d="M 286.5 284.5 L 358.5 284.5 C 363.5 284.5 367.5 288.5 367.5 293.5 L 367.5 311.5 C 367.5 316.5 363.5 320.5 358.5 320.5 L 286.5 320.5 C 281.5 320.5 277.5 316.5 277.5 311.5 L 277.5 293.5 C 277.5 288.5 281.5 284.5 286.5 284.5 Z M 286.5 284.5 " fill="none" stroke="#000000" stroke-width="0.25" stroke-miterlimit="0.00" stroke-linecap="round" stroke-linejoin="round" transform="matrix(1.38, 0.00, 0.00, -1.38, -21.0, 733.2)"></path><text xml:space="preserve" font-family="CourierNewPSMT" font-size="16.0" fill="#000000" transform="matrix(1.38, 0.00, -0.00, -1.38, 367.0, 311.2)">e</text><text xml:space="preserve" font-family="CourierNewPSMT" font-size="16.0" fill="#000000" transform="matrix(1.38, 0.00, -0.00, -1.38, 380.2, 311.2)">b</text><text xml:space="preserve" font-family="CourierNewPSMT" font-size="16.0" fill="#000000" transform="matrix(1.38, 0.00, -0.00, -1.38, 393.4, 311.2)">5</text><text xml:space="preserve" font-family="CourierNewPSMT" font-size="16.0" fill="#000000" transform="matrix(1.38, 0.00, -0.00, -1.38, 406.6, 311.2)">e</text><text xml:space="preserve" font-family="CourierNewPSMT" font-size="16.0" fill="#000000" transform="matrix(1.38, 0.00, -0.00, -1.38, 419.8, 311.2)">e</text><text xml:space="preserve" font-family="CourierNewPSMT" font-size="16.0" fill="#000000" transform="matrix(1.38, 0.00, -0.00, -1.38, 433.0, 311.2)">e</text><path d="M 555.8 341.6 L 654.8 341.6 C 661.6 341.6 667.2 336.1 667.2 329.2 L 667.2 304.5 C 667.2 297.6 661.6 292.1 654.8 292.1 L 555.8 292.1 C 549.0 292.1 543.4 297.6 543.4 304.5 L 543.4 329.2 C 543.4 336.1 549.0 341.6 555.8 341.6 Z M 555.8 341.6 " fill="#FFEDD3"></path><path d="M 419.5 284.5 L 491.5 284.5 C 496.5 284.5 500.5 288.5 500.5 293.5 L 500.5 311.5 C 500.5 316.5 496.5 320.5 491.5 320.5 L 419.5 320.5 C 414.5 320.5 410.5 316.5 410.5 311.5 L 410.5 293.5 C 410.5 288.5 414.5 284.5 419.5 284.5 Z M 419.5 284.5 " fill="none" stroke="#000000" stroke-width="0.25" stroke-miterlimit="0.00" stroke-linecap="round" stroke-linejoin="round" transform="matrix(1.38, 0.00, 0.00, -1.38, -21.0, 733.2)"></path><text xml:space="preserve" font-family="CourierNewPSMT" font-size="16.0" fill="#000000" transform="matrix(1.38, 0.00, -0.00, -1.38, 564.7, 311.2)">9</text><text xml:space="preserve" font-family="CourierNewPSMT" font-size="16.0" fill="#000000" transform="matrix(1.38, 0.00, -0.00, -1.38, 577.9, 311.2)">9</text><text xml:space="preserve" font-family="CourierNewPSMT" font-size="16.0" fill="#000000" transform="matrix(1.38, 0.00, -0.00, -1.38, 591.1, 311.2)">7</text><text xml:space="preserve" font-family="CourierNewPSMT" font-size="16.0" fill="#000000" transform="matrix(1.38, 0.00, -0.00, -1.38, 604.3, 311.2)">8</text><text xml:space="preserve" font-family="CourierNewPSMT" font-size="16.0" fill="#000000" transform="matrix(1.38, 0.00, -0.00, -1.38, 617.5, 311.2)">d</text><text xml:space="preserve" font-family="CourierNewPSMT" font-size="16.0" fill="#000000" transform="matrix(1.38, 0.00, -0.00, -1.38, 630.7, 311.2)">9</text><path d="M 49.9 493.8 L 55.5 473.2 " fill="none" stroke="#000000" stroke-width="1.00" stroke-miterlimit="0.00" stroke-linecap="round" stroke-linejoin="round" transform="matrix(1.38, 0.00, 0.00, -1.38, -21.0, 733.2)"></path><path d="M 58.2 92.6 L 51.3 83.0 L 59.3 80.9 Z M 58.2 92.6 " fill="#000000"></path><path d="M 57.6 465.5 L 52.6 472.4 L 58.4 474.0 Z M 57.6 465.5 " fill="none" stroke="#000000" stroke-width="1.00" stroke-miterlimit="0.00" transform="matrix(1.38, 0.00, 0.00, -1.38, -21.0, 733.2)"></path><path d="M 414.2 388.4 L 414.2 438.0 L 418.7 438.0 C 425.5 438.0 432.1 433.0 432.1 426.2 L 432.1 401.4 C 432.1 394.6 425.5 388.4 418.7 388.4 Z M 414.1 389.0 " fill="#CDD4B0"></path><path d="M 316.5 250.5 L 316.5 214.5 L 319.8 214.5 C 324.8 214.5 329.5 218.1 329.5 223.1 L 329.5 241.1 C 329.5 246.0 324.8 250.5 319.8 250.5 Z M 316.4 250.1 " fill="none" stroke="#000000" stroke-width="0.25" stroke-miterlimit="0.00" stroke-linecap="round" stroke-linejoin="round" transform="matrix(1.38, 0.00, 0.00, -1.38, -21.0, 733.2)"></path><path d="M 414.2 486.1 L 414.2 535.7 L 418.7 535.7 C 425.5 535.7 432.1 530.1 432.1 523.3 L 432.1 498.5 C 432.1 491.7 425.5 486.1 418.7 486.1 Z M 414.1 486.1 " fill="#CDD4B0"></path><path d="M 316.5 179.5 L 316.5 143.5 L 319.8 143.5 C 324.8 143.5 329.5 147.5 329.5 152.5 L 329.5 170.5 C 329.5 175.5 324.8 179.5 319.8 179.5 Z M 316.4 179.5 " fill="none" stroke="#000000" stroke-width="0.25" stroke-miterlimit="0.00" stroke-linecap="round" stroke-linejoin="round" transform="matrix(1.38, 0.00, 0.00, -1.38, -21.0, 733.2)"></path><path d="M 467.8 292.1 L 467.8 341.6 L 471.5 341.6 C 478.3 341.6 484.3 335.9 484.3 329.1 L 484.3 304.3 C 484.3 297.5 478.3 292.1 471.5 292.1 Z M 466.9 291.9 " fill="#CDD4B0"></path><path d="M 355.5 320.5 L 355.5 284.5 L 358.2 284.5 C 363.2 284.5 367.5 288.7 367.5 293.6 L 367.5 311.6 C 367.5 316.6 363.2 320.5 358.2 320.5 Z M 354.8 320.6 " fill="none" stroke="#000000" stroke-width="0.25" stroke-miterlimit="0.00" stroke-linecap="round" stroke-linejoin="round" transform="matrix(1.38, 0.00, 0.00, -1.38, -21.0, 733.2)"></path><path d="M 325.0 152.5 L 399.9 152.5 " fill="none" stroke="#000000" stroke-width="1.00" stroke-miterlimit="0.00" stroke-linecap="round" stroke-linejoin="round" transform="matrix(1.38, 0.00, 0.00, -1.38, -21.0, 733.2)"></path><path d="M 539.8 523.3 L 528.8 527.4 L 528.8 519.2 Z M 539.8 523.3 " fill="#000000"></path><path d="M 407.9 152.5 L 399.9 149.5 L 399.9 155.5 Z M 407.9 152.5 " fill="none" stroke="#000000" stroke-width="1.00" stroke-miterlimit="0.00" transform="matrix(1.38, 0.00, 0.00, -1.38, -21.0, 733.2)"></path><path d="M 424.9 525.6 C 426.2 524.4 426.2 522.3 424.9 521.0 C 423.6 519.7 421.5 519.7 420.2 521.0 C 418.9 522.3 418.9 524.4 420.2 525.6 C 421.5 526.9 423.6 526.9 424.9 525.6 " fill="#000000"></path><path d="M 324.3 150.8 C 325.2 151.7 325.2 153.3 324.3 154.2 C 323.4 155.1 321.8 155.1 320.9 154.2 C 320.0 153.3 320.0 151.7 320.9 150.8 C 321.8 149.9 323.4 149.9 324.3 150.8 " fill="none" stroke="#000000" stroke-width="1.00" stroke-miterlimit="0.00" transform="matrix(1.38, 0.00, 0.00, -1.38, -21.0, 733.2)"></path><path d="M 363.4 302.5 L 399.8 302.5 " fill="none" stroke="#000000" stroke-width="1.00" stroke-miterlimit="0.00" stroke-linecap="round" stroke-linejoin="round" transform="matrix(1.38, 0.00, 0.00, -1.38, -21.0, 733.2)"></path><path d="M 539.7 316.7 L 528.7 320.8 L 528.7 312.6 Z M 539.7 316.7 " fill="#000000"></path><path d="M 407.8 302.6 L 399.8 299.6 L 399.8 305.6 Z M 407.8 302.6 " fill="none" stroke="#000000" stroke-width="1.00" stroke-miterlimit="0.00" transform="matrix(1.38, 0.00, 0.00, -1.38, -21.0, 733.2)"></path><path d="M 477.7 319.0 C 479.0 317.7 479.0 315.6 477.7 314.4 C 476.4 313.1 474.3 313.1 473.0 314.4 C 471.7 315.6 471.7 317.7 473.0 319.0 C 474.3 320.3 476.4 320.3 477.7 319.0 " fill="#000000"></path><path d="M 362.7 300.9 C 363.6 301.9 363.6 303.4 362.7 304.3 C 361.8 305.3 360.2 305.3 359.3 304.3 C 358.4 303.4 358.4 301.9 359.3 300.9 C 360.2 300.0 361.8 300.0 362.7 300.9 " fill="none" stroke="#000000" stroke-width="1.00" stroke-miterlimit="0.00" transform="matrix(1.38, 0.00, 0.00, -1.38, -21.0, 733.2)"></path><path d="M 322.6 243.5 L 322.4 274.7 " fill="none" stroke="#000000" stroke-width="1.00" stroke-miterlimit="0.00" stroke-linecap="round" stroke-linejoin="round" transform="matrix(1.38, 0.00, 0.00, -1.38, -21.0, 733.2)"></path><path d="M 422.2 344.1 L 426.4 355.1 L 418.1 355.1 Z M 422.2 344.1 " fill="#000000"></path><path d="M 322.3 282.7 L 325.4 274.7 L 319.4 274.7 Z M 322.3 282.7 " fill="none" stroke="#000000" stroke-width="1.00" stroke-miterlimit="0.00" transform="matrix(1.38, 0.00, 0.00, -1.38, -21.0, 733.2)"></path><path d="M 424.9 399.0 C 423.6 397.8 421.5 397.8 420.2 399.1 C 418.9 400.4 419.0 402.5 420.2 403.8 C 421.5 405.0 423.6 405.0 424.9 403.7 C 426.2 402.4 426.2 400.3 424.9 399.0 " fill="#000000"></path><path d="M 324.3 242.8 C 323.3 243.7 321.8 243.7 320.9 242.8 C 320.0 241.8 320.0 240.3 320.9 239.4 C 321.9 238.4 323.4 238.4 324.3 239.4 C 325.2 240.3 325.2 241.9 324.3 242.8 " fill="none" stroke="#000000" stroke-width="1.00" stroke-miterlimit="0.00" transform="matrix(1.38, 0.00, 0.00, -1.38, -21.0, 733.2)"></path><path d="M 324.6 221.8 L 401.3 175.6 " fill="none" stroke="#000000" stroke-width="1.00" stroke-miterlimit="0.00" stroke-linecap="round" stroke-linejoin="round" transform="matrix(1.38, 0.00, 0.00, -1.38, -21.0, 733.2)"></path><path d="M 540.2 497.2 L 528.7 495.0 L 532.9 488.0 Z M 540.2 497.2 " fill="#000000"></path><path d="M 408.2 171.5 L 399.8 173.0 L 402.9 178.2 Z M 408.2 171.5 " fill="none" stroke="#000000" stroke-width="1.00" stroke-miterlimit="0.00" transform="matrix(1.38, 0.00, 0.00, -1.38, -21.0, 733.2)"></path><path d="M 423.4 429.4 C 425.1 428.9 426.2 427.2 425.8 425.4 C 425.3 423.6 423.5 422.5 421.8 423.0 C 420.0 423.4 418.9 425.2 419.4 427.0 C 419.8 428.7 421.6 429.8 423.4 429.4 " fill="#000000"></path><path d="M 323.2 220.7 C 324.5 221.1 325.2 222.4 324.9 223.7 C 324.6 224.9 323.3 225.7 322.0 225.4 C 320.7 225.1 319.9 223.8 320.3 222.5 C 320.6 221.2 321.9 220.4 323.2 220.7 " fill="none" stroke="#000000" stroke-width="1.00" stroke-miterlimit="0.00" transform="matrix(1.38, 0.00, 0.00, -1.38, -21.0, 733.2)"></path><text xml:space="preserve" font-family="HelveticaNeue" font-size="16.0" fill="#000000" transform="matrix(1.38, 0.00, -0.00, -1.38, 568.3, 633.6)">o</text><text xml:space="preserve" font-family="HelveticaNeue" font-size="16.0" fill="#000000" transform="matrix(1.38, 0.00, -0.00, -1.38, 580.9, 633.6)">b</text><text xml:space="preserve" font-family="HelveticaNeue" font-size="16.0" fill="#000000" transform="matrix(1.38, 0.00, -0.00, -1.38, 593.9, 633.6)">j</text><text xml:space="preserve" font-family="HelveticaNeue" font-size="16.0" fill="#000000" transform="matrix(1.38, 0.00, -0.00, -1.38, 598.8, 633.6)">e</text><text xml:space="preserve" font-family="HelveticaNeue" font-size="16.0" fill="#000000" transform="matrix(1.38, 0.00, -0.00, -1.38, 610.6, 633.6)">c</text><text xml:space="preserve" font-family="HelveticaNeue" font-size="16.0" fill="#000000" transform="matrix(1.38, 0.00, -0.00, -1.38, 622.5, 633.6)">t</text><text xml:space="preserve" font-family="HelveticaNeue" font-size="16.0" fill="#000000" transform="matrix(1.38, 0.00, -0.00, -1.38, 629.4, 633.6)">s</text><text xml:space="preserve" font-family="HelveticaNeue" font-size="16.0" fill="#000000" transform="matrix(1.38, 0.00, -0.00, -1.38, 345.0, 633.6)">t</text><text xml:space="preserve" font-family="HelveticaNeue" font-size="16.0" fill="#000000" transform="matrix(1.38, 0.00, -0.00, -1.38, 351.9, 633.6)">r</text><text xml:space="preserve" font-family="HelveticaNeue" font-size="16.0" fill="#000000" transform="matrix(1.38, 0.00, -0.00, -1.38, 358.8, 633.6)">e</text><text xml:space="preserve" font-family="HelveticaNeue" font-size="16.0" fill="#000000" transform="matrix(1.38, 0.00, -0.00, -1.38, 370.6, 633.6)">e</text><text xml:space="preserve" font-family="HelveticaNeue" font-size="16.0" fill="#000000" transform="matrix(1.38, 0.00, -0.00, -1.38, 382.4, 633.6)">s</text><text xml:space="preserve" font-family="HelveticaNeue" font-size="16.0" fill="#000000" transform="matrix(1.38, 0.00, -0.00, -1.38, 153.6, 633.6)">c</text><text xml:space="preserve" font-family="HelveticaNeue" font-size="16.0" fill="#000000" transform="matrix(1.38, 0.00, -0.00, -1.38, 165.4, 633.6)">o</text><text xml:space="preserve" font-family="HelveticaNeue" font-size="16.0" fill="#000000" transform="matrix(1.38, 0.00, -0.00, -1.38, 178.0, 633.6)">m</text><text xml:space="preserve" font-family="HelveticaNeue" font-size="16.0" fill="#000000" transform="matrix(1.38, 0.00, -0.00, -1.38, 196.8, 633.6)">m</text><text xml:space="preserve" font-family="HelveticaNeue" font-size="16.0" fill="#000000" transform="matrix(1.38, 0.00, -0.00, -1.38, 215.5, 633.6)">i</text><text xml:space="preserve" font-family="HelveticaNeue" font-size="16.0" fill="#000000" transform="matrix(1.38, 0.00, -0.00, -1.38, 220.4, 633.6)">t</text><text xml:space="preserve" font-family="HelveticaNeue" font-size="16.0" fill="#000000" transform="matrix(1.38, 0.00, -0.00, -1.38, 227.3, 633.6)">s</text><text xml:space="preserve" font-family="HelveticaNeue" font-size="16.0" fill="#000000" transform="matrix(1.38, 0.00, -0.00, -1.38, 819.0, 633.6)">i</text><text xml:space="preserve" font-family="HelveticaNeue" font-size="16.0" fill="#000000" transform="matrix(1.38, 0.00, -0.00, -1.38, 823.8, 633.6)">n</text><text xml:space="preserve" font-family="HelveticaNeue" font-size="16.0" fill="#000000" transform="matrix(1.38, 0.00, -0.00, -1.38, 836.1, 633.6)">d</text><text xml:space="preserve" font-family="HelveticaNeue" font-size="16.0" fill="#000000" transform="matrix(1.38, 0.00, -0.00, -1.38, 849.1, 633.6)">e</text><text xml:space="preserve" font-family="HelveticaNeue" font-size="16.0" fill="#000000" transform="matrix(1.38, 0.00, -0.00, -1.38, 860.9, 633.6)">x</text><text xml:space="preserve" font-family="HelveticaNeue" font-size="16.0" fill="#000000" transform="matrix(1.38, 0.00, -0.00, -1.38, 34.4, 633.6)">r</text><text xml:space="preserve" font-family="HelveticaNeue" font-size="16.0" fill="#000000" transform="matrix(1.38, 0.00, -0.00, -1.38, 41.4, 633.6)">e</text><text xml:space="preserve" font-family="HelveticaNeue" font-size="16.0" fill="#000000" transform="matrix(1.38, 0.00, -0.00, -1.38, 53.2, 633.6)">f</text><text xml:space="preserve" font-family="HelveticaNeue" font-size="16.0" fill="#000000" transform="matrix(1.38, 0.00, -0.00, -1.38, 59.7, 633.6)">s</text><path d="M 555.8 610.0 L 654.8 610.0 C 661.6 610.0 667.2 604.5 667.2 597.6 L 667.2 572.9 C 667.2 566.0 661.6 560.5 654.8 560.5 L 555.8 560.5 C 549.0 560.5 543.4 566.0 543.4 572.9 L 543.4 597.6 C 543.4 604.5 549.0 610.0 555.8 610.0 Z M 555.8 610.0 " fill="#FFEDD3"></path><path d="M 419.5 89.5 L 491.5 89.5 C 496.5 89.5 500.5 93.5 500.5 98.5 L 500.5 116.5 C 500.5 121.5 496.5 125.5 491.5 125.5 L 419.5 125.5 C 414.5 125.5 410.5 121.5 410.5 116.5 L 410.5 98.5 C 410.5 93.5 414.5 89.5 419.5 89.5 Z M 419.5 89.5 " fill="none" stroke="#000000" stroke-width="0.25" stroke-miterlimit="0.00" stroke-linecap="round" stroke-linejoin="round" transform="matrix(1.38, 0.00, 0.00, -1.38, -21.0, 733.2)"></path><text xml:space="preserve" font-family="CourierNewPSMT" font-size="16.0" fill="#000000" transform="matrix(1.38, 0.00, -0.00, -1.38, 564.7, 580.6)">f</text><text xml:space="preserve" font-family="CourierNewPSMT" font-size="16.0" fill="#000000" transform="matrix(1.38, 0.00, -0.00, -1.38, 577.9, 580.6)">d</text><text xml:space="preserve" font-family="CourierNewPSMT" font-size="16.0" fill="#000000" transform="matrix(1.38, 0.00, -0.00, -1.38, 591.1, 580.6)">4</text><text xml:space="preserve" font-family="CourierNewPSMT" font-size="16.0" fill="#000000" transform="matrix(1.38, 0.00, -0.00, -1.38, 604.3, 580.6)">8</text><text xml:space="preserve" font-family="CourierNewPSMT" font-size="16.0" fill="#000000" transform="matrix(1.38, 0.00, -0.00, -1.38, 617.5, 580.6)">0</text><text xml:space="preserve" font-family="CourierNewPSMT" font-size="16.0" fill="#000000" transform="matrix(1.38, 0.00, -0.00, -1.38, 630.7, 580.6)">b</text><path d="M 555.8 461.4 L 654.8 461.4 C 661.6 461.4 667.2 455.8 667.2 449.0 L 667.2 424.2 C 667.2 417.4 661.6 411.8 654.8 411.8 L 555.8 411.8 C 549.0 411.8 543.4 417.4 543.4 424.2 L 543.4 449.0 C 543.4 455.8 549.0 461.4 555.8 461.4 Z M 555.8 461.4 " fill="#FFEDD3"></path><path d="M 419.5 197.5 L 491.5 197.5 C 496.5 197.5 500.5 201.5 500.5 206.5 L 500.5 224.5 C 500.5 229.5 496.5 233.5 491.5 233.5 L 419.5 233.5 C 414.5 233.5 410.5 229.5 410.5 224.5 L 410.5 206.5 C 410.5 201.5 414.5 197.5 419.5 197.5 Z M 419.5 197.5 " fill="none" stroke="#000000" stroke-width="0.25" stroke-miterlimit="0.00" stroke-linecap="round" stroke-linejoin="round" transform="matrix(1.38, 0.00, 0.00, -1.38, -21.0, 733.2)"></path><text xml:space="preserve" font-family="CourierNewPSMT" font-size="16.0" fill="#000000" transform="matrix(1.38, 0.00, -0.00, -1.38, 564.7, 431.1)">1</text><text xml:space="preserve" font-family="CourierNewPSMT" font-size="16.0" fill="#000000" transform="matrix(1.38, 0.00, -0.00, -1.38, 577.9, 431.1)">7</text><text xml:space="preserve" font-family="CourierNewPSMT" font-size="16.0" fill="#000000" transform="matrix(1.38, 0.00, -0.00, -1.38, 591.1, 431.1)">d</text><text xml:space="preserve" font-family="CourierNewPSMT" font-size="16.0" fill="#000000" transform="matrix(1.38, 0.00, -0.00, -1.38, 604.3, 431.1)">5</text><text xml:space="preserve" font-family="CourierNewPSMT" font-size="16.0" fill="#000000" transform="matrix(1.38, 0.00, -0.00, -1.38, 617.5, 431.1)">d</text><text xml:space="preserve" font-family="CourierNewPSMT" font-size="16.0" fill="#000000" transform="matrix(1.38, 0.00, -0.00, -1.38, 630.7, 431.1)">9</text><path d="M 716.7 610.0 L 976.6 610.0 C 983.4 610.0 988.9 604.5 988.9 597.6 L 988.9 498.5 C 988.9 491.7 983.4 486.1 976.6 486.1 L 716.7 486.1 C 709.9 486.1 704.3 491.7 704.3 498.5 L 704.3 597.6 C 704.3 604.5 709.9 610.0 716.7 610.0 Z M 716.7 610.0 " fill="#ADD0AB"></path><path d="M 536.5 89.5 L 725.5 89.5 C 730.5 89.5 734.5 93.5 734.5 98.5 L 734.5 170.5 C 734.5 175.5 730.5 179.5 725.5 179.5 L 536.5 179.5 C 531.5 179.5 527.5 175.5 527.5 170.5 L 527.5 98.5 C 527.5 93.5 531.5 89.5 536.5 89.5 Z M 536.5 89.5 " fill="none" stroke="#000000" stroke-width="0.25" stroke-miterlimit="0.00" stroke-linecap="round" stroke-linejoin="round" transform="matrix(1.38, 0.00, 0.00, -1.38, -21.0, 733.2)"></path><text xml:space="preserve" font-family="CourierNewPSMT" font-size="14.0" fill="#000000" transform="matrix(1.38, 0.00, -0.00, -1.38, 710.2, 587.5)">7</text><text xml:space="preserve" font-family="CourierNewPSMT" font-size="14.0" fill="#000000" transform="matrix(1.38, 0.00, -0.00, -1.38, 721.8, 587.5)">a</text><text xml:space="preserve" font-family="CourierNewPSMT" font-size="14.0" fill="#000000" transform="matrix(1.38, 0.00, -0.00, -1.38, 733.3, 587.5)">1</text><text xml:space="preserve" font-family="CourierNewPSMT" font-size="14.0" fill="#000000" transform="matrix(1.38, 0.00, -0.00, -1.38, 744.9, 587.5)">c</text><text xml:space="preserve" font-family="CourierNewPSMT" font-size="14.0" fill="#000000" transform="matrix(1.38, 0.00, -0.00, -1.38, 756.4, 587.5)">6</text><text xml:space="preserve" font-family="CourierNewPSMT" font-size="14.0" fill="#000000" transform="matrix(1.38, 0.00, -0.00, -1.38, 768.0, 587.5)">1</text><text xml:space="preserve" font-family="CourierNewPSMT" font-size="14.0" fill="#000000" transform="matrix(1.38, 0.00, -0.00, -1.38, 779.5, 587.5)">:</text><text xml:space="preserve" font-family="CourierNewPSMT" font-size="14.0" fill="#000000" transform="matrix(1.38, 0.00, -0.00, -1.38, 791.1, 587.5)"> </text><text xml:space="preserve" font-family="CourierNewPSMT" font-size="14.0" fill="#000000" transform="matrix(1.38, 0.00, -0.00, -1.38, 802.6, 587.5)">s</text><text xml:space="preserve" font-family="CourierNewPSMT" font-size="14.0" fill="#000000" transform="matrix(1.38, 0.00, -0.00, -1.38, 814.2, 587.5)">o</text><text xml:space="preserve" font-family="CourierNewPSMT" font-size="14.0" fill="#000000" transform="matrix(1.38, 0.00, -0.00, -1.38, 825.7, 587.5)">m</text><text xml:space="preserve" font-family="CourierNewPSMT" font-size="14.0" fill="#000000" transform="matrix(1.38, 0.00, -0.00, -1.38, 837.3, 587.5)">e</text><text xml:space="preserve" font-family="CourierNewPSMT" font-size="14.0" fill="#000000" transform="matrix(1.38, 0.00, -0.00, -1.38, 848.8, 587.5)">-</text><text xml:space="preserve" font-family="CourierNewPSMT" font-size="14.0" fill="#000000" transform="matrix(1.38, 0.00, -0.00, -1.38, 860.4, 587.5)">f</text><text xml:space="preserve" font-family="CourierNewPSMT" font-size="14.0" fill="#000000" transform="matrix(1.38, 0.00, -0.00, -1.38, 872.0, 587.5)">i</text><text xml:space="preserve" font-family="CourierNewPSMT" font-size="14.0" fill="#000000" transform="matrix(1.38, 0.00, -0.00, -1.38, 883.5, 587.5)">l</text><text xml:space="preserve" font-family="CourierNewPSMT" font-size="14.0" fill="#000000" transform="matrix(1.38, 0.00, -0.00, -1.38, 895.1, 587.5)">e</text><text xml:space="preserve" font-family="CourierNewPSMT" font-size="14.0" fill="#000000" transform="matrix(1.38, 0.00, -0.00, -1.38, 710.2, 565.5)">9</text><text xml:space="preserve" font-family="CourierNewPSMT" font-size="14.0" fill="#000000" transform="matrix(1.38, 0.00, -0.00, -1.38, 721.8, 565.5)">9</text><text xml:space="preserve" font-family="CourierNewPSMT" font-size="14.0" fill="#000000" transform="matrix(1.38, 0.00, -0.00, -1.38, 733.3, 565.5)">7</text><text xml:space="preserve" font-family="CourierNewPSMT" font-size="14.0" fill="#000000" transform="matrix(1.38, 0.00, -0.00, -1.38, 744.9, 565.5)">8</text><text xml:space="preserve" font-family="CourierNewPSMT" font-size="14.0" fill="#000000" transform="matrix(1.38, 0.00, -0.00, -1.38, 756.4, 565.5)">d</text><text xml:space="preserve" font-family="CourierNewPSMT" font-size="14.0" fill="#000000" transform="matrix(1.38, 0.00, -0.00, -1.38, 768.0, 565.5)">9</text><text xml:space="preserve" font-family="CourierNewPSMT" font-size="14.0" fill="#000000" transform="matrix(1.38, 0.00, -0.00, -1.38, 779.5, 565.5)">:</text><text xml:space="preserve" font-family="CourierNewPSMT" font-size="14.0" fill="#000000" transform="matrix(1.38, 0.00, -0.00, -1.38, 791.1, 565.5)"> </text><text xml:space="preserve" font-family="CourierNewPSMT" font-size="14.0" fill="#000000" transform="matrix(1.38, 0.00, -0.00, -1.38, 802.6, 565.5)">s</text><text xml:space="preserve" font-family="CourierNewPSMT" font-size="14.0" fill="#000000" transform="matrix(1.38, 0.00, -0.00, -1.38, 814.2, 565.5)">u</text><text xml:space="preserve" font-family="CourierNewPSMT" font-size="14.0" fill="#000000" transform="matrix(1.38, 0.00, -0.00, -1.38, 825.7, 565.5)">b</text><text xml:space="preserve" font-family="CourierNewPSMT" font-size="14.0" fill="#000000" transform="matrix(1.38, 0.00, -0.00, -1.38, 837.3, 565.5)">d</text><text xml:space="preserve" font-family="CourierNewPSMT" font-size="14.0" fill="#000000" transform="matrix(1.38, 0.00, -0.00, -1.38, 848.8, 565.5)">i</text><text xml:space="preserve" font-family="CourierNewPSMT" font-size="14.0" fill="#000000" transform="matrix(1.38, 0.00, -0.00, -1.38, 860.4, 565.5)">r</text><text xml:space="preserve" font-family="CourierNewPSMT" font-size="14.0" fill="#000000" transform="matrix(1.38, 0.00, -0.00, -1.38, 872.0, 565.5)">/</text><text xml:space="preserve" font-family="CourierNewPSMT" font-size="14.0" fill="#000000" transform="matrix(1.38, 0.00, -0.00, -1.38, 883.5, 565.5)">s</text><text xml:space="preserve" font-family="CourierNewPSMT" font-size="14.0" fill="#000000" transform="matrix(1.38, 0.00, -0.00, -1.38, 895.1, 565.5)">u</text><text xml:space="preserve" font-family="CourierNewPSMT" font-size="14.0" fill="#000000" transform="matrix(1.38, 0.00, -0.00, -1.38, 906.6, 565.5)">b</text><text xml:space="preserve" font-family="CourierNewPSMT" font-size="14.0" fill="#000000" transform="matrix(1.38, 0.00, -0.00, -1.38, 918.2, 565.5)">-</text><text xml:space="preserve" font-family="CourierNewPSMT" font-size="14.0" fill="#000000" transform="matrix(1.38, 0.00, -0.00, -1.38, 929.7, 565.5)">f</text><text xml:space="preserve" font-family="CourierNewPSMT" font-size="14.0" fill="#000000" transform="matrix(1.38, 0.00, -0.00, -1.38, 941.3, 565.5)">i</text><text xml:space="preserve" font-family="CourierNewPSMT" font-size="14.0" fill="#000000" transform="matrix(1.38, 0.00, -0.00, -1.38, 952.8, 565.5)">l</text><text xml:space="preserve" font-family="CourierNewPSMT" font-size="14.0" fill="#000000" transform="matrix(1.38, 0.00, -0.00, -1.38, 964.4, 565.5)">e</text><path d="M 63.5 425.1 L 63.5 231.3 L 102.9 231.6 " fill="none" stroke="#000000" stroke-width="1.00" stroke-miterlimit="0.00" stroke-linecap="round" stroke-linejoin="round" transform="matrix(1.38, 0.00, 0.00, -1.38, -21.0, 733.2)"></path><path d="M 131.5 414.4 L 120.5 418.6 L 120.4 410.3 Z M 131.5 414.4 " fill="#000000"></path><path d="M 110.9 231.7 L 102.9 228.6 L 102.9 234.6 Z M 110.9 231.7 " fill="none" stroke="#000000" stroke-width="1.00" stroke-miterlimit="0.00" transform="matrix(1.38, 0.00, 0.00, -1.38, -21.0, 733.2)"></path><path d="M 63.3 147.2 C 64.6 148.4 66.7 148.4 68.0 147.2 C 69.2 145.9 69.2 143.8 68.0 142.5 C 66.7 141.2 64.6 141.2 63.3 142.5 C 62.0 143.8 62.0 145.9 63.3 147.2 " fill="#000000"></path><path d="M 61.3 425.8 C 62.2 424.9 63.8 424.9 64.7 425.8 C 65.6 426.7 65.6 428.3 64.7 429.2 C 63.8 430.1 62.2 430.1 61.3 429.2 C 60.4 428.3 60.4 426.7 61.3 425.8 " fill="none" stroke="#000000" stroke-width="1.00" stroke-miterlimit="0.00" transform="matrix(1.38, 0.00, 0.00, -1.38, -21.0, 733.2)"></path><path d="M 240.9 388.4 L 240.9 438.0 L 245.4 438.0 C 252.3 438.0 258.8 433.1 258.8 426.3 L 258.8 401.5 C 258.8 394.7 252.3 388.4 245.4 388.4 Z M 240.8 389.1 " fill="#FFF5D3"></path><path d="M 190.5 250.5 L 190.5 214.5 L 193.8 214.5 C 198.8 214.5 203.5 218.0 203.5 223.0 L 203.5 241.0 C 203.5 246.0 198.8 250.5 193.8 250.5 Z M 190.4 250.0 " fill="none" stroke="#000000" stroke-width="0.25" stroke-miterlimit="0.00" stroke-linecap="round" stroke-linejoin="round" transform="matrix(1.38, 0.00, 0.00, -1.38, -21.0, 733.2)"></path><path d="M 240.9 486.1 L 240.9 535.7 L 245.4 535.7 C 252.3 535.7 258.8 529.9 258.8 523.1 L 258.8 498.3 C 258.8 491.5 252.3 486.1 245.4 486.1 Z M 240.8 485.9 " fill="#FFF5D3"></path><path d="M 190.5 179.5 L 190.5 143.5 L 193.8 143.5 C 198.8 143.5 203.5 147.7 203.5 152.7 L 203.5 170.7 C 203.5 175.6 198.8 179.5 193.8 179.5 Z M 190.4 179.7 " fill="none" stroke="#000000" stroke-width="0.25" stroke-miterlimit="0.00" stroke-linecap="round" stroke-linejoin="round" transform="matrix(1.38, 0.00, 0.00, -1.38, -21.0, 733.2)"></path><path d="M 199.0 161.7 L 228.9 161.5 " fill="none" stroke="#000000" stroke-width="1.00" stroke-miterlimit="0.00" stroke-linecap="round" stroke-linejoin="round" transform="matrix(1.38, 0.00, 0.00, -1.38, -21.0, 733.2)"></path><path d="M 304.7 510.9 L 293.7 515.0 L 293.7 506.7 Z M 304.7 510.9 " fill="#000000"></path><path d="M 236.9 161.5 L 228.9 158.5 L 228.9 164.5 Z M 236.9 161.5 " fill="none" stroke="#000000" stroke-width="1.00" stroke-miterlimit="0.00" transform="matrix(1.38, 0.00, 0.00, -1.38, -21.0, 733.2)"></path><path d="M 251.6 513.0 C 252.9 511.7 252.9 509.6 251.7 508.4 C 250.4 507.1 248.3 507.0 247.0 508.3 C 245.7 509.6 245.7 511.7 247.0 513.0 C 248.3 514.3 250.3 514.3 251.6 513.0 " fill="#000000"></path><path d="M 198.3 160.0 C 199.2 160.9 199.2 162.4 198.3 163.4 C 197.4 164.3 195.8 164.3 194.9 163.4 C 194.0 162.4 194.0 160.9 194.9 160.0 C 195.8 159.0 197.3 159.0 198.3 160.0 " fill="none" stroke="#000000" stroke-width="1.00" stroke-miterlimit="0.00" transform="matrix(1.38, 0.00, 0.00, -1.38, -21.0, 733.2)"></path><path d="M 199.0 241.5 L 228.9 241.5 " fill="none" stroke="#000000" stroke-width="1.00" stroke-miterlimit="0.00" stroke-linecap="round" stroke-linejoin="round" transform="matrix(1.38, 0.00, 0.00, -1.38, -21.0, 733.2)"></path><path d="M 304.7 401.5 L 293.7 405.6 L 293.7 397.4 Z M 304.7 401.5 " fill="#000000"></path><path d="M 236.9 241.0 L 228.9 238.0 L 228.9 244.0 Z M 236.9 241.0 " fill="none" stroke="#000000" stroke-width="1.00" stroke-miterlimit="0.00" transform="matrix(1.38, 0.00, 0.00, -1.38, -21.0, 733.2)"></path><path d="M 251.6 403.8 C 252.9 402.5 252.9 400.5 251.6 399.2 C 250.4 397.9 248.3 397.9 247.0 399.2 C 245.7 400.5 245.7 402.5 247.0 403.8 C 248.3 405.1 250.4 405.1 251.6 403.8 " fill="#000000"></path><path d="M 198.3 239.3 C 199.2 240.2 199.2 241.8 198.3 242.7 C 197.4 243.6 195.8 243.6 194.9 242.7 C 194.0 241.8 194.0 240.2 194.9 239.3 C 195.8 238.4 197.4 238.4 198.3 239.3 " fill="none" stroke="#000000" stroke-width="1.00" stroke-miterlimit="0.00" transform="matrix(1.38, 0.00, 0.00, -1.38, -21.0, 733.2)"></path><path d="M 196.6 220.6 L 197.0 204.5 L 157.6 204.5 L 157.7 189.4 " fill="none" stroke="#000000" stroke-width="1.00" stroke-miterlimit="0.00" stroke-linecap="round" stroke-linejoin="round" transform="matrix(1.38, 0.00, 0.00, -1.38, -21.0, 733.2)"></path><path d="M 195.8 483.5 L 191.7 472.5 L 199.9 472.5 Z M 195.8 483.5 " fill="#000000"></path><path d="M 157.7 181.4 L 154.7 189.4 L 160.7 189.4 Z M 157.7 181.4 " fill="none" stroke="#000000" stroke-width="1.00" stroke-miterlimit="0.00" transform="matrix(1.38, 0.00, 0.00, -1.38, -21.0, 733.2)"></path><path d="M 247.0 428.7 C 248.3 429.9 250.4 429.9 251.7 428.6 C 253.0 427.2 252.9 425.2 251.6 423.9 C 250.3 422.6 248.2 422.7 246.9 424.0 C 245.7 425.3 245.7 427.4 247.0 428.7 " fill="#000000"></path><path d="M 194.9 221.3 C 195.9 220.4 197.4 220.4 198.3 221.3 C 199.2 222.3 199.2 223.8 198.3 224.7 C 197.3 225.6 195.8 225.6 194.9 224.7 C 193.9 223.7 194.0 222.2 194.9 221.3 " fill="none" stroke="#000000" stroke-width="1.00" stroke-miterlimit="0.00" transform="matrix(1.38, 0.00, 0.00, -1.38, -21.0, 733.2)"></path></g></g></g></svg>