<?xml version="1.0" encoding="UTF-8" standalone="no"?><svg xmlns="http://www.w3.org/2000/svg" xmlns:xlink="http://www.w3.org/1999/xlink" clip-rule="evenodd" stroke-miterlimit="4.00" viewBox="0 0 743 25"><desc>SVG generated by Keynote</desc><defs></defs><g transform="matrix(1.00, 0.00, -0.00, -1.00, 0.0, 25.0)"><text xml:space="preserve" font-family="Menlo-Regular" font-size="27.0" fill="#000000" transform="matrix(1.00, 0.00, -0.00, -1.00, 1.0, 3.0)">0</text><text xml:space="preserve" font-family="Menlo-Regular" font-size="27.0" fill="#000000" transform="matrix(1.00, 0.00, -0.00, -1.00, 17.3, 3.0)">4</text><text xml:space="preserve" font-family="Menlo-Regular" font-size="27.0" fill="#000000" transform="matrix(1.00, 0.00, -0.00, -1.00, 33.5, 3.0)">0</text><text xml:space="preserve" font-family="Menlo-Regular" font-size="27.0" fill="#000000" transform="matrix(1.00, 0.00, -0.00, -1.00, 49.8, 3.0)">0</text><text xml:space="preserve" font-family="Menlo-Regular" font-size="27.0" fill="#000000" transform="matrix(1.00, 0.00, -0.00, -1.00, 66.0, 3.0)">0</text><text xml:space="preserve" font-family="Menlo-Regular" font-size="27.0" fill="#000000" transform="matrix(1.00, 0.00, -0.00, -1.00, 82.3, 3.0)">0</text><text xml:space="preserve" font-family="Menlo-Regular" font-size="27.0" fill="#000000" transform="matrix(1.00, 0.00, -0.00, -1.00, 98.5, 3.0)"> </text><text xml:space="preserve" font-family="Menlo-Regular" font-size="27.0" fill="#000000" transform="matrix(1.00, 0.00, -0.00, -1.00, 114.8, 3.0)">t</text><text xml:space="preserve" font-family="Menlo-Regular" font-size="27.0" fill="#000000" transform="matrix(1.00, 0.00, -0.00, -1.00, 131.1, 3.0)">r</text><text xml:space="preserve" font-family="Menlo-Regular" font-size="27.0" fill="#000000" transform="matrix(1.00, 0.00, -0.00, -1.00, 147.3, 3.0)">e</text><text xml:space="preserve" font-family="Menlo-Regular" font-size="27.0" fill="#000000" transform="matrix(1.00, 0.00, -0.00, -1.00, 163.6, 3.0)">e</text><text xml:space="preserve" font-family="Menlo-Regular" font-size="27.0" fill="#000000" transform="matrix(1.00, 0.00, -0.00, -1.00, 179.8, 3.0)"> </text><text xml:space="preserve" font-family="Menlo-Regular" font-size="27.0" fill="#000000" transform="matrix(1.00, 0.00, -0.00, -1.00, 196.1, 3.0)">e</text><text xml:space="preserve" font-family="Menlo-Regular" font-size="27.0" fill="#000000" transform="matrix(1.00, 0.00, -0.00, -1.00, 212.4, 3.0)">b</text><text xml:space="preserve" font-family="Menlo-Regular" font-size="27.0" fill="#000000" transform="matrix(1.00, 0.00, -0.00, -1.00, 228.6, 3.0)">5</text><text xml:space="preserve" font-family="Menlo-Regular" font-size="27.0" fill="#000000" transform="matrix(1.00, 0.00, -0.00, -1.00, 244.9, 3.0)">e</text><text xml:space="preserve" font-family="Menlo-Regular" font-size="27.0" fill="#000000" transform="matrix(1.00, 0.00, -0.00, -1.00, 261.1, 3.0)">e</text><text xml:space="preserve" font-family="Menlo-Regular" font-size="27.0" fill="#000000" transform="matrix(1.00, 0.00, -0.00, -1.00, 277.4, 3.0)">e</text><text xml:space="preserve" font-family="Menlo-Regular" font-size="27.0" fill="#000000" transform="matrix(1.00, 0.00, -0.00, -1.00, 293.6, 3.0)">5</text><text xml:space="preserve" font-family="Menlo-Regular" font-size="27.0" fill="#000000" transform="matrix(1.00, 0.00, -0.00, -1.00, 309.9, 3.0)">2</text><text xml:space="preserve" font-family="Menlo-Regular" font-size="27.0" fill="#000000" transform="matrix(1.00, 0.00, -0.00, -1.00, 326.2, 3.0)">e</text><text xml:space="preserve" font-family="Menlo-Regular" font-size="27.0" fill="#000000" transform="matrix(1.00, 0.00, -0.00, -1.00, 342.4, 3.0)">6</text><text xml:space="preserve" font-family="Menlo-Regular" font-size="27.0" fill="#000000" transform="matrix(1.00, 0.00, -0.00, -1.00, 358.7, 3.0)">0</text><text xml:space="preserve" font-family="Menlo-Regular" font-size="27.0" fill="#000000" transform="matrix(1.00, 0.00, -0.00, -1.00, 374.9, 3.0)">7</text><text xml:space="preserve" font-family="Menlo-Regular" font-size="27.0" fill="#000000" transform="matrix(1.00, 0.00, -0.00, -1.00, 391.2, 3.0)">b</text><text xml:space="preserve" font-family="Menlo-Regular" font-size="27.0" fill="#000000" transform="matrix(1.00, 0.00, -0.00, -1.00, 407.5, 3.0)">f</text><text xml:space="preserve" font-family="Menlo-Regular" font-size="27.0" fill="#000000" transform="matrix(1.00, 0.00, -0.00, -1.00, 423.7, 3.0)">0</text><text xml:space="preserve" font-family="Menlo-Regular" font-size="27.0" fill="#000000" transform="matrix(1.00, 0.00, -0.00, -1.00, 440.0, 3.0)">0</text><text xml:space="preserve" font-family="Menlo-Regular" font-size="27.0" fill="#000000" transform="matrix(1.00, 0.00, -0.00, -1.00, 456.2, 3.0)">7</text><text xml:space="preserve" font-family="Menlo-Regular" font-size="27.0" fill="#000000" transform="matrix(1.00, 0.00, -0.00, -1.00, 472.5, 3.0)">c</text><text xml:space="preserve" font-family="Menlo-Regular" font-size="27.0" fill="#000000" transform="matrix(1.00, 0.00, -0.00, -1.00, 488.7, 3.0)">d</text><text xml:space="preserve" font-family="Menlo-Regular" font-size="27.0" fill="#000000" transform="matrix(1.00, 0.00, -0.00, -1.00, 505.0, 3.0)">6</text><text xml:space="preserve" font-family="Menlo-Regular" font-size="27.0" fill="#000000" transform="matrix(1.00, 0.00, -0.00, -1.00, 521.3, 3.0)">2</text><text xml:space="preserve" font-family="Menlo-Regular" font-size="27.0" fill="#000000" transform="matrix(1.00, 0.00, -0.00, -1.00, 537.5, 3.0)">a</text><text xml:space="preserve" font-family="Menlo-Regular" font-size="27.0" fill="#000000" transform="matrix(1.00, 0.00, -0.00, -1.00, 553.8, 3.0)">4</text><text xml:space="preserve" font-family="Menlo-Regular" font-size="27.0" fill="#000000" transform="matrix(1.00, 0.00, -0.00, -1.00, 570.0, 3.0)">.</text><text xml:space="preserve" font-family="Menlo-Regular" font-size="27.0" fill="#000000" transform="matrix(1.00, 0.00, -0.00, -1.00, 586.3, 3.0)">.</text><text xml:space="preserve" font-family="Menlo-Regular" font-size="27.0" fill="#000000" transform="matrix(1.00, 0.00, -0.00, -1.00, 602.5, 3.0)">.</text><text xml:space="preserve" font-family="Menlo-Regular" font-size="27.0" fill="#000000" transform="matrix(1.00, 0.00, -0.00, -1.00, 618.8, 3.0)"> </text><text xml:space="preserve" font-family="Menlo-Regular" font-size="27.0" fill="#000000" transform="matrix(1.00, 0.00, -0.00, -1.00, 635.1, 3.0)"> </text><text xml:space="preserve" font-family="Menlo-Regular" font-size="27.0" fill="#000000" transform="matrix(1.00, 0.00, -0.00, -1.00, 645.1, 3.0)">s</text><text xml:space="preserve" font-family="Menlo-Regular" font-size="27.0" fill="#000000" transform="matrix(1.00, 0.00, -0.00, -1.00, 661.4, 3.0)">u</text><text xml:space="preserve" font-family="Menlo-Regular" font-size="27.0" fill="#000000" transform="matrix(1.00, 0.00, -0.00, -1.00, 677.6, 3.0)">b</text><text xml:space="preserve" font-family="Menlo-Regular" font-size="27.0" fill="#000000" transform="matrix(1.00, 0.00, -0.00, -1.00, 693.9, 3.0)">d</text><text xml:space="preserve" font-family="Menlo-Regular" font-size="27.0" fill="#000000" transform="matrix(1.00, 0.00, -0.00, -1.00, 710.1, 3.0)">i</text><text xml:space="preserve" font-family="Menlo-Regular" font-size="27.0" fill="#000000" transform="matrix(1.00, 0.00, -0.00, -1.00, 726.4, 3.0)">r</text></g></svg>