<?xml version="1.0" encoding="UTF-8" standalone="no"?><svg xmlns="http://www.w3.org/2000/svg" xmlns:xlink="http://www.w3.org/1999/xlink" clip-rule="evenodd" stroke-miterlimit="4.00" viewBox="0 0 66 17"><desc>SVG generated by Keynote</desc><defs></defs><g transform="matrix(1.00, 0.00, -0.00, -1.00, 0.0, 17.0)"><text xml:space="preserve" font-family="Helvetica-Light" font-size="17.0" fill="#000000" transform="matrix(1.00, 0.00, -0.00, -1.00, 1.0, 2.0)">"</text><text xml:space="preserve" font-family="Helvetica-Light" font-size="17.0" fill="#000000" transform="matrix(1.00, 0.00, -0.00, -1.00, 5.7, 2.0)">s</text><text xml:space="preserve" font-family="Helvetica-Light" font-size="17.0" fill="#000000" transform="matrix(1.00, 0.00, -0.00, -1.00, 14.2, 2.0)">u</text><text xml:space="preserve" font-family="Helvetica-Light" font-size="17.0" fill="#000000" transform="matrix(1.00, 0.00, -0.00, -1.00, 23.7, 2.0)">b</text><text xml:space="preserve" font-family="Helvetica-Light" font-size="17.0" fill="#000000" transform="matrix(1.00, 0.00, -0.00, -1.00, 34.1, 2.0)"> </text><text xml:space="preserve" font-family="Helvetica-Light" font-size="17.0" fill="#000000" transform="matrix(1.00, 0.00, -0.00, -1.00, 38.8, 2.0)">ï¬</text><text xml:space="preserve" font-family="Helvetica-Light" font-size="17.0" fill="#000000" transform="matrix(1.00, 0.00, -0.00, -1.00, 47.3, 2.0)">l</text><text xml:space="preserve" font-family="Helvetica-Light" font-size="17.0" fill="#000000" transform="matrix(1.00, 0.00, -0.00, -1.00, 51.1, 2.0)">e</text><text xml:space="preserve" font-family="Helvetica-Light" font-size="17.0" fill="#000000" transform="matrix(1.00, 0.00, -0.00, -1.00, 60.5, 2.0)">"</text></g></svg>