<?xml version="1.0" encoding="UTF-8" standalone="no"?><svg xmlns="http://www.w3.org/2000/svg" xmlns:xlink="http://www.w3.org/1999/xlink" clip-rule="evenodd" stroke-miterlimit="4.00" viewBox="0 0 774 25"><desc>SVG generated by Keynote</desc><defs></defs><g transform="matrix(1.00, 0.00, -0.00, -1.00, 0.0, 25.0)"><text xml:space="preserve" font-family="Menlo-Regular" font-size="27.0" fill="#000000" transform="matrix(1.00, 0.00, -0.00, -1.00, 0.0, 3.0)">1</text><text xml:space="preserve" font-family="Menlo-Regular" font-size="27.0" fill="#000000" transform="matrix(1.00, 0.00, -0.00, -1.00, 16.3, 3.0)">0</text><text xml:space="preserve" font-family="Menlo-Regular" font-size="27.0" fill="#000000" transform="matrix(1.00, 0.00, -0.00, -1.00, 32.5, 3.0)">0</text><text xml:space="preserve" font-family="Menlo-Regular" font-size="27.0" fill="#000000" transform="matrix(1.00, 0.00, -0.00, -1.00, 48.8, 3.0)">6</text><text xml:space="preserve" font-family="Menlo-Regular" font-size="27.0" fill="#000000" transform="matrix(1.00, 0.00, -0.00, -1.00, 65.0, 3.0)">4</text><text xml:space="preserve" font-family="Menlo-Regular" font-size="27.0" fill="#000000" transform="matrix(1.00, 0.00, -0.00, -1.00, 81.3, 3.0)">4</text><text xml:space="preserve" font-family="Menlo-Regular" font-size="27.0" fill="#000000" transform="matrix(1.00, 0.00, -0.00, -1.00, 97.5, 3.0)"> </text><text xml:space="preserve" font-family="Menlo-Regular" font-size="27.0" fill="#000000" transform="matrix(1.00, 0.00, -0.00, -1.00, 113.8, 3.0)">b</text><text xml:space="preserve" font-family="Menlo-Regular" font-size="27.0" fill="#000000" transform="matrix(1.00, 0.00, -0.00, -1.00, 130.1, 3.0)">l</text><text xml:space="preserve" font-family="Menlo-Regular" font-size="27.0" fill="#000000" transform="matrix(1.00, 0.00, -0.00, -1.00, 146.3, 3.0)">o</text><text xml:space="preserve" font-family="Menlo-Regular" font-size="27.0" fill="#000000" transform="matrix(1.00, 0.00, -0.00, -1.00, 162.6, 3.0)">b</text><text xml:space="preserve" font-family="Menlo-Regular" font-size="27.0" fill="#000000" transform="matrix(1.00, 0.00, -0.00, -1.00, 178.8, 3.0)"> </text><text xml:space="preserve" font-family="Menlo-Regular" font-size="27.0" fill="#000000" transform="matrix(1.00, 0.00, -0.00, -1.00, 195.1, 3.0)">9</text><text xml:space="preserve" font-family="Menlo-Regular" font-size="27.0" fill="#000000" transform="matrix(1.00, 0.00, -0.00, -1.00, 211.4, 3.0)">9</text><text xml:space="preserve" font-family="Menlo-Regular" font-size="27.0" fill="#000000" transform="matrix(1.00, 0.00, -0.00, -1.00, 227.6, 3.0)">7</text><text xml:space="preserve" font-family="Menlo-Regular" font-size="27.0" fill="#000000" transform="matrix(1.00, 0.00, -0.00, -1.00, 243.9, 3.0)">8</text><text xml:space="preserve" font-family="Menlo-Regular" font-size="27.0" fill="#000000" transform="matrix(1.00, 0.00, -0.00, -1.00, 260.1, 3.0)">d</text><text xml:space="preserve" font-family="Menlo-Regular" font-size="27.0" fill="#000000" transform="matrix(1.00, 0.00, -0.00, -1.00, 276.4, 3.0)">9</text><text xml:space="preserve" font-family="Menlo-Regular" font-size="27.0" fill="#000000" transform="matrix(1.00, 0.00, -0.00, -1.00, 292.6, 3.0)">7</text><text xml:space="preserve" font-family="Menlo-Regular" font-size="27.0" fill="#000000" transform="matrix(1.00, 0.00, -0.00, -1.00, 308.9, 3.0)">9</text><text xml:space="preserve" font-family="Menlo-Regular" font-size="27.0" fill="#000000" transform="matrix(1.00, 0.00, -0.00, -1.00, 325.2, 3.0)">1</text><text xml:space="preserve" font-family="Menlo-Regular" font-size="27.0" fill="#000000" transform="matrix(1.00, 0.00, -0.00, -1.00, 341.4, 3.0)">1</text><text xml:space="preserve" font-family="Menlo-Regular" font-size="27.0" fill="#000000" transform="matrix(1.00, 0.00, -0.00, -1.00, 357.7, 3.0)">3</text><text xml:space="preserve" font-family="Menlo-Regular" font-size="27.0" fill="#000000" transform="matrix(1.00, 0.00, -0.00, -1.00, 373.9, 3.0)">2</text><text xml:space="preserve" font-family="Menlo-Regular" font-size="27.0" fill="#000000" transform="matrix(1.00, 0.00, -0.00, -1.00, 390.2, 3.0)">f</text><text xml:space="preserve" font-family="Menlo-Regular" font-size="27.0" fill="#000000" transform="matrix(1.00, 0.00, -0.00, -1.00, 406.5, 3.0)">4</text><text xml:space="preserve" font-family="Menlo-Regular" font-size="27.0" fill="#000000" transform="matrix(1.00, 0.00, -0.00, -1.00, 422.7, 3.0)">f</text><text xml:space="preserve" font-family="Menlo-Regular" font-size="27.0" fill="#000000" transform="matrix(1.00, 0.00, -0.00, -1.00, 439.0, 3.0)">8</text><text xml:space="preserve" font-family="Menlo-Regular" font-size="27.0" fill="#000000" transform="matrix(1.00, 0.00, -0.00, -1.00, 455.2, 3.0)">4</text><text xml:space="preserve" font-family="Menlo-Regular" font-size="27.0" fill="#000000" transform="matrix(1.00, 0.00, -0.00, -1.00, 471.5, 3.0)">3</text><text xml:space="preserve" font-family="Menlo-Regular" font-size="27.0" fill="#000000" transform="matrix(1.00, 0.00, -0.00, -1.00, 487.7, 3.0)">2</text><text xml:space="preserve" font-family="Menlo-Regular" font-size="27.0" fill="#000000" transform="matrix(1.00, 0.00, -0.00, -1.00, 504.0, 3.0)">2</text><text xml:space="preserve" font-family="Menlo-Regular" font-size="27.0" fill="#000000" transform="matrix(1.00, 0.00, -0.00, -1.00, 520.3, 3.0)">7</text><text xml:space="preserve" font-family="Menlo-Regular" font-size="27.0" fill="#000000" transform="matrix(1.00, 0.00, -0.00, -1.00, 536.5, 3.0)">2</text><text xml:space="preserve" font-family="Menlo-Regular" font-size="27.0" fill="#000000" transform="matrix(1.00, 0.00, -0.00, -1.00, 552.8, 3.0)">2</text><text xml:space="preserve" font-family="Menlo-Regular" font-size="27.0" fill="#000000" transform="matrix(1.00, 0.00, -0.00, -1.00, 569.0, 3.0)">.</text><text xml:space="preserve" font-family="Menlo-Regular" font-size="27.0" fill="#000000" transform="matrix(1.00, 0.00, -0.00, -1.00, 585.3, 3.0)">.</text><text xml:space="preserve" font-family="Menlo-Regular" font-size="27.0" fill="#000000" transform="matrix(1.00, 0.00, -0.00, -1.00, 601.5, 3.0)">.</text><text xml:space="preserve" font-family="Menlo-Regular" font-size="27.0" fill="#000000" transform="matrix(1.00, 0.00, -0.00, -1.00, 617.8, 3.0)"> </text><text xml:space="preserve" font-family="Menlo-Regular" font-size="27.0" fill="#000000" transform="matrix(1.00, 0.00, -0.00, -1.00, 634.0, 3.0)"> </text><text xml:space="preserve" font-family="Menlo-Regular" font-size="27.0" fill="#000000" transform="matrix(1.00, 0.00, -0.00, -1.00, 644.0, 3.0)">s</text><text xml:space="preserve" font-family="Menlo-Regular" font-size="27.0" fill="#000000" transform="matrix(1.00, 0.00, -0.00, -1.00, 660.3, 3.0)">u</text><text xml:space="preserve" font-family="Menlo-Regular" font-size="27.0" fill="#000000" transform="matrix(1.00, 0.00, -0.00, -1.00, 676.5, 3.0)">b</text><text xml:space="preserve" font-family="Menlo-Regular" font-size="27.0" fill="#000000" transform="matrix(1.00, 0.00, -0.00, -1.00, 692.8, 3.0)">-</text><text xml:space="preserve" font-family="Menlo-Regular" font-size="27.0" fill="#000000" transform="matrix(1.00, 0.00, -0.00, -1.00, 709.0, 3.0)">f</text><text xml:space="preserve" font-family="Menlo-Regular" font-size="27.0" fill="#000000" transform="matrix(1.00, 0.00, -0.00, -1.00, 725.3, 3.0)">i</text><text xml:space="preserve" font-family="Menlo-Regular" font-size="27.0" fill="#000000" transform="matrix(1.00, 0.00, -0.00, -1.00, 741.5, 3.0)">l</text><text xml:space="preserve" font-family="Menlo-Regular" font-size="27.0" fill="#000000" transform="matrix(1.00, 0.00, -0.00, -1.00, 757.8, 3.0)">e</text></g></svg>