<?xml version="1.0" encoding="UTF-8" standalone="no"?><svg xmlns="http://www.w3.org/2000/svg" xmlns:xlink="http://www.w3.org/1999/xlink" clip-rule="evenodd" stroke-miterlimit="4.00" viewBox="0 0 897 327"><desc>SVG generated by Keynote</desc><defs></defs><g transform="matrix(1.00, 0.00, -0.00, -1.00, 0.0, 327.0)"><text xml:space="preserve" font-family="Menlo-Regular" font-size="28.0" fill="#000000" transform="matrix(1.00, 0.00, -0.00, -1.00, 1.0, 302.0)">i</text><text xml:space="preserve" font-family="Menlo-Regular" font-size="28.0" fill="#000000" transform="matrix(1.00, 0.00, -0.00, -1.00, 17.9, 302.0)">n</text><text xml:space="preserve" font-family="Menlo-Regular" font-size="28.0" fill="#000000" transform="matrix(1.00, 0.00, -0.00, -1.00, 34.7, 302.0)">i</text><text xml:space="preserve" font-family="Menlo-Regular" font-size="28.0" fill="#000000" transform="matrix(1.00, 0.00, -0.00, -1.00, 51.6, 302.0)">t</text><text xml:space="preserve" font-family="Menlo-Regular" font-size="28.0" fill="#000000" transform="matrix(1.00, 0.00, -0.00, -1.00, 68.4, 302.0)">(</text><text xml:space="preserve" font-family="Menlo-Regular" font-size="28.0" fill="#000000" transform="matrix(1.00, 0.00, -0.00, -1.00, 85.3, 302.0)">)</text><text xml:space="preserve" font-family="Menlo-Regular" font-size="28.0" fill="#000000" transform="matrix(1.00, 0.00, -0.00, -1.00, 102.2, 302.0)"> </text><text xml:space="preserve" font-family="Menlo-Regular" font-size="28.0" fill="#000000" transform="matrix(1.00, 0.00, -0.00, -1.00, 119.0, 302.0)">{</text><text xml:space="preserve" font-family="Menlo-Regular" font-size="28.0" fill="#000000" transform="matrix(1.00, 0.00, -0.00, -1.00, 135.9, 302.0)"> </text><text xml:space="preserve" font-family="Menlo-Regular" font-size="28.0" fill="#000000" transform="matrix(1.00, 0.00, -0.00, -1.00, 1.0, 269.0)"> </text><text xml:space="preserve" font-family="Menlo-Regular" font-size="28.0" fill="#000000" transform="matrix(1.00, 0.00, -0.00, -1.00, 17.9, 269.0)"> </text><text xml:space="preserve" font-family="Menlo-Regular" font-size="28.0" fill="#000000" transform="matrix(1.00, 0.00, -0.00, -1.00, 34.7, 269.0)"> </text><text xml:space="preserve" font-family="Menlo-Regular" font-size="28.0" fill="#000000" transform="matrix(1.00, 0.00, -0.00, -1.00, 51.6, 269.0)"> </text><text xml:space="preserve" font-family="Menlo-Regular" font-size="28.0" fill="#000000" transform="matrix(1.00, 0.00, -0.00, -1.00, 68.4, 269.0)">p</text><text xml:space="preserve" font-family="Menlo-Regular" font-size="28.0" fill="#000000" transform="matrix(1.00, 0.00, -0.00, -1.00, 85.3, 269.0)">a</text><text xml:space="preserve" font-family="Menlo-Regular" font-size="28.0" fill="#000000" transform="matrix(1.00, 0.00, -0.00, -1.00, 102.2, 269.0)">t</text><text xml:space="preserve" font-family="Menlo-Regular" font-size="28.0" fill="#000000" transform="matrix(1.00, 0.00, -0.00, -1.00, 119.0, 269.0)">h</text><text xml:space="preserve" font-family="Menlo-Regular" font-size="28.0" fill="#000000" transform="matrix(1.00, 0.00, -0.00, -1.00, 135.9, 269.0)">=</text><text xml:space="preserve" font-family="Menlo-Regular" font-size="28.0" fill="#C81B13" transform="matrix(1.00, 0.00, -0.00, -1.00, 152.7, 269.0)">"</text><text xml:space="preserve" font-family="Menlo-Regular" font-size="28.0" fill="#C81B13" transform="matrix(1.00, 0.00, -0.00, -1.00, 169.6, 269.0)">$</text><text xml:space="preserve" font-family="Menlo-Regular" font-size="28.0" fill="#C81B13" transform="matrix(1.00, 0.00, -0.00, -1.00, 186.4, 269.0)">1</text><text xml:space="preserve" font-family="Menlo-Regular" font-size="28.0" fill="#C81B13" transform="matrix(1.00, 0.00, -0.00, -1.00, 203.3, 269.0)">"</text><text xml:space="preserve" font-family="Menlo-Regular" font-size="28.0" fill="#000000" transform="matrix(1.00, 0.00, -0.00, -1.00, 220.1, 269.0)">;</text><text xml:space="preserve" font-family="Menlo-Regular" font-size="28.0" fill="#000000" transform="matrix(1.00, 0.00, -0.00, -1.00, 237.0, 269.0)"> </text><text xml:space="preserve" font-family="Menlo-Regular" font-size="28.0" fill="#000000" transform="matrix(1.00, 0.00, -0.00, -1.00, 1.0, 236.0)"> </text><text xml:space="preserve" font-family="Menlo-Regular" font-size="28.0" fill="#000000" transform="matrix(1.00, 0.00, -0.00, -1.00, 17.9, 236.0)"> </text><text xml:space="preserve" font-family="Menlo-Regular" font-size="28.0" fill="#000000" transform="matrix(1.00, 0.00, -0.00, -1.00, 34.7, 236.0)"> </text><text xml:space="preserve" font-family="Menlo-Regular" font-size="28.0" fill="#000000" transform="matrix(1.00, 0.00, -0.00, -1.00, 51.6, 236.0)"> </text><text xml:space="preserve" font-family="Menlo-Regular" font-size="28.0" fill="#C32275" transform="matrix(1.00, 0.00, -0.00, -1.00, 68.4, 236.0)">i</text><text xml:space="preserve" font-family="Menlo-Regular" font-size="28.0" fill="#C32275" transform="matrix(1.00, 0.00, -0.00, -1.00, 85.3, 236.0)">f</text><text xml:space="preserve" font-family="Menlo-Regular" font-size="28.0" fill="#000000" transform="matrix(1.00, 0.00, -0.00, -1.00, 102.1, 236.0)"> </text><text xml:space="preserve" font-family="Menlo-Regular" font-size="28.0" fill="#000000" transform="matrix(1.00, 0.00, -0.00, -1.00, 119.0, 236.0)">[</text><text xml:space="preserve" font-family="Menlo-Regular" font-size="28.0" fill="#000000" transform="matrix(1.00, 0.00, -0.00, -1.00, 135.9, 236.0)"> </text><text xml:space="preserve" font-family="Menlo-Regular" font-size="28.0" fill="#000000" transform="matrix(1.00, 0.00, -0.00, -1.00, 152.7, 236.0)">!</text><text xml:space="preserve" font-family="Menlo-Regular" font-size="28.0" fill="#000000" transform="matrix(1.00, 0.00, -0.00, -1.00, 169.6, 236.0)"> </text><text xml:space="preserve" font-family="Menlo-Regular" font-size="28.0" fill="#000000" transform="matrix(1.00, 0.00, -0.00, -1.00, 186.4, 236.0)">-</text><text xml:space="preserve" font-family="Menlo-Regular" font-size="28.0" fill="#000000" transform="matrix(1.00, 0.00, -0.00, -1.00, 203.3, 236.0)">d</text><text xml:space="preserve" font-family="Menlo-Regular" font-size="28.0" fill="#000000" transform="matrix(1.00, 0.00, -0.00, -1.00, 220.2, 236.0)"> </text><text xml:space="preserve" font-family="Menlo-Regular" font-size="28.0" fill="#C81B13" transform="matrix(1.00, 0.00, -0.00, -1.00, 237.0, 236.0)">"</text><text xml:space="preserve" font-family="Menlo-Regular" font-size="28.0" fill="#C81B13" transform="matrix(1.00, 0.00, -0.00, -1.00, 253.9, 236.0)">$</text><text xml:space="preserve" font-family="Menlo-Regular" font-size="28.0" fill="#C81B13" transform="matrix(1.00, 0.00, -0.00, -1.00, 270.7, 236.0)">{</text><text xml:space="preserve" font-family="Menlo-Regular" font-size="28.0" fill="#C81B13" transform="matrix(1.00, 0.00, -0.00, -1.00, 287.6, 236.0)">p</text><text xml:space="preserve" font-family="Menlo-Regular" font-size="28.0" fill="#C81B13" transform="matrix(1.00, 0.00, -0.00, -1.00, 304.4, 236.0)">a</text><text xml:space="preserve" font-family="Menlo-Regular" font-size="28.0" fill="#C81B13" transform="matrix(1.00, 0.00, -0.00, -1.00, 321.3, 236.0)">t</text><text xml:space="preserve" font-family="Menlo-Regular" font-size="28.0" fill="#C81B13" transform="matrix(1.00, 0.00, -0.00, -1.00, 338.2, 236.0)">h</text><text xml:space="preserve" font-family="Menlo-Regular" font-size="28.0" fill="#C81B13" transform="matrix(1.00, 0.00, -0.00, -1.00, 355.0, 236.0)">}</text><text xml:space="preserve" font-family="Menlo-Regular" font-size="28.0" fill="#C81B13" transform="matrix(1.00, 0.00, -0.00, -1.00, 371.9, 236.0)">"</text><text xml:space="preserve" font-family="Menlo-Regular" font-size="28.0" fill="#000000" transform="matrix(1.00, 0.00, -0.00, -1.00, 388.7, 236.0)"> </text><text xml:space="preserve" font-family="Menlo-Regular" font-size="28.0" fill="#000000" transform="matrix(1.00, 0.00, -0.00, -1.00, 405.6, 236.0)">]</text><text xml:space="preserve" font-family="Menlo-Regular" font-size="28.0" fill="#000000" transform="matrix(1.00, 0.00, -0.00, -1.00, 422.4, 236.0)">;</text><text xml:space="preserve" font-family="Menlo-Regular" font-size="28.0" fill="#000000" transform="matrix(1.00, 0.00, -0.00, -1.00, 439.3, 236.0)"> </text><text xml:space="preserve" font-family="Menlo-Regular" font-size="28.0" fill="#C32275" transform="matrix(1.00, 0.00, -0.00, -1.00, 456.2, 236.0)">t</text><text xml:space="preserve" font-family="Menlo-Regular" font-size="28.0" fill="#C32275" transform="matrix(1.00, 0.00, -0.00, -1.00, 473.0, 236.0)">h</text><text xml:space="preserve" font-family="Menlo-Regular" font-size="28.0" fill="#C32275" transform="matrix(1.00, 0.00, -0.00, -1.00, 489.9, 236.0)">e</text><text xml:space="preserve" font-family="Menlo-Regular" font-size="28.0" fill="#C32275" transform="matrix(1.00, 0.00, -0.00, -1.00, 506.7, 236.0)">n</text><text xml:space="preserve" font-family="Menlo-Regular" font-size="28.0" fill="#000000" transform="matrix(1.00, 0.00, -0.00, -1.00, 523.6, 236.0)"> </text><text xml:space="preserve" font-family="Menlo-Regular" font-size="28.0" fill="#000000" transform="matrix(1.00, 0.00, -0.00, -1.00, 1.0, 203.0)"> </text><text xml:space="preserve" font-family="Menlo-Regular" font-size="28.0" fill="#000000" transform="matrix(1.00, 0.00, -0.00, -1.00, 17.9, 203.0)"> </text><text xml:space="preserve" font-family="Menlo-Regular" font-size="28.0" fill="#000000" transform="matrix(1.00, 0.00, -0.00, -1.00, 34.7, 203.0)"> </text><text xml:space="preserve" font-family="Menlo-Regular" font-size="28.0" fill="#000000" transform="matrix(1.00, 0.00, -0.00, -1.00, 51.6, 203.0)"> </text><text xml:space="preserve" font-family="Menlo-Regular" font-size="28.0" fill="#000000" transform="matrix(1.00, 0.00, -0.00, -1.00, 68.4, 203.0)"> </text><text xml:space="preserve" font-family="Menlo-Regular" font-size="28.0" fill="#000000" transform="matrix(1.00, 0.00, -0.00, -1.00, 85.3, 203.0)"> </text><text xml:space="preserve" font-family="Menlo-Regular" font-size="28.0" fill="#000000" transform="matrix(1.00, 0.00, -0.00, -1.00, 102.2, 203.0)"> </text><text xml:space="preserve" font-family="Menlo-Regular" font-size="28.0" fill="#000000" transform="matrix(1.00, 0.00, -0.00, -1.00, 119.0, 203.0)"> </text><text xml:space="preserve" font-family="Menlo-Regular" font-size="28.0" fill="#000000" transform="matrix(1.00, 0.00, -0.00, -1.00, 135.9, 203.0)">e</text><text xml:space="preserve" font-family="Menlo-Regular" font-size="28.0" fill="#000000" transform="matrix(1.00, 0.00, -0.00, -1.00, 152.7, 203.0)">c</text><text xml:space="preserve" font-family="Menlo-Regular" font-size="28.0" fill="#000000" transform="matrix(1.00, 0.00, -0.00, -1.00, 169.6, 203.0)">h</text><text xml:space="preserve" font-family="Menlo-Regular" font-size="28.0" fill="#000000" transform="matrix(1.00, 0.00, -0.00, -1.00, 186.5, 203.0)">o</text><text xml:space="preserve" font-family="Menlo-Regular" font-size="28.0" fill="#000000" transform="matrix(1.00, 0.00, -0.00, -1.00, 203.3, 203.0)"> </text><text xml:space="preserve" font-family="Menlo-Regular" font-size="28.0" fill="#C81B13" transform="matrix(1.00, 0.00, -0.00, -1.00, 220.1, 203.0)">"</text><text xml:space="preserve" font-family="Menlo-Regular" font-size="28.0" fill="#C81B13" transform="matrix(1.00, 0.00, -0.00, -1.00, 237.0, 203.0)">P</text><text xml:space="preserve" font-family="Menlo-Regular" font-size="28.0" fill="#C81B13" transform="matrix(1.00, 0.00, -0.00, -1.00, 253.9, 203.0)">a</text><text xml:space="preserve" font-family="Menlo-Regular" font-size="28.0" fill="#C81B13" transform="matrix(1.00, 0.00, -0.00, -1.00, 270.7, 203.0)">t</text><text xml:space="preserve" font-family="Menlo-Regular" font-size="28.0" fill="#C81B13" transform="matrix(1.00, 0.00, -0.00, -1.00, 287.6, 203.0)">h</text><text xml:space="preserve" font-family="Menlo-Regular" font-size="28.0" fill="#C81B13" transform="matrix(1.00, 0.00, -0.00, -1.00, 304.4, 203.0)"> </text><text xml:space="preserve" font-family="Menlo-Regular" font-size="28.0" fill="#C81B13" transform="matrix(1.00, 0.00, -0.00, -1.00, 321.3, 203.0)">'</text><text xml:space="preserve" font-family="Menlo-Regular" font-size="28.0" fill="#C81B13" transform="matrix(1.00, 0.00, -0.00, -1.00, 338.2, 203.0)">$</text><text xml:space="preserve" font-family="Menlo-Regular" font-size="28.0" fill="#C81B13" transform="matrix(1.00, 0.00, -0.00, -1.00, 355.0, 203.0)">{</text><text xml:space="preserve" font-family="Menlo-Regular" font-size="28.0" fill="#C81B13" transform="matrix(1.00, 0.00, -0.00, -1.00, 371.9, 203.0)">p</text><text xml:space="preserve" font-family="Menlo-Regular" font-size="28.0" fill="#C81B13" transform="matrix(1.00, 0.00, -0.00, -1.00, 388.7, 203.0)">a</text><text xml:space="preserve" font-family="Menlo-Regular" font-size="28.0" fill="#C81B13" transform="matrix(1.00, 0.00, -0.00, -1.00, 405.6, 203.0)">t</text><text xml:space="preserve" font-family="Menlo-Regular" font-size="28.0" fill="#C81B13" transform="matrix(1.00, 0.00, -0.00, -1.00, 422.5, 203.0)">h</text><text xml:space="preserve" font-family="Menlo-Regular" font-size="28.0" fill="#C81B13" transform="matrix(1.00, 0.00, -0.00, -1.00, 439.3, 203.0)">}</text><text xml:space="preserve" font-family="Menlo-Regular" font-size="28.0" fill="#C81B13" transform="matrix(1.00, 0.00, -0.00, -1.00, 456.2, 203.0)">'</text><text xml:space="preserve" font-family="Menlo-Regular" font-size="28.0" fill="#C81B13" transform="matrix(1.00, 0.00, -0.00, -1.00, 473.0, 203.0)"> </text><text xml:space="preserve" font-family="Menlo-Regular" font-size="28.0" fill="#C81B13" transform="matrix(1.00, 0.00, -0.00, -1.00, 489.9, 203.0)">d</text><text xml:space="preserve" font-family="Menlo-Regular" font-size="28.0" fill="#C81B13" transform="matrix(1.00, 0.00, -0.00, -1.00, 506.8, 203.0)">o</text><text xml:space="preserve" font-family="Menlo-Regular" font-size="28.0" fill="#C81B13" transform="matrix(1.00, 0.00, -0.00, -1.00, 523.6, 203.0)">e</text><text xml:space="preserve" font-family="Menlo-Regular" font-size="28.0" fill="#C81B13" transform="matrix(1.00, 0.00, -0.00, -1.00, 540.5, 203.0)">s</text><text xml:space="preserve" font-family="Menlo-Regular" font-size="28.0" fill="#C81B13" transform="matrix(1.00, 0.00, -0.00, -1.00, 557.4, 203.0)"> </text><text xml:space="preserve" font-family="Menlo-Regular" font-size="28.0" fill="#C81B13" transform="matrix(1.00, 0.00, -0.00, -1.00, 574.2, 203.0)">n</text><text xml:space="preserve" font-family="Menlo-Regular" font-size="28.0" fill="#C81B13" transform="matrix(1.00, 0.00, -0.00, -1.00, 591.1, 203.0)">o</text><text xml:space="preserve" font-family="Menlo-Regular" font-size="28.0" fill="#C81B13" transform="matrix(1.00, 0.00, -0.00, -1.00, 607.9, 203.0)">t</text><text xml:space="preserve" font-family="Menlo-Regular" font-size="28.0" fill="#C81B13" transform="matrix(1.00, 0.00, -0.00, -1.00, 624.8, 203.0)"> </text><text xml:space="preserve" font-family="Menlo-Regular" font-size="28.0" fill="#C81B13" transform="matrix(1.00, 0.00, -0.00, -1.00, 641.7, 203.0)">e</text><text xml:space="preserve" font-family="Menlo-Regular" font-size="28.0" fill="#C81B13" transform="matrix(1.00, 0.00, -0.00, -1.00, 658.5, 203.0)">x</text><text xml:space="preserve" font-family="Menlo-Regular" font-size="28.0" fill="#C81B13" transform="matrix(1.00, 0.00, -0.00, -1.00, 675.4, 203.0)">i</text><text xml:space="preserve" font-family="Menlo-Regular" font-size="28.0" fill="#C81B13" transform="matrix(1.00, 0.00, -0.00, -1.00, 692.2, 203.0)">s</text><text xml:space="preserve" font-family="Menlo-Regular" font-size="28.0" fill="#C81B13" transform="matrix(1.00, 0.00, -0.00, -1.00, 709.1, 203.0)">t</text><text xml:space="preserve" font-family="Menlo-Regular" font-size="28.0" fill="#C81B13" transform="matrix(1.00, 0.00, -0.00, -1.00, 726.0, 203.0)">"</text><text xml:space="preserve" font-family="Menlo-Regular" font-size="28.0" fill="#000000" transform="matrix(1.00, 0.00, -0.00, -1.00, 742.7, 203.0)">;</text><text xml:space="preserve" font-family="Menlo-Regular" font-size="28.0" fill="#000000" transform="matrix(1.00, 0.00, -0.00, -1.00, 759.6, 203.0)"> </text><text xml:space="preserve" font-family="Menlo-Regular" font-size="28.0" fill="#000000" transform="matrix(1.00, 0.00, -0.00, -1.00, 776.4, 203.0)">r</text><text xml:space="preserve" font-family="Menlo-Regular" font-size="28.0" fill="#000000" transform="matrix(1.00, 0.00, -0.00, -1.00, 793.3, 203.0)">e</text><text xml:space="preserve" font-family="Menlo-Regular" font-size="28.0" fill="#000000" transform="matrix(1.00, 0.00, -0.00, -1.00, 810.2, 203.0)">t</text><text xml:space="preserve" font-family="Menlo-Regular" font-size="28.0" fill="#000000" transform="matrix(1.00, 0.00, -0.00, -1.00, 827.0, 203.0)">u</text><text xml:space="preserve" font-family="Menlo-Regular" font-size="28.0" fill="#000000" transform="matrix(1.00, 0.00, -0.00, -1.00, 843.9, 203.0)">r</text><text xml:space="preserve" font-family="Menlo-Regular" font-size="28.0" fill="#000000" transform="matrix(1.00, 0.00, -0.00, -1.00, 860.7, 203.0)">n</text><text xml:space="preserve" font-family="Menlo-Regular" font-size="28.0" fill="#000000" transform="matrix(1.00, 0.00, -0.00, -1.00, 877.6, 203.0)">;</text><text xml:space="preserve" font-family="Menlo-Regular" font-size="28.0" fill="#000000" transform="matrix(1.00, 0.00, -0.00, -1.00, 894.4, 203.0)"> </text><text xml:space="preserve" font-family="Menlo-Regular" font-size="28.0" fill="#000000" transform="matrix(1.00, 0.00, -0.00, -1.00, 1.0, 170.0)"> </text><text xml:space="preserve" font-family="Menlo-Regular" font-size="28.0" fill="#000000" transform="matrix(1.00, 0.00, -0.00, -1.00, 17.9, 170.0)"> </text><text xml:space="preserve" font-family="Menlo-Regular" font-size="28.0" fill="#000000" transform="matrix(1.00, 0.00, -0.00, -1.00, 34.7, 170.0)"> </text><text xml:space="preserve" font-family="Menlo-Regular" font-size="28.0" fill="#000000" transform="matrix(1.00, 0.00, -0.00, -1.00, 51.6, 170.0)"> </text><text xml:space="preserve" font-family="Menlo-Regular" font-size="28.0" fill="#C32275" transform="matrix(1.00, 0.00, -0.00, -1.00, 68.4, 170.0)">f</text><text xml:space="preserve" font-family="Menlo-Regular" font-size="28.0" fill="#C32275" transform="matrix(1.00, 0.00, -0.00, -1.00, 85.3, 170.0)">i</text><text xml:space="preserve" font-family="Menlo-Regular" font-size="28.0" fill="#000000" transform="matrix(1.00, 0.00, -0.00, -1.00, 102.1, 170.0)"> </text><text xml:space="preserve" font-family="Menlo-Regular" font-size="28.0" fill="#000000" transform="matrix(1.00, 0.00, -0.00, -1.00, 1.0, 137.0)"> </text><text xml:space="preserve" font-family="Menlo-Regular" font-size="28.0" fill="#000000" transform="matrix(1.00, 0.00, -0.00, -1.00, 17.9, 137.0)"> </text><text xml:space="preserve" font-family="Menlo-Regular" font-size="28.0" fill="#000000" transform="matrix(1.00, 0.00, -0.00, -1.00, 34.7, 137.0)"> </text><text xml:space="preserve" font-family="Menlo-Regular" font-size="28.0" fill="#000000" transform="matrix(1.00, 0.00, -0.00, -1.00, 51.6, 137.0)"> </text><text xml:space="preserve" font-family="Menlo-Regular" font-size="28.0" fill="#000000" transform="matrix(1.00, 0.00, -0.00, -1.00, 68.4, 137.0)">c</text><text xml:space="preserve" font-family="Menlo-Regular" font-size="28.0" fill="#000000" transform="matrix(1.00, 0.00, -0.00, -1.00, 85.3, 137.0)">d</text><text xml:space="preserve" font-family="Menlo-Regular" font-size="28.0" fill="#000000" transform="matrix(1.00, 0.00, -0.00, -1.00, 102.2, 137.0)"> </text><text xml:space="preserve" font-family="Menlo-Regular" font-size="28.0" fill="#000000" transform="matrix(1.00, 0.00, -0.00, -1.00, 119.0, 137.0)">"</text><text xml:space="preserve" font-family="Menlo-Regular" font-size="28.0" fill="#000000" transform="matrix(1.00, 0.00, -0.00, -1.00, 135.9, 137.0)">$</text><text xml:space="preserve" font-family="Menlo-Regular" font-size="28.0" fill="#000000" transform="matrix(1.00, 0.00, -0.00, -1.00, 152.7, 137.0)">{</text><text xml:space="preserve" font-family="Menlo-Regular" font-size="28.0" fill="#000000" transform="matrix(1.00, 0.00, -0.00, -1.00, 169.6, 137.0)">p</text><text xml:space="preserve" font-family="Menlo-Regular" font-size="28.0" fill="#000000" transform="matrix(1.00, 0.00, -0.00, -1.00, 186.5, 137.0)">a</text><text xml:space="preserve" font-family="Menlo-Regular" font-size="28.0" fill="#000000" transform="matrix(1.00, 0.00, -0.00, -1.00, 203.3, 137.0)">t</text><text xml:space="preserve" font-family="Menlo-Regular" font-size="28.0" fill="#000000" transform="matrix(1.00, 0.00, -0.00, -1.00, 220.2, 137.0)">h</text><text xml:space="preserve" font-family="Menlo-Regular" font-size="28.0" fill="#000000" transform="matrix(1.00, 0.00, -0.00, -1.00, 237.0, 137.0)">}</text><text xml:space="preserve" font-family="Menlo-Regular" font-size="28.0" fill="#000000" transform="matrix(1.00, 0.00, -0.00, -1.00, 253.9, 137.0)">"</text><text xml:space="preserve" font-family="Menlo-Regular" font-size="28.0" fill="#000000" transform="matrix(1.00, 0.00, -0.00, -1.00, 270.7, 137.0)">;</text><text xml:space="preserve" font-family="Menlo-Regular" font-size="28.0" fill="#000000" transform="matrix(1.00, 0.00, -0.00, -1.00, 287.6, 137.0)"> </text><text xml:space="preserve" font-family="Menlo-Regular" font-size="28.0" fill="#000000" transform="matrix(1.00, 0.00, -0.00, -1.00, 1.0, 104.0)"> </text><text xml:space="preserve" font-family="Menlo-Regular" font-size="28.0" fill="#000000" transform="matrix(1.00, 0.00, -0.00, -1.00, 17.9, 104.0)"> </text><text xml:space="preserve" font-family="Menlo-Regular" font-size="28.0" fill="#000000" transform="matrix(1.00, 0.00, -0.00, -1.00, 34.7, 104.0)"> </text><text xml:space="preserve" font-family="Menlo-Regular" font-size="28.0" fill="#000000" transform="matrix(1.00, 0.00, -0.00, -1.00, 51.6, 104.0)"> </text><text xml:space="preserve" font-family="Menlo-Regular" font-size="28.0" fill="#C32275" transform="matrix(1.00, 0.00, -0.00, -1.00, 68.4, 104.0)">e</text><text xml:space="preserve" font-family="Menlo-Regular" font-size="28.0" fill="#C32275" transform="matrix(1.00, 0.00, -0.00, -1.00, 85.3, 104.0)">x</text><text xml:space="preserve" font-family="Menlo-Regular" font-size="28.0" fill="#C32275" transform="matrix(1.00, 0.00, -0.00, -1.00, 102.2, 104.0)">p</text><text xml:space="preserve" font-family="Menlo-Regular" font-size="28.0" fill="#C32275" transform="matrix(1.00, 0.00, -0.00, -1.00, 119.0, 104.0)">o</text><text xml:space="preserve" font-family="Menlo-Regular" font-size="28.0" fill="#C32275" transform="matrix(1.00, 0.00, -0.00, -1.00, 135.9, 104.0)">r</text><text xml:space="preserve" font-family="Menlo-Regular" font-size="28.0" fill="#C32275" transform="matrix(1.00, 0.00, -0.00, -1.00, 152.7, 104.0)">t</text><text xml:space="preserve" font-family="Menlo-Regular" font-size="28.0" fill="#000000" transform="matrix(1.00, 0.00, -0.00, -1.00, 169.6, 104.0)"> </text><text xml:space="preserve" font-family="Menlo-Regular" font-size="28.0" fill="#000000" transform="matrix(1.00, 0.00, -0.00, -1.00, 186.4, 104.0)">D</text><text xml:space="preserve" font-family="Menlo-Regular" font-size="28.0" fill="#000000" transform="matrix(1.00, 0.00, -0.00, -1.00, 203.3, 104.0)">V</text><text xml:space="preserve" font-family="Menlo-Regular" font-size="28.0" fill="#000000" transform="matrix(1.00, 0.00, -0.00, -1.00, 220.2, 104.0)">C</text><text xml:space="preserve" font-family="Menlo-Regular" font-size="28.0" fill="#000000" transform="matrix(1.00, 0.00, -0.00, -1.00, 237.0, 104.0)">S</text><text xml:space="preserve" font-family="Menlo-Regular" font-size="28.0" fill="#000000" transform="matrix(1.00, 0.00, -0.00, -1.00, 253.9, 104.0)">H</text><text xml:space="preserve" font-family="Menlo-Regular" font-size="28.0" fill="#000000" transform="matrix(1.00, 0.00, -0.00, -1.00, 270.7, 104.0)">=</text><text xml:space="preserve" font-family="Menlo-Regular" font-size="28.0" fill="#C81B13" transform="matrix(1.00, 0.00, -0.00, -1.00, 287.6, 104.0)">"</text><text xml:space="preserve" font-family="Menlo-Regular" font-size="28.0" fill="#C81B13" transform="matrix(1.00, 0.00, -0.00, -1.00, 304.4, 104.0)">$</text><text xml:space="preserve" font-family="Menlo-Regular" font-size="28.0" fill="#C81B13" transform="matrix(1.00, 0.00, -0.00, -1.00, 321.3, 104.0)">(</text><text xml:space="preserve" font-family="Menlo-Regular" font-size="28.0" fill="#C81B13" transform="matrix(1.00, 0.00, -0.00, -1.00, 338.2, 104.0)">p</text><text xml:space="preserve" font-family="Menlo-Regular" font-size="28.0" fill="#C81B13" transform="matrix(1.00, 0.00, -0.00, -1.00, 355.0, 104.0)">w</text><text xml:space="preserve" font-family="Menlo-Regular" font-size="28.0" fill="#C81B13" transform="matrix(1.00, 0.00, -0.00, -1.00, 371.9, 104.0)">d</text><text xml:space="preserve" font-family="Menlo-Regular" font-size="28.0" fill="#C81B13" transform="matrix(1.00, 0.00, -0.00, -1.00, 388.7, 104.0)">)</text><text xml:space="preserve" font-family="Menlo-Regular" font-size="28.0" fill="#C81B13" transform="matrix(1.00, 0.00, -0.00, -1.00, 405.6, 104.0)">/</text><text xml:space="preserve" font-family="Menlo-Regular" font-size="28.0" fill="#C81B13" transform="matrix(1.00, 0.00, -0.00, -1.00, 422.5, 104.0)">.</text><text xml:space="preserve" font-family="Menlo-Regular" font-size="28.0" fill="#C81B13" transform="matrix(1.00, 0.00, -0.00, -1.00, 439.3, 104.0)">d</text><text xml:space="preserve" font-family="Menlo-Regular" font-size="28.0" fill="#C81B13" transform="matrix(1.00, 0.00, -0.00, -1.00, 456.2, 104.0)">v</text><text xml:space="preserve" font-family="Menlo-Regular" font-size="28.0" fill="#C81B13" transform="matrix(1.00, 0.00, -0.00, -1.00, 473.0, 104.0)">c</text><text xml:space="preserve" font-family="Menlo-Regular" font-size="28.0" fill="#C81B13" transform="matrix(1.00, 0.00, -0.00, -1.00, 489.9, 104.0)">s</text><text xml:space="preserve" font-family="Menlo-Regular" font-size="28.0" fill="#C81B13" transform="matrix(1.00, 0.00, -0.00, -1.00, 506.8, 104.0)">h</text><text xml:space="preserve" font-family="Menlo-Regular" font-size="28.0" fill="#C81B13" transform="matrix(1.00, 0.00, -0.00, -1.00, 523.6, 104.0)">"</text><text xml:space="preserve" font-family="Menlo-Regular" font-size="28.0" fill="#000000" transform="matrix(1.00, 0.00, -0.00, -1.00, 540.4, 104.0)"> </text><text xml:space="preserve" font-family="Menlo-Regular" font-size="28.0" fill="#000000" transform="matrix(1.00, 0.00, -0.00, -1.00, 1.0, 71.0)"> </text><text xml:space="preserve" font-family="Menlo-Regular" font-size="28.0" fill="#000000" transform="matrix(1.00, 0.00, -0.00, -1.00, 17.9, 71.0)"> </text><text xml:space="preserve" font-family="Menlo-Regular" font-size="28.0" fill="#000000" transform="matrix(1.00, 0.00, -0.00, -1.00, 34.7, 71.0)"> </text><text xml:space="preserve" font-family="Menlo-Regular" font-size="28.0" fill="#000000" transform="matrix(1.00, 0.00, -0.00, -1.00, 51.6, 71.0)"> </text><text xml:space="preserve" font-family="Menlo-Regular" font-size="28.0" fill="#000000" transform="matrix(1.00, 0.00, -0.00, -1.00, 68.4, 71.0)">m</text><text xml:space="preserve" font-family="Menlo-Regular" font-size="28.0" fill="#000000" transform="matrix(1.00, 0.00, -0.00, -1.00, 85.3, 71.0)">k</text><text xml:space="preserve" font-family="Menlo-Regular" font-size="28.0" fill="#000000" transform="matrix(1.00, 0.00, -0.00, -1.00, 102.2, 71.0)">d</text><text xml:space="preserve" font-family="Menlo-Regular" font-size="28.0" fill="#000000" transform="matrix(1.00, 0.00, -0.00, -1.00, 119.0, 71.0)">i</text><text xml:space="preserve" font-family="Menlo-Regular" font-size="28.0" fill="#000000" transform="matrix(1.00, 0.00, -0.00, -1.00, 135.9, 71.0)">r</text><text xml:space="preserve" font-family="Menlo-Regular" font-size="28.0" fill="#000000" transform="matrix(1.00, 0.00, -0.00, -1.00, 152.7, 71.0)"> </text><text xml:space="preserve" font-family="Menlo-Regular" font-size="28.0" fill="#000000" transform="matrix(1.00, 0.00, -0.00, -1.00, 169.6, 71.0)">-</text><text xml:space="preserve" font-family="Menlo-Regular" font-size="28.0" fill="#000000" transform="matrix(1.00, 0.00, -0.00, -1.00, 186.5, 71.0)">p</text><text xml:space="preserve" font-family="Menlo-Regular" font-size="28.0" fill="#000000" transform="matrix(1.00, 0.00, -0.00, -1.00, 203.3, 71.0)"> </text><text xml:space="preserve" font-family="Menlo-Regular" font-size="28.0" fill="#C81B13" transform="matrix(1.00, 0.00, -0.00, -1.00, 220.1, 71.0)">"</text><text xml:space="preserve" font-family="Menlo-Regular" font-size="28.0" fill="#C81B13" transform="matrix(1.00, 0.00, -0.00, -1.00, 237.0, 71.0)">$</text><text xml:space="preserve" font-family="Menlo-Regular" font-size="28.0" fill="#C81B13" transform="matrix(1.00, 0.00, -0.00, -1.00, 253.9, 71.0)">{</text><text xml:space="preserve" font-family="Menlo-Regular" font-size="28.0" fill="#C81B13" transform="matrix(1.00, 0.00, -0.00, -1.00, 270.7, 71.0)">D</text><text xml:space="preserve" font-family="Menlo-Regular" font-size="28.0" fill="#C81B13" transform="matrix(1.00, 0.00, -0.00, -1.00, 287.6, 71.0)">V</text><text xml:space="preserve" font-family="Menlo-Regular" font-size="28.0" fill="#C81B13" transform="matrix(1.00, 0.00, -0.00, -1.00, 304.4, 71.0)">C</text><text xml:space="preserve" font-family="Menlo-Regular" font-size="28.0" fill="#C81B13" transform="matrix(1.00, 0.00, -0.00, -1.00, 321.3, 71.0)">S</text><text xml:space="preserve" font-family="Menlo-Regular" font-size="28.0" fill="#C81B13" transform="matrix(1.00, 0.00, -0.00, -1.00, 338.2, 71.0)">H</text><text xml:space="preserve" font-family="Menlo-Regular" font-size="28.0" fill="#C81B13" transform="matrix(1.00, 0.00, -0.00, -1.00, 355.0, 71.0)">}</text><text xml:space="preserve" font-family="Menlo-Regular" font-size="28.0" fill="#C81B13" transform="matrix(1.00, 0.00, -0.00, -1.00, 371.9, 71.0)">/</text><text xml:space="preserve" font-family="Menlo-Regular" font-size="28.0" fill="#C81B13" transform="matrix(1.00, 0.00, -0.00, -1.00, 388.7, 71.0)">o</text><text xml:space="preserve" font-family="Menlo-Regular" font-size="28.0" fill="#C81B13" transform="matrix(1.00, 0.00, -0.00, -1.00, 405.6, 71.0)">b</text><text xml:space="preserve" font-family="Menlo-Regular" font-size="28.0" fill="#C81B13" transform="matrix(1.00, 0.00, -0.00, -1.00, 422.5, 71.0)">j</text><text xml:space="preserve" font-family="Menlo-Regular" font-size="28.0" fill="#C81B13" transform="matrix(1.00, 0.00, -0.00, -1.00, 439.3, 71.0)">e</text><text xml:space="preserve" font-family="Menlo-Regular" font-size="28.0" fill="#C81B13" transform="matrix(1.00, 0.00, -0.00, -1.00, 456.2, 71.0)">c</text><text xml:space="preserve" font-family="Menlo-Regular" font-size="28.0" fill="#C81B13" transform="matrix(1.00, 0.00, -0.00, -1.00, 473.0, 71.0)">t</text><text xml:space="preserve" font-family="Menlo-Regular" font-size="28.0" fill="#C81B13" transform="matrix(1.00, 0.00, -0.00, -1.00, 489.9, 71.0)">s</text><text xml:space="preserve" font-family="Menlo-Regular" font-size="28.0" fill="#C81B13" transform="matrix(1.00, 0.00, -0.00, -1.00, 506.8, 71.0)">"</text><text xml:space="preserve" font-family="Menlo-Regular" font-size="28.0" fill="#000000" transform="matrix(1.00, 0.00, -0.00, -1.00, 523.6, 71.0)">;</text><text xml:space="preserve" font-family="Menlo-Regular" font-size="28.0" fill="#000000" transform="matrix(1.00, 0.00, -0.00, -1.00, 540.4, 71.0)"> </text><text xml:space="preserve" font-family="Menlo-Regular" font-size="28.0" fill="#000000" transform="matrix(1.00, 0.00, -0.00, -1.00, 1.0, 38.0)"> </text><text xml:space="preserve" font-family="Menlo-Regular" font-size="28.0" fill="#000000" transform="matrix(1.00, 0.00, -0.00, -1.00, 17.9, 38.0)"> </text><text xml:space="preserve" font-family="Menlo-Regular" font-size="28.0" fill="#000000" transform="matrix(1.00, 0.00, -0.00, -1.00, 34.7, 38.0)"> </text><text xml:space="preserve" font-family="Menlo-Regular" font-size="28.0" fill="#000000" transform="matrix(1.00, 0.00, -0.00, -1.00, 51.6, 38.0)"> </text><text xml:space="preserve" font-family="Menlo-Regular" font-size="28.0" fill="#000000" transform="matrix(1.00, 0.00, -0.00, -1.00, 68.4, 38.0)">e</text><text xml:space="preserve" font-family="Menlo-Regular" font-size="28.0" fill="#000000" transform="matrix(1.00, 0.00, -0.00, -1.00, 85.3, 38.0)">c</text><text xml:space="preserve" font-family="Menlo-Regular" font-size="28.0" fill="#000000" transform="matrix(1.00, 0.00, -0.00, -1.00, 102.2, 38.0)">h</text><text xml:space="preserve" font-family="Menlo-Regular" font-size="28.0" fill="#000000" transform="matrix(1.00, 0.00, -0.00, -1.00, 119.0, 38.0)">o</text><text xml:space="preserve" font-family="Menlo-Regular" font-size="28.0" fill="#000000" transform="matrix(1.00, 0.00, -0.00, -1.00, 135.9, 38.0)"> </text><text xml:space="preserve" font-family="Menlo-Regular" font-size="28.0" fill="#C81B13" transform="matrix(1.00, 0.00, -0.00, -1.00, 152.7, 38.0)">"</text><text xml:space="preserve" font-family="Menlo-Regular" font-size="28.0" fill="#C81B13" transform="matrix(1.00, 0.00, -0.00, -1.00, 169.6, 38.0)">I</text><text xml:space="preserve" font-family="Menlo-Regular" font-size="28.0" fill="#C81B13" transform="matrix(1.00, 0.00, -0.00, -1.00, 186.4, 38.0)">n</text><text xml:space="preserve" font-family="Menlo-Regular" font-size="28.0" fill="#C81B13" transform="matrix(1.00, 0.00, -0.00, -1.00, 203.3, 38.0)">i</text><text xml:space="preserve" font-family="Menlo-Regular" font-size="28.0" fill="#C81B13" transform="matrix(1.00, 0.00, -0.00, -1.00, 220.2, 38.0)">t</text><text xml:space="preserve" font-family="Menlo-Regular" font-size="28.0" fill="#C81B13" transform="matrix(1.00, 0.00, -0.00, -1.00, 237.0, 38.0)">i</text><text xml:space="preserve" font-family="Menlo-Regular" font-size="28.0" fill="#C81B13" transform="matrix(1.00, 0.00, -0.00, -1.00, 253.9, 38.0)">a</text><text xml:space="preserve" font-family="Menlo-Regular" font-size="28.0" fill="#C81B13" transform="matrix(1.00, 0.00, -0.00, -1.00, 270.7, 38.0)">l</text><text xml:space="preserve" font-family="Menlo-Regular" font-size="28.0" fill="#C81B13" transform="matrix(1.00, 0.00, -0.00, -1.00, 287.6, 38.0)">i</text><text xml:space="preserve" font-family="Menlo-Regular" font-size="28.0" fill="#C81B13" transform="matrix(1.00, 0.00, -0.00, -1.00, 304.5, 38.0)">z</text><text xml:space="preserve" font-family="Menlo-Regular" font-size="28.0" fill="#C81B13" transform="matrix(1.00, 0.00, -0.00, -1.00, 321.3, 38.0)">e</text><text xml:space="preserve" font-family="Menlo-Regular" font-size="28.0" fill="#C81B13" transform="matrix(1.00, 0.00, -0.00, -1.00, 338.2, 38.0)">d</text><text xml:space="preserve" font-family="Menlo-Regular" font-size="28.0" fill="#C81B13" transform="matrix(1.00, 0.00, -0.00, -1.00, 355.0, 38.0)"> </text><text xml:space="preserve" font-family="Menlo-Regular" font-size="28.0" fill="#C81B13" transform="matrix(1.00, 0.00, -0.00, -1.00, 371.9, 38.0)">e</text><text xml:space="preserve" font-family="Menlo-Regular" font-size="28.0" fill="#C81B13" transform="matrix(1.00, 0.00, -0.00, -1.00, 388.8, 38.0)">m</text><text xml:space="preserve" font-family="Menlo-Regular" font-size="28.0" fill="#C81B13" transform="matrix(1.00, 0.00, -0.00, -1.00, 405.6, 38.0)">p</text><text xml:space="preserve" font-family="Menlo-Regular" font-size="28.0" fill="#C81B13" transform="matrix(1.00, 0.00, -0.00, -1.00, 422.5, 38.0)">t</text><text xml:space="preserve" font-family="Menlo-Regular" font-size="28.0" fill="#C81B13" transform="matrix(1.00, 0.00, -0.00, -1.00, 439.3, 38.0)">y</text><text xml:space="preserve" font-family="Menlo-Regular" font-size="28.0" fill="#C81B13" transform="matrix(1.00, 0.00, -0.00, -1.00, 456.2, 38.0)"> </text><text xml:space="preserve" font-family="Menlo-Regular" font-size="28.0" fill="#C81B13" transform="matrix(1.00, 0.00, -0.00, -1.00, 473.1, 38.0)">r</text><text xml:space="preserve" font-family="Menlo-Regular" font-size="28.0" fill="#C81B13" transform="matrix(1.00, 0.00, -0.00, -1.00, 489.9, 38.0)">e</text><text xml:space="preserve" font-family="Menlo-Regular" font-size="28.0" fill="#C81B13" transform="matrix(1.00, 0.00, -0.00, -1.00, 506.8, 38.0)">p</text><text xml:space="preserve" font-family="Menlo-Regular" font-size="28.0" fill="#C81B13" transform="matrix(1.00, 0.00, -0.00, -1.00, 523.6, 38.0)">o</text><text xml:space="preserve" font-family="Menlo-Regular" font-size="28.0" fill="#C81B13" transform="matrix(1.00, 0.00, -0.00, -1.00, 540.5, 38.0)">s</text><text xml:space="preserve" font-family="Menlo-Regular" font-size="28.0" fill="#C81B13" transform="matrix(1.00, 0.00, -0.00, -1.00, 557.4, 38.0)">i</text><text xml:space="preserve" font-family="Menlo-Regular" font-size="28.0" fill="#C81B13" transform="matrix(1.00, 0.00, -0.00, -1.00, 574.2, 38.0)">t</text><text xml:space="preserve" font-family="Menlo-Regular" font-size="28.0" fill="#C81B13" transform="matrix(1.00, 0.00, -0.00, -1.00, 591.1, 38.0)">o</text><text xml:space="preserve" font-family="Menlo-Regular" font-size="28.0" fill="#C81B13" transform="matrix(1.00, 0.00, -0.00, -1.00, 607.9, 38.0)">r</text><text xml:space="preserve" font-family="Menlo-Regular" font-size="28.0" fill="#C81B13" transform="matrix(1.00, 0.00, -0.00, -1.00, 624.8, 38.0)">y</text><text xml:space="preserve" font-family="Menlo-Regular" font-size="28.0" fill="#C81B13" transform="matrix(1.00, 0.00, -0.00, -1.00, 641.7, 38.0)"> </text><text xml:space="preserve" font-family="Menlo-Regular" font-size="28.0" fill="#C81B13" transform="matrix(1.00, 0.00, -0.00, -1.00, 658.5, 38.0)">i</text><text xml:space="preserve" font-family="Menlo-Regular" font-size="28.0" fill="#C81B13" transform="matrix(1.00, 0.00, -0.00, -1.00, 675.4, 38.0)">n</text><text xml:space="preserve" font-family="Menlo-Regular" font-size="28.0" fill="#C81B13" transform="matrix(1.00, 0.00, -0.00, -1.00, 692.2, 38.0)"> </text><text xml:space="preserve" font-family="Menlo-Regular" font-size="28.0" fill="#C81B13" transform="matrix(1.00, 0.00, -0.00, -1.00, 709.1, 38.0)">$</text><text xml:space="preserve" font-family="Menlo-Regular" font-size="28.0" fill="#C81B13" transform="matrix(1.00, 0.00, -0.00, -1.00, 726.0, 38.0)">{</text><text xml:space="preserve" font-family="Menlo-Regular" font-size="28.0" fill="#C81B13" transform="matrix(1.00, 0.00, -0.00, -1.00, 742.8, 38.0)">D</text><text xml:space="preserve" font-family="Menlo-Regular" font-size="28.0" fill="#C81B13" transform="matrix(1.00, 0.00, -0.00, -1.00, 759.7, 38.0)">V</text><text xml:space="preserve" font-family="Menlo-Regular" font-size="28.0" fill="#C81B13" transform="matrix(1.00, 0.00, -0.00, -1.00, 776.5, 38.0)">C</text><text xml:space="preserve" font-family="Menlo-Regular" font-size="28.0" fill="#C81B13" transform="matrix(1.00, 0.00, -0.00, -1.00, 793.4, 38.0)">S</text><text xml:space="preserve" font-family="Menlo-Regular" font-size="28.0" fill="#C81B13" transform="matrix(1.00, 0.00, -0.00, -1.00, 810.3, 38.0)">H</text><text xml:space="preserve" font-family="Menlo-Regular" font-size="28.0" fill="#C81B13" transform="matrix(1.00, 0.00, -0.00, -1.00, 827.1, 38.0)">}</text><text xml:space="preserve" font-family="Menlo-Regular" font-size="28.0" fill="#C81B13" transform="matrix(1.00, 0.00, -0.00, -1.00, 844.0, 38.0)">/</text><text xml:space="preserve" font-family="Menlo-Regular" font-size="28.0" fill="#C81B13" transform="matrix(1.00, 0.00, -0.00, -1.00, 860.8, 38.0)">"</text><text xml:space="preserve" font-family="Menlo-Regular" font-size="28.0" fill="#000000" transform="matrix(1.00, 0.00, -0.00, -1.00, 877.6, 38.0)">;</text><text xml:space="preserve" font-family="Menlo-Regular" font-size="28.0" fill="#000000" transform="matrix(1.00, 0.00, -0.00, -1.00, 894.4, 38.0)"> </text><text xml:space="preserve" font-family="Menlo-Regular" font-size="28.0" fill="#000000" transform="matrix(1.00, 0.00, -0.00, -1.00, 1.0, 5.0)">}</text></g></svg>