<?xml version="1.0" encoding="UTF-8" standalone="no"?><svg xmlns="http://www.w3.org/2000/svg" xmlns:xlink="http://www.w3.org/1999/xlink" clip-rule="evenodd" stroke-miterlimit="4.00" viewBox="0 0 1024 768"><desc>SVG generated by Keynote</desc><defs></defs><g transform="matrix(1.00, 0.00, -0.00, -1.00, 0.0, 768.0)"><path d="M 0.0 768.0 L 1024.0 768.0 L 1024.0 0.0 L 0.0 0.0 Z M 0.0 768.0 " fill="#FEFFFF"></path><text xml:space="preserve" font-family="Helvetica-Light" font-size="80.0" fill="#000000" transform="matrix(1.00, 0.00, -0.00, -1.00, 145.0, 618.0)">I</text><text xml:space="preserve" font-family="Helvetica-Light" font-size="80.0" fill="#000000" transform="matrix(1.00, 0.00, -0.00, -1.00, 167.2, 618.0)">n</text><text xml:space="preserve" font-family="Helvetica-Light" font-size="80.0" fill="#000000" transform="matrix(1.00, 0.00, -0.00, -1.00, 211.7, 618.0)">i</text><text xml:space="preserve" font-family="Helvetica-Light" font-size="80.0" fill="#000000" transform="matrix(1.00, 0.00, -0.00, -1.00, 229.5, 618.0)">t</text><text xml:space="preserve" font-family="Helvetica-Light" font-size="80.0" fill="#000000" transform="matrix(1.00, 0.00, -0.00, -1.00, 251.7, 618.0)">i</text><text xml:space="preserve" font-family="Helvetica-Light" font-size="80.0" fill="#000000" transform="matrix(1.00, 0.00, -0.00, -1.00, 269.5, 618.0)">a</text><text xml:space="preserve" font-family="Helvetica-Light" font-size="80.0" fill="#000000" transform="matrix(1.00, 0.00, -0.00, -1.00, 314.0, 618.0)">l</text><text xml:space="preserve" font-family="Helvetica-Light" font-size="80.0" fill="#000000" transform="matrix(1.00, 0.00, -0.00, -1.00, 331.7, 618.0)">i</text><text xml:space="preserve" font-family="Helvetica-Light" font-size="80.0" fill="#000000" transform="matrix(1.00, 0.00, -0.00, -1.00, 349.5, 618.0)">z</text><text xml:space="preserve" font-family="Helvetica-Light" font-size="80.0" fill="#000000" transform="matrix(1.00, 0.00, -0.00, -1.00, 389.5, 618.0)">e</text><text xml:space="preserve" font-family="Helvetica-Light" font-size="80.0" fill="#000000" transform="matrix(1.00, 0.00, -0.00, -1.00, 434.0, 618.0)"> </text><text xml:space="preserve" font-family="Helvetica-Light" font-size="80.0" fill="#000000" transform="matrix(1.00, 0.00, -0.00, -1.00, 456.2, 618.0)">a</text><text xml:space="preserve" font-family="Helvetica-Light" font-size="80.0" fill="#000000" transform="matrix(1.00, 0.00, -0.00, -1.00, 500.7, 618.0)"> </text><text xml:space="preserve" font-family="Helvetica-Light" font-size="80.0" fill="#000000" transform="matrix(1.00, 0.00, -0.00, -1.00, 522.9, 618.0)">r</text><text xml:space="preserve" font-family="Helvetica-Light" font-size="80.0" fill="#000000" transform="matrix(1.00, 0.00, -0.00, -1.00, 548.1, 618.0)">e</text><text xml:space="preserve" font-family="Helvetica-Light" font-size="80.0" fill="#000000" transform="matrix(1.00, 0.00, -0.00, -1.00, 592.6, 618.0)">p</text><text xml:space="preserve" font-family="Helvetica-Light" font-size="80.0" fill="#000000" transform="matrix(1.00, 0.00, -0.00, -1.00, 641.5, 618.0)">o</text><text xml:space="preserve" font-family="Helvetica-Light" font-size="80.0" fill="#000000" transform="matrix(1.00, 0.00, -0.00, -1.00, 686.0, 618.0)">s</text><text xml:space="preserve" font-family="Helvetica-Light" font-size="80.0" fill="#000000" transform="matrix(1.00, 0.00, -0.00, -1.00, 726.0, 618.0)">i</text><text xml:space="preserve" font-family="Helvetica-Light" font-size="80.0" fill="#000000" transform="matrix(1.00, 0.00, -0.00, -1.00, 743.7, 618.0)">t</text><text xml:space="preserve" font-family="Helvetica-Light" font-size="80.0" fill="#000000" transform="matrix(1.00, 0.00, -0.00, -1.00, 766.0, 618.0)">o</text><text xml:space="preserve" font-family="Helvetica-Light" font-size="80.0" fill="#000000" transform="matrix(1.00, 0.00, -0.00, -1.00, 810.4, 618.0)">r</text><text xml:space="preserve" font-family="Helvetica-Light" font-size="80.0" fill="#000000" transform="matrix(1.00, 0.00, -0.00, -1.00, 838.5, 618.0)">y</text><text xml:space="preserve" font-family="Menlo-Regular" font-size="28.0" fill="#000000" transform="matrix(1.00, 0.00, -0.00, -1.00, 56.0, 454.0)">i</text><text xml:space="preserve" font-family="Menlo-Regular" font-size="28.0" fill="#000000" transform="matrix(1.00, 0.00, -0.00, -1.00, 72.9, 454.0)">n</text><text xml:space="preserve" font-family="Menlo-Regular" font-size="28.0" fill="#000000" transform="matrix(1.00, 0.00, -0.00, -1.00, 89.7, 454.0)">i</text><text xml:space="preserve" font-family="Menlo-Regular" font-size="28.0" fill="#000000" transform="matrix(1.00, 0.00, -0.00, -1.00, 106.6, 454.0)">t</text><text xml:space="preserve" font-family="Menlo-Regular" font-size="28.0" fill="#000000" transform="matrix(1.00, 0.00, -0.00, -1.00, 123.4, 454.0)">(</text><text xml:space="preserve" font-family="Menlo-Regular" font-size="28.0" fill="#000000" transform="matrix(1.00, 0.00, -0.00, -1.00, 140.3, 454.0)">)</text><text xml:space="preserve" font-family="Menlo-Regular" font-size="28.0" fill="#000000" transform="matrix(1.00, 0.00, -0.00, -1.00, 157.2, 454.0)"> </text><text xml:space="preserve" font-family="Menlo-Regular" font-size="28.0" fill="#000000" transform="matrix(1.00, 0.00, -0.00, -1.00, 174.0, 454.0)">{</text><text xml:space="preserve" font-family="Menlo-Regular" font-size="28.0" fill="#000000" transform="matrix(1.00, 0.00, -0.00, -1.00, 190.9, 454.0)"> </text><text xml:space="preserve" font-family="Menlo-Regular" font-size="28.0" fill="#000000" transform="matrix(1.00, 0.00, -0.00, -1.00, 56.0, 421.0)"> </text><text xml:space="preserve" font-family="Menlo-Regular" font-size="28.0" fill="#000000" transform="matrix(1.00, 0.00, -0.00, -1.00, 72.9, 421.0)"> </text><text xml:space="preserve" font-family="Menlo-Regular" font-size="28.0" fill="#000000" transform="matrix(1.00, 0.00, -0.00, -1.00, 89.7, 421.0)"> </text><text xml:space="preserve" font-family="Menlo-Regular" font-size="28.0" fill="#000000" transform="matrix(1.00, 0.00, -0.00, -1.00, 106.6, 421.0)"> </text><text xml:space="preserve" font-family="Menlo-Regular" font-size="28.0" fill="#000000" transform="matrix(1.00, 0.00, -0.00, -1.00, 123.4, 421.0)">p</text><text xml:space="preserve" font-family="Menlo-Regular" font-size="28.0" fill="#000000" transform="matrix(1.00, 0.00, -0.00, -1.00, 140.3, 421.0)">a</text><text xml:space="preserve" font-family="Menlo-Regular" font-size="28.0" fill="#000000" transform="matrix(1.00, 0.00, -0.00, -1.00, 157.2, 421.0)">t</text><text xml:space="preserve" font-family="Menlo-Regular" font-size="28.0" fill="#000000" transform="matrix(1.00, 0.00, -0.00, -1.00, 174.0, 421.0)">h</text><text xml:space="preserve" font-family="Menlo-Regular" font-size="28.0" fill="#000000" transform="matrix(1.00, 0.00, -0.00, -1.00, 190.9, 421.0)">=</text><text xml:space="preserve" font-family="Menlo-Regular" font-size="28.0" fill="#C81B13" transform="matrix(1.00, 0.00, -0.00, -1.00, 207.7, 421.0)">"</text><text xml:space="preserve" font-family="Menlo-Regular" font-size="28.0" fill="#C81B13" transform="matrix(1.00, 0.00, -0.00, -1.00, 224.6, 421.0)">$</text><text xml:space="preserve" font-family="Menlo-Regular" font-size="28.0" fill="#C81B13" transform="matrix(1.00, 0.00, -0.00, -1.00, 241.4, 421.0)">1</text><text xml:space="preserve" font-family="Menlo-Regular" font-size="28.0" fill="#C81B13" transform="matrix(1.00, 0.00, -0.00, -1.00, 258.3, 421.0)">"</text><text xml:space="preserve" font-family="Menlo-Regular" font-size="28.0" fill="#000000" transform="matrix(1.00, 0.00, -0.00, -1.00, 275.1, 421.0)">;</text><text xml:space="preserve" font-family="Menlo-Regular" font-size="28.0" fill="#000000" transform="matrix(1.00, 0.00, -0.00, -1.00, 292.0, 421.0)"> </text><text xml:space="preserve" font-family="Menlo-Regular" font-size="28.0" fill="#000000" transform="matrix(1.00, 0.00, -0.00, -1.00, 56.0, 388.0)"> </text><text xml:space="preserve" font-family="Menlo-Regular" font-size="28.0" fill="#000000" transform="matrix(1.00, 0.00, -0.00, -1.00, 72.9, 388.0)"> </text><text xml:space="preserve" font-family="Menlo-Regular" font-size="28.0" fill="#000000" transform="matrix(1.00, 0.00, -0.00, -1.00, 89.7, 388.0)"> </text><text xml:space="preserve" font-family="Menlo-Regular" font-size="28.0" fill="#000000" transform="matrix(1.00, 0.00, -0.00, -1.00, 106.6, 388.0)"> </text><text xml:space="preserve" font-family="Menlo-Regular" font-size="28.0" fill="#C32275" transform="matrix(1.00, 0.00, -0.00, -1.00, 123.4, 388.0)">i</text><text xml:space="preserve" font-family="Menlo-Regular" font-size="28.0" fill="#C32275" transform="matrix(1.00, 0.00, -0.00, -1.00, 140.3, 388.0)">f</text><text xml:space="preserve" font-family="Menlo-Regular" font-size="28.0" fill="#000000" transform="matrix(1.00, 0.00, -0.00, -1.00, 157.1, 388.0)"> </text><text xml:space="preserve" font-family="Menlo-Regular" font-size="28.0" fill="#000000" transform="matrix(1.00, 0.00, -0.00, -1.00, 174.0, 388.0)">[</text><text xml:space="preserve" font-family="Menlo-Regular" font-size="28.0" fill="#000000" transform="matrix(1.00, 0.00, -0.00, -1.00, 190.9, 388.0)"> </text><text xml:space="preserve" font-family="Menlo-Regular" font-size="28.0" fill="#000000" transform="matrix(1.00, 0.00, -0.00, -1.00, 207.7, 388.0)">!</text><text xml:space="preserve" font-family="Menlo-Regular" font-size="28.0" fill="#000000" transform="matrix(1.00, 0.00, -0.00, -1.00, 224.6, 388.0)"> </text><text xml:space="preserve" font-family="Menlo-Regular" font-size="28.0" fill="#000000" transform="matrix(1.00, 0.00, -0.00, -1.00, 241.4, 388.0)">-</text><text xml:space="preserve" font-family="Menlo-Regular" font-size="28.0" fill="#000000" transform="matrix(1.00, 0.00, -0.00, -1.00, 258.3, 388.0)">d</text><text xml:space="preserve" font-family="Menlo-Regular" font-size="28.0" fill="#000000" transform="matrix(1.00, 0.00, -0.00, -1.00, 275.2, 388.0)"> </text><text xml:space="preserve" font-family="Menlo-Regular" font-size="28.0" fill="#C81B13" transform="matrix(1.00, 0.00, -0.00, -1.00, 292.0, 388.0)">"</text><text xml:space="preserve" font-family="Menlo-Regular" font-size="28.0" fill="#C81B13" transform="matrix(1.00, 0.00, -0.00, -1.00, 308.9, 388.0)">$</text><text xml:space="preserve" font-family="Menlo-Regular" font-size="28.0" fill="#C81B13" transform="matrix(1.00, 0.00, -0.00, -1.00, 325.7, 388.0)">{</text><text xml:space="preserve" font-family="Menlo-Regular" font-size="28.0" fill="#C81B13" transform="matrix(1.00, 0.00, -0.00, -1.00, 342.6, 388.0)">p</text><text xml:space="preserve" font-family="Menlo-Regular" font-size="28.0" fill="#C81B13" transform="matrix(1.00, 0.00, -0.00, -1.00, 359.4, 388.0)">a</text><text xml:space="preserve" font-family="Menlo-Regular" font-size="28.0" fill="#C81B13" transform="matrix(1.00, 0.00, -0.00, -1.00, 376.3, 388.0)">t</text><text xml:space="preserve" font-family="Menlo-Regular" font-size="28.0" fill="#C81B13" transform="matrix(1.00, 0.00, -0.00, -1.00, 393.2, 388.0)">h</text><text xml:space="preserve" font-family="Menlo-Regular" font-size="28.0" fill="#C81B13" transform="matrix(1.00, 0.00, -0.00, -1.00, 410.0, 388.0)">}</text><text xml:space="preserve" font-family="Menlo-Regular" font-size="28.0" fill="#C81B13" transform="matrix(1.00, 0.00, -0.00, -1.00, 426.9, 388.0)">"</text><text xml:space="preserve" font-family="Menlo-Regular" font-size="28.0" fill="#000000" transform="matrix(1.00, 0.00, -0.00, -1.00, 443.7, 388.0)"> </text><text xml:space="preserve" font-family="Menlo-Regular" font-size="28.0" fill="#000000" transform="matrix(1.00, 0.00, -0.00, -1.00, 460.6, 388.0)">]</text><text xml:space="preserve" font-family="Menlo-Regular" font-size="28.0" fill="#000000" transform="matrix(1.00, 0.00, -0.00, -1.00, 477.4, 388.0)">;</text><text xml:space="preserve" font-family="Menlo-Regular" font-size="28.0" fill="#000000" transform="matrix(1.00, 0.00, -0.00, -1.00, 494.3, 388.0)"> </text><text xml:space="preserve" font-family="Menlo-Regular" font-size="28.0" fill="#C32275" transform="matrix(1.00, 0.00, -0.00, -1.00, 511.2, 388.0)">t</text><text xml:space="preserve" font-family="Menlo-Regular" font-size="28.0" fill="#C32275" transform="matrix(1.00, 0.00, -0.00, -1.00, 528.0, 388.0)">h</text><text xml:space="preserve" font-family="Menlo-Regular" font-size="28.0" fill="#C32275" transform="matrix(1.00, 0.00, -0.00, -1.00, 544.9, 388.0)">e</text><text xml:space="preserve" font-family="Menlo-Regular" font-size="28.0" fill="#C32275" transform="matrix(1.00, 0.00, -0.00, -1.00, 561.7, 388.0)">n</text><text xml:space="preserve" font-family="Menlo-Regular" font-size="28.0" fill="#000000" transform="matrix(1.00, 0.00, -0.00, -1.00, 578.6, 388.0)"> </text><text xml:space="preserve" font-family="Menlo-Regular" font-size="28.0" fill="#000000" transform="matrix(1.00, 0.00, -0.00, -1.00, 56.0, 355.0)"> </text><text xml:space="preserve" font-family="Menlo-Regular" font-size="28.0" fill="#000000" transform="matrix(1.00, 0.00, -0.00, -1.00, 72.9, 355.0)"> </text><text xml:space="preserve" font-family="Menlo-Regular" font-size="28.0" fill="#000000" transform="matrix(1.00, 0.00, -0.00, -1.00, 89.7, 355.0)"> </text><text xml:space="preserve" font-family="Menlo-Regular" font-size="28.0" fill="#000000" transform="matrix(1.00, 0.00, -0.00, -1.00, 106.6, 355.0)"> </text><text xml:space="preserve" font-family="Menlo-Regular" font-size="28.0" fill="#000000" transform="matrix(1.00, 0.00, -0.00, -1.00, 123.4, 355.0)"> </text><text xml:space="preserve" font-family="Menlo-Regular" font-size="28.0" fill="#000000" transform="matrix(1.00, 0.00, -0.00, -1.00, 140.3, 355.0)"> </text><text xml:space="preserve" font-family="Menlo-Regular" font-size="28.0" fill="#000000" transform="matrix(1.00, 0.00, -0.00, -1.00, 157.2, 355.0)"> </text><text xml:space="preserve" font-family="Menlo-Regular" font-size="28.0" fill="#000000" transform="matrix(1.00, 0.00, -0.00, -1.00, 174.0, 355.0)"> </text><text xml:space="preserve" font-family="Menlo-Regular" font-size="28.0" fill="#000000" transform="matrix(1.00, 0.00, -0.00, -1.00, 190.9, 355.0)">e</text><text xml:space="preserve" font-family="Menlo-Regular" font-size="28.0" fill="#000000" transform="matrix(1.00, 0.00, -0.00, -1.00, 207.7, 355.0)">c</text><text xml:space="preserve" font-family="Menlo-Regular" font-size="28.0" fill="#000000" transform="matrix(1.00, 0.00, -0.00, -1.00, 224.6, 355.0)">h</text><text xml:space="preserve" font-family="Menlo-Regular" font-size="28.0" fill="#000000" transform="matrix(1.00, 0.00, -0.00, -1.00, 241.5, 355.0)">o</text><text xml:space="preserve" font-family="Menlo-Regular" font-size="28.0" fill="#000000" transform="matrix(1.00, 0.00, -0.00, -1.00, 258.3, 355.0)"> </text><text xml:space="preserve" font-family="Menlo-Regular" font-size="28.0" fill="#C81B13" transform="matrix(1.00, 0.00, -0.00, -1.00, 275.1, 355.0)">"</text><text xml:space="preserve" font-family="Menlo-Regular" font-size="28.0" fill="#C81B13" transform="matrix(1.00, 0.00, -0.00, -1.00, 292.0, 355.0)">P</text><text xml:space="preserve" font-family="Menlo-Regular" font-size="28.0" fill="#C81B13" transform="matrix(1.00, 0.00, -0.00, -1.00, 308.9, 355.0)">a</text><text xml:space="preserve" font-family="Menlo-Regular" font-size="28.0" fill="#C81B13" transform="matrix(1.00, 0.00, -0.00, -1.00, 325.7, 355.0)">t</text><text xml:space="preserve" font-family="Menlo-Regular" font-size="28.0" fill="#C81B13" transform="matrix(1.00, 0.00, -0.00, -1.00, 342.6, 355.0)">h</text><text xml:space="preserve" font-family="Menlo-Regular" font-size="28.0" fill="#C81B13" transform="matrix(1.00, 0.00, -0.00, -1.00, 359.4, 355.0)"> </text><text xml:space="preserve" font-family="Menlo-Regular" font-size="28.0" fill="#C81B13" transform="matrix(1.00, 0.00, -0.00, -1.00, 376.3, 355.0)">'</text><text xml:space="preserve" font-family="Menlo-Regular" font-size="28.0" fill="#C81B13" transform="matrix(1.00, 0.00, -0.00, -1.00, 393.2, 355.0)">$</text><text xml:space="preserve" font-family="Menlo-Regular" font-size="28.0" fill="#C81B13" transform="matrix(1.00, 0.00, -0.00, -1.00, 410.0, 355.0)">{</text><text xml:space="preserve" font-family="Menlo-Regular" font-size="28.0" fill="#C81B13" transform="matrix(1.00, 0.00, -0.00, -1.00, 426.9, 355.0)">p</text><text xml:space="preserve" font-family="Menlo-Regular" font-size="28.0" fill="#C81B13" transform="matrix(1.00, 0.00, -0.00, -1.00, 443.7, 355.0)">a</text><text xml:space="preserve" font-family="Menlo-Regular" font-size="28.0" fill="#C81B13" transform="matrix(1.00, 0.00, -0.00, -1.00, 460.6, 355.0)">t</text><text xml:space="preserve" font-family="Menlo-Regular" font-size="28.0" fill="#C81B13" transform="matrix(1.00, 0.00, -0.00, -1.00, 477.5, 355.0)">h</text><text xml:space="preserve" font-family="Menlo-Regular" font-size="28.0" fill="#C81B13" transform="matrix(1.00, 0.00, -0.00, -1.00, 494.3, 355.0)">}</text><text xml:space="preserve" font-family="Menlo-Regular" font-size="28.0" fill="#C81B13" transform="matrix(1.00, 0.00, -0.00, -1.00, 511.2, 355.0)">'</text><text xml:space="preserve" font-family="Menlo-Regular" font-size="28.0" fill="#C81B13" transform="matrix(1.00, 0.00, -0.00, -1.00, 528.0, 355.0)"> </text><text xml:space="preserve" font-family="Menlo-Regular" font-size="28.0" fill="#C81B13" transform="matrix(1.00, 0.00, -0.00, -1.00, 544.9, 355.0)">d</text><text xml:space="preserve" font-family="Menlo-Regular" font-size="28.0" fill="#C81B13" transform="matrix(1.00, 0.00, -0.00, -1.00, 561.8, 355.0)">o</text><text xml:space="preserve" font-family="Menlo-Regular" font-size="28.0" fill="#C81B13" transform="matrix(1.00, 0.00, -0.00, -1.00, 578.6, 355.0)">e</text><text xml:space="preserve" font-family="Menlo-Regular" font-size="28.0" fill="#C81B13" transform="matrix(1.00, 0.00, -0.00, -1.00, 595.5, 355.0)">s</text><text xml:space="preserve" font-family="Menlo-Regular" font-size="28.0" fill="#C81B13" transform="matrix(1.00, 0.00, -0.00, -1.00, 612.4, 355.0)"> </text><text xml:space="preserve" font-family="Menlo-Regular" font-size="28.0" fill="#C81B13" transform="matrix(1.00, 0.00, -0.00, -1.00, 629.2, 355.0)">n</text><text xml:space="preserve" font-family="Menlo-Regular" font-size="28.0" fill="#C81B13" transform="matrix(1.00, 0.00, -0.00, -1.00, 646.1, 355.0)">o</text><text xml:space="preserve" font-family="Menlo-Regular" font-size="28.0" fill="#C81B13" transform="matrix(1.00, 0.00, -0.00, -1.00, 662.9, 355.0)">t</text><text xml:space="preserve" font-family="Menlo-Regular" font-size="28.0" fill="#C81B13" transform="matrix(1.00, 0.00, -0.00, -1.00, 679.8, 355.0)"> </text><text xml:space="preserve" font-family="Menlo-Regular" font-size="28.0" fill="#C81B13" transform="matrix(1.00, 0.00, -0.00, -1.00, 696.7, 355.0)">e</text><text xml:space="preserve" font-family="Menlo-Regular" font-size="28.0" fill="#C81B13" transform="matrix(1.00, 0.00, -0.00, -1.00, 713.5, 355.0)">x</text><text xml:space="preserve" font-family="Menlo-Regular" font-size="28.0" fill="#C81B13" transform="matrix(1.00, 0.00, -0.00, -1.00, 730.4, 355.0)">i</text><text xml:space="preserve" font-family="Menlo-Regular" font-size="28.0" fill="#C81B13" transform="matrix(1.00, 0.00, -0.00, -1.00, 747.2, 355.0)">s</text><text xml:space="preserve" font-family="Menlo-Regular" font-size="28.0" fill="#C81B13" transform="matrix(1.00, 0.00, -0.00, -1.00, 764.1, 355.0)">t</text><text xml:space="preserve" font-family="Menlo-Regular" font-size="28.0" fill="#C81B13" transform="matrix(1.00, 0.00, -0.00, -1.00, 781.0, 355.0)">"</text><text xml:space="preserve" font-family="Menlo-Regular" font-size="28.0" fill="#000000" transform="matrix(1.00, 0.00, -0.00, -1.00, 797.7, 355.0)">;</text><text xml:space="preserve" font-family="Menlo-Regular" font-size="28.0" fill="#000000" transform="matrix(1.00, 0.00, -0.00, -1.00, 814.6, 355.0)"> </text><text xml:space="preserve" font-family="Menlo-Regular" font-size="28.0" fill="#000000" transform="matrix(1.00, 0.00, -0.00, -1.00, 831.4, 355.0)">r</text><text xml:space="preserve" font-family="Menlo-Regular" font-size="28.0" fill="#000000" transform="matrix(1.00, 0.00, -0.00, -1.00, 848.3, 355.0)">e</text><text xml:space="preserve" font-family="Menlo-Regular" font-size="28.0" fill="#000000" transform="matrix(1.00, 0.00, -0.00, -1.00, 865.2, 355.0)">t</text><text xml:space="preserve" font-family="Menlo-Regular" font-size="28.0" fill="#000000" transform="matrix(1.00, 0.00, -0.00, -1.00, 882.0, 355.0)">u</text><text xml:space="preserve" font-family="Menlo-Regular" font-size="28.0" fill="#000000" transform="matrix(1.00, 0.00, -0.00, -1.00, 898.9, 355.0)">r</text><text xml:space="preserve" font-family="Menlo-Regular" font-size="28.0" fill="#000000" transform="matrix(1.00, 0.00, -0.00, -1.00, 915.7, 355.0)">n</text><text xml:space="preserve" font-family="Menlo-Regular" font-size="28.0" fill="#000000" transform="matrix(1.00, 0.00, -0.00, -1.00, 932.6, 355.0)">;</text><text xml:space="preserve" font-family="Menlo-Regular" font-size="28.0" fill="#000000" transform="matrix(1.00, 0.00, -0.00, -1.00, 949.4, 355.0)"> </text><text xml:space="preserve" font-family="Menlo-Regular" font-size="28.0" fill="#000000" transform="matrix(1.00, 0.00, -0.00, -1.00, 56.0, 322.0)"> </text><text xml:space="preserve" font-family="Menlo-Regular" font-size="28.0" fill="#000000" transform="matrix(1.00, 0.00, -0.00, -1.00, 72.9, 322.0)"> </text><text xml:space="preserve" font-family="Menlo-Regular" font-size="28.0" fill="#000000" transform="matrix(1.00, 0.00, -0.00, -1.00, 89.7, 322.0)"> </text><text xml:space="preserve" font-family="Menlo-Regular" font-size="28.0" fill="#000000" transform="matrix(1.00, 0.00, -0.00, -1.00, 106.6, 322.0)"> </text><text xml:space="preserve" font-family="Menlo-Regular" font-size="28.0" fill="#C32275" transform="matrix(1.00, 0.00, -0.00, -1.00, 123.4, 322.0)">f</text><text xml:space="preserve" font-family="Menlo-Regular" font-size="28.0" fill="#C32275" transform="matrix(1.00, 0.00, -0.00, -1.00, 140.3, 322.0)">i</text><text xml:space="preserve" font-family="Menlo-Regular" font-size="28.0" fill="#000000" transform="matrix(1.00, 0.00, -0.00, -1.00, 157.1, 322.0)"> </text><text xml:space="preserve" font-family="Menlo-Regular" font-size="28.0" fill="#000000" transform="matrix(1.00, 0.00, -0.00, -1.00, 56.0, 289.0)"> </text><text xml:space="preserve" font-family="Menlo-Regular" font-size="28.0" fill="#000000" transform="matrix(1.00, 0.00, -0.00, -1.00, 72.9, 289.0)"> </text><text xml:space="preserve" font-family="Menlo-Regular" font-size="28.0" fill="#000000" transform="matrix(1.00, 0.00, -0.00, -1.00, 89.7, 289.0)"> </text><text xml:space="preserve" font-family="Menlo-Regular" font-size="28.0" fill="#000000" transform="matrix(1.00, 0.00, -0.00, -1.00, 106.6, 289.0)"> </text><text xml:space="preserve" font-family="Menlo-Regular" font-size="28.0" fill="#000000" transform="matrix(1.00, 0.00, -0.00, -1.00, 123.4, 289.0)">c</text><text xml:space="preserve" font-family="Menlo-Regular" font-size="28.0" fill="#000000" transform="matrix(1.00, 0.00, -0.00, -1.00, 140.3, 289.0)">d</text><text xml:space="preserve" font-family="Menlo-Regular" font-size="28.0" fill="#000000" transform="matrix(1.00, 0.00, -0.00, -1.00, 157.2, 289.0)"> </text><text xml:space="preserve" font-family="Menlo-Regular" font-size="28.0" fill="#000000" transform="matrix(1.00, 0.00, -0.00, -1.00, 174.0, 289.0)">"</text><text xml:space="preserve" font-family="Menlo-Regular" font-size="28.0" fill="#000000" transform="matrix(1.00, 0.00, -0.00, -1.00, 190.9, 289.0)">$</text><text xml:space="preserve" font-family="Menlo-Regular" font-size="28.0" fill="#000000" transform="matrix(1.00, 0.00, -0.00, -1.00, 207.7, 289.0)">{</text><text xml:space="preserve" font-family="Menlo-Regular" font-size="28.0" fill="#000000" transform="matrix(1.00, 0.00, -0.00, -1.00, 224.6, 289.0)">p</text><text xml:space="preserve" font-family="Menlo-Regular" font-size="28.0" fill="#000000" transform="matrix(1.00, 0.00, -0.00, -1.00, 241.5, 289.0)">a</text><text xml:space="preserve" font-family="Menlo-Regular" font-size="28.0" fill="#000000" transform="matrix(1.00, 0.00, -0.00, -1.00, 258.3, 289.0)">t</text><text xml:space="preserve" font-family="Menlo-Regular" font-size="28.0" fill="#000000" transform="matrix(1.00, 0.00, -0.00, -1.00, 275.2, 289.0)">h</text><text xml:space="preserve" font-family="Menlo-Regular" font-size="28.0" fill="#000000" transform="matrix(1.00, 0.00, -0.00, -1.00, 292.0, 289.0)">}</text><text xml:space="preserve" font-family="Menlo-Regular" font-size="28.0" fill="#000000" transform="matrix(1.00, 0.00, -0.00, -1.00, 308.9, 289.0)">"</text><text xml:space="preserve" font-family="Menlo-Regular" font-size="28.0" fill="#000000" transform="matrix(1.00, 0.00, -0.00, -1.00, 325.7, 289.0)">;</text><text xml:space="preserve" font-family="Menlo-Regular" font-size="28.0" fill="#000000" transform="matrix(1.00, 0.00, -0.00, -1.00, 342.6, 289.0)"> </text><text xml:space="preserve" font-family="Menlo-Regular" font-size="28.0" fill="#000000" transform="matrix(1.00, 0.00, -0.00, -1.00, 56.0, 256.0)"> </text><text xml:space="preserve" font-family="Menlo-Regular" font-size="28.0" fill="#000000" transform="matrix(1.00, 0.00, -0.00, -1.00, 72.9, 256.0)"> </text><text xml:space="preserve" font-family="Menlo-Regular" font-size="28.0" fill="#000000" transform="matrix(1.00, 0.00, -0.00, -1.00, 89.7, 256.0)"> </text><text xml:space="preserve" font-family="Menlo-Regular" font-size="28.0" fill="#000000" transform="matrix(1.00, 0.00, -0.00, -1.00, 106.6, 256.0)"> </text><text xml:space="preserve" font-family="Menlo-Regular" font-size="28.0" fill="#C32275" transform="matrix(1.00, 0.00, -0.00, -1.00, 123.4, 256.0)">e</text><text xml:space="preserve" font-family="Menlo-Regular" font-size="28.0" fill="#C32275" transform="matrix(1.00, 0.00, -0.00, -1.00, 140.3, 256.0)">x</text><text xml:space="preserve" font-family="Menlo-Regular" font-size="28.0" fill="#C32275" transform="matrix(1.00, 0.00, -0.00, -1.00, 157.2, 256.0)">p</text><text xml:space="preserve" font-family="Menlo-Regular" font-size="28.0" fill="#C32275" transform="matrix(1.00, 0.00, -0.00, -1.00, 174.0, 256.0)">o</text><text xml:space="preserve" font-family="Menlo-Regular" font-size="28.0" fill="#C32275" transform="matrix(1.00, 0.00, -0.00, -1.00, 190.9, 256.0)">r</text><text xml:space="preserve" font-family="Menlo-Regular" font-size="28.0" fill="#C32275" transform="matrix(1.00, 0.00, -0.00, -1.00, 207.7, 256.0)">t</text><text xml:space="preserve" font-family="Menlo-Regular" font-size="28.0" fill="#000000" transform="matrix(1.00, 0.00, -0.00, -1.00, 224.6, 256.0)"> </text><text xml:space="preserve" font-family="Menlo-Regular" font-size="28.0" fill="#000000" transform="matrix(1.00, 0.00, -0.00, -1.00, 241.4, 256.0)">D</text><text xml:space="preserve" font-family="Menlo-Regular" font-size="28.0" fill="#000000" transform="matrix(1.00, 0.00, -0.00, -1.00, 258.3, 256.0)">V</text><text xml:space="preserve" font-family="Menlo-Regular" font-size="28.0" fill="#000000" transform="matrix(1.00, 0.00, -0.00, -1.00, 275.2, 256.0)">C</text><text xml:space="preserve" font-family="Menlo-Regular" font-size="28.0" fill="#000000" transform="matrix(1.00, 0.00, -0.00, -1.00, 292.0, 256.0)">S</text><text xml:space="preserve" font-family="Menlo-Regular" font-size="28.0" fill="#000000" transform="matrix(1.00, 0.00, -0.00, -1.00, 308.9, 256.0)">H</text><text xml:space="preserve" font-family="Menlo-Regular" font-size="28.0" fill="#000000" transform="matrix(1.00, 0.00, -0.00, -1.00, 325.7, 256.0)">=</text><text xml:space="preserve" font-family="Menlo-Regular" font-size="28.0" fill="#C81B13" transform="matrix(1.00, 0.00, -0.00, -1.00, 342.6, 256.0)">"</text><text xml:space="preserve" font-family="Menlo-Regular" font-size="28.0" fill="#C81B13" transform="matrix(1.00, 0.00, -0.00, -1.00, 359.4, 256.0)">$</text><text xml:space="preserve" font-family="Menlo-Regular" font-size="28.0" fill="#C81B13" transform="matrix(1.00, 0.00, -0.00, -1.00, 376.3, 256.0)">(</text><text xml:space="preserve" font-family="Menlo-Regular" font-size="28.0" fill="#C81B13" transform="matrix(1.00, 0.00, -0.00, -1.00, 393.2, 256.0)">p</text><text xml:space="preserve" font-family="Menlo-Regular" font-size="28.0" fill="#C81B13" transform="matrix(1.00, 0.00, -0.00, -1.00, 410.0, 256.0)">w</text><text xml:space="preserve" font-family="Menlo-Regular" font-size="28.0" fill="#C81B13" transform="matrix(1.00, 0.00, -0.00, -1.00, 426.9, 256.0)">d</text><text xml:space="preserve" font-family="Menlo-Regular" font-size="28.0" fill="#C81B13" transform="matrix(1.00, 0.00, -0.00, -1.00, 443.7, 256.0)">)</text><text xml:space="preserve" font-family="Menlo-Regular" font-size="28.0" fill="#C81B13" transform="matrix(1.00, 0.00, -0.00, -1.00, 460.6, 256.0)">/</text><text xml:space="preserve" font-family="Menlo-Regular" font-size="28.0" fill="#C81B13" transform="matrix(1.00, 0.00, -0.00, -1.00, 477.5, 256.0)">.</text><text xml:space="preserve" font-family="Menlo-Regular" font-size="28.0" fill="#C81B13" transform="matrix(1.00, 0.00, -0.00, -1.00, 494.3, 256.0)">d</text><text xml:space="preserve" font-family="Menlo-Regular" font-size="28.0" fill="#C81B13" transform="matrix(1.00, 0.00, -0.00, -1.00, 511.2, 256.0)">v</text><text xml:space="preserve" font-family="Menlo-Regular" font-size="28.0" fill="#C81B13" transform="matrix(1.00, 0.00, -0.00, -1.00, 528.0, 256.0)">c</text><text xml:space="preserve" font-family="Menlo-Regular" font-size="28.0" fill="#C81B13" transform="matrix(1.00, 0.00, -0.00, -1.00, 544.9, 256.0)">s</text><text xml:space="preserve" font-family="Menlo-Regular" font-size="28.0" fill="#C81B13" transform="matrix(1.00, 0.00, -0.00, -1.00, 561.8, 256.0)">h</text><text xml:space="preserve" font-family="Menlo-Regular" font-size="28.0" fill="#C81B13" transform="matrix(1.00, 0.00, -0.00, -1.00, 578.6, 256.0)">"</text><text xml:space="preserve" font-family="Menlo-Regular" font-size="28.0" fill="#000000" transform="matrix(1.00, 0.00, -0.00, -1.00, 595.4, 256.0)"> </text><text xml:space="preserve" font-family="Menlo-Regular" font-size="28.0" fill="#000000" transform="matrix(1.00, 0.00, -0.00, -1.00, 56.0, 223.0)"> </text><text xml:space="preserve" font-family="Menlo-Regular" font-size="28.0" fill="#000000" transform="matrix(1.00, 0.00, -0.00, -1.00, 72.9, 223.0)"> </text><text xml:space="preserve" font-family="Menlo-Regular" font-size="28.0" fill="#000000" transform="matrix(1.00, 0.00, -0.00, -1.00, 89.7, 223.0)"> </text><text xml:space="preserve" font-family="Menlo-Regular" font-size="28.0" fill="#000000" transform="matrix(1.00, 0.00, -0.00, -1.00, 106.6, 223.0)"> </text><text xml:space="preserve" font-family="Menlo-Regular" font-size="28.0" fill="#000000" transform="matrix(1.00, 0.00, -0.00, -1.00, 123.4, 223.0)">m</text><text xml:space="preserve" font-family="Menlo-Regular" font-size="28.0" fill="#000000" transform="matrix(1.00, 0.00, -0.00, -1.00, 140.3, 223.0)">k</text><text xml:space="preserve" font-family="Menlo-Regular" font-size="28.0" fill="#000000" transform="matrix(1.00, 0.00, -0.00, -1.00, 157.2, 223.0)">d</text><text xml:space="preserve" font-family="Menlo-Regular" font-size="28.0" fill="#000000" transform="matrix(1.00, 0.00, -0.00, -1.00, 174.0, 223.0)">i</text><text xml:space="preserve" font-family="Menlo-Regular" font-size="28.0" fill="#000000" transform="matrix(1.00, 0.00, -0.00, -1.00, 190.9, 223.0)">r</text><text xml:space="preserve" font-family="Menlo-Regular" font-size="28.0" fill="#000000" transform="matrix(1.00, 0.00, -0.00, -1.00, 207.7, 223.0)"> </text><text xml:space="preserve" font-family="Menlo-Regular" font-size="28.0" fill="#000000" transform="matrix(1.00, 0.00, -0.00, -1.00, 224.6, 223.0)">-</text><text xml:space="preserve" font-family="Menlo-Regular" font-size="28.0" fill="#000000" transform="matrix(1.00, 0.00, -0.00, -1.00, 241.5, 223.0)">p</text><text xml:space="preserve" font-family="Menlo-Regular" font-size="28.0" fill="#000000" transform="matrix(1.00, 0.00, -0.00, -1.00, 258.3, 223.0)"> </text><text xml:space="preserve" font-family="Menlo-Regular" font-size="28.0" fill="#C81B13" transform="matrix(1.00, 0.00, -0.00, -1.00, 275.1, 223.0)">"</text><text xml:space="preserve" font-family="Menlo-Regular" font-size="28.0" fill="#C81B13" transform="matrix(1.00, 0.00, -0.00, -1.00, 292.0, 223.0)">$</text><text xml:space="preserve" font-family="Menlo-Regular" font-size="28.0" fill="#C81B13" transform="matrix(1.00, 0.00, -0.00, -1.00, 308.9, 223.0)">{</text><text xml:space="preserve" font-family="Menlo-Regular" font-size="28.0" fill="#C81B13" transform="matrix(1.00, 0.00, -0.00, -1.00, 325.7, 223.0)">D</text><text xml:space="preserve" font-family="Menlo-Regular" font-size="28.0" fill="#C81B13" transform="matrix(1.00, 0.00, -0.00, -1.00, 342.6, 223.0)">V</text><text xml:space="preserve" font-family="Menlo-Regular" font-size="28.0" fill="#C81B13" transform="matrix(1.00, 0.00, -0.00, -1.00, 359.4, 223.0)">C</text><text xml:space="preserve" font-family="Menlo-Regular" font-size="28.0" fill="#C81B13" transform="matrix(1.00, 0.00, -0.00, -1.00, 376.3, 223.0)">S</text><text xml:space="preserve" font-family="Menlo-Regular" font-size="28.0" fill="#C81B13" transform="matrix(1.00, 0.00, -0.00, -1.00, 393.2, 223.0)">H</text><text xml:space="preserve" font-family="Menlo-Regular" font-size="28.0" fill="#C81B13" transform="matrix(1.00, 0.00, -0.00, -1.00, 410.0, 223.0)">}</text><text xml:space="preserve" font-family="Menlo-Regular" font-size="28.0" fill="#C81B13" transform="matrix(1.00, 0.00, -0.00, -1.00, 426.9, 223.0)">/</text><text xml:space="preserve" font-family="Menlo-Regular" font-size="28.0" fill="#C81B13" transform="matrix(1.00, 0.00, -0.00, -1.00, 443.7, 223.0)">o</text><text xml:space="preserve" font-family="Menlo-Regular" font-size="28.0" fill="#C81B13" transform="matrix(1.00, 0.00, -0.00, -1.00, 460.6, 223.0)">b</text><text xml:space="preserve" font-family="Menlo-Regular" font-size="28.0" fill="#C81B13" transform="matrix(1.00, 0.00, -0.00, -1.00, 477.5, 223.0)">j</text><text xml:space="preserve" font-family="Menlo-Regular" font-size="28.0" fill="#C81B13" transform="matrix(1.00, 0.00, -0.00, -1.00, 494.3, 223.0)">e</text><text xml:space="preserve" font-family="Menlo-Regular" font-size="28.0" fill="#C81B13" transform="matrix(1.00, 0.00, -0.00, -1.00, 511.2, 223.0)">c</text><text xml:space="preserve" font-family="Menlo-Regular" font-size="28.0" fill="#C81B13" transform="matrix(1.00, 0.00, -0.00, -1.00, 528.0, 223.0)">t</text><text xml:space="preserve" font-family="Menlo-Regular" font-size="28.0" fill="#C81B13" transform="matrix(1.00, 0.00, -0.00, -1.00, 544.9, 223.0)">s</text><text xml:space="preserve" font-family="Menlo-Regular" font-size="28.0" fill="#C81B13" transform="matrix(1.00, 0.00, -0.00, -1.00, 561.8, 223.0)">"</text><text xml:space="preserve" font-family="Menlo-Regular" font-size="28.0" fill="#000000" transform="matrix(1.00, 0.00, -0.00, -1.00, 578.6, 223.0)">;</text><text xml:space="preserve" font-family="Menlo-Regular" font-size="28.0" fill="#000000" transform="matrix(1.00, 0.00, -0.00, -1.00, 595.4, 223.0)"> </text><text xml:space="preserve" font-family="Menlo-Regular" font-size="28.0" fill="#000000" transform="matrix(1.00, 0.00, -0.00, -1.00, 56.0, 190.0)"> </text><text xml:space="preserve" font-family="Menlo-Regular" font-size="28.0" fill="#000000" transform="matrix(1.00, 0.00, -0.00, -1.00, 72.9, 190.0)"> </text><text xml:space="preserve" font-family="Menlo-Regular" font-size="28.0" fill="#000000" transform="matrix(1.00, 0.00, -0.00, -1.00, 89.7, 190.0)"> </text><text xml:space="preserve" font-family="Menlo-Regular" font-size="28.0" fill="#000000" transform="matrix(1.00, 0.00, -0.00, -1.00, 106.6, 190.0)"> </text><text xml:space="preserve" font-family="Menlo-Regular" font-size="28.0" fill="#000000" transform="matrix(1.00, 0.00, -0.00, -1.00, 123.4, 190.0)">e</text><text xml:space="preserve" font-family="Menlo-Regular" font-size="28.0" fill="#000000" transform="matrix(1.00, 0.00, -0.00, -1.00, 140.3, 190.0)">c</text><text xml:space="preserve" font-family="Menlo-Regular" font-size="28.0" fill="#000000" transform="matrix(1.00, 0.00, -0.00, -1.00, 157.2, 190.0)">h</text><text xml:space="preserve" font-family="Menlo-Regular" font-size="28.0" fill="#000000" transform="matrix(1.00, 0.00, -0.00, -1.00, 174.0, 190.0)">o</text><text xml:space="preserve" font-family="Menlo-Regular" font-size="28.0" fill="#000000" transform="matrix(1.00, 0.00, -0.00, -1.00, 190.9, 190.0)"> </text><text xml:space="preserve" font-family="Menlo-Regular" font-size="28.0" fill="#C81B13" transform="matrix(1.00, 0.00, -0.00, -1.00, 207.7, 190.0)">"</text><text xml:space="preserve" font-family="Menlo-Regular" font-size="28.0" fill="#C81B13" transform="matrix(1.00, 0.00, -0.00, -1.00, 224.6, 190.0)">I</text><text xml:space="preserve" font-family="Menlo-Regular" font-size="28.0" fill="#C81B13" transform="matrix(1.00, 0.00, -0.00, -1.00, 241.4, 190.0)">n</text><text xml:space="preserve" font-family="Menlo-Regular" font-size="28.0" fill="#C81B13" transform="matrix(1.00, 0.00, -0.00, -1.00, 258.3, 190.0)">i</text><text xml:space="preserve" font-family="Menlo-Regular" font-size="28.0" fill="#C81B13" transform="matrix(1.00, 0.00, -0.00, -1.00, 275.2, 190.0)">t</text><text xml:space="preserve" font-family="Menlo-Regular" font-size="28.0" fill="#C81B13" transform="matrix(1.00, 0.00, -0.00, -1.00, 292.0, 190.0)">i</text><text xml:space="preserve" font-family="Menlo-Regular" font-size="28.0" fill="#C81B13" transform="matrix(1.00, 0.00, -0.00, -1.00, 308.9, 190.0)">a</text><text xml:space="preserve" font-family="Menlo-Regular" font-size="28.0" fill="#C81B13" transform="matrix(1.00, 0.00, -0.00, -1.00, 325.7, 190.0)">l</text><text xml:space="preserve" font-family="Menlo-Regular" font-size="28.0" fill="#C81B13" transform="matrix(1.00, 0.00, -0.00, -1.00, 342.6, 190.0)">i</text><text xml:space="preserve" font-family="Menlo-Regular" font-size="28.0" fill="#C81B13" transform="matrix(1.00, 0.00, -0.00, -1.00, 359.5, 190.0)">z</text><text xml:space="preserve" font-family="Menlo-Regular" font-size="28.0" fill="#C81B13" transform="matrix(1.00, 0.00, -0.00, -1.00, 376.3, 190.0)">e</text><text xml:space="preserve" font-family="Menlo-Regular" font-size="28.0" fill="#C81B13" transform="matrix(1.00, 0.00, -0.00, -1.00, 393.2, 190.0)">d</text><text xml:space="preserve" font-family="Menlo-Regular" font-size="28.0" fill="#C81B13" transform="matrix(1.00, 0.00, -0.00, -1.00, 410.0, 190.0)"> </text><text xml:space="preserve" font-family="Menlo-Regular" font-size="28.0" fill="#C81B13" transform="matrix(1.00, 0.00, -0.00, -1.00, 426.9, 190.0)">e</text><text xml:space="preserve" font-family="Menlo-Regular" font-size="28.0" fill="#C81B13" transform="matrix(1.00, 0.00, -0.00, -1.00, 443.8, 190.0)">m</text><text xml:space="preserve" font-family="Menlo-Regular" font-size="28.0" fill="#C81B13" transform="matrix(1.00, 0.00, -0.00, -1.00, 460.6, 190.0)">p</text><text xml:space="preserve" font-family="Menlo-Regular" font-size="28.0" fill="#C81B13" transform="matrix(1.00, 0.00, -0.00, -1.00, 477.5, 190.0)">t</text><text xml:space="preserve" font-family="Menlo-Regular" font-size="28.0" fill="#C81B13" transform="matrix(1.00, 0.00, -0.00, -1.00, 494.3, 190.0)">y</text><text xml:space="preserve" font-family="Menlo-Regular" font-size="28.0" fill="#C81B13" transform="matrix(1.00, 0.00, -0.00, -1.00, 511.2, 190.0)"> </text><text xml:space="preserve" font-family="Menlo-Regular" font-size="28.0" fill="#C81B13" transform="matrix(1.00, 0.00, -0.00, -1.00, 528.1, 190.0)">r</text><text xml:space="preserve" font-family="Menlo-Regular" font-size="28.0" fill="#C81B13" transform="matrix(1.00, 0.00, -0.00, -1.00, 544.9, 190.0)">e</text><text xml:space="preserve" font-family="Menlo-Regular" font-size="28.0" fill="#C81B13" transform="matrix(1.00, 0.00, -0.00, -1.00, 561.8, 190.0)">p</text><text xml:space="preserve" font-family="Menlo-Regular" font-size="28.0" fill="#C81B13" transform="matrix(1.00, 0.00, -0.00, -1.00, 578.6, 190.0)">o</text><text xml:space="preserve" font-family="Menlo-Regular" font-size="28.0" fill="#C81B13" transform="matrix(1.00, 0.00, -0.00, -1.00, 595.5, 190.0)">s</text><text xml:space="preserve" font-family="Menlo-Regular" font-size="28.0" fill="#C81B13" transform="matrix(1.00, 0.00, -0.00, -1.00, 612.4, 190.0)">i</text><text xml:space="preserve" font-family="Menlo-Regular" font-size="28.0" fill="#C81B13" transform="matrix(1.00, 0.00, -0.00, -1.00, 629.2, 190.0)">t</text><text xml:space="preserve" font-family="Menlo-Regular" font-size="28.0" fill="#C81B13" transform="matrix(1.00, 0.00, -0.00, -1.00, 646.1, 190.0)">o</text><text xml:space="preserve" font-family="Menlo-Regular" font-size="28.0" fill="#C81B13" transform="matrix(1.00, 0.00, -0.00, -1.00, 662.9, 190.0)">r</text><text xml:space="preserve" font-family="Menlo-Regular" font-size="28.0" fill="#C81B13" transform="matrix(1.00, 0.00, -0.00, -1.00, 679.8, 190.0)">y</text><text xml:space="preserve" font-family="Menlo-Regular" font-size="28.0" fill="#C81B13" transform="matrix(1.00, 0.00, -0.00, -1.00, 696.7, 190.0)"> </text><text xml:space="preserve" font-family="Menlo-Regular" font-size="28.0" fill="#C81B13" transform="matrix(1.00, 0.00, -0.00, -1.00, 713.5, 190.0)">i</text><text xml:space="preserve" font-family="Menlo-Regular" font-size="28.0" fill="#C81B13" transform="matrix(1.00, 0.00, -0.00, -1.00, 730.4, 190.0)">n</text><text xml:space="preserve" font-family="Menlo-Regular" font-size="28.0" fill="#C81B13" transform="matrix(1.00, 0.00, -0.00, -1.00, 747.2, 190.0)"> </text><text xml:space="preserve" font-family="Menlo-Regular" font-size="28.0" fill="#C81B13" transform="matrix(1.00, 0.00, -0.00, -1.00, 764.1, 190.0)">$</text><text xml:space="preserve" font-family="Menlo-Regular" font-size="28.0" fill="#C81B13" transform="matrix(1.00, 0.00, -0.00, -1.00, 781.0, 190.0)">{</text><text xml:space="preserve" font-family="Menlo-Regular" font-size="28.0" fill="#C81B13" transform="matrix(1.00, 0.00, -0.00, -1.00, 797.8, 190.0)">D</text><text xml:space="preserve" font-family="Menlo-Regular" font-size="28.0" fill="#C81B13" transform="matrix(1.00, 0.00, -0.00, -1.00, 814.7, 190.0)">V</text><text xml:space="preserve" font-family="Menlo-Regular" font-size="28.0" fill="#C81B13" transform="matrix(1.00, 0.00, -0.00, -1.00, 831.5, 190.0)">C</text><text xml:space="preserve" font-family="Menlo-Regular" font-size="28.0" fill="#C81B13" transform="matrix(1.00, 0.00, -0.00, -1.00, 848.4, 190.0)">S</text><text xml:space="preserve" font-family="Menlo-Regular" font-size="28.0" fill="#C81B13" transform="matrix(1.00, 0.00, -0.00, -1.00, 865.3, 190.0)">H</text><text xml:space="preserve" font-family="Menlo-Regular" font-size="28.0" fill="#C81B13" transform="matrix(1.00, 0.00, -0.00, -1.00, 882.1, 190.0)">}</text><text xml:space="preserve" font-family="Menlo-Regular" font-size="28.0" fill="#C81B13" transform="matrix(1.00, 0.00, -0.00, -1.00, 899.0, 190.0)">/</text><text xml:space="preserve" font-family="Menlo-Regular" font-size="28.0" fill="#C81B13" transform="matrix(1.00, 0.00, -0.00, -1.00, 915.8, 190.0)">"</text><text xml:space="preserve" font-family="Menlo-Regular" font-size="28.0" fill="#000000" transform="matrix(1.00, 0.00, -0.00, -1.00, 932.6, 190.0)">;</text><text xml:space="preserve" font-family="Menlo-Regular" font-size="28.0" fill="#000000" transform="matrix(1.00, 0.00, -0.00, -1.00, 949.4, 190.0)"> </text><text xml:space="preserve" font-family="Menlo-Regular" font-size="28.0" fill="#000000" transform="matrix(1.00, 0.00, -0.00, -1.00, 56.0, 157.0)">}</text></g></svg>