<?xml version="1.0" encoding="UTF-8" standalone="no"?><svg xmlns="http://www.w3.org/2000/svg" xmlns:xlink="http://www.w3.org/1999/xlink" clip-rule="evenodd" stroke-miterlimit="4.00" viewBox="0 0 1024 768"><desc>SVG generated by Keynote</desc><defs></defs><g transform="matrix(1.00, 0.00, -0.00, -1.00, 0.0, 768.0)"><path d="M 0.0 768.0 L 1024.0 768.0 L 1024.0 0.0 L 0.0 0.0 Z M 0.0 768.0 " fill="#FEFFFF"></path><text xml:space="preserve" font-family="Helvetica-Light" font-size="80.0" fill="#000000" transform="matrix(1.00, 0.00, -0.00, -1.00, 294.0, 618.0)">T</text><text xml:space="preserve" font-family="Helvetica-Light" font-size="80.0" fill="#000000" transform="matrix(1.00, 0.00, -0.00, -1.00, 331.1, 618.0)">r</text><text xml:space="preserve" font-family="Helvetica-Light" font-size="80.0" fill="#000000" transform="matrix(1.00, 0.00, -0.00, -1.00, 356.3, 618.0)">e</text><text xml:space="preserve" font-family="Helvetica-Light" font-size="80.0" fill="#000000" transform="matrix(1.00, 0.00, -0.00, -1.00, 400.8, 618.0)">e</text><text xml:space="preserve" font-family="Helvetica-Light" font-size="80.0" fill="#000000" transform="matrix(1.00, 0.00, -0.00, -1.00, 445.3, 618.0)"> </text><text xml:space="preserve" font-family="Helvetica-Light" font-size="80.0" fill="#000000" transform="matrix(1.00, 0.00, -0.00, -1.00, 467.5, 618.0)">o</text><text xml:space="preserve" font-family="Helvetica-Light" font-size="80.0" fill="#000000" transform="matrix(1.00, 0.00, -0.00, -1.00, 512.0, 618.0)">b</text><text xml:space="preserve" font-family="Helvetica-Light" font-size="80.0" fill="#000000" transform="matrix(1.00, 0.00, -0.00, -1.00, 560.9, 618.0)">j</text><text xml:space="preserve" font-family="Helvetica-Light" font-size="80.0" fill="#000000" transform="matrix(1.00, 0.00, -0.00, -1.00, 578.6, 618.0)">e</text><text xml:space="preserve" font-family="Helvetica-Light" font-size="80.0" fill="#000000" transform="matrix(1.00, 0.00, -0.00, -1.00, 623.1, 618.0)">c</text><text xml:space="preserve" font-family="Helvetica-Light" font-size="80.0" fill="#000000" transform="matrix(1.00, 0.00, -0.00, -1.00, 667.6, 618.0)">t</text><text xml:space="preserve" font-family="Helvetica-Light" font-size="80.0" fill="#000000" transform="matrix(1.00, 0.00, -0.00, -1.00, 689.8, 618.0)">s</text><text xml:space="preserve" font-family="Menlo-Regular" font-size="28.0" fill="#000000" transform="matrix(1.00, 0.00, -0.00, -1.00, 216.0, 355.0)">$</text><text xml:space="preserve" font-family="Menlo-Regular" font-size="28.0" fill="#000000" transform="matrix(1.00, 0.00, -0.00, -1.00, 232.9, 355.0)"> </text><text xml:space="preserve" font-family="Menlo-Regular" font-size="28.0" fill="#000000" transform="matrix(1.00, 0.00, -0.00, -1.00, 249.7, 355.0)">g</text><text xml:space="preserve" font-family="Menlo-Regular" font-size="28.0" fill="#000000" transform="matrix(1.00, 0.00, -0.00, -1.00, 266.6, 355.0)">i</text><text xml:space="preserve" font-family="Menlo-Regular" font-size="28.0" fill="#000000" transform="matrix(1.00, 0.00, -0.00, -1.00, 283.4, 355.0)">t</text><text xml:space="preserve" font-family="Menlo-Regular" font-size="28.0" fill="#000000" transform="matrix(1.00, 0.00, -0.00, -1.00, 300.3, 355.0)"> </text><text xml:space="preserve" font-family="Menlo-Regular" font-size="28.0" fill="#000000" transform="matrix(1.00, 0.00, -0.00, -1.00, 317.2, 355.0)">c</text><text xml:space="preserve" font-family="Menlo-Regular" font-size="28.0" fill="#000000" transform="matrix(1.00, 0.00, -0.00, -1.00, 334.0, 355.0)">o</text><text xml:space="preserve" font-family="Menlo-Regular" font-size="28.0" fill="#000000" transform="matrix(1.00, 0.00, -0.00, -1.00, 350.9, 355.0)">m</text><text xml:space="preserve" font-family="Menlo-Regular" font-size="28.0" fill="#000000" transform="matrix(1.00, 0.00, -0.00, -1.00, 367.7, 355.0)">m</text><text xml:space="preserve" font-family="Menlo-Regular" font-size="28.0" fill="#000000" transform="matrix(1.00, 0.00, -0.00, -1.00, 384.6, 355.0)">i</text><text xml:space="preserve" font-family="Menlo-Regular" font-size="28.0" fill="#000000" transform="matrix(1.00, 0.00, -0.00, -1.00, 401.5, 355.0)">t</text><text xml:space="preserve" font-family="Menlo-Regular" font-size="28.0" fill="#000000" transform="matrix(1.00, 0.00, -0.00, -1.00, 418.3, 355.0)"> </text><text xml:space="preserve" font-family="Menlo-Regular" font-size="28.0" fill="#000000" transform="matrix(1.00, 0.00, -0.00, -1.00, 435.2, 355.0)">-</text><text xml:space="preserve" font-family="Menlo-Regular" font-size="28.0" fill="#000000" transform="matrix(1.00, 0.00, -0.00, -1.00, 452.0, 355.0)">m</text><text xml:space="preserve" font-family="Menlo-Regular" font-size="28.0" fill="#000000" transform="matrix(1.00, 0.00, -0.00, -1.00, 468.9, 355.0)"> </text><text xml:space="preserve" font-family="Menlo-Regular" font-size="28.0" fill="#000000" transform="matrix(1.00, 0.00, -0.00, -1.00, 485.8, 355.0)">"</text><text xml:space="preserve" font-family="Menlo-Regular" font-size="28.0" fill="#000000" transform="matrix(1.00, 0.00, -0.00, -1.00, 502.6, 355.0)">s</text><text xml:space="preserve" font-family="Menlo-Regular" font-size="28.0" fill="#000000" transform="matrix(1.00, 0.00, -0.00, -1.00, 519.5, 355.0)">e</text><text xml:space="preserve" font-family="Menlo-Regular" font-size="28.0" fill="#000000" transform="matrix(1.00, 0.00, -0.00, -1.00, 536.3, 355.0)">c</text><text xml:space="preserve" font-family="Menlo-Regular" font-size="28.0" fill="#000000" transform="matrix(1.00, 0.00, -0.00, -1.00, 553.2, 355.0)">o</text><text xml:space="preserve" font-family="Menlo-Regular" font-size="28.0" fill="#000000" transform="matrix(1.00, 0.00, -0.00, -1.00, 570.1, 355.0)">n</text><text xml:space="preserve" font-family="Menlo-Regular" font-size="28.0" fill="#000000" transform="matrix(1.00, 0.00, -0.00, -1.00, 586.9, 355.0)">d</text><text xml:space="preserve" font-family="Menlo-Regular" font-size="28.0" fill="#000000" transform="matrix(1.00, 0.00, -0.00, -1.00, 603.8, 355.0)"> </text><text xml:space="preserve" font-family="Menlo-Regular" font-size="28.0" fill="#000000" transform="matrix(1.00, 0.00, -0.00, -1.00, 620.6, 355.0)">c</text><text xml:space="preserve" font-family="Menlo-Regular" font-size="28.0" fill="#000000" transform="matrix(1.00, 0.00, -0.00, -1.00, 637.5, 355.0)">o</text><text xml:space="preserve" font-family="Menlo-Regular" font-size="28.0" fill="#000000" transform="matrix(1.00, 0.00, -0.00, -1.00, 654.4, 355.0)">m</text><text xml:space="preserve" font-family="Menlo-Regular" font-size="28.0" fill="#000000" transform="matrix(1.00, 0.00, -0.00, -1.00, 671.2, 355.0)">m</text><text xml:space="preserve" font-family="Menlo-Regular" font-size="28.0" fill="#000000" transform="matrix(1.00, 0.00, -0.00, -1.00, 688.1, 355.0)">i</text><text xml:space="preserve" font-family="Menlo-Regular" font-size="28.0" fill="#000000" transform="matrix(1.00, 0.00, -0.00, -1.00, 704.9, 355.0)">t</text><text xml:space="preserve" font-family="Menlo-Regular" font-size="28.0" fill="#000000" transform="matrix(1.00, 0.00, -0.00, -1.00, 721.8, 355.0)">"</text><text xml:space="preserve" font-family="Menlo-Regular" font-size="28.0" fill="#000000" transform="matrix(1.00, 0.00, -0.00, -1.00, 738.7, 355.0)"> </text><text xml:space="preserve" font-family="Menlo-Regular" font-size="28.0" fill="#000000" transform="matrix(1.00, 0.00, -0.00, -1.00, 216.0, 322.0)">[</text><text xml:space="preserve" font-family="Menlo-Regular" font-size="28.0" fill="#000000" transform="matrix(1.00, 0.00, -0.00, -1.00, 232.9, 322.0)">m</text><text xml:space="preserve" font-family="Menlo-Regular" font-size="28.0" fill="#000000" transform="matrix(1.00, 0.00, -0.00, -1.00, 249.7, 322.0)">a</text><text xml:space="preserve" font-family="Menlo-Regular" font-size="28.0" fill="#000000" transform="matrix(1.00, 0.00, -0.00, -1.00, 266.6, 322.0)">s</text><text xml:space="preserve" font-family="Menlo-Regular" font-size="28.0" fill="#000000" transform="matrix(1.00, 0.00, -0.00, -1.00, 283.4, 322.0)">t</text><text xml:space="preserve" font-family="Menlo-Regular" font-size="28.0" fill="#000000" transform="matrix(1.00, 0.00, -0.00, -1.00, 300.3, 322.0)">e</text><text xml:space="preserve" font-family="Menlo-Regular" font-size="28.0" fill="#000000" transform="matrix(1.00, 0.00, -0.00, -1.00, 317.2, 322.0)">r</text><text xml:space="preserve" font-family="Menlo-Regular" font-size="28.0" fill="#000000" transform="matrix(1.00, 0.00, -0.00, -1.00, 334.0, 322.0)"> </text><text xml:space="preserve" font-family="Menlo-Regular" font-size="28.0" fill="#000000" transform="matrix(1.00, 0.00, -0.00, -1.00, 350.9, 322.0)">e</text><text xml:space="preserve" font-family="Menlo-Regular" font-size="28.0" fill="#000000" transform="matrix(1.00, 0.00, -0.00, -1.00, 367.7, 322.0)">4</text><text xml:space="preserve" font-family="Menlo-Regular" font-size="28.0" fill="#000000" transform="matrix(1.00, 0.00, -0.00, -1.00, 384.6, 322.0)">a</text><text xml:space="preserve" font-family="Menlo-Regular" font-size="28.0" fill="#000000" transform="matrix(1.00, 0.00, -0.00, -1.00, 401.5, 322.0)">8</text><text xml:space="preserve" font-family="Menlo-Regular" font-size="28.0" fill="#000000" transform="matrix(1.00, 0.00, -0.00, -1.00, 418.3, 322.0)">1</text><text xml:space="preserve" font-family="Menlo-Regular" font-size="28.0" fill="#000000" transform="matrix(1.00, 0.00, -0.00, -1.00, 435.2, 322.0)">7</text><text xml:space="preserve" font-family="Menlo-Regular" font-size="28.0" fill="#000000" transform="matrix(1.00, 0.00, -0.00, -1.00, 452.0, 322.0)">2</text><text xml:space="preserve" font-family="Menlo-Regular" font-size="28.0" fill="#000000" transform="matrix(1.00, 0.00, -0.00, -1.00, 468.9, 322.0)">]</text><text xml:space="preserve" font-family="Menlo-Regular" font-size="28.0" fill="#000000" transform="matrix(1.00, 0.00, -0.00, -1.00, 485.8, 322.0)"> </text><text xml:space="preserve" font-family="Menlo-Regular" font-size="28.0" fill="#000000" transform="matrix(1.00, 0.00, -0.00, -1.00, 502.6, 322.0)">s</text><text xml:space="preserve" font-family="Menlo-Regular" font-size="28.0" fill="#000000" transform="matrix(1.00, 0.00, -0.00, -1.00, 519.5, 322.0)">e</text><text xml:space="preserve" font-family="Menlo-Regular" font-size="28.0" fill="#000000" transform="matrix(1.00, 0.00, -0.00, -1.00, 536.3, 322.0)">c</text><text xml:space="preserve" font-family="Menlo-Regular" font-size="28.0" fill="#000000" transform="matrix(1.00, 0.00, -0.00, -1.00, 553.2, 322.0)">o</text><text xml:space="preserve" font-family="Menlo-Regular" font-size="28.0" fill="#000000" transform="matrix(1.00, 0.00, -0.00, -1.00, 570.1, 322.0)">n</text><text xml:space="preserve" font-family="Menlo-Regular" font-size="28.0" fill="#000000" transform="matrix(1.00, 0.00, -0.00, -1.00, 586.9, 322.0)">d</text><text xml:space="preserve" font-family="Menlo-Regular" font-size="28.0" fill="#000000" transform="matrix(1.00, 0.00, -0.00, -1.00, 603.8, 322.0)"> </text><text xml:space="preserve" font-family="Menlo-Regular" font-size="28.0" fill="#000000" transform="matrix(1.00, 0.00, -0.00, -1.00, 620.6, 322.0)">c</text><text xml:space="preserve" font-family="Menlo-Regular" font-size="28.0" fill="#000000" transform="matrix(1.00, 0.00, -0.00, -1.00, 637.5, 322.0)">o</text><text xml:space="preserve" font-family="Menlo-Regular" font-size="28.0" fill="#000000" transform="matrix(1.00, 0.00, -0.00, -1.00, 654.4, 322.0)">m</text><text xml:space="preserve" font-family="Menlo-Regular" font-size="28.0" fill="#000000" transform="matrix(1.00, 0.00, -0.00, -1.00, 671.2, 322.0)">m</text><text xml:space="preserve" font-family="Menlo-Regular" font-size="28.0" fill="#000000" transform="matrix(1.00, 0.00, -0.00, -1.00, 688.1, 322.0)">i</text><text xml:space="preserve" font-family="Menlo-Regular" font-size="28.0" fill="#000000" transform="matrix(1.00, 0.00, -0.00, -1.00, 704.9, 322.0)">t</text><text xml:space="preserve" font-family="Menlo-Regular" font-size="28.0" fill="#000000" transform="matrix(1.00, 0.00, -0.00, -1.00, 721.8, 322.0)"> </text><text xml:space="preserve" font-family="Menlo-Regular" font-size="28.0" fill="#000000" transform="matrix(1.00, 0.00, -0.00, -1.00, 216.0, 289.0)"> </text><text xml:space="preserve" font-family="Menlo-Regular" font-size="28.0" fill="#000000" transform="matrix(1.00, 0.00, -0.00, -1.00, 232.9, 289.0)">1</text><text xml:space="preserve" font-family="Menlo-Regular" font-size="28.0" fill="#000000" transform="matrix(1.00, 0.00, -0.00, -1.00, 249.7, 289.0)"> </text><text xml:space="preserve" font-family="Menlo-Regular" font-size="28.0" fill="#000000" transform="matrix(1.00, 0.00, -0.00, -1.00, 266.6, 289.0)">f</text><text xml:space="preserve" font-family="Menlo-Regular" font-size="28.0" fill="#000000" transform="matrix(1.00, 0.00, -0.00, -1.00, 283.4, 289.0)">i</text><text xml:space="preserve" font-family="Menlo-Regular" font-size="28.0" fill="#000000" transform="matrix(1.00, 0.00, -0.00, -1.00, 300.3, 289.0)">l</text><text xml:space="preserve" font-family="Menlo-Regular" font-size="28.0" fill="#000000" transform="matrix(1.00, 0.00, -0.00, -1.00, 317.2, 289.0)">e</text><text xml:space="preserve" font-family="Menlo-Regular" font-size="28.0" fill="#000000" transform="matrix(1.00, 0.00, -0.00, -1.00, 334.0, 289.0)"> </text><text xml:space="preserve" font-family="Menlo-Regular" font-size="28.0" fill="#000000" transform="matrix(1.00, 0.00, -0.00, -1.00, 350.9, 289.0)">c</text><text xml:space="preserve" font-family="Menlo-Regular" font-size="28.0" fill="#000000" transform="matrix(1.00, 0.00, -0.00, -1.00, 367.7, 289.0)">h</text><text xml:space="preserve" font-family="Menlo-Regular" font-size="28.0" fill="#000000" transform="matrix(1.00, 0.00, -0.00, -1.00, 384.6, 289.0)">a</text><text xml:space="preserve" font-family="Menlo-Regular" font-size="28.0" fill="#000000" transform="matrix(1.00, 0.00, -0.00, -1.00, 401.5, 289.0)">n</text><text xml:space="preserve" font-family="Menlo-Regular" font-size="28.0" fill="#000000" transform="matrix(1.00, 0.00, -0.00, -1.00, 418.3, 289.0)">g</text><text xml:space="preserve" font-family="Menlo-Regular" font-size="28.0" fill="#000000" transform="matrix(1.00, 0.00, -0.00, -1.00, 435.2, 289.0)">e</text><text xml:space="preserve" font-family="Menlo-Regular" font-size="28.0" fill="#000000" transform="matrix(1.00, 0.00, -0.00, -1.00, 452.0, 289.0)">d</text><text xml:space="preserve" font-family="Menlo-Regular" font-size="28.0" fill="#000000" transform="matrix(1.00, 0.00, -0.00, -1.00, 468.9, 289.0)">,</text><text xml:space="preserve" font-family="Menlo-Regular" font-size="28.0" fill="#000000" transform="matrix(1.00, 0.00, -0.00, -1.00, 485.8, 289.0)"> </text><text xml:space="preserve" font-family="Menlo-Regular" font-size="28.0" fill="#000000" transform="matrix(1.00, 0.00, -0.00, -1.00, 502.6, 289.0)">1</text><text xml:space="preserve" font-family="Menlo-Regular" font-size="28.0" fill="#000000" transform="matrix(1.00, 0.00, -0.00, -1.00, 519.5, 289.0)"> </text><text xml:space="preserve" font-family="Menlo-Regular" font-size="28.0" fill="#000000" transform="matrix(1.00, 0.00, -0.00, -1.00, 536.3, 289.0)">i</text><text xml:space="preserve" font-family="Menlo-Regular" font-size="28.0" fill="#000000" transform="matrix(1.00, 0.00, -0.00, -1.00, 553.2, 289.0)">n</text><text xml:space="preserve" font-family="Menlo-Regular" font-size="28.0" fill="#000000" transform="matrix(1.00, 0.00, -0.00, -1.00, 570.1, 289.0)">s</text><text xml:space="preserve" font-family="Menlo-Regular" font-size="28.0" fill="#000000" transform="matrix(1.00, 0.00, -0.00, -1.00, 586.9, 289.0)">e</text><text xml:space="preserve" font-family="Menlo-Regular" font-size="28.0" fill="#000000" transform="matrix(1.00, 0.00, -0.00, -1.00, 603.8, 289.0)">r</text><text xml:space="preserve" font-family="Menlo-Regular" font-size="28.0" fill="#000000" transform="matrix(1.00, 0.00, -0.00, -1.00, 620.6, 289.0)">t</text><text xml:space="preserve" font-family="Menlo-Regular" font-size="28.0" fill="#000000" transform="matrix(1.00, 0.00, -0.00, -1.00, 637.5, 289.0)">i</text><text xml:space="preserve" font-family="Menlo-Regular" font-size="28.0" fill="#000000" transform="matrix(1.00, 0.00, -0.00, -1.00, 654.4, 289.0)">o</text><text xml:space="preserve" font-family="Menlo-Regular" font-size="28.0" fill="#000000" transform="matrix(1.00, 0.00, -0.00, -1.00, 671.2, 289.0)">n</text><text xml:space="preserve" font-family="Menlo-Regular" font-size="28.0" fill="#000000" transform="matrix(1.00, 0.00, -0.00, -1.00, 688.1, 289.0)">(</text><text xml:space="preserve" font-family="Menlo-Regular" font-size="28.0" fill="#000000" transform="matrix(1.00, 0.00, -0.00, -1.00, 704.9, 289.0)">+</text><text xml:space="preserve" font-family="Menlo-Regular" font-size="28.0" fill="#000000" transform="matrix(1.00, 0.00, -0.00, -1.00, 721.8, 289.0)">)</text><text xml:space="preserve" font-family="Menlo-Regular" font-size="28.0" fill="#000000" transform="matrix(1.00, 0.00, -0.00, -1.00, 738.7, 289.0)"> </text><text xml:space="preserve" font-family="Menlo-Regular" font-size="28.0" fill="#000000" transform="matrix(1.00, 0.00, -0.00, -1.00, 216.0, 256.0)"> </text><text xml:space="preserve" font-family="Menlo-Regular" font-size="28.0" fill="#000000" transform="matrix(1.00, 0.00, -0.00, -1.00, 232.9, 256.0)">c</text><text xml:space="preserve" font-family="Menlo-Regular" font-size="28.0" fill="#000000" transform="matrix(1.00, 0.00, -0.00, -1.00, 249.7, 256.0)">r</text><text xml:space="preserve" font-family="Menlo-Regular" font-size="28.0" fill="#000000" transform="matrix(1.00, 0.00, -0.00, -1.00, 266.6, 256.0)">e</text><text xml:space="preserve" font-family="Menlo-Regular" font-size="28.0" fill="#000000" transform="matrix(1.00, 0.00, -0.00, -1.00, 283.4, 256.0)">a</text><text xml:space="preserve" font-family="Menlo-Regular" font-size="28.0" fill="#000000" transform="matrix(1.00, 0.00, -0.00, -1.00, 300.3, 256.0)">t</text><text xml:space="preserve" font-family="Menlo-Regular" font-size="28.0" fill="#000000" transform="matrix(1.00, 0.00, -0.00, -1.00, 317.2, 256.0)">e</text><text xml:space="preserve" font-family="Menlo-Regular" font-size="28.0" fill="#000000" transform="matrix(1.00, 0.00, -0.00, -1.00, 334.0, 256.0)"> </text><text xml:space="preserve" font-family="Menlo-Regular" font-size="28.0" fill="#000000" transform="matrix(1.00, 0.00, -0.00, -1.00, 350.9, 256.0)">m</text><text xml:space="preserve" font-family="Menlo-Regular" font-size="28.0" fill="#000000" transform="matrix(1.00, 0.00, -0.00, -1.00, 367.7, 256.0)">o</text><text xml:space="preserve" font-family="Menlo-Regular" font-size="28.0" fill="#000000" transform="matrix(1.00, 0.00, -0.00, -1.00, 384.6, 256.0)">d</text><text xml:space="preserve" font-family="Menlo-Regular" font-size="28.0" fill="#000000" transform="matrix(1.00, 0.00, -0.00, -1.00, 401.5, 256.0)">e</text><text xml:space="preserve" font-family="Menlo-Regular" font-size="28.0" fill="#000000" transform="matrix(1.00, 0.00, -0.00, -1.00, 418.3, 256.0)"> </text><text xml:space="preserve" font-family="Menlo-Regular" font-size="28.0" fill="#000000" transform="matrix(1.00, 0.00, -0.00, -1.00, 435.2, 256.0)">1</text><text xml:space="preserve" font-family="Menlo-Regular" font-size="28.0" fill="#000000" transform="matrix(1.00, 0.00, -0.00, -1.00, 452.0, 256.0)">0</text><text xml:space="preserve" font-family="Menlo-Regular" font-size="28.0" fill="#000000" transform="matrix(1.00, 0.00, -0.00, -1.00, 468.9, 256.0)">0</text><text xml:space="preserve" font-family="Menlo-Regular" font-size="28.0" fill="#000000" transform="matrix(1.00, 0.00, -0.00, -1.00, 485.8, 256.0)">6</text><text xml:space="preserve" font-family="Menlo-Regular" font-size="28.0" fill="#000000" transform="matrix(1.00, 0.00, -0.00, -1.00, 502.6, 256.0)">4</text><text xml:space="preserve" font-family="Menlo-Regular" font-size="28.0" fill="#000000" transform="matrix(1.00, 0.00, -0.00, -1.00, 519.5, 256.0)">4</text><text xml:space="preserve" font-family="Menlo-Regular" font-size="28.0" fill="#000000" transform="matrix(1.00, 0.00, -0.00, -1.00, 536.3, 256.0)"> </text><text xml:space="preserve" font-family="Menlo-Regular" font-size="28.0" fill="#000000" transform="matrix(1.00, 0.00, -0.00, -1.00, 553.2, 256.0)">s</text><text xml:space="preserve" font-family="Menlo-Regular" font-size="28.0" fill="#000000" transform="matrix(1.00, 0.00, -0.00, -1.00, 570.1, 256.0)">u</text><text xml:space="preserve" font-family="Menlo-Regular" font-size="28.0" fill="#000000" transform="matrix(1.00, 0.00, -0.00, -1.00, 586.9, 256.0)">b</text><text xml:space="preserve" font-family="Menlo-Regular" font-size="28.0" fill="#000000" transform="matrix(1.00, 0.00, -0.00, -1.00, 603.8, 256.0)">d</text><text xml:space="preserve" font-family="Menlo-Regular" font-size="28.0" fill="#000000" transform="matrix(1.00, 0.00, -0.00, -1.00, 620.6, 256.0)">i</text><text xml:space="preserve" font-family="Menlo-Regular" font-size="28.0" fill="#000000" transform="matrix(1.00, 0.00, -0.00, -1.00, 637.5, 256.0)">r</text><text xml:space="preserve" font-family="Menlo-Regular" font-size="28.0" fill="#000000" transform="matrix(1.00, 0.00, -0.00, -1.00, 654.4, 256.0)">/</text><text xml:space="preserve" font-family="Menlo-Regular" font-size="28.0" fill="#000000" transform="matrix(1.00, 0.00, -0.00, -1.00, 671.2, 256.0)">s</text><text xml:space="preserve" font-family="Menlo-Regular" font-size="28.0" fill="#000000" transform="matrix(1.00, 0.00, -0.00, -1.00, 688.1, 256.0)">u</text><text xml:space="preserve" font-family="Menlo-Regular" font-size="28.0" fill="#000000" transform="matrix(1.00, 0.00, -0.00, -1.00, 704.9, 256.0)">b</text><text xml:space="preserve" font-family="Menlo-Regular" font-size="28.0" fill="#000000" transform="matrix(1.00, 0.00, -0.00, -1.00, 721.8, 256.0)">-</text><text xml:space="preserve" font-family="Menlo-Regular" font-size="28.0" fill="#000000" transform="matrix(1.00, 0.00, -0.00, -1.00, 738.7, 256.0)">f</text><text xml:space="preserve" font-family="Menlo-Regular" font-size="28.0" fill="#000000" transform="matrix(1.00, 0.00, -0.00, -1.00, 755.5, 256.0)">i</text><text xml:space="preserve" font-family="Menlo-Regular" font-size="28.0" fill="#000000" transform="matrix(1.00, 0.00, -0.00, -1.00, 772.4, 256.0)">l</text><text xml:space="preserve" font-family="Menlo-Regular" font-size="28.0" fill="#000000" transform="matrix(1.00, 0.00, -0.00, -1.00, 789.2, 256.0)">e</text></g></svg>