<?xml version="1.0" encoding="UTF-8" standalone="no"?><svg xmlns="http://www.w3.org/2000/svg" xmlns:xlink="http://www.w3.org/1999/xlink" clip-rule="evenodd" stroke-miterlimit="4.00" viewBox="0 0 940 209"><desc>SVG generated by Keynote</desc><defs></defs><g transform="matrix(1.00, 0.00, -0.00, -1.00, 0.0, 209.0)"><path d="M 1.9 207.3 L 938.1 207.3 L 938.1 1.3 L 1.9 1.3 Z M 1.9 207.3 " fill="#6FBF40" fill-opacity="0.25"></path><g><clipPath id="clip-14"><path d="M -2.2 -2.9 L 1857.7 -2.9 L 1857.7 211.4 L -2.2 211.4 Z M -2.2 -2.9 "></path></clipPath><g clip-path="url(#clip-14)"><text xml:space="preserve" font-family="Menlo-Regular" font-size="28.0" fill="#C81B13" transform="matrix(1.00, 0.00, -0.00, -1.00, 6.0, 177.0)"> </text><text xml:space="preserve" font-family="Menlo-Regular" font-size="28.0" fill="#C81B13" transform="matrix(1.00, 0.00, -0.00, -1.00, 22.9, 177.0)"> </text><text xml:space="preserve" font-family="Menlo-Regular" font-size="28.0" fill="#C81B13" transform="matrix(1.00, 0.00, -0.00, -1.00, 39.7, 177.0)"> </text><text xml:space="preserve" font-family="Menlo-Regular" font-size="28.0" fill="#C81B13" transform="matrix(1.00, 0.00, -0.00, -1.00, 56.6, 177.0)"> </text><text xml:space="preserve" font-family="Menlo-Regular" font-size="28.0" fill="#C32275" transform="matrix(1.00, 0.00, -0.00, -1.00, 73.4, 177.0)">i</text><text xml:space="preserve" font-family="Menlo-Regular" font-size="28.0" fill="#C32275" transform="matrix(1.00, 0.00, -0.00, -1.00, 90.3, 177.0)">f</text><text xml:space="preserve" font-family="Menlo-Regular" font-size="28.0" fill="#000000" transform="matrix(1.00, 0.00, -0.00, -1.00, 107.1, 177.0)"> </text><text xml:space="preserve" font-family="Menlo-Regular" font-size="28.0" fill="#000000" transform="matrix(1.00, 0.00, -0.00, -1.00, 124.0, 177.0)">[</text><text xml:space="preserve" font-family="Menlo-Regular" font-size="28.0" fill="#000000" transform="matrix(1.00, 0.00, -0.00, -1.00, 140.9, 177.0)"> </text><text xml:space="preserve" font-family="Menlo-Regular" font-size="28.0" fill="#000000" transform="matrix(1.00, 0.00, -0.00, -1.00, 157.7, 177.0)">-</text><text xml:space="preserve" font-family="Menlo-Regular" font-size="28.0" fill="#000000" transform="matrix(1.00, 0.00, -0.00, -1.00, 174.6, 177.0)">f</text><text xml:space="preserve" font-family="Menlo-Regular" font-size="28.0" fill="#000000" transform="matrix(1.00, 0.00, -0.00, -1.00, 191.4, 177.0)"> </text><text xml:space="preserve" font-family="Menlo-Regular" font-size="28.0" fill="#C81B13" transform="matrix(1.00, 0.00, -0.00, -1.00, 208.3, 177.0)">"</text><text xml:space="preserve" font-family="Menlo-Regular" font-size="28.0" fill="#C81B13" transform="matrix(1.00, 0.00, -0.00, -1.00, 225.1, 177.0)">$</text><text xml:space="preserve" font-family="Menlo-Regular" font-size="28.0" fill="#C81B13" transform="matrix(1.00, 0.00, -0.00, -1.00, 242.0, 177.0)">{</text><text xml:space="preserve" font-family="Menlo-Regular" font-size="28.0" fill="#C81B13" transform="matrix(1.00, 0.00, -0.00, -1.00, 258.9, 177.0)">D</text><text xml:space="preserve" font-family="Menlo-Regular" font-size="28.0" fill="#C81B13" transform="matrix(1.00, 0.00, -0.00, -1.00, 275.7, 177.0)">V</text><text xml:space="preserve" font-family="Menlo-Regular" font-size="28.0" fill="#C81B13" transform="matrix(1.00, 0.00, -0.00, -1.00, 292.6, 177.0)">C</text><text xml:space="preserve" font-family="Menlo-Regular" font-size="28.0" fill="#C81B13" transform="matrix(1.00, 0.00, -0.00, -1.00, 309.5, 177.0)">S</text><text xml:space="preserve" font-family="Menlo-Regular" font-size="28.0" fill="#C81B13" transform="matrix(1.00, 0.00, -0.00, -1.00, 326.3, 177.0)">H</text><text xml:space="preserve" font-family="Menlo-Regular" font-size="28.0" fill="#C81B13" transform="matrix(1.00, 0.00, -0.00, -1.00, 343.2, 177.0)">}</text><text xml:space="preserve" font-family="Menlo-Regular" font-size="28.0" fill="#C81B13" transform="matrix(1.00, 0.00, -0.00, -1.00, 360.0, 177.0)">/</text><text xml:space="preserve" font-family="Menlo-Regular" font-size="28.0" fill="#C81B13" transform="matrix(1.00, 0.00, -0.00, -1.00, 376.9, 177.0)">i</text><text xml:space="preserve" font-family="Menlo-Regular" font-size="28.0" fill="#C81B13" transform="matrix(1.00, 0.00, -0.00, -1.00, 393.8, 177.0)">n</text><text xml:space="preserve" font-family="Menlo-Regular" font-size="28.0" fill="#C81B13" transform="matrix(1.00, 0.00, -0.00, -1.00, 410.6, 177.0)">d</text><text xml:space="preserve" font-family="Menlo-Regular" font-size="28.0" fill="#C81B13" transform="matrix(1.00, 0.00, -0.00, -1.00, 427.5, 177.0)">e</text><text xml:space="preserve" font-family="Menlo-Regular" font-size="28.0" fill="#C81B13" transform="matrix(1.00, 0.00, -0.00, -1.00, 444.3, 177.0)">x</text><text xml:space="preserve" font-family="Menlo-Regular" font-size="28.0" fill="#C81B13" transform="matrix(1.00, 0.00, -0.00, -1.00, 461.2, 177.0)">"</text><text xml:space="preserve" font-family="Menlo-Regular" font-size="28.0" fill="#000000" transform="matrix(1.00, 0.00, -0.00, -1.00, 478.0, 177.0)"> </text><text xml:space="preserve" font-family="Menlo-Regular" font-size="28.0" fill="#000000" transform="matrix(1.00, 0.00, -0.00, -1.00, 494.9, 177.0)">]</text><text xml:space="preserve" font-family="Menlo-Regular" font-size="28.0" fill="#000000" transform="matrix(1.00, 0.00, -0.00, -1.00, 511.7, 177.0)">;</text><text xml:space="preserve" font-family="Menlo-Regular" font-size="28.0" fill="#000000" transform="matrix(1.00, 0.00, -0.00, -1.00, 528.6, 177.0)"> </text><text xml:space="preserve" font-family="Menlo-Regular" font-size="28.0" fill="#C32275" transform="matrix(1.00, 0.00, -0.00, -1.00, 545.4, 177.0)">t</text><text xml:space="preserve" font-family="Menlo-Regular" font-size="28.0" fill="#C32275" transform="matrix(1.00, 0.00, -0.00, -1.00, 562.3, 177.0)">h</text><text xml:space="preserve" font-family="Menlo-Regular" font-size="28.0" fill="#C32275" transform="matrix(1.00, 0.00, -0.00, -1.00, 579.2, 177.0)">e</text><text xml:space="preserve" font-family="Menlo-Regular" font-size="28.0" fill="#C32275" transform="matrix(1.00, 0.00, -0.00, -1.00, 596.0, 177.0)">n</text><text xml:space="preserve" font-family="Menlo-Regular" font-size="28.0" fill="#000000" transform="matrix(1.00, 0.00, -0.00, -1.00, 612.9, 177.0)"> </text><text xml:space="preserve" font-family="Menlo-Regular" font-size="28.0" fill="#000000" transform="matrix(1.00, 0.00, -0.00, -1.00, 6.0, 144.0)"> </text><text xml:space="preserve" font-family="Menlo-Regular" font-size="28.0" fill="#000000" transform="matrix(1.00, 0.00, -0.00, -1.00, 22.9, 144.0)"> </text><text xml:space="preserve" font-family="Menlo-Regular" font-size="28.0" fill="#000000" transform="matrix(1.00, 0.00, -0.00, -1.00, 39.7, 144.0)"> </text><text xml:space="preserve" font-family="Menlo-Regular" font-size="28.0" fill="#000000" transform="matrix(1.00, 0.00, -0.00, -1.00, 56.6, 144.0)"> </text><text xml:space="preserve" font-family="Menlo-Regular" font-size="28.0" fill="#000000" transform="matrix(1.00, 0.00, -0.00, -1.00, 73.4, 144.0)"> </text><text xml:space="preserve" font-family="Menlo-Regular" font-size="28.0" fill="#000000" transform="matrix(1.00, 0.00, -0.00, -1.00, 90.3, 144.0)"> </text><text xml:space="preserve" font-family="Menlo-Regular" font-size="28.0" fill="#000000" transform="matrix(1.00, 0.00, -0.00, -1.00, 107.2, 144.0)"> </text><text xml:space="preserve" font-family="Menlo-Regular" font-size="28.0" fill="#000000" transform="matrix(1.00, 0.00, -0.00, -1.00, 124.0, 144.0)"> </text><text xml:space="preserve" font-family="Menlo-Regular" font-size="28.0" fill="#000000" transform="matrix(1.00, 0.00, -0.00, -1.00, 140.9, 144.0)">e</text><text xml:space="preserve" font-family="Menlo-Regular" font-size="28.0" fill="#000000" transform="matrix(1.00, 0.00, -0.00, -1.00, 157.7, 144.0)">g</text><text xml:space="preserve" font-family="Menlo-Regular" font-size="28.0" fill="#000000" transform="matrix(1.00, 0.00, -0.00, -1.00, 174.6, 144.0)">r</text><text xml:space="preserve" font-family="Menlo-Regular" font-size="28.0" fill="#000000" transform="matrix(1.00, 0.00, -0.00, -1.00, 191.5, 144.0)">e</text><text xml:space="preserve" font-family="Menlo-Regular" font-size="28.0" fill="#000000" transform="matrix(1.00, 0.00, -0.00, -1.00, 208.3, 144.0)">p</text><text xml:space="preserve" font-family="Menlo-Regular" font-size="28.0" fill="#000000" transform="matrix(1.00, 0.00, -0.00, -1.00, 225.2, 144.0)"> </text><text xml:space="preserve" font-family="Menlo-Regular" font-size="28.0" fill="#000000" transform="matrix(1.00, 0.00, -0.00, -1.00, 242.0, 144.0)">-</text><text xml:space="preserve" font-family="Menlo-Regular" font-size="28.0" fill="#000000" transform="matrix(1.00, 0.00, -0.00, -1.00, 258.9, 144.0)">v</text><text xml:space="preserve" font-family="Menlo-Regular" font-size="28.0" fill="#000000" transform="matrix(1.00, 0.00, -0.00, -1.00, 275.8, 144.0)"> </text><text xml:space="preserve" font-family="Menlo-Regular" font-size="28.0" fill="#C81B13" transform="matrix(1.00, 0.00, -0.00, -1.00, 292.6, 144.0)">"</text><text xml:space="preserve" font-family="Menlo-Regular" font-size="28.0" fill="#C81B13" transform="matrix(1.00, 0.00, -0.00, -1.00, 309.4, 144.0)">\</text><text xml:space="preserve" font-family="Menlo-Regular" font-size="28.0" fill="#C81B13" transform="matrix(1.00, 0.00, -0.00, -1.00, 326.3, 144.0)">t</text><text xml:space="preserve" font-family="Menlo-Regular" font-size="28.0" fill="#C81B13" transform="matrix(1.00, 0.00, -0.00, -1.00, 343.2, 144.0)">$</text><text xml:space="preserve" font-family="Menlo-Regular" font-size="28.0" fill="#C81B13" transform="matrix(1.00, 0.00, -0.00, -1.00, 360.0, 144.0)">{</text><text xml:space="preserve" font-family="Menlo-Regular" font-size="28.0" fill="#C81B13" transform="matrix(1.00, 0.00, -0.00, -1.00, 376.9, 144.0)">f</text><text xml:space="preserve" font-family="Menlo-Regular" font-size="28.0" fill="#C81B13" transform="matrix(1.00, 0.00, -0.00, -1.00, 393.7, 144.0)">i</text><text xml:space="preserve" font-family="Menlo-Regular" font-size="28.0" fill="#C81B13" transform="matrix(1.00, 0.00, -0.00, -1.00, 410.6, 144.0)">l</text><text xml:space="preserve" font-family="Menlo-Regular" font-size="28.0" fill="#C81B13" transform="matrix(1.00, 0.00, -0.00, -1.00, 427.5, 144.0)">e</text><text xml:space="preserve" font-family="Menlo-Regular" font-size="28.0" fill="#C81B13" transform="matrix(1.00, 0.00, -0.00, -1.00, 444.3, 144.0)">}</text><text xml:space="preserve" font-family="Menlo-Regular" font-size="28.0" fill="#C81B13" transform="matrix(1.00, 0.00, -0.00, -1.00, 461.2, 144.0)">\</text><text xml:space="preserve" font-family="Menlo-Regular" font-size="28.0" fill="#C81B13" transform="matrix(1.00, 0.00, -0.00, -1.00, 478.0, 144.0)">$</text><text xml:space="preserve" font-family="Menlo-Regular" font-size="28.0" fill="#C81B13" transform="matrix(1.00, 0.00, -0.00, -1.00, 494.9, 144.0)">"</text><text xml:space="preserve" font-family="Menlo-Regular" font-size="28.0" fill="#000000" transform="matrix(1.00, 0.00, -0.00, -1.00, 511.7, 144.0)"> </text><text xml:space="preserve" font-family="Menlo-Regular" font-size="28.0" fill="#C81B13" transform="matrix(1.00, 0.00, -0.00, -1.00, 528.6, 144.0)">"</text><text xml:space="preserve" font-family="Menlo-Regular" font-size="28.0" fill="#C81B13" transform="matrix(1.00, 0.00, -0.00, -1.00, 545.4, 144.0)">$</text><text xml:space="preserve" font-family="Menlo-Regular" font-size="28.0" fill="#C81B13" transform="matrix(1.00, 0.00, -0.00, -1.00, 562.3, 144.0)">{</text><text xml:space="preserve" font-family="Menlo-Regular" font-size="28.0" fill="#C81B13" transform="matrix(1.00, 0.00, -0.00, -1.00, 579.2, 144.0)">D</text><text xml:space="preserve" font-family="Menlo-Regular" font-size="28.0" fill="#C81B13" transform="matrix(1.00, 0.00, -0.00, -1.00, 596.0, 144.0)">V</text><text xml:space="preserve" font-family="Menlo-Regular" font-size="28.0" fill="#C81B13" transform="matrix(1.00, 0.00, -0.00, -1.00, 612.9, 144.0)">C</text><text xml:space="preserve" font-family="Menlo-Regular" font-size="28.0" fill="#C81B13" transform="matrix(1.00, 0.00, -0.00, -1.00, 629.7, 144.0)">S</text><text xml:space="preserve" font-family="Menlo-Regular" font-size="28.0" fill="#C81B13" transform="matrix(1.00, 0.00, -0.00, -1.00, 646.6, 144.0)">H</text><text xml:space="preserve" font-family="Menlo-Regular" font-size="28.0" fill="#C81B13" transform="matrix(1.00, 0.00, -0.00, -1.00, 663.5, 144.0)">}</text><text xml:space="preserve" font-family="Menlo-Regular" font-size="28.0" fill="#C81B13" transform="matrix(1.00, 0.00, -0.00, -1.00, 680.3, 144.0)">/</text><text xml:space="preserve" font-family="Menlo-Regular" font-size="28.0" fill="#C81B13" transform="matrix(1.00, 0.00, -0.00, -1.00, 697.2, 144.0)">i</text><text xml:space="preserve" font-family="Menlo-Regular" font-size="28.0" fill="#C81B13" transform="matrix(1.00, 0.00, -0.00, -1.00, 714.0, 144.0)">n</text><text xml:space="preserve" font-family="Menlo-Regular" font-size="28.0" fill="#C81B13" transform="matrix(1.00, 0.00, -0.00, -1.00, 730.9, 144.0)">d</text><text xml:space="preserve" font-family="Menlo-Regular" font-size="28.0" fill="#C81B13" transform="matrix(1.00, 0.00, -0.00, -1.00, 747.8, 144.0)">e</text><text xml:space="preserve" font-family="Menlo-Regular" font-size="28.0" fill="#C81B13" transform="matrix(1.00, 0.00, -0.00, -1.00, 764.6, 144.0)">x</text><text xml:space="preserve" font-family="Menlo-Regular" font-size="28.0" fill="#C81B13" transform="matrix(1.00, 0.00, -0.00, -1.00, 781.5, 144.0)">"</text><text xml:space="preserve" font-family="Menlo-Regular" font-size="28.0" fill="#000000" transform="matrix(1.00, 0.00, -0.00, -1.00, 798.3, 144.0)"> </text><text xml:space="preserve" font-family="Menlo-Regular" font-size="28.0" fill="#000000" transform="matrix(1.00, 0.00, -0.00, -1.00, 815.2, 144.0)">\</text><text xml:space="preserve" font-family="Menlo-Regular" font-size="28.0" fill="#000000" transform="matrix(1.00, 0.00, -0.00, -1.00, 832.0, 144.0)"> </text><text xml:space="preserve" font-family="Menlo-Regular" font-size="28.0" fill="#000000" transform="matrix(1.00, 0.00, -0.00, -1.00, 6.0, 111.0)"> </text><text xml:space="preserve" font-family="Menlo-Regular" font-size="28.0" fill="#000000" transform="matrix(1.00, 0.00, -0.00, -1.00, 22.9, 111.0)"> </text><text xml:space="preserve" font-family="Menlo-Regular" font-size="28.0" fill="#000000" transform="matrix(1.00, 0.00, -0.00, -1.00, 39.7, 111.0)"> </text><text xml:space="preserve" font-family="Menlo-Regular" font-size="28.0" fill="#000000" transform="matrix(1.00, 0.00, -0.00, -1.00, 56.6, 111.0)"> </text><text xml:space="preserve" font-family="Menlo-Regular" font-size="28.0" fill="#000000" transform="matrix(1.00, 0.00, -0.00, -1.00, 73.4, 111.0)"> </text><text xml:space="preserve" font-family="Menlo-Regular" font-size="28.0" fill="#000000" transform="matrix(1.00, 0.00, -0.00, -1.00, 90.3, 111.0)"> </text><text xml:space="preserve" font-family="Menlo-Regular" font-size="28.0" fill="#000000" transform="matrix(1.00, 0.00, -0.00, -1.00, 107.2, 111.0)"> </text><text xml:space="preserve" font-family="Menlo-Regular" font-size="28.0" fill="#000000" transform="matrix(1.00, 0.00, -0.00, -1.00, 124.0, 111.0)"> </text><text xml:space="preserve" font-family="Menlo-Regular" font-size="28.0" fill="#000000" transform="matrix(1.00, 0.00, -0.00, -1.00, 140.9, 111.0)"> </text><text xml:space="preserve" font-family="Menlo-Regular" font-size="28.0" fill="#000000" transform="matrix(1.00, 0.00, -0.00, -1.00, 157.7, 111.0)"> </text><text xml:space="preserve" font-family="Menlo-Regular" font-size="28.0" fill="#000000" transform="matrix(1.00, 0.00, -0.00, -1.00, 174.6, 111.0)"> </text><text xml:space="preserve" font-family="Menlo-Regular" font-size="28.0" fill="#000000" transform="matrix(1.00, 0.00, -0.00, -1.00, 191.5, 111.0)"> </text><text xml:space="preserve" font-family="Menlo-Regular" font-size="28.0" fill="#000000" transform="matrix(1.00, 0.00, -0.00, -1.00, 208.3, 111.0)">&gt;</text><text xml:space="preserve" font-family="Menlo-Regular" font-size="28.0" fill="#000000" transform="matrix(1.00, 0.00, -0.00, -1.00, 225.2, 111.0)">&gt;</text><text xml:space="preserve" font-family="Menlo-Regular" font-size="28.0" fill="#000000" transform="matrix(1.00, 0.00, -0.00, -1.00, 242.0, 111.0)"> </text><text xml:space="preserve" font-family="Menlo-Regular" font-size="28.0" fill="#C81B13" transform="matrix(1.00, 0.00, -0.00, -1.00, 258.9, 111.0)">"</text><text xml:space="preserve" font-family="Menlo-Regular" font-size="28.0" fill="#C81B13" transform="matrix(1.00, 0.00, -0.00, -1.00, 275.7, 111.0)">$</text><text xml:space="preserve" font-family="Menlo-Regular" font-size="28.0" fill="#C81B13" transform="matrix(1.00, 0.00, -0.00, -1.00, 292.6, 111.0)">{</text><text xml:space="preserve" font-family="Menlo-Regular" font-size="28.0" fill="#C81B13" transform="matrix(1.00, 0.00, -0.00, -1.00, 309.4, 111.0)">D</text><text xml:space="preserve" font-family="Menlo-Regular" font-size="28.0" fill="#C81B13" transform="matrix(1.00, 0.00, -0.00, -1.00, 326.3, 111.0)">V</text><text xml:space="preserve" font-family="Menlo-Regular" font-size="28.0" fill="#C81B13" transform="matrix(1.00, 0.00, -0.00, -1.00, 343.2, 111.0)">C</text><text xml:space="preserve" font-family="Menlo-Regular" font-size="28.0" fill="#C81B13" transform="matrix(1.00, 0.00, -0.00, -1.00, 360.0, 111.0)">S</text><text xml:space="preserve" font-family="Menlo-Regular" font-size="28.0" fill="#C81B13" transform="matrix(1.00, 0.00, -0.00, -1.00, 376.9, 111.0)">H</text><text xml:space="preserve" font-family="Menlo-Regular" font-size="28.0" fill="#C81B13" transform="matrix(1.00, 0.00, -0.00, -1.00, 393.7, 111.0)">}</text><text xml:space="preserve" font-family="Menlo-Regular" font-size="28.0" fill="#C81B13" transform="matrix(1.00, 0.00, -0.00, -1.00, 410.6, 111.0)">/</text><text xml:space="preserve" font-family="Menlo-Regular" font-size="28.0" fill="#C81B13" transform="matrix(1.00, 0.00, -0.00, -1.00, 427.5, 111.0)">i</text><text xml:space="preserve" font-family="Menlo-Regular" font-size="28.0" fill="#C81B13" transform="matrix(1.00, 0.00, -0.00, -1.00, 444.3, 111.0)">n</text><text xml:space="preserve" font-family="Menlo-Regular" font-size="28.0" fill="#C81B13" transform="matrix(1.00, 0.00, -0.00, -1.00, 461.2, 111.0)">d</text><text xml:space="preserve" font-family="Menlo-Regular" font-size="28.0" fill="#C81B13" transform="matrix(1.00, 0.00, -0.00, -1.00, 478.0, 111.0)">e</text><text xml:space="preserve" font-family="Menlo-Regular" font-size="28.0" fill="#C81B13" transform="matrix(1.00, 0.00, -0.00, -1.00, 494.9, 111.0)">x</text><text xml:space="preserve" font-family="Menlo-Regular" font-size="28.0" fill="#C81B13" transform="matrix(1.00, 0.00, -0.00, -1.00, 511.8, 111.0)">.</text><text xml:space="preserve" font-family="Menlo-Regular" font-size="28.0" fill="#C81B13" transform="matrix(1.00, 0.00, -0.00, -1.00, 528.6, 111.0)">t</text><text xml:space="preserve" font-family="Menlo-Regular" font-size="28.0" fill="#C81B13" transform="matrix(1.00, 0.00, -0.00, -1.00, 545.5, 111.0)">m</text><text xml:space="preserve" font-family="Menlo-Regular" font-size="28.0" fill="#C81B13" transform="matrix(1.00, 0.00, -0.00, -1.00, 562.3, 111.0)">p</text><text xml:space="preserve" font-family="Menlo-Regular" font-size="28.0" fill="#C81B13" transform="matrix(1.00, 0.00, -0.00, -1.00, 579.2, 111.0)">"</text><text xml:space="preserve" font-family="Menlo-Regular" font-size="28.0" fill="#000000" transform="matrix(1.00, 0.00, -0.00, -1.00, 596.0, 111.0)"> </text><text xml:space="preserve" font-family="Menlo-Regular" font-size="28.0" fill="#000000" transform="matrix(1.00, 0.00, -0.00, -1.00, 6.0, 78.0)"> </text><text xml:space="preserve" font-family="Menlo-Regular" font-size="28.0" fill="#000000" transform="matrix(1.00, 0.00, -0.00, -1.00, 22.9, 78.0)"> </text><text xml:space="preserve" font-family="Menlo-Regular" font-size="28.0" fill="#000000" transform="matrix(1.00, 0.00, -0.00, -1.00, 39.7, 78.0)"> </text><text xml:space="preserve" font-family="Menlo-Regular" font-size="28.0" fill="#000000" transform="matrix(1.00, 0.00, -0.00, -1.00, 56.6, 78.0)"> </text><text xml:space="preserve" font-family="Menlo-Regular" font-size="28.0" fill="#C32275" transform="matrix(1.00, 0.00, -0.00, -1.00, 73.4, 78.0)">f</text><text xml:space="preserve" font-family="Menlo-Regular" font-size="28.0" fill="#C32275" transform="matrix(1.00, 0.00, -0.00, -1.00, 90.3, 78.0)">i</text><text xml:space="preserve" font-family="Menlo-Regular" font-size="28.0" fill="#000000" transform="matrix(1.00, 0.00, -0.00, -1.00, 107.1, 78.0)"> </text><text xml:space="preserve" font-family="Menlo-Regular" font-size="28.0" fill="#000000" transform="matrix(1.00, 0.00, -0.00, -1.00, 6.0, 45.0)"> </text><text xml:space="preserve" font-family="Menlo-Regular" font-size="28.0" fill="#000000" transform="matrix(1.00, 0.00, -0.00, -1.00, 22.9, 45.0)"> </text><text xml:space="preserve" font-family="Menlo-Regular" font-size="28.0" fill="#000000" transform="matrix(1.00, 0.00, -0.00, -1.00, 39.7, 45.0)"> </text><text xml:space="preserve" font-family="Menlo-Regular" font-size="28.0" fill="#000000" transform="matrix(1.00, 0.00, -0.00, -1.00, 56.6, 45.0)"> </text><text xml:space="preserve" font-family="Menlo-Regular" font-size="28.0" fill="#000000" transform="matrix(1.00, 0.00, -0.00, -1.00, 73.4, 45.0)">p</text><text xml:space="preserve" font-family="Menlo-Regular" font-size="28.0" fill="#000000" transform="matrix(1.00, 0.00, -0.00, -1.00, 90.3, 45.0)">r</text><text xml:space="preserve" font-family="Menlo-Regular" font-size="28.0" fill="#000000" transform="matrix(1.00, 0.00, -0.00, -1.00, 107.2, 45.0)">i</text><text xml:space="preserve" font-family="Menlo-Regular" font-size="28.0" fill="#000000" transform="matrix(1.00, 0.00, -0.00, -1.00, 124.0, 45.0)">n</text><text xml:space="preserve" font-family="Menlo-Regular" font-size="28.0" fill="#000000" transform="matrix(1.00, 0.00, -0.00, -1.00, 140.9, 45.0)">t</text><text xml:space="preserve" font-family="Menlo-Regular" font-size="28.0" fill="#000000" transform="matrix(1.00, 0.00, -0.00, -1.00, 157.7, 45.0)">f</text><text xml:space="preserve" font-family="Menlo-Regular" font-size="28.0" fill="#000000" transform="matrix(1.00, 0.00, -0.00, -1.00, 174.6, 45.0)"> </text><text xml:space="preserve" font-family="Menlo-Regular" font-size="28.0" fill="#C81B13" transform="matrix(1.00, 0.00, -0.00, -1.00, 191.4, 45.0)">"</text><text xml:space="preserve" font-family="Menlo-Regular" font-size="28.0" fill="#C81B13" transform="matrix(1.00, 0.00, -0.00, -1.00, 208.3, 45.0)">$</text><text xml:space="preserve" font-family="Menlo-Regular" font-size="28.0" fill="#C81B13" transform="matrix(1.00, 0.00, -0.00, -1.00, 225.2, 45.0)">{</text><text xml:space="preserve" font-family="Menlo-Regular" font-size="28.0" fill="#C81B13" transform="matrix(1.00, 0.00, -0.00, -1.00, 242.0, 45.0)">s</text><text xml:space="preserve" font-family="Menlo-Regular" font-size="28.0" fill="#C81B13" transform="matrix(1.00, 0.00, -0.00, -1.00, 258.9, 45.0)">h</text><text xml:space="preserve" font-family="Menlo-Regular" font-size="28.0" fill="#C81B13" transform="matrix(1.00, 0.00, -0.00, -1.00, 275.7, 45.0)">a</text><text xml:space="preserve" font-family="Menlo-Regular" font-size="28.0" fill="#C81B13" transform="matrix(1.00, 0.00, -0.00, -1.00, 292.6, 45.0)">}</text><text xml:space="preserve" font-family="Menlo-Regular" font-size="28.0" fill="#C81B13" transform="matrix(1.00, 0.00, -0.00, -1.00, 309.5, 45.0)">\</text><text xml:space="preserve" font-family="Menlo-Regular" font-size="28.0" fill="#C81B13" transform="matrix(1.00, 0.00, -0.00, -1.00, 326.3, 45.0)">t</text><text xml:space="preserve" font-family="Menlo-Regular" font-size="28.0" fill="#C81B13" transform="matrix(1.00, 0.00, -0.00, -1.00, 343.2, 45.0)">$</text><text xml:space="preserve" font-family="Menlo-Regular" font-size="28.0" fill="#C81B13" transform="matrix(1.00, 0.00, -0.00, -1.00, 360.0, 45.0)">{</text><text xml:space="preserve" font-family="Menlo-Regular" font-size="28.0" fill="#C81B13" transform="matrix(1.00, 0.00, -0.00, -1.00, 376.9, 45.0)">f</text><text xml:space="preserve" font-family="Menlo-Regular" font-size="28.0" fill="#C81B13" transform="matrix(1.00, 0.00, -0.00, -1.00, 393.8, 45.0)">i</text><text xml:space="preserve" font-family="Menlo-Regular" font-size="28.0" fill="#C81B13" transform="matrix(1.00, 0.00, -0.00, -1.00, 410.6, 45.0)">l</text><text xml:space="preserve" font-family="Menlo-Regular" font-size="28.0" fill="#C81B13" transform="matrix(1.00, 0.00, -0.00, -1.00, 427.5, 45.0)">e</text><text xml:space="preserve" font-family="Menlo-Regular" font-size="28.0" fill="#C81B13" transform="matrix(1.00, 0.00, -0.00, -1.00, 444.3, 45.0)">}</text><text xml:space="preserve" font-family="Menlo-Regular" font-size="28.0" fill="#C81B13" transform="matrix(1.00, 0.00, -0.00, -1.00, 461.2, 45.0)">\</text><text xml:space="preserve" font-family="Menlo-Regular" font-size="28.0" fill="#C81B13" transform="matrix(1.00, 0.00, -0.00, -1.00, 478.1, 45.0)">n</text><text xml:space="preserve" font-family="Menlo-Regular" font-size="28.0" fill="#C81B13" transform="matrix(1.00, 0.00, -0.00, -1.00, 494.9, 45.0)">"</text><text xml:space="preserve" font-family="Menlo-Regular" font-size="28.0" fill="#000000" transform="matrix(1.00, 0.00, -0.00, -1.00, 511.7, 45.0)"> </text><text xml:space="preserve" font-family="Menlo-Regular" font-size="28.0" fill="#000000" transform="matrix(1.00, 0.00, -0.00, -1.00, 528.6, 45.0)">&gt;</text><text xml:space="preserve" font-family="Menlo-Regular" font-size="28.0" fill="#000000" transform="matrix(1.00, 0.00, -0.00, -1.00, 545.4, 45.0)">&gt;</text><text xml:space="preserve" font-family="Menlo-Regular" font-size="28.0" fill="#000000" transform="matrix(1.00, 0.00, -0.00, -1.00, 562.3, 45.0)"> </text><text xml:space="preserve" font-family="Menlo-Regular" font-size="28.0" fill="#C81B13" transform="matrix(1.00, 0.00, -0.00, -1.00, 579.2, 45.0)">"</text><text xml:space="preserve" font-family="Menlo-Regular" font-size="28.0" fill="#C81B13" transform="matrix(1.00, 0.00, -0.00, -1.00, 596.0, 45.0)">$</text><text xml:space="preserve" font-family="Menlo-Regular" font-size="28.0" fill="#C81B13" transform="matrix(1.00, 0.00, -0.00, -1.00, 612.9, 45.0)">{</text><text xml:space="preserve" font-family="Menlo-Regular" font-size="28.0" fill="#C81B13" transform="matrix(1.00, 0.00, -0.00, -1.00, 629.7, 45.0)">D</text><text xml:space="preserve" font-family="Menlo-Regular" font-size="28.0" fill="#C81B13" transform="matrix(1.00, 0.00, -0.00, -1.00, 646.6, 45.0)">V</text><text xml:space="preserve" font-family="Menlo-Regular" font-size="28.0" fill="#C81B13" transform="matrix(1.00, 0.00, -0.00, -1.00, 663.5, 45.0)">C</text><text xml:space="preserve" font-family="Menlo-Regular" font-size="28.0" fill="#C81B13" transform="matrix(1.00, 0.00, -0.00, -1.00, 680.3, 45.0)">S</text><text xml:space="preserve" font-family="Menlo-Regular" font-size="28.0" fill="#C81B13" transform="matrix(1.00, 0.00, -0.00, -1.00, 697.2, 45.0)">H</text><text xml:space="preserve" font-family="Menlo-Regular" font-size="28.0" fill="#C81B13" transform="matrix(1.00, 0.00, -0.00, -1.00, 714.0, 45.0)">}</text><text xml:space="preserve" font-family="Menlo-Regular" font-size="28.0" fill="#C81B13" transform="matrix(1.00, 0.00, -0.00, -1.00, 730.9, 45.0)">/</text><text xml:space="preserve" font-family="Menlo-Regular" font-size="28.0" fill="#C81B13" transform="matrix(1.00, 0.00, -0.00, -1.00, 747.8, 45.0)">i</text><text xml:space="preserve" font-family="Menlo-Regular" font-size="28.0" fill="#C81B13" transform="matrix(1.00, 0.00, -0.00, -1.00, 764.6, 45.0)">n</text><text xml:space="preserve" font-family="Menlo-Regular" font-size="28.0" fill="#C81B13" transform="matrix(1.00, 0.00, -0.00, -1.00, 781.5, 45.0)">d</text><text xml:space="preserve" font-family="Menlo-Regular" font-size="28.0" fill="#C81B13" transform="matrix(1.00, 0.00, -0.00, -1.00, 798.3, 45.0)">e</text><text xml:space="preserve" font-family="Menlo-Regular" font-size="28.0" fill="#C81B13" transform="matrix(1.00, 0.00, -0.00, -1.00, 815.2, 45.0)">x</text><text xml:space="preserve" font-family="Menlo-Regular" font-size="28.0" fill="#C81B13" transform="matrix(1.00, 0.00, -0.00, -1.00, 832.1, 45.0)">.</text><text xml:space="preserve" font-family="Menlo-Regular" font-size="28.0" fill="#C81B13" transform="matrix(1.00, 0.00, -0.00, -1.00, 848.9, 45.0)">t</text><text xml:space="preserve" font-family="Menlo-Regular" font-size="28.0" fill="#C81B13" transform="matrix(1.00, 0.00, -0.00, -1.00, 865.8, 45.0)">m</text><text xml:space="preserve" font-family="Menlo-Regular" font-size="28.0" fill="#C81B13" transform="matrix(1.00, 0.00, -0.00, -1.00, 882.6, 45.0)">p</text><text xml:space="preserve" font-family="Menlo-Regular" font-size="28.0" fill="#C81B13" transform="matrix(1.00, 0.00, -0.00, -1.00, 899.5, 45.0)">"</text><text xml:space="preserve" font-family="Menlo-Regular" font-size="28.0" fill="#000000" transform="matrix(1.00, 0.00, -0.00, -1.00, 916.3, 45.0)"> </text><text xml:space="preserve" font-family="Menlo-Regular" font-size="28.0" fill="#000000" transform="matrix(1.00, 0.00, -0.00, -1.00, 6.0, 12.0)"> </text><text xml:space="preserve" font-family="Menlo-Regular" font-size="28.0" fill="#000000" transform="matrix(1.00, 0.00, -0.00, -1.00, 22.9, 12.0)"> </text><text xml:space="preserve" font-family="Menlo-Regular" font-size="28.0" fill="#000000" transform="matrix(1.00, 0.00, -0.00, -1.00, 39.7, 12.0)"> </text><text xml:space="preserve" font-family="Menlo-Regular" font-size="28.0" fill="#000000" transform="matrix(1.00, 0.00, -0.00, -1.00, 56.6, 12.0)"> </text><text xml:space="preserve" font-family="Menlo-Regular" font-size="28.0" fill="#000000" transform="matrix(1.00, 0.00, -0.00, -1.00, 73.4, 12.0)">m</text><text xml:space="preserve" font-family="Menlo-Regular" font-size="28.0" fill="#000000" transform="matrix(1.00, 0.00, -0.00, -1.00, 90.3, 12.0)">v</text><text xml:space="preserve" font-family="Menlo-Regular" font-size="28.0" fill="#000000" transform="matrix(1.00, 0.00, -0.00, -1.00, 107.2, 12.0)"> </text><text xml:space="preserve" font-family="Menlo-Regular" font-size="28.0" fill="#C81B13" transform="matrix(1.00, 0.00, -0.00, -1.00, 124.0, 12.0)">"</text><text xml:space="preserve" font-family="Menlo-Regular" font-size="28.0" fill="#C81B13" transform="matrix(1.00, 0.00, -0.00, -1.00, 140.9, 12.0)">$</text><text xml:space="preserve" font-family="Menlo-Regular" font-size="28.0" fill="#C81B13" transform="matrix(1.00, 0.00, -0.00, -1.00, 157.7, 12.0)">{</text><text xml:space="preserve" font-family="Menlo-Regular" font-size="28.0" fill="#C81B13" transform="matrix(1.00, 0.00, -0.00, -1.00, 174.6, 12.0)">D</text><text xml:space="preserve" font-family="Menlo-Regular" font-size="28.0" fill="#C81B13" transform="matrix(1.00, 0.00, -0.00, -1.00, 191.4, 12.0)">V</text><text xml:space="preserve" font-family="Menlo-Regular" font-size="28.0" fill="#C81B13" transform="matrix(1.00, 0.00, -0.00, -1.00, 208.3, 12.0)">C</text><text xml:space="preserve" font-family="Menlo-Regular" font-size="28.0" fill="#C81B13" transform="matrix(1.00, 0.00, -0.00, -1.00, 225.2, 12.0)">S</text><text xml:space="preserve" font-family="Menlo-Regular" font-size="28.0" fill="#C81B13" transform="matrix(1.00, 0.00, -0.00, -1.00, 242.0, 12.0)">H</text><text xml:space="preserve" font-family="Menlo-Regular" font-size="28.0" fill="#C81B13" transform="matrix(1.00, 0.00, -0.00, -1.00, 258.9, 12.0)">}</text><text xml:space="preserve" font-family="Menlo-Regular" font-size="28.0" fill="#C81B13" transform="matrix(1.00, 0.00, -0.00, -1.00, 275.7, 12.0)">/</text><text xml:space="preserve" font-family="Menlo-Regular" font-size="28.0" fill="#C81B13" transform="matrix(1.00, 0.00, -0.00, -1.00, 292.6, 12.0)">i</text><text xml:space="preserve" font-family="Menlo-Regular" font-size="28.0" fill="#C81B13" transform="matrix(1.00, 0.00, -0.00, -1.00, 309.5, 12.0)">n</text><text xml:space="preserve" font-family="Menlo-Regular" font-size="28.0" fill="#C81B13" transform="matrix(1.00, 0.00, -0.00, -1.00, 326.3, 12.0)">d</text><text xml:space="preserve" font-family="Menlo-Regular" font-size="28.0" fill="#C81B13" transform="matrix(1.00, 0.00, -0.00, -1.00, 343.2, 12.0)">e</text><text xml:space="preserve" font-family="Menlo-Regular" font-size="28.0" fill="#C81B13" transform="matrix(1.00, 0.00, -0.00, -1.00, 360.0, 12.0)">x</text><text xml:space="preserve" font-family="Menlo-Regular" font-size="28.0" fill="#C81B13" transform="matrix(1.00, 0.00, -0.00, -1.00, 376.9, 12.0)">.</text><text xml:space="preserve" font-family="Menlo-Regular" font-size="28.0" fill="#C81B13" transform="matrix(1.00, 0.00, -0.00, -1.00, 393.8, 12.0)">t</text><text xml:space="preserve" font-family="Menlo-Regular" font-size="28.0" fill="#C81B13" transform="matrix(1.00, 0.00, -0.00, -1.00, 410.6, 12.0)">m</text><text xml:space="preserve" font-family="Menlo-Regular" font-size="28.0" fill="#C81B13" transform="matrix(1.00, 0.00, -0.00, -1.00, 427.5, 12.0)">p</text><text xml:space="preserve" font-family="Menlo-Regular" font-size="28.0" fill="#C81B13" transform="matrix(1.00, 0.00, -0.00, -1.00, 444.3, 12.0)">"</text><text xml:space="preserve" font-family="Menlo-Regular" font-size="28.0" fill="#000000" transform="matrix(1.00, 0.00, -0.00, -1.00, 461.2, 12.0)"> </text><text xml:space="preserve" font-family="Menlo-Regular" font-size="28.0" fill="#C81B13" transform="matrix(1.00, 0.00, -0.00, -1.00, 478.0, 12.0)">"</text><text xml:space="preserve" font-family="Menlo-Regular" font-size="28.0" fill="#C81B13" transform="matrix(1.00, 0.00, -0.00, -1.00, 494.9, 12.0)">$</text><text xml:space="preserve" font-family="Menlo-Regular" font-size="28.0" fill="#C81B13" transform="matrix(1.00, 0.00, -0.00, -1.00, 511.7, 12.0)">{</text><text xml:space="preserve" font-family="Menlo-Regular" font-size="28.0" fill="#C81B13" transform="matrix(1.00, 0.00, -0.00, -1.00, 528.6, 12.0)">D</text><text xml:space="preserve" font-family="Menlo-Regular" font-size="28.0" fill="#C81B13" transform="matrix(1.00, 0.00, -0.00, -1.00, 545.4, 12.0)">V</text><text xml:space="preserve" font-family="Menlo-Regular" font-size="28.0" fill="#C81B13" transform="matrix(1.00, 0.00, -0.00, -1.00, 562.3, 12.0)">C</text><text xml:space="preserve" font-family="Menlo-Regular" font-size="28.0" fill="#C81B13" transform="matrix(1.00, 0.00, -0.00, -1.00, 579.2, 12.0)">S</text><text xml:space="preserve" font-family="Menlo-Regular" font-size="28.0" fill="#C81B13" transform="matrix(1.00, 0.00, -0.00, -1.00, 596.0, 12.0)">H</text><text xml:space="preserve" font-family="Menlo-Regular" font-size="28.0" fill="#C81B13" transform="matrix(1.00, 0.00, -0.00, -1.00, 612.9, 12.0)">}</text><text xml:space="preserve" font-family="Menlo-Regular" font-size="28.0" fill="#C81B13" transform="matrix(1.00, 0.00, -0.00, -1.00, 629.7, 12.0)">/</text><text xml:space="preserve" font-family="Menlo-Regular" font-size="28.0" fill="#C81B13" transform="matrix(1.00, 0.00, -0.00, -1.00, 646.6, 12.0)">i</text><text xml:space="preserve" font-family="Menlo-Regular" font-size="28.0" fill="#C81B13" transform="matrix(1.00, 0.00, -0.00, -1.00, 663.5, 12.0)">n</text><text xml:space="preserve" font-family="Menlo-Regular" font-size="28.0" fill="#C81B13" transform="matrix(1.00, 0.00, -0.00, -1.00, 680.3, 12.0)">d</text><text xml:space="preserve" font-family="Menlo-Regular" font-size="28.0" fill="#C81B13" transform="matrix(1.00, 0.00, -0.00, -1.00, 697.2, 12.0)">e</text><text xml:space="preserve" font-family="Menlo-Regular" font-size="28.0" fill="#C81B13" transform="matrix(1.00, 0.00, -0.00, -1.00, 714.1, 12.0)">x</text><text xml:space="preserve" font-family="Menlo-Regular" font-size="28.0" fill="#C81B13" transform="matrix(1.00, 0.00, -0.00, -1.00, 730.9, 12.0)">"</text></g></g></g></svg>