<?xml version="1.0" encoding="UTF-8" standalone="no"?><svg xmlns="http://www.w3.org/2000/svg" xmlns:xlink="http://www.w3.org/1999/xlink" clip-rule="evenodd" stroke-miterlimit="4.00" viewBox="0 0 928 31"><desc>SVG generated by Keynote</desc><defs></defs><g transform="matrix(1.00, 0.00, -0.00, -1.00, 0.0, 31.0)"><text xml:space="preserve" font-family="Menlo-Regular" font-size="28.0" fill="#000000" transform="matrix(1.00, 0.00, -0.00, -1.00, 0.0, 9.0)">h</text><text xml:space="preserve" font-family="Menlo-Regular" font-size="28.0" fill="#000000" transform="matrix(1.00, 0.00, -0.00, -1.00, 16.9, 9.0)">e</text><text xml:space="preserve" font-family="Menlo-Regular" font-size="28.0" fill="#000000" transform="matrix(1.00, 0.00, -0.00, -1.00, 33.7, 9.0)">a</text><text xml:space="preserve" font-family="Menlo-Regular" font-size="28.0" fill="#000000" transform="matrix(1.00, 0.00, -0.00, -1.00, 50.6, 9.0)">d</text><text xml:space="preserve" font-family="Menlo-Regular" font-size="28.0" fill="#000000" transform="matrix(1.00, 0.00, -0.00, -1.00, 67.4, 9.0)">:</text><text xml:space="preserve" font-family="Menlo-Regular" font-size="28.0" fill="#000000" transform="matrix(1.00, 0.00, -0.00, -1.00, 84.3, 9.0)"> </text><text xml:space="preserve" font-family="Menlo-Regular" font-size="28.0" fill="#000000" transform="matrix(1.00, 0.00, -0.00, -1.00, 101.2, 9.0)">.</text><text xml:space="preserve" font-family="Menlo-Regular" font-size="28.0" fill="#000000" transform="matrix(1.00, 0.00, -0.00, -1.00, 118.0, 9.0)">g</text><text xml:space="preserve" font-family="Menlo-Regular" font-size="28.0" fill="#000000" transform="matrix(1.00, 0.00, -0.00, -1.00, 134.9, 9.0)">i</text><text xml:space="preserve" font-family="Menlo-Regular" font-size="28.0" fill="#000000" transform="matrix(1.00, 0.00, -0.00, -1.00, 151.7, 9.0)">t</text><text xml:space="preserve" font-family="Menlo-Regular" font-size="28.0" fill="#000000" transform="matrix(1.00, 0.00, -0.00, -1.00, 168.6, 9.0)">/</text><text xml:space="preserve" font-family="Menlo-Regular" font-size="28.0" fill="#000000" transform="matrix(1.00, 0.00, -0.00, -1.00, 185.5, 9.0)">r</text><text xml:space="preserve" font-family="Menlo-Regular" font-size="28.0" fill="#000000" transform="matrix(1.00, 0.00, -0.00, -1.00, 202.3, 9.0)">e</text><text xml:space="preserve" font-family="Menlo-Regular" font-size="28.0" fill="#000000" transform="matrix(1.00, 0.00, -0.00, -1.00, 219.2, 9.0)">f</text><text xml:space="preserve" font-family="Menlo-Regular" font-size="28.0" fill="#000000" transform="matrix(1.00, 0.00, -0.00, -1.00, 236.0, 9.0)">s</text><text xml:space="preserve" font-family="Menlo-Regular" font-size="28.0" fill="#000000" transform="matrix(1.00, 0.00, -0.00, -1.00, 252.9, 9.0)">/</text><text xml:space="preserve" font-family="Menlo-Regular" font-size="28.0" fill="#000000" transform="matrix(1.00, 0.00, -0.00, -1.00, 269.8, 9.0)">h</text><text xml:space="preserve" font-family="Menlo-Regular" font-size="28.0" fill="#000000" transform="matrix(1.00, 0.00, -0.00, -1.00, 286.6, 9.0)">e</text><text xml:space="preserve" font-family="Menlo-Regular" font-size="28.0" fill="#000000" transform="matrix(1.00, 0.00, -0.00, -1.00, 303.5, 9.0)">a</text><text xml:space="preserve" font-family="Menlo-Regular" font-size="28.0" fill="#000000" transform="matrix(1.00, 0.00, -0.00, -1.00, 320.3, 9.0)">d</text><text xml:space="preserve" font-family="Menlo-Regular" font-size="28.0" fill="#000000" transform="matrix(1.00, 0.00, -0.00, -1.00, 337.2, 9.0)">s</text><text xml:space="preserve" font-family="Menlo-Regular" font-size="28.0" fill="#000000" transform="matrix(1.00, 0.00, -0.00, -1.00, 354.1, 9.0)">/</text><text xml:space="preserve" font-family="Menlo-Regular" font-size="28.0" fill="#000000" transform="matrix(1.00, 0.00, -0.00, -1.00, 370.9, 9.0)">m</text><text xml:space="preserve" font-family="Menlo-Regular" font-size="28.0" fill="#000000" transform="matrix(1.00, 0.00, -0.00, -1.00, 387.8, 9.0)">a</text><text xml:space="preserve" font-family="Menlo-Regular" font-size="28.0" fill="#000000" transform="matrix(1.00, 0.00, -0.00, -1.00, 404.6, 9.0)">s</text><text xml:space="preserve" font-family="Menlo-Regular" font-size="28.0" fill="#000000" transform="matrix(1.00, 0.00, -0.00, -1.00, 421.5, 9.0)">t</text><text xml:space="preserve" font-family="Menlo-Regular" font-size="28.0" fill="#000000" transform="matrix(1.00, 0.00, -0.00, -1.00, 438.4, 9.0)">e</text><text xml:space="preserve" font-family="Menlo-Regular" font-size="28.0" fill="#000000" transform="matrix(1.00, 0.00, -0.00, -1.00, 455.2, 9.0)">r</text><text xml:space="preserve" font-family="Menlo-Regular" font-size="28.0" fill="#000000" transform="matrix(1.00, 0.00, -0.00, -1.00, 472.1, 9.0)">:</text><text xml:space="preserve" font-family="Menlo-Regular" font-size="28.0" fill="#000000" transform="matrix(1.00, 0.00, -0.00, -1.00, 488.9, 9.0)"> </text><text xml:space="preserve" font-family="Menlo-Regular" font-size="28.0" fill="#000000" transform="matrix(1.00, 0.00, -0.00, -1.00, 505.8, 9.0)">N</text><text xml:space="preserve" font-family="Menlo-Regular" font-size="28.0" fill="#000000" transform="matrix(1.00, 0.00, -0.00, -1.00, 522.7, 9.0)">o</text><text xml:space="preserve" font-family="Menlo-Regular" font-size="28.0" fill="#000000" transform="matrix(1.00, 0.00, -0.00, -1.00, 539.5, 9.0)"> </text><text xml:space="preserve" font-family="Menlo-Regular" font-size="28.0" fill="#000000" transform="matrix(1.00, 0.00, -0.00, -1.00, 556.4, 9.0)">s</text><text xml:space="preserve" font-family="Menlo-Regular" font-size="28.0" fill="#000000" transform="matrix(1.00, 0.00, -0.00, -1.00, 573.2, 9.0)">u</text><text xml:space="preserve" font-family="Menlo-Regular" font-size="28.0" fill="#000000" transform="matrix(1.00, 0.00, -0.00, -1.00, 590.1, 9.0)">c</text><text xml:space="preserve" font-family="Menlo-Regular" font-size="28.0" fill="#000000" transform="matrix(1.00, 0.00, -0.00, -1.00, 607.0, 9.0)">h</text><text xml:space="preserve" font-family="Menlo-Regular" font-size="28.0" fill="#000000" transform="matrix(1.00, 0.00, -0.00, -1.00, 623.8, 9.0)"> </text><text xml:space="preserve" font-family="Menlo-Regular" font-size="28.0" fill="#000000" transform="matrix(1.00, 0.00, -0.00, -1.00, 640.7, 9.0)">f</text><text xml:space="preserve" font-family="Menlo-Regular" font-size="28.0" fill="#000000" transform="matrix(1.00, 0.00, -0.00, -1.00, 657.5, 9.0)">i</text><text xml:space="preserve" font-family="Menlo-Regular" font-size="28.0" fill="#000000" transform="matrix(1.00, 0.00, -0.00, -1.00, 674.4, 9.0)">l</text><text xml:space="preserve" font-family="Menlo-Regular" font-size="28.0" fill="#000000" transform="matrix(1.00, 0.00, -0.00, -1.00, 691.3, 9.0)">e</text><text xml:space="preserve" font-family="Menlo-Regular" font-size="28.0" fill="#000000" transform="matrix(1.00, 0.00, -0.00, -1.00, 708.1, 9.0)"> </text><text xml:space="preserve" font-family="Menlo-Regular" font-size="28.0" fill="#000000" transform="matrix(1.00, 0.00, -0.00, -1.00, 725.0, 9.0)">o</text><text xml:space="preserve" font-family="Menlo-Regular" font-size="28.0" fill="#000000" transform="matrix(1.00, 0.00, -0.00, -1.00, 741.8, 9.0)">r</text><text xml:space="preserve" font-family="Menlo-Regular" font-size="28.0" fill="#000000" transform="matrix(1.00, 0.00, -0.00, -1.00, 758.7, 9.0)"> </text><text xml:space="preserve" font-family="Menlo-Regular" font-size="28.0" fill="#000000" transform="matrix(1.00, 0.00, -0.00, -1.00, 775.6, 9.0)">d</text><text xml:space="preserve" font-family="Menlo-Regular" font-size="28.0" fill="#000000" transform="matrix(1.00, 0.00, -0.00, -1.00, 792.4, 9.0)">i</text><text xml:space="preserve" font-family="Menlo-Regular" font-size="28.0" fill="#000000" transform="matrix(1.00, 0.00, -0.00, -1.00, 809.3, 9.0)">r</text><text xml:space="preserve" font-family="Menlo-Regular" font-size="28.0" fill="#000000" transform="matrix(1.00, 0.00, -0.00, -1.00, 826.2, 9.0)">e</text><text xml:space="preserve" font-family="Menlo-Regular" font-size="28.0" fill="#000000" transform="matrix(1.00, 0.00, -0.00, -1.00, 843.0, 9.0)">c</text><text xml:space="preserve" font-family="Menlo-Regular" font-size="28.0" fill="#000000" transform="matrix(1.00, 0.00, -0.00, -1.00, 859.9, 9.0)">t</text><text xml:space="preserve" font-family="Menlo-Regular" font-size="28.0" fill="#000000" transform="matrix(1.00, 0.00, -0.00, -1.00, 876.7, 9.0)">o</text><text xml:space="preserve" font-family="Menlo-Regular" font-size="28.0" fill="#000000" transform="matrix(1.00, 0.00, -0.00, -1.00, 893.6, 9.0)">r</text><text xml:space="preserve" font-family="Menlo-Regular" font-size="28.0" fill="#000000" transform="matrix(1.00, 0.00, -0.00, -1.00, 910.5, 9.0)">y</text></g></svg>