<?xml version="1.0" encoding="UTF-8" standalone="no"?><svg xmlns="http://www.w3.org/2000/svg" xmlns:xlink="http://www.w3.org/1999/xlink" clip-rule="evenodd" stroke-miterlimit="4.00" viewBox="0 0 829 115"><desc>SVG generated by Keynote</desc><defs></defs><g transform="matrix(1.00, 0.00, -0.00, -1.00, 0.0, 115.0)"><path d="M 1.6 113.8 L 827.6 113.8 L 827.6 1.8 L 1.6 1.8 Z M 1.6 113.8 " fill="#6FBF40" fill-opacity="0.25"></path><g><clipPath id="clip-22"><path d="M -1.1 -0.9 L 1638.6 -0.9 L 1638.6 116.5 L -1.1 116.5 Z M -1.1 -0.9 "></path></clipPath><g clip-path="url(#clip-22)"><text xml:space="preserve" font-family="Menlo-Regular" font-size="23.0" fill="#000000" transform="matrix(1.00, 0.00, -0.00, -1.00, 6.0, 89.0)"> </text><text xml:space="preserve" font-family="Menlo-Regular" font-size="23.0" fill="#000000" transform="matrix(1.00, 0.00, -0.00, -1.00, 19.8, 89.0)"> </text><text xml:space="preserve" font-family="Menlo-Regular" font-size="23.0" fill="#000000" transform="matrix(1.00, 0.00, -0.00, -1.00, 33.7, 89.0)"> </text><text xml:space="preserve" font-family="Menlo-Regular" font-size="23.0" fill="#000000" transform="matrix(1.00, 0.00, -0.00, -1.00, 47.5, 89.0)"> </text><text xml:space="preserve" font-family="Menlo-Regular" font-size="23.0" fill="#000000" transform="matrix(1.00, 0.00, -0.00, -1.00, 61.4, 89.0)">s</text><text xml:space="preserve" font-family="Menlo-Regular" font-size="23.0" fill="#000000" transform="matrix(1.00, 0.00, -0.00, -1.00, 75.2, 89.0)">h</text><text xml:space="preserve" font-family="Menlo-Regular" font-size="23.0" fill="#000000" transform="matrix(1.00, 0.00, -0.00, -1.00, 89.1, 89.0)">a</text><text xml:space="preserve" font-family="Menlo-Regular" font-size="23.0" fill="#000000" transform="matrix(1.00, 0.00, -0.00, -1.00, 102.9, 89.0)">=</text><text xml:space="preserve" font-family="Menlo-Regular" font-size="23.0" fill="#000000" transform="matrix(1.00, 0.00, -0.00, -1.00, 116.8, 89.0)">$</text><text xml:space="preserve" font-family="Menlo-Regular" font-size="23.0" fill="#000000" transform="matrix(1.00, 0.00, -0.00, -1.00, 130.6, 89.0)">(</text><text xml:space="preserve" font-family="Menlo-Regular" font-size="23.0" fill="#000000" transform="matrix(1.00, 0.00, -0.00, -1.00, 144.5, 89.0)">_</text><text xml:space="preserve" font-family="Menlo-Regular" font-size="23.0" fill="#000000" transform="matrix(1.00, 0.00, -0.00, -1.00, 158.3, 89.0)">h</text><text xml:space="preserve" font-family="Menlo-Regular" font-size="23.0" fill="#000000" transform="matrix(1.00, 0.00, -0.00, -1.00, 172.2, 89.0)">a</text><text xml:space="preserve" font-family="Menlo-Regular" font-size="23.0" fill="#000000" transform="matrix(1.00, 0.00, -0.00, -1.00, 186.0, 89.0)">s</text><text xml:space="preserve" font-family="Menlo-Regular" font-size="23.0" fill="#000000" transform="matrix(1.00, 0.00, -0.00, -1.00, 199.9, 89.0)">h</text><text xml:space="preserve" font-family="Menlo-Regular" font-size="23.0" fill="#000000" transform="matrix(1.00, 0.00, -0.00, -1.00, 213.7, 89.0)">_</text><text xml:space="preserve" font-family="Menlo-Regular" font-size="23.0" fill="#000000" transform="matrix(1.00, 0.00, -0.00, -1.00, 227.6, 89.0)">o</text><text xml:space="preserve" font-family="Menlo-Regular" font-size="23.0" fill="#000000" transform="matrix(1.00, 0.00, -0.00, -1.00, 241.4, 89.0)">b</text><text xml:space="preserve" font-family="Menlo-Regular" font-size="23.0" fill="#000000" transform="matrix(1.00, 0.00, -0.00, -1.00, 255.3, 89.0)">j</text><text xml:space="preserve" font-family="Menlo-Regular" font-size="23.0" fill="#000000" transform="matrix(1.00, 0.00, -0.00, -1.00, 269.1, 89.0)"> </text><text xml:space="preserve" font-family="Menlo-Regular" font-size="23.0" fill="#C81B13" transform="matrix(1.00, 0.00, -0.00, -1.00, 282.9, 89.0)">"</text><text xml:space="preserve" font-family="Menlo-Regular" font-size="23.0" fill="#C81B13" transform="matrix(1.00, 0.00, -0.00, -1.00, 296.8, 89.0)">$</text><text xml:space="preserve" font-family="Menlo-Regular" font-size="23.0" fill="#C81B13" transform="matrix(1.00, 0.00, -0.00, -1.00, 310.6, 89.0)">{</text><text xml:space="preserve" font-family="Menlo-Regular" font-size="23.0" fill="#C81B13" transform="matrix(1.00, 0.00, -0.00, -1.00, 324.5, 89.0)">D</text><text xml:space="preserve" font-family="Menlo-Regular" font-size="23.0" fill="#C81B13" transform="matrix(1.00, 0.00, -0.00, -1.00, 338.3, 89.0)">V</text><text xml:space="preserve" font-family="Menlo-Regular" font-size="23.0" fill="#C81B13" transform="matrix(1.00, 0.00, -0.00, -1.00, 352.2, 89.0)">C</text><text xml:space="preserve" font-family="Menlo-Regular" font-size="23.0" fill="#C81B13" transform="matrix(1.00, 0.00, -0.00, -1.00, 366.0, 89.0)">S</text><text xml:space="preserve" font-family="Menlo-Regular" font-size="23.0" fill="#C81B13" transform="matrix(1.00, 0.00, -0.00, -1.00, 379.9, 89.0)">H</text><text xml:space="preserve" font-family="Menlo-Regular" font-size="23.0" fill="#C81B13" transform="matrix(1.00, 0.00, -0.00, -1.00, 393.7, 89.0)">}</text><text xml:space="preserve" font-family="Menlo-Regular" font-size="23.0" fill="#C81B13" transform="matrix(1.00, 0.00, -0.00, -1.00, 407.6, 89.0)">/</text><text xml:space="preserve" font-family="Menlo-Regular" font-size="23.0" fill="#C81B13" transform="matrix(1.00, 0.00, -0.00, -1.00, 421.4, 89.0)">c</text><text xml:space="preserve" font-family="Menlo-Regular" font-size="23.0" fill="#C81B13" transform="matrix(1.00, 0.00, -0.00, -1.00, 435.3, 89.0)">o</text><text xml:space="preserve" font-family="Menlo-Regular" font-size="23.0" fill="#C81B13" transform="matrix(1.00, 0.00, -0.00, -1.00, 449.1, 89.0)">m</text><text xml:space="preserve" font-family="Menlo-Regular" font-size="23.0" fill="#C81B13" transform="matrix(1.00, 0.00, -0.00, -1.00, 463.0, 89.0)">m</text><text xml:space="preserve" font-family="Menlo-Regular" font-size="23.0" fill="#C81B13" transform="matrix(1.00, 0.00, -0.00, -1.00, 476.8, 89.0)">i</text><text xml:space="preserve" font-family="Menlo-Regular" font-size="23.0" fill="#C81B13" transform="matrix(1.00, 0.00, -0.00, -1.00, 490.7, 89.0)">t</text><text xml:space="preserve" font-family="Menlo-Regular" font-size="23.0" fill="#C81B13" transform="matrix(1.00, 0.00, -0.00, -1.00, 504.5, 89.0)">.</text><text xml:space="preserve" font-family="Menlo-Regular" font-size="23.0" fill="#C81B13" transform="matrix(1.00, 0.00, -0.00, -1.00, 518.4, 89.0)">l</text><text xml:space="preserve" font-family="Menlo-Regular" font-size="23.0" fill="#C81B13" transform="matrix(1.00, 0.00, -0.00, -1.00, 532.2, 89.0)">a</text><text xml:space="preserve" font-family="Menlo-Regular" font-size="23.0" fill="#C81B13" transform="matrix(1.00, 0.00, -0.00, -1.00, 546.1, 89.0)">s</text><text xml:space="preserve" font-family="Menlo-Regular" font-size="23.0" fill="#C81B13" transform="matrix(1.00, 0.00, -0.00, -1.00, 559.9, 89.0)">t</text><text xml:space="preserve" font-family="Menlo-Regular" font-size="23.0" fill="#C81B13" transform="matrix(1.00, 0.00, -0.00, -1.00, 573.8, 89.0)">"</text><text xml:space="preserve" font-family="Menlo-Regular" font-size="23.0" fill="#000000" transform="matrix(1.00, 0.00, -0.00, -1.00, 587.6, 89.0)">)</text><text xml:space="preserve" font-family="Menlo-Regular" font-size="23.0" fill="#000000" transform="matrix(1.00, 0.00, -0.00, -1.00, 601.4, 89.0)">;</text><text xml:space="preserve" font-family="Menlo-Regular" font-size="23.0" fill="#000000" transform="matrix(1.00, 0.00, -0.00, -1.00, 615.3, 89.0)"> </text><text xml:space="preserve" font-family="Menlo-Regular" font-size="23.0" fill="#000000" transform="matrix(1.00, 0.00, -0.00, -1.00, 6.0, 63.0)"> </text><text xml:space="preserve" font-family="Menlo-Regular" font-size="23.0" fill="#000000" transform="matrix(1.00, 0.00, -0.00, -1.00, 19.8, 63.0)"> </text><text xml:space="preserve" font-family="Menlo-Regular" font-size="23.0" fill="#000000" transform="matrix(1.00, 0.00, -0.00, -1.00, 33.7, 63.0)"> </text><text xml:space="preserve" font-family="Menlo-Regular" font-size="23.0" fill="#000000" transform="matrix(1.00, 0.00, -0.00, -1.00, 47.5, 63.0)"> </text><text xml:space="preserve" font-family="Menlo-Regular" font-size="23.0" fill="#000000" transform="matrix(1.00, 0.00, -0.00, -1.00, 61.4, 63.0)">c</text><text xml:space="preserve" font-family="Menlo-Regular" font-size="23.0" fill="#000000" transform="matrix(1.00, 0.00, -0.00, -1.00, 75.2, 63.0)">p</text><text xml:space="preserve" font-family="Menlo-Regular" font-size="23.0" fill="#000000" transform="matrix(1.00, 0.00, -0.00, -1.00, 89.1, 63.0)"> </text><text xml:space="preserve" font-family="Menlo-Regular" font-size="23.0" fill="#000000" transform="matrix(1.00, 0.00, -0.00, -1.00, 102.9, 63.0)">-</text><text xml:space="preserve" font-family="Menlo-Regular" font-size="23.0" fill="#000000" transform="matrix(1.00, 0.00, -0.00, -1.00, 116.8, 63.0)">p</text><text xml:space="preserve" font-family="Menlo-Regular" font-size="23.0" fill="#000000" transform="matrix(1.00, 0.00, -0.00, -1.00, 130.6, 63.0)"> </text><text xml:space="preserve" font-family="Menlo-Regular" font-size="23.0" fill="#C81B13" transform="matrix(1.00, 0.00, -0.00, -1.00, 144.5, 63.0)">"</text><text xml:space="preserve" font-family="Menlo-Regular" font-size="23.0" fill="#C81B13" transform="matrix(1.00, 0.00, -0.00, -1.00, 158.3, 63.0)">$</text><text xml:space="preserve" font-family="Menlo-Regular" font-size="23.0" fill="#C81B13" transform="matrix(1.00, 0.00, -0.00, -1.00, 172.2, 63.0)">{</text><text xml:space="preserve" font-family="Menlo-Regular" font-size="23.0" fill="#C81B13" transform="matrix(1.00, 0.00, -0.00, -1.00, 186.0, 63.0)">D</text><text xml:space="preserve" font-family="Menlo-Regular" font-size="23.0" fill="#C81B13" transform="matrix(1.00, 0.00, -0.00, -1.00, 199.9, 63.0)">V</text><text xml:space="preserve" font-family="Menlo-Regular" font-size="23.0" fill="#C81B13" transform="matrix(1.00, 0.00, -0.00, -1.00, 213.7, 63.0)">C</text><text xml:space="preserve" font-family="Menlo-Regular" font-size="23.0" fill="#C81B13" transform="matrix(1.00, 0.00, -0.00, -1.00, 227.6, 63.0)">S</text><text xml:space="preserve" font-family="Menlo-Regular" font-size="23.0" fill="#C81B13" transform="matrix(1.00, 0.00, -0.00, -1.00, 241.4, 63.0)">H</text><text xml:space="preserve" font-family="Menlo-Regular" font-size="23.0" fill="#C81B13" transform="matrix(1.00, 0.00, -0.00, -1.00, 255.3, 63.0)">}</text><text xml:space="preserve" font-family="Menlo-Regular" font-size="23.0" fill="#C81B13" transform="matrix(1.00, 0.00, -0.00, -1.00, 269.1, 63.0)">/</text><text xml:space="preserve" font-family="Menlo-Regular" font-size="23.0" fill="#C81B13" transform="matrix(1.00, 0.00, -0.00, -1.00, 283.0, 63.0)">c</text><text xml:space="preserve" font-family="Menlo-Regular" font-size="23.0" fill="#C81B13" transform="matrix(1.00, 0.00, -0.00, -1.00, 296.8, 63.0)">o</text><text xml:space="preserve" font-family="Menlo-Regular" font-size="23.0" fill="#C81B13" transform="matrix(1.00, 0.00, -0.00, -1.00, 310.7, 63.0)">m</text><text xml:space="preserve" font-family="Menlo-Regular" font-size="23.0" fill="#C81B13" transform="matrix(1.00, 0.00, -0.00, -1.00, 324.5, 63.0)">m</text><text xml:space="preserve" font-family="Menlo-Regular" font-size="23.0" fill="#C81B13" transform="matrix(1.00, 0.00, -0.00, -1.00, 338.4, 63.0)">i</text><text xml:space="preserve" font-family="Menlo-Regular" font-size="23.0" fill="#C81B13" transform="matrix(1.00, 0.00, -0.00, -1.00, 352.2, 63.0)">t</text><text xml:space="preserve" font-family="Menlo-Regular" font-size="23.0" fill="#C81B13" transform="matrix(1.00, 0.00, -0.00, -1.00, 366.1, 63.0)">.</text><text xml:space="preserve" font-family="Menlo-Regular" font-size="23.0" fill="#C81B13" transform="matrix(1.00, 0.00, -0.00, -1.00, 379.9, 63.0)">l</text><text xml:space="preserve" font-family="Menlo-Regular" font-size="23.0" fill="#C81B13" transform="matrix(1.00, 0.00, -0.00, -1.00, 393.8, 63.0)">a</text><text xml:space="preserve" font-family="Menlo-Regular" font-size="23.0" fill="#C81B13" transform="matrix(1.00, 0.00, -0.00, -1.00, 407.6, 63.0)">s</text><text xml:space="preserve" font-family="Menlo-Regular" font-size="23.0" fill="#C81B13" transform="matrix(1.00, 0.00, -0.00, -1.00, 421.5, 63.0)">t</text><text xml:space="preserve" font-family="Menlo-Regular" font-size="23.0" fill="#C81B13" transform="matrix(1.00, 0.00, -0.00, -1.00, 435.3, 63.0)">"</text><text xml:space="preserve" font-family="Menlo-Regular" font-size="23.0" fill="#000000" transform="matrix(1.00, 0.00, -0.00, -1.00, 449.1, 63.0)"> </text><text xml:space="preserve" font-family="Menlo-Regular" font-size="23.0" fill="#C81B13" transform="matrix(1.00, 0.00, -0.00, -1.00, 463.0, 63.0)">"</text><text xml:space="preserve" font-family="Menlo-Regular" font-size="23.0" fill="#C81B13" transform="matrix(1.00, 0.00, -0.00, -1.00, 476.8, 63.0)">$</text><text xml:space="preserve" font-family="Menlo-Regular" font-size="23.0" fill="#C81B13" transform="matrix(1.00, 0.00, -0.00, -1.00, 490.7, 63.0)">{</text><text xml:space="preserve" font-family="Menlo-Regular" font-size="23.0" fill="#C81B13" transform="matrix(1.00, 0.00, -0.00, -1.00, 504.5, 63.0)">D</text><text xml:space="preserve" font-family="Menlo-Regular" font-size="23.0" fill="#C81B13" transform="matrix(1.00, 0.00, -0.00, -1.00, 518.4, 63.0)">V</text><text xml:space="preserve" font-family="Menlo-Regular" font-size="23.0" fill="#C81B13" transform="matrix(1.00, 0.00, -0.00, -1.00, 532.2, 63.0)">C</text><text xml:space="preserve" font-family="Menlo-Regular" font-size="23.0" fill="#C81B13" transform="matrix(1.00, 0.00, -0.00, -1.00, 546.1, 63.0)">S</text><text xml:space="preserve" font-family="Menlo-Regular" font-size="23.0" fill="#C81B13" transform="matrix(1.00, 0.00, -0.00, -1.00, 559.9, 63.0)">H</text><text xml:space="preserve" font-family="Menlo-Regular" font-size="23.0" fill="#C81B13" transform="matrix(1.00, 0.00, -0.00, -1.00, 573.8, 63.0)">}</text><text xml:space="preserve" font-family="Menlo-Regular" font-size="23.0" fill="#C81B13" transform="matrix(1.00, 0.00, -0.00, -1.00, 587.6, 63.0)">/</text><text xml:space="preserve" font-family="Menlo-Regular" font-size="23.0" fill="#C81B13" transform="matrix(1.00, 0.00, -0.00, -1.00, 601.5, 63.0)">o</text><text xml:space="preserve" font-family="Menlo-Regular" font-size="23.0" fill="#C81B13" transform="matrix(1.00, 0.00, -0.00, -1.00, 615.3, 63.0)">b</text><text xml:space="preserve" font-family="Menlo-Regular" font-size="23.0" fill="#C81B13" transform="matrix(1.00, 0.00, -0.00, -1.00, 629.2, 63.0)">j</text><text xml:space="preserve" font-family="Menlo-Regular" font-size="23.0" fill="#C81B13" transform="matrix(1.00, 0.00, -0.00, -1.00, 643.0, 63.0)">e</text><text xml:space="preserve" font-family="Menlo-Regular" font-size="23.0" fill="#C81B13" transform="matrix(1.00, 0.00, -0.00, -1.00, 656.8, 63.0)">c</text><text xml:space="preserve" font-family="Menlo-Regular" font-size="23.0" fill="#C81B13" transform="matrix(1.00, 0.00, -0.00, -1.00, 670.7, 63.0)">t</text><text xml:space="preserve" font-family="Menlo-Regular" font-size="23.0" fill="#C81B13" transform="matrix(1.00, 0.00, -0.00, -1.00, 684.5, 63.0)">s</text><text xml:space="preserve" font-family="Menlo-Regular" font-size="23.0" fill="#C81B13" transform="matrix(1.00, 0.00, -0.00, -1.00, 698.4, 63.0)">/</text><text xml:space="preserve" font-family="Menlo-Regular" font-size="23.0" fill="#C81B13" transform="matrix(1.00, 0.00, -0.00, -1.00, 712.2, 63.0)">$</text><text xml:space="preserve" font-family="Menlo-Regular" font-size="23.0" fill="#C81B13" transform="matrix(1.00, 0.00, -0.00, -1.00, 726.1, 63.0)">{</text><text xml:space="preserve" font-family="Menlo-Regular" font-size="23.0" fill="#C81B13" transform="matrix(1.00, 0.00, -0.00, -1.00, 739.9, 63.0)">s</text><text xml:space="preserve" font-family="Menlo-Regular" font-size="23.0" fill="#C81B13" transform="matrix(1.00, 0.00, -0.00, -1.00, 753.8, 63.0)">h</text><text xml:space="preserve" font-family="Menlo-Regular" font-size="23.0" fill="#C81B13" transform="matrix(1.00, 0.00, -0.00, -1.00, 767.6, 63.0)">a</text><text xml:space="preserve" font-family="Menlo-Regular" font-size="23.0" fill="#C81B13" transform="matrix(1.00, 0.00, -0.00, -1.00, 781.5, 63.0)">}</text><text xml:space="preserve" font-family="Menlo-Regular" font-size="23.0" fill="#C81B13" transform="matrix(1.00, 0.00, -0.00, -1.00, 795.3, 63.0)">"</text><text xml:space="preserve" font-family="Menlo-Regular" font-size="23.0" fill="#000000" transform="matrix(1.00, 0.00, -0.00, -1.00, 809.1, 63.0)"> </text><text xml:space="preserve" font-family="Menlo-Regular" font-size="23.0" fill="#000000" transform="matrix(1.00, 0.00, -0.00, -1.00, 6.0, 11.0)"> </text><text xml:space="preserve" font-family="Menlo-Regular" font-size="23.0" fill="#000000" transform="matrix(1.00, 0.00, -0.00, -1.00, 19.8, 11.0)"> </text><text xml:space="preserve" font-family="Menlo-Regular" font-size="23.0" fill="#000000" transform="matrix(1.00, 0.00, -0.00, -1.00, 33.7, 11.0)"> </text><text xml:space="preserve" font-family="Menlo-Regular" font-size="23.0" fill="#000000" transform="matrix(1.00, 0.00, -0.00, -1.00, 47.5, 11.0)"> </text><text xml:space="preserve" font-family="Menlo-Regular" font-size="23.0" fill="#000000" transform="matrix(1.00, 0.00, -0.00, -1.00, 61.4, 11.0)">e</text><text xml:space="preserve" font-family="Menlo-Regular" font-size="23.0" fill="#000000" transform="matrix(1.00, 0.00, -0.00, -1.00, 75.2, 11.0)">c</text><text xml:space="preserve" font-family="Menlo-Regular" font-size="23.0" fill="#000000" transform="matrix(1.00, 0.00, -0.00, -1.00, 89.1, 11.0)">h</text><text xml:space="preserve" font-family="Menlo-Regular" font-size="23.0" fill="#000000" transform="matrix(1.00, 0.00, -0.00, -1.00, 102.9, 11.0)">o</text><text xml:space="preserve" font-family="Menlo-Regular" font-size="23.0" fill="#000000" transform="matrix(1.00, 0.00, -0.00, -1.00, 116.8, 11.0)"> </text><text xml:space="preserve" font-family="Menlo-Regular" font-size="23.0" fill="#C81B13" transform="matrix(1.00, 0.00, -0.00, -1.00, 130.6, 11.0)">"</text><text xml:space="preserve" font-family="Menlo-Regular" font-size="23.0" fill="#C81B13" transform="matrix(1.00, 0.00, -0.00, -1.00, 144.5, 11.0)">$</text><text xml:space="preserve" font-family="Menlo-Regular" font-size="23.0" fill="#C81B13" transform="matrix(1.00, 0.00, -0.00, -1.00, 158.3, 11.0)">{</text><text xml:space="preserve" font-family="Menlo-Regular" font-size="23.0" fill="#C81B13" transform="matrix(1.00, 0.00, -0.00, -1.00, 172.2, 11.0)">s</text><text xml:space="preserve" font-family="Menlo-Regular" font-size="23.0" fill="#C81B13" transform="matrix(1.00, 0.00, -0.00, -1.00, 186.0, 11.0)">h</text><text xml:space="preserve" font-family="Menlo-Regular" font-size="23.0" fill="#C81B13" transform="matrix(1.00, 0.00, -0.00, -1.00, 199.9, 11.0)">a</text><text xml:space="preserve" font-family="Menlo-Regular" font-size="23.0" fill="#C81B13" transform="matrix(1.00, 0.00, -0.00, -1.00, 213.7, 11.0)">}</text><text xml:space="preserve" font-family="Menlo-Regular" font-size="23.0" fill="#C81B13" transform="matrix(1.00, 0.00, -0.00, -1.00, 227.6, 11.0)">"</text><text xml:space="preserve" font-family="Menlo-Regular" font-size="23.0" fill="#000000" transform="matrix(1.00, 0.00, -0.00, -1.00, 241.4, 11.0)"> </text><text xml:space="preserve" font-family="Menlo-Regular" font-size="23.0" fill="#000000" transform="matrix(1.00, 0.00, -0.00, -1.00, 255.3, 11.0)">&gt;</text><text xml:space="preserve" font-family="Menlo-Regular" font-size="23.0" fill="#000000" transform="matrix(1.00, 0.00, -0.00, -1.00, 269.1, 11.0)"> </text><text xml:space="preserve" font-family="Menlo-Regular" font-size="23.0" fill="#C81B13" transform="matrix(1.00, 0.00, -0.00, -1.00, 282.9, 11.0)">"</text><text xml:space="preserve" font-family="Menlo-Regular" font-size="23.0" fill="#C81B13" transform="matrix(1.00, 0.00, -0.00, -1.00, 296.8, 11.0)">$</text><text xml:space="preserve" font-family="Menlo-Regular" font-size="23.0" fill="#C81B13" transform="matrix(1.00, 0.00, -0.00, -1.00, 310.6, 11.0)">{</text><text xml:space="preserve" font-family="Menlo-Regular" font-size="23.0" fill="#C81B13" transform="matrix(1.00, 0.00, -0.00, -1.00, 324.5, 11.0)">D</text><text xml:space="preserve" font-family="Menlo-Regular" font-size="23.0" fill="#C81B13" transform="matrix(1.00, 0.00, -0.00, -1.00, 338.3, 11.0)">V</text><text xml:space="preserve" font-family="Menlo-Regular" font-size="23.0" fill="#C81B13" transform="matrix(1.00, 0.00, -0.00, -1.00, 352.2, 11.0)">C</text><text xml:space="preserve" font-family="Menlo-Regular" font-size="23.0" fill="#C81B13" transform="matrix(1.00, 0.00, -0.00, -1.00, 366.0, 11.0)">S</text><text xml:space="preserve" font-family="Menlo-Regular" font-size="23.0" fill="#C81B13" transform="matrix(1.00, 0.00, -0.00, -1.00, 379.9, 11.0)">H</text><text xml:space="preserve" font-family="Menlo-Regular" font-size="23.0" fill="#C81B13" transform="matrix(1.00, 0.00, -0.00, -1.00, 393.7, 11.0)">}</text><text xml:space="preserve" font-family="Menlo-Regular" font-size="23.0" fill="#C81B13" transform="matrix(1.00, 0.00, -0.00, -1.00, 407.6, 11.0)">/</text><text xml:space="preserve" font-family="Menlo-Regular" font-size="23.0" fill="#C81B13" transform="matrix(1.00, 0.00, -0.00, -1.00, 421.4, 11.0)">H</text><text xml:space="preserve" font-family="Menlo-Regular" font-size="23.0" fill="#C81B13" transform="matrix(1.00, 0.00, -0.00, -1.00, 435.3, 11.0)">E</text><text xml:space="preserve" font-family="Menlo-Regular" font-size="23.0" fill="#C81B13" transform="matrix(1.00, 0.00, -0.00, -1.00, 449.1, 11.0)">A</text><text xml:space="preserve" font-family="Menlo-Regular" font-size="23.0" fill="#C81B13" transform="matrix(1.00, 0.00, -0.00, -1.00, 463.0, 11.0)">D</text><text xml:space="preserve" font-family="Menlo-Regular" font-size="23.0" fill="#C81B13" transform="matrix(1.00, 0.00, -0.00, -1.00, 476.8, 11.0)">"</text><text xml:space="preserve" font-family="Menlo-Regular" font-size="23.0" fill="#000000" transform="matrix(1.00, 0.00, -0.00, -1.00, 490.7, 11.0)">;</text></g></g></g></svg>