<?xml version="1.0" encoding="UTF-8" standalone="no"?><svg xmlns="http://www.w3.org/2000/svg" xmlns:xlink="http://www.w3.org/1999/xlink" clip-rule="evenodd" stroke-miterlimit="4.00" viewBox="0 0 898 245"><desc>SVG generated by Keynote</desc><defs></defs><g transform="matrix(1.00, 0.00, -0.00, -1.00, 0.0, 245.0)"><path d="M 1.6 243.2 L 896.8 243.2 L 896.8 1.2 L 1.6 1.2 Z M 1.6 243.2 " fill="#6FBF40" fill-opacity="0.25"></path><g><clipPath id="clip-21"><path d="M -1.1 -1.5 L 1610.9 -1.5 L 1610.9 245.9 L -1.1 245.9 Z M -1.1 -1.5 "></path></clipPath><g clip-path="url(#clip-21)"><text xml:space="preserve" font-family="Menlo-Regular" font-size="23.0" fill="#000000" transform="matrix(1.00, 0.00, -0.00, -1.00, 6.0, 219.0)"> </text><text xml:space="preserve" font-family="Menlo-Regular" font-size="23.0" fill="#000000" transform="matrix(1.00, 0.00, -0.00, -1.00, 19.8, 219.0)"> </text><text xml:space="preserve" font-family="Menlo-Regular" font-size="23.0" fill="#000000" transform="matrix(1.00, 0.00, -0.00, -1.00, 33.7, 219.0)"> </text><text xml:space="preserve" font-family="Menlo-Regular" font-size="23.0" fill="#000000" transform="matrix(1.00, 0.00, -0.00, -1.00, 47.5, 219.0)"> </text><text xml:space="preserve" font-family="Menlo-Regular" font-size="23.0" fill="#000000" transform="matrix(1.00, 0.00, -0.00, -1.00, 61.4, 219.0)">e</text><text xml:space="preserve" font-family="Menlo-Regular" font-size="23.0" fill="#000000" transform="matrix(1.00, 0.00, -0.00, -1.00, 75.2, 219.0)">c</text><text xml:space="preserve" font-family="Menlo-Regular" font-size="23.0" fill="#000000" transform="matrix(1.00, 0.00, -0.00, -1.00, 89.1, 219.0)">h</text><text xml:space="preserve" font-family="Menlo-Regular" font-size="23.0" fill="#000000" transform="matrix(1.00, 0.00, -0.00, -1.00, 102.9, 219.0)">o</text><text xml:space="preserve" font-family="Menlo-Regular" font-size="23.0" fill="#000000" transform="matrix(1.00, 0.00, -0.00, -1.00, 116.8, 219.0)"> </text><text xml:space="preserve" font-family="Menlo-Regular" font-size="23.0" fill="#C81B13" transform="matrix(1.00, 0.00, -0.00, -1.00, 130.6, 219.0)">"</text><text xml:space="preserve" font-family="Menlo-Regular" font-size="23.0" fill="#C81B13" transform="matrix(1.00, 0.00, -0.00, -1.00, 144.5, 219.0)">i</text><text xml:space="preserve" font-family="Menlo-Regular" font-size="23.0" fill="#C81B13" transform="matrix(1.00, 0.00, -0.00, -1.00, 158.3, 219.0)">n</text><text xml:space="preserve" font-family="Menlo-Regular" font-size="23.0" fill="#C81B13" transform="matrix(1.00, 0.00, -0.00, -1.00, 172.2, 219.0)">d</text><text xml:space="preserve" font-family="Menlo-Regular" font-size="23.0" fill="#C81B13" transform="matrix(1.00, 0.00, -0.00, -1.00, 186.0, 219.0)">e</text><text xml:space="preserve" font-family="Menlo-Regular" font-size="23.0" fill="#C81B13" transform="matrix(1.00, 0.00, -0.00, -1.00, 199.9, 219.0)">x</text><text xml:space="preserve" font-family="Menlo-Regular" font-size="23.0" fill="#C81B13" transform="matrix(1.00, 0.00, -0.00, -1.00, 213.7, 219.0)">:</text><text xml:space="preserve" font-family="Menlo-Regular" font-size="23.0" fill="#C81B13" transform="matrix(1.00, 0.00, -0.00, -1.00, 227.6, 219.0)"> </text><text xml:space="preserve" font-family="Menlo-Regular" font-size="23.0" fill="#C81B13" transform="matrix(1.00, 0.00, -0.00, -1.00, 241.4, 219.0)">$</text><text xml:space="preserve" font-family="Menlo-Regular" font-size="23.0" fill="#C81B13" transform="matrix(1.00, 0.00, -0.00, -1.00, 255.3, 219.0)">{</text><text xml:space="preserve" font-family="Menlo-Regular" font-size="23.0" fill="#C81B13" transform="matrix(1.00, 0.00, -0.00, -1.00, 269.1, 219.0)">s</text><text xml:space="preserve" font-family="Menlo-Regular" font-size="23.0" fill="#C81B13" transform="matrix(1.00, 0.00, -0.00, -1.00, 283.0, 219.0)">h</text><text xml:space="preserve" font-family="Menlo-Regular" font-size="23.0" fill="#C81B13" transform="matrix(1.00, 0.00, -0.00, -1.00, 296.8, 219.0)">a</text><text xml:space="preserve" font-family="Menlo-Regular" font-size="23.0" fill="#C81B13" transform="matrix(1.00, 0.00, -0.00, -1.00, 310.7, 219.0)">}</text><text xml:space="preserve" font-family="Menlo-Regular" font-size="23.0" fill="#C81B13" transform="matrix(1.00, 0.00, -0.00, -1.00, 324.5, 219.0)">"</text><text xml:space="preserve" font-family="Menlo-Regular" font-size="23.0" fill="#000000" transform="matrix(1.00, 0.00, -0.00, -1.00, 338.3, 219.0)"> </text><text xml:space="preserve" font-family="Menlo-Regular" font-size="23.0" fill="#000000" transform="matrix(1.00, 0.00, -0.00, -1.00, 352.2, 219.0)">&gt;</text><text xml:space="preserve" font-family="Menlo-Regular" font-size="23.0" fill="#000000" transform="matrix(1.00, 0.00, -0.00, -1.00, 366.0, 219.0)"> </text><text xml:space="preserve" font-family="Menlo-Regular" font-size="23.0" fill="#C81B13" transform="matrix(1.00, 0.00, -0.00, -1.00, 379.9, 219.0)">"</text><text xml:space="preserve" font-family="Menlo-Regular" font-size="23.0" fill="#C81B13" transform="matrix(1.00, 0.00, -0.00, -1.00, 393.7, 219.0)">$</text><text xml:space="preserve" font-family="Menlo-Regular" font-size="23.0" fill="#C81B13" transform="matrix(1.00, 0.00, -0.00, -1.00, 407.6, 219.0)">{</text><text xml:space="preserve" font-family="Menlo-Regular" font-size="23.0" fill="#C81B13" transform="matrix(1.00, 0.00, -0.00, -1.00, 421.4, 219.0)">D</text><text xml:space="preserve" font-family="Menlo-Regular" font-size="23.0" fill="#C81B13" transform="matrix(1.00, 0.00, -0.00, -1.00, 435.3, 219.0)">V</text><text xml:space="preserve" font-family="Menlo-Regular" font-size="23.0" fill="#C81B13" transform="matrix(1.00, 0.00, -0.00, -1.00, 449.1, 219.0)">C</text><text xml:space="preserve" font-family="Menlo-Regular" font-size="23.0" fill="#C81B13" transform="matrix(1.00, 0.00, -0.00, -1.00, 463.0, 219.0)">S</text><text xml:space="preserve" font-family="Menlo-Regular" font-size="23.0" fill="#C81B13" transform="matrix(1.00, 0.00, -0.00, -1.00, 476.8, 219.0)">H</text><text xml:space="preserve" font-family="Menlo-Regular" font-size="23.0" fill="#C81B13" transform="matrix(1.00, 0.00, -0.00, -1.00, 490.7, 219.0)">}</text><text xml:space="preserve" font-family="Menlo-Regular" font-size="23.0" fill="#C81B13" transform="matrix(1.00, 0.00, -0.00, -1.00, 504.5, 219.0)">/</text><text xml:space="preserve" font-family="Menlo-Regular" font-size="23.0" fill="#C81B13" transform="matrix(1.00, 0.00, -0.00, -1.00, 518.4, 219.0)">c</text><text xml:space="preserve" font-family="Menlo-Regular" font-size="23.0" fill="#C81B13" transform="matrix(1.00, 0.00, -0.00, -1.00, 532.2, 219.0)">o</text><text xml:space="preserve" font-family="Menlo-Regular" font-size="23.0" fill="#C81B13" transform="matrix(1.00, 0.00, -0.00, -1.00, 546.1, 219.0)">m</text><text xml:space="preserve" font-family="Menlo-Regular" font-size="23.0" fill="#C81B13" transform="matrix(1.00, 0.00, -0.00, -1.00, 559.9, 219.0)">m</text><text xml:space="preserve" font-family="Menlo-Regular" font-size="23.0" fill="#C81B13" transform="matrix(1.00, 0.00, -0.00, -1.00, 573.8, 219.0)">i</text><text xml:space="preserve" font-family="Menlo-Regular" font-size="23.0" fill="#C81B13" transform="matrix(1.00, 0.00, -0.00, -1.00, 587.6, 219.0)">t</text><text xml:space="preserve" font-family="Menlo-Regular" font-size="23.0" fill="#C81B13" transform="matrix(1.00, 0.00, -0.00, -1.00, 601.5, 219.0)">.</text><text xml:space="preserve" font-family="Menlo-Regular" font-size="23.0" fill="#C81B13" transform="matrix(1.00, 0.00, -0.00, -1.00, 615.3, 219.0)">l</text><text xml:space="preserve" font-family="Menlo-Regular" font-size="23.0" fill="#C81B13" transform="matrix(1.00, 0.00, -0.00, -1.00, 629.2, 219.0)">a</text><text xml:space="preserve" font-family="Menlo-Regular" font-size="23.0" fill="#C81B13" transform="matrix(1.00, 0.00, -0.00, -1.00, 643.0, 219.0)">s</text><text xml:space="preserve" font-family="Menlo-Regular" font-size="23.0" fill="#C81B13" transform="matrix(1.00, 0.00, -0.00, -1.00, 656.9, 219.0)">t</text><text xml:space="preserve" font-family="Menlo-Regular" font-size="23.0" fill="#C81B13" transform="matrix(1.00, 0.00, -0.00, -1.00, 670.7, 219.0)">"</text><text xml:space="preserve" font-family="Menlo-Regular" font-size="23.0" fill="#000000" transform="matrix(1.00, 0.00, -0.00, -1.00, 684.5, 219.0)">;</text><text xml:space="preserve" font-family="Menlo-Regular" font-size="23.0" fill="#000000" transform="matrix(1.00, 0.00, -0.00, -1.00, 698.4, 219.0)"> </text><text xml:space="preserve" font-family="Menlo-Regular" font-size="23.0" fill="#000000" transform="matrix(1.00, 0.00, -0.00, -1.00, 6.0, 193.0)"> </text><text xml:space="preserve" font-family="Menlo-Regular" font-size="23.0" fill="#000000" transform="matrix(1.00, 0.00, -0.00, -1.00, 19.8, 193.0)"> </text><text xml:space="preserve" font-family="Menlo-Regular" font-size="23.0" fill="#000000" transform="matrix(1.00, 0.00, -0.00, -1.00, 33.7, 193.0)"> </text><text xml:space="preserve" font-family="Menlo-Regular" font-size="23.0" fill="#000000" transform="matrix(1.00, 0.00, -0.00, -1.00, 47.5, 193.0)"> </text><text xml:space="preserve" font-family="Menlo-Regular" font-size="23.0" fill="#000000" transform="matrix(1.00, 0.00, -0.00, -1.00, 61.4, 193.0)">e</text><text xml:space="preserve" font-family="Menlo-Regular" font-size="23.0" fill="#000000" transform="matrix(1.00, 0.00, -0.00, -1.00, 75.2, 193.0)">c</text><text xml:space="preserve" font-family="Menlo-Regular" font-size="23.0" fill="#000000" transform="matrix(1.00, 0.00, -0.00, -1.00, 89.1, 193.0)">h</text><text xml:space="preserve" font-family="Menlo-Regular" font-size="23.0" fill="#000000" transform="matrix(1.00, 0.00, -0.00, -1.00, 102.9, 193.0)">o</text><text xml:space="preserve" font-family="Menlo-Regular" font-size="23.0" fill="#000000" transform="matrix(1.00, 0.00, -0.00, -1.00, 116.8, 193.0)"> </text><text xml:space="preserve" font-family="Menlo-Regular" font-size="23.0" fill="#C81B13" transform="matrix(1.00, 0.00, -0.00, -1.00, 130.6, 193.0)">"</text><text xml:space="preserve" font-family="Menlo-Regular" font-size="23.0" fill="#C81B13" transform="matrix(1.00, 0.00, -0.00, -1.00, 144.5, 193.0)">d</text><text xml:space="preserve" font-family="Menlo-Regular" font-size="23.0" fill="#C81B13" transform="matrix(1.00, 0.00, -0.00, -1.00, 158.3, 193.0)">a</text><text xml:space="preserve" font-family="Menlo-Regular" font-size="23.0" fill="#C81B13" transform="matrix(1.00, 0.00, -0.00, -1.00, 172.2, 193.0)">t</text><text xml:space="preserve" font-family="Menlo-Regular" font-size="23.0" fill="#C81B13" transform="matrix(1.00, 0.00, -0.00, -1.00, 186.0, 193.0)">e</text><text xml:space="preserve" font-family="Menlo-Regular" font-size="23.0" fill="#C81B13" transform="matrix(1.00, 0.00, -0.00, -1.00, 199.9, 193.0)">:</text><text xml:space="preserve" font-family="Menlo-Regular" font-size="23.0" fill="#C81B13" transform="matrix(1.00, 0.00, -0.00, -1.00, 213.7, 193.0)"> </text><text xml:space="preserve" font-family="Menlo-Regular" font-size="23.0" fill="#C81B13" transform="matrix(1.00, 0.00, -0.00, -1.00, 227.6, 193.0)">$</text><text xml:space="preserve" font-family="Menlo-Regular" font-size="23.0" fill="#C81B13" transform="matrix(1.00, 0.00, -0.00, -1.00, 241.4, 193.0)">(</text><text xml:space="preserve" font-family="Menlo-Regular" font-size="23.0" fill="#C81B13" transform="matrix(1.00, 0.00, -0.00, -1.00, 255.3, 193.0)">d</text><text xml:space="preserve" font-family="Menlo-Regular" font-size="23.0" fill="#C81B13" transform="matrix(1.00, 0.00, -0.00, -1.00, 269.1, 193.0)">a</text><text xml:space="preserve" font-family="Menlo-Regular" font-size="23.0" fill="#C81B13" transform="matrix(1.00, 0.00, -0.00, -1.00, 283.0, 193.0)">t</text><text xml:space="preserve" font-family="Menlo-Regular" font-size="23.0" fill="#C81B13" transform="matrix(1.00, 0.00, -0.00, -1.00, 296.8, 193.0)">e</text><text xml:space="preserve" font-family="Menlo-Regular" font-size="23.0" fill="#C81B13" transform="matrix(1.00, 0.00, -0.00, -1.00, 310.7, 193.0)">)</text><text xml:space="preserve" font-family="Menlo-Regular" font-size="23.0" fill="#C81B13" transform="matrix(1.00, 0.00, -0.00, -1.00, 324.5, 193.0)">"</text><text xml:space="preserve" font-family="Menlo-Regular" font-size="23.0" fill="#000000" transform="matrix(1.00, 0.00, -0.00, -1.00, 338.3, 193.0)"> </text><text xml:space="preserve" font-family="Menlo-Regular" font-size="23.0" fill="#000000" transform="matrix(1.00, 0.00, -0.00, -1.00, 352.2, 193.0)">&gt;</text><text xml:space="preserve" font-family="Menlo-Regular" font-size="23.0" fill="#000000" transform="matrix(1.00, 0.00, -0.00, -1.00, 366.0, 193.0)">&gt;</text><text xml:space="preserve" font-family="Menlo-Regular" font-size="23.0" fill="#000000" transform="matrix(1.00, 0.00, -0.00, -1.00, 379.9, 193.0)"> </text><text xml:space="preserve" font-family="Menlo-Regular" font-size="23.0" fill="#C81B13" transform="matrix(1.00, 0.00, -0.00, -1.00, 393.7, 193.0)">"</text><text xml:space="preserve" font-family="Menlo-Regular" font-size="23.0" fill="#C81B13" transform="matrix(1.00, 0.00, -0.00, -1.00, 407.6, 193.0)">$</text><text xml:space="preserve" font-family="Menlo-Regular" font-size="23.0" fill="#C81B13" transform="matrix(1.00, 0.00, -0.00, -1.00, 421.4, 193.0)">{</text><text xml:space="preserve" font-family="Menlo-Regular" font-size="23.0" fill="#C81B13" transform="matrix(1.00, 0.00, -0.00, -1.00, 435.3, 193.0)">D</text><text xml:space="preserve" font-family="Menlo-Regular" font-size="23.0" fill="#C81B13" transform="matrix(1.00, 0.00, -0.00, -1.00, 449.1, 193.0)">V</text><text xml:space="preserve" font-family="Menlo-Regular" font-size="23.0" fill="#C81B13" transform="matrix(1.00, 0.00, -0.00, -1.00, 463.0, 193.0)">C</text><text xml:space="preserve" font-family="Menlo-Regular" font-size="23.0" fill="#C81B13" transform="matrix(1.00, 0.00, -0.00, -1.00, 476.8, 193.0)">S</text><text xml:space="preserve" font-family="Menlo-Regular" font-size="23.0" fill="#C81B13" transform="matrix(1.00, 0.00, -0.00, -1.00, 490.7, 193.0)">H</text><text xml:space="preserve" font-family="Menlo-Regular" font-size="23.0" fill="#C81B13" transform="matrix(1.00, 0.00, -0.00, -1.00, 504.5, 193.0)">}</text><text xml:space="preserve" font-family="Menlo-Regular" font-size="23.0" fill="#C81B13" transform="matrix(1.00, 0.00, -0.00, -1.00, 518.4, 193.0)">/</text><text xml:space="preserve" font-family="Menlo-Regular" font-size="23.0" fill="#C81B13" transform="matrix(1.00, 0.00, -0.00, -1.00, 532.2, 193.0)">c</text><text xml:space="preserve" font-family="Menlo-Regular" font-size="23.0" fill="#C81B13" transform="matrix(1.00, 0.00, -0.00, -1.00, 546.1, 193.0)">o</text><text xml:space="preserve" font-family="Menlo-Regular" font-size="23.0" fill="#C81B13" transform="matrix(1.00, 0.00, -0.00, -1.00, 559.9, 193.0)">m</text><text xml:space="preserve" font-family="Menlo-Regular" font-size="23.0" fill="#C81B13" transform="matrix(1.00, 0.00, -0.00, -1.00, 573.8, 193.0)">m</text><text xml:space="preserve" font-family="Menlo-Regular" font-size="23.0" fill="#C81B13" transform="matrix(1.00, 0.00, -0.00, -1.00, 587.6, 193.0)">i</text><text xml:space="preserve" font-family="Menlo-Regular" font-size="23.0" fill="#C81B13" transform="matrix(1.00, 0.00, -0.00, -1.00, 601.5, 193.0)">t</text><text xml:space="preserve" font-family="Menlo-Regular" font-size="23.0" fill="#C81B13" transform="matrix(1.00, 0.00, -0.00, -1.00, 615.3, 193.0)">.</text><text xml:space="preserve" font-family="Menlo-Regular" font-size="23.0" fill="#C81B13" transform="matrix(1.00, 0.00, -0.00, -1.00, 629.2, 193.0)">l</text><text xml:space="preserve" font-family="Menlo-Regular" font-size="23.0" fill="#C81B13" transform="matrix(1.00, 0.00, -0.00, -1.00, 643.0, 193.0)">a</text><text xml:space="preserve" font-family="Menlo-Regular" font-size="23.0" fill="#C81B13" transform="matrix(1.00, 0.00, -0.00, -1.00, 656.9, 193.0)">s</text><text xml:space="preserve" font-family="Menlo-Regular" font-size="23.0" fill="#C81B13" transform="matrix(1.00, 0.00, -0.00, -1.00, 670.7, 193.0)">t</text><text xml:space="preserve" font-family="Menlo-Regular" font-size="23.0" fill="#C81B13" transform="matrix(1.00, 0.00, -0.00, -1.00, 684.6, 193.0)">"</text><text xml:space="preserve" font-family="Menlo-Regular" font-size="23.0" fill="#000000" transform="matrix(1.00, 0.00, -0.00, -1.00, 698.4, 193.0)">;</text><text xml:space="preserve" font-family="Menlo-Regular" font-size="23.0" fill="#000000" transform="matrix(1.00, 0.00, -0.00, -1.00, 712.2, 193.0)"> </text><text xml:space="preserve" font-family="Menlo-Regular" font-size="23.0" fill="#000000" transform="matrix(1.00, 0.00, -0.00, -1.00, 6.0, 141.0)"> </text><text xml:space="preserve" font-family="Menlo-Regular" font-size="23.0" fill="#000000" transform="matrix(1.00, 0.00, -0.00, -1.00, 19.8, 141.0)"> </text><text xml:space="preserve" font-family="Menlo-Regular" font-size="23.0" fill="#000000" transform="matrix(1.00, 0.00, -0.00, -1.00, 33.7, 141.0)"> </text><text xml:space="preserve" font-family="Menlo-Regular" font-size="23.0" fill="#000000" transform="matrix(1.00, 0.00, -0.00, -1.00, 47.5, 141.0)"> </text><text xml:space="preserve" font-family="Menlo-Regular" font-size="23.0" fill="#C32275" transform="matrix(1.00, 0.00, -0.00, -1.00, 61.4, 141.0)">i</text><text xml:space="preserve" font-family="Menlo-Regular" font-size="23.0" fill="#C32275" transform="matrix(1.00, 0.00, -0.00, -1.00, 75.2, 141.0)">f</text><text xml:space="preserve" font-family="Menlo-Regular" font-size="23.0" fill="#000000" transform="matrix(1.00, 0.00, -0.00, -1.00, 89.1, 141.0)"> </text><text xml:space="preserve" font-family="Menlo-Regular" font-size="23.0" fill="#000000" transform="matrix(1.00, 0.00, -0.00, -1.00, 102.9, 141.0)">[</text><text xml:space="preserve" font-family="Menlo-Regular" font-size="23.0" fill="#000000" transform="matrix(1.00, 0.00, -0.00, -1.00, 116.8, 141.0)"> </text><text xml:space="preserve" font-family="Menlo-Regular" font-size="23.0" fill="#000000" transform="matrix(1.00, 0.00, -0.00, -1.00, 130.6, 141.0)">-</text><text xml:space="preserve" font-family="Menlo-Regular" font-size="23.0" fill="#000000" transform="matrix(1.00, 0.00, -0.00, -1.00, 144.5, 141.0)">f</text><text xml:space="preserve" font-family="Menlo-Regular" font-size="23.0" fill="#000000" transform="matrix(1.00, 0.00, -0.00, -1.00, 158.3, 141.0)"> </text><text xml:space="preserve" font-family="Menlo-Regular" font-size="23.0" fill="#C81B13" transform="matrix(1.00, 0.00, -0.00, -1.00, 172.2, 141.0)">"</text><text xml:space="preserve" font-family="Menlo-Regular" font-size="23.0" fill="#C81B13" transform="matrix(1.00, 0.00, -0.00, -1.00, 186.0, 141.0)">$</text><text xml:space="preserve" font-family="Menlo-Regular" font-size="23.0" fill="#C81B13" transform="matrix(1.00, 0.00, -0.00, -1.00, 199.9, 141.0)">{</text><text xml:space="preserve" font-family="Menlo-Regular" font-size="23.0" fill="#C81B13" transform="matrix(1.00, 0.00, -0.00, -1.00, 213.7, 141.0)">D</text><text xml:space="preserve" font-family="Menlo-Regular" font-size="23.0" fill="#C81B13" transform="matrix(1.00, 0.00, -0.00, -1.00, 227.6, 141.0)">V</text><text xml:space="preserve" font-family="Menlo-Regular" font-size="23.0" fill="#C81B13" transform="matrix(1.00, 0.00, -0.00, -1.00, 241.4, 141.0)">C</text><text xml:space="preserve" font-family="Menlo-Regular" font-size="23.0" fill="#C81B13" transform="matrix(1.00, 0.00, -0.00, -1.00, 255.3, 141.0)">S</text><text xml:space="preserve" font-family="Menlo-Regular" font-size="23.0" fill="#C81B13" transform="matrix(1.00, 0.00, -0.00, -1.00, 269.1, 141.0)">H</text><text xml:space="preserve" font-family="Menlo-Regular" font-size="23.0" fill="#C81B13" transform="matrix(1.00, 0.00, -0.00, -1.00, 283.0, 141.0)">}</text><text xml:space="preserve" font-family="Menlo-Regular" font-size="23.0" fill="#C81B13" transform="matrix(1.00, 0.00, -0.00, -1.00, 296.8, 141.0)">/</text><text xml:space="preserve" font-family="Menlo-Regular" font-size="23.0" fill="#C81B13" transform="matrix(1.00, 0.00, -0.00, -1.00, 310.7, 141.0)">H</text><text xml:space="preserve" font-family="Menlo-Regular" font-size="23.0" fill="#C81B13" transform="matrix(1.00, 0.00, -0.00, -1.00, 324.5, 141.0)">E</text><text xml:space="preserve" font-family="Menlo-Regular" font-size="23.0" fill="#C81B13" transform="matrix(1.00, 0.00, -0.00, -1.00, 338.4, 141.0)">A</text><text xml:space="preserve" font-family="Menlo-Regular" font-size="23.0" fill="#C81B13" transform="matrix(1.00, 0.00, -0.00, -1.00, 352.2, 141.0)">D</text><text xml:space="preserve" font-family="Menlo-Regular" font-size="23.0" fill="#C81B13" transform="matrix(1.00, 0.00, -0.00, -1.00, 366.1, 141.0)">"</text><text xml:space="preserve" font-family="Menlo-Regular" font-size="23.0" fill="#000000" transform="matrix(1.00, 0.00, -0.00, -1.00, 379.9, 141.0)"> </text><text xml:space="preserve" font-family="Menlo-Regular" font-size="23.0" fill="#000000" transform="matrix(1.00, 0.00, -0.00, -1.00, 393.7, 141.0)">]</text><text xml:space="preserve" font-family="Menlo-Regular" font-size="23.0" fill="#000000" transform="matrix(1.00, 0.00, -0.00, -1.00, 407.6, 141.0)">;</text><text xml:space="preserve" font-family="Menlo-Regular" font-size="23.0" fill="#000000" transform="matrix(1.00, 0.00, -0.00, -1.00, 421.4, 141.0)"> </text><text xml:space="preserve" font-family="Menlo-Regular" font-size="23.0" fill="#C32275" transform="matrix(1.00, 0.00, -0.00, -1.00, 435.3, 141.0)">t</text><text xml:space="preserve" font-family="Menlo-Regular" font-size="23.0" fill="#C32275" transform="matrix(1.00, 0.00, -0.00, -1.00, 449.1, 141.0)">h</text><text xml:space="preserve" font-family="Menlo-Regular" font-size="23.0" fill="#C32275" transform="matrix(1.00, 0.00, -0.00, -1.00, 463.0, 141.0)">e</text><text xml:space="preserve" font-family="Menlo-Regular" font-size="23.0" fill="#C32275" transform="matrix(1.00, 0.00, -0.00, -1.00, 476.8, 141.0)">n</text><text xml:space="preserve" font-family="Menlo-Regular" font-size="23.0" fill="#000000" transform="matrix(1.00, 0.00, -0.00, -1.00, 490.7, 141.0)"> </text><text xml:space="preserve" font-family="Menlo-Regular" font-size="23.0" fill="#000000" transform="matrix(1.00, 0.00, -0.00, -1.00, 6.0, 115.0)"> </text><text xml:space="preserve" font-family="Menlo-Regular" font-size="23.0" fill="#000000" transform="matrix(1.00, 0.00, -0.00, -1.00, 19.8, 115.0)"> </text><text xml:space="preserve" font-family="Menlo-Regular" font-size="23.0" fill="#000000" transform="matrix(1.00, 0.00, -0.00, -1.00, 33.7, 115.0)"> </text><text xml:space="preserve" font-family="Menlo-Regular" font-size="23.0" fill="#000000" transform="matrix(1.00, 0.00, -0.00, -1.00, 47.5, 115.0)"> </text><text xml:space="preserve" font-family="Menlo-Regular" font-size="23.0" fill="#000000" transform="matrix(1.00, 0.00, -0.00, -1.00, 61.4, 115.0)"> </text><text xml:space="preserve" font-family="Menlo-Regular" font-size="23.0" fill="#000000" transform="matrix(1.00, 0.00, -0.00, -1.00, 75.2, 115.0)"> </text><text xml:space="preserve" font-family="Menlo-Regular" font-size="23.0" fill="#000000" transform="matrix(1.00, 0.00, -0.00, -1.00, 89.1, 115.0)"> </text><text xml:space="preserve" font-family="Menlo-Regular" font-size="23.0" fill="#000000" transform="matrix(1.00, 0.00, -0.00, -1.00, 102.9, 115.0)"> </text><text xml:space="preserve" font-family="Menlo-Regular" font-size="23.0" fill="#000000" transform="matrix(1.00, 0.00, -0.00, -1.00, 116.8, 115.0)">e</text><text xml:space="preserve" font-family="Menlo-Regular" font-size="23.0" fill="#000000" transform="matrix(1.00, 0.00, -0.00, -1.00, 130.6, 115.0)">c</text><text xml:space="preserve" font-family="Menlo-Regular" font-size="23.0" fill="#000000" transform="matrix(1.00, 0.00, -0.00, -1.00, 144.5, 115.0)">h</text><text xml:space="preserve" font-family="Menlo-Regular" font-size="23.0" fill="#000000" transform="matrix(1.00, 0.00, -0.00, -1.00, 158.3, 115.0)">o</text><text xml:space="preserve" font-family="Menlo-Regular" font-size="23.0" fill="#000000" transform="matrix(1.00, 0.00, -0.00, -1.00, 172.2, 115.0)"> </text><text xml:space="preserve" font-family="Menlo-Regular" font-size="23.0" fill="#C81B13" transform="matrix(1.00, 0.00, -0.00, -1.00, 186.0, 115.0)">"</text><text xml:space="preserve" font-family="Menlo-Regular" font-size="23.0" fill="#C81B13" transform="matrix(1.00, 0.00, -0.00, -1.00, 199.9, 115.0)">p</text><text xml:space="preserve" font-family="Menlo-Regular" font-size="23.0" fill="#C81B13" transform="matrix(1.00, 0.00, -0.00, -1.00, 213.7, 115.0)">a</text><text xml:space="preserve" font-family="Menlo-Regular" font-size="23.0" fill="#C81B13" transform="matrix(1.00, 0.00, -0.00, -1.00, 227.6, 115.0)">r</text><text xml:space="preserve" font-family="Menlo-Regular" font-size="23.0" fill="#C81B13" transform="matrix(1.00, 0.00, -0.00, -1.00, 241.4, 115.0)">e</text><text xml:space="preserve" font-family="Menlo-Regular" font-size="23.0" fill="#C81B13" transform="matrix(1.00, 0.00, -0.00, -1.00, 255.3, 115.0)">n</text><text xml:space="preserve" font-family="Menlo-Regular" font-size="23.0" fill="#C81B13" transform="matrix(1.00, 0.00, -0.00, -1.00, 269.1, 115.0)">t</text><text xml:space="preserve" font-family="Menlo-Regular" font-size="23.0" fill="#C81B13" transform="matrix(1.00, 0.00, -0.00, -1.00, 283.0, 115.0)">:</text><text xml:space="preserve" font-family="Menlo-Regular" font-size="23.0" fill="#C81B13" transform="matrix(1.00, 0.00, -0.00, -1.00, 296.8, 115.0)"> </text><text xml:space="preserve" font-family="Menlo-Regular" font-size="23.0" fill="#C81B13" transform="matrix(1.00, 0.00, -0.00, -1.00, 310.7, 115.0)">$</text><text xml:space="preserve" font-family="Menlo-Regular" font-size="23.0" fill="#C81B13" transform="matrix(1.00, 0.00, -0.00, -1.00, 324.5, 115.0)">(</text><text xml:space="preserve" font-family="Menlo-Regular" font-size="23.0" fill="#C81B13" transform="matrix(1.00, 0.00, -0.00, -1.00, 338.4, 115.0)">c</text><text xml:space="preserve" font-family="Menlo-Regular" font-size="23.0" fill="#C81B13" transform="matrix(1.00, 0.00, -0.00, -1.00, 352.2, 115.0)">a</text><text xml:space="preserve" font-family="Menlo-Regular" font-size="23.0" fill="#C81B13" transform="matrix(1.00, 0.00, -0.00, -1.00, 366.1, 115.0)">t</text><text xml:space="preserve" font-family="Menlo-Regular" font-size="23.0" fill="#C81B13" transform="matrix(1.00, 0.00, -0.00, -1.00, 379.9, 115.0)"> </text><text xml:space="preserve" font-family="Menlo-Regular" font-size="23.0" fill="#C81B13" transform="matrix(1.00, 0.00, -0.00, -1.00, 393.8, 115.0)">"</text><text xml:space="preserve" font-family="Menlo-Regular" font-size="23.0" fill="#000000" transform="matrix(1.00, 0.00, -0.00, -1.00, 407.6, 115.0)">$</text><text xml:space="preserve" font-family="Menlo-Regular" font-size="23.0" fill="#000000" transform="matrix(1.00, 0.00, -0.00, -1.00, 421.4, 115.0)">{</text><text xml:space="preserve" font-family="Menlo-Regular" font-size="23.0" fill="#000000" transform="matrix(1.00, 0.00, -0.00, -1.00, 435.3, 115.0)">D</text><text xml:space="preserve" font-family="Menlo-Regular" font-size="23.0" fill="#000000" transform="matrix(1.00, 0.00, -0.00, -1.00, 449.1, 115.0)">V</text><text xml:space="preserve" font-family="Menlo-Regular" font-size="23.0" fill="#000000" transform="matrix(1.00, 0.00, -0.00, -1.00, 463.0, 115.0)">C</text><text xml:space="preserve" font-family="Menlo-Regular" font-size="23.0" fill="#000000" transform="matrix(1.00, 0.00, -0.00, -1.00, 476.8, 115.0)">S</text><text xml:space="preserve" font-family="Menlo-Regular" font-size="23.0" fill="#000000" transform="matrix(1.00, 0.00, -0.00, -1.00, 490.7, 115.0)">H</text><text xml:space="preserve" font-family="Menlo-Regular" font-size="23.0" fill="#000000" transform="matrix(1.00, 0.00, -0.00, -1.00, 504.5, 115.0)">}</text><text xml:space="preserve" font-family="Menlo-Regular" font-size="23.0" fill="#000000" transform="matrix(1.00, 0.00, -0.00, -1.00, 518.4, 115.0)">/</text><text xml:space="preserve" font-family="Menlo-Regular" font-size="23.0" fill="#000000" transform="matrix(1.00, 0.00, -0.00, -1.00, 532.2, 115.0)">H</text><text xml:space="preserve" font-family="Menlo-Regular" font-size="23.0" fill="#000000" transform="matrix(1.00, 0.00, -0.00, -1.00, 546.1, 115.0)">E</text><text xml:space="preserve" font-family="Menlo-Regular" font-size="23.0" fill="#000000" transform="matrix(1.00, 0.00, -0.00, -1.00, 559.9, 115.0)">A</text><text xml:space="preserve" font-family="Menlo-Regular" font-size="23.0" fill="#000000" transform="matrix(1.00, 0.00, -0.00, -1.00, 573.8, 115.0)">D</text><text xml:space="preserve" font-family="Menlo-Regular" font-size="23.0" fill="#C81B13" transform="matrix(1.00, 0.00, -0.00, -1.00, 587.6, 115.0)">"</text><text xml:space="preserve" font-family="Menlo-Regular" font-size="23.0" fill="#C81B13" transform="matrix(1.00, 0.00, -0.00, -1.00, 601.4, 115.0)">)</text><text xml:space="preserve" font-family="Menlo-Regular" font-size="23.0" fill="#C81B13" transform="matrix(1.00, 0.00, -0.00, -1.00, 615.3, 115.0)">"</text><text xml:space="preserve" font-family="Menlo-Regular" font-size="23.0" fill="#000000" transform="matrix(1.00, 0.00, -0.00, -1.00, 629.1, 115.0)"> </text><text xml:space="preserve" font-family="Menlo-Regular" font-size="23.0" fill="#000000" transform="matrix(1.00, 0.00, -0.00, -1.00, 643.0, 115.0)">\</text><text xml:space="preserve" font-family="Menlo-Regular" font-size="23.0" fill="#000000" transform="matrix(1.00, 0.00, -0.00, -1.00, 656.8, 115.0)"> </text><text xml:space="preserve" font-family="Menlo-Regular" font-size="23.0" fill="#000000" transform="matrix(1.00, 0.00, -0.00, -1.00, 6.0, 89.0)"> </text><text xml:space="preserve" font-family="Menlo-Regular" font-size="23.0" fill="#000000" transform="matrix(1.00, 0.00, -0.00, -1.00, 19.8, 89.0)"> </text><text xml:space="preserve" font-family="Menlo-Regular" font-size="23.0" fill="#000000" transform="matrix(1.00, 0.00, -0.00, -1.00, 33.7, 89.0)"> </text><text xml:space="preserve" font-family="Menlo-Regular" font-size="23.0" fill="#000000" transform="matrix(1.00, 0.00, -0.00, -1.00, 47.5, 89.0)"> </text><text xml:space="preserve" font-family="Menlo-Regular" font-size="23.0" fill="#000000" transform="matrix(1.00, 0.00, -0.00, -1.00, 61.4, 89.0)"> </text><text xml:space="preserve" font-family="Menlo-Regular" font-size="23.0" fill="#000000" transform="matrix(1.00, 0.00, -0.00, -1.00, 75.2, 89.0)"> </text><text xml:space="preserve" font-family="Menlo-Regular" font-size="23.0" fill="#000000" transform="matrix(1.00, 0.00, -0.00, -1.00, 89.1, 89.0)"> </text><text xml:space="preserve" font-family="Menlo-Regular" font-size="23.0" fill="#000000" transform="matrix(1.00, 0.00, -0.00, -1.00, 102.9, 89.0)"> </text><text xml:space="preserve" font-family="Menlo-Regular" font-size="23.0" fill="#000000" transform="matrix(1.00, 0.00, -0.00, -1.00, 116.8, 89.0)"> </text><text xml:space="preserve" font-family="Menlo-Regular" font-size="23.0" fill="#000000" transform="matrix(1.00, 0.00, -0.00, -1.00, 130.6, 89.0)"> </text><text xml:space="preserve" font-family="Menlo-Regular" font-size="23.0" fill="#000000" transform="matrix(1.00, 0.00, -0.00, -1.00, 144.5, 89.0)"> </text><text xml:space="preserve" font-family="Menlo-Regular" font-size="23.0" fill="#000000" transform="matrix(1.00, 0.00, -0.00, -1.00, 158.3, 89.0)"> </text><text xml:space="preserve" font-family="Menlo-Regular" font-size="23.0" fill="#000000" transform="matrix(1.00, 0.00, -0.00, -1.00, 172.2, 89.0)">&gt;</text><text xml:space="preserve" font-family="Menlo-Regular" font-size="23.0" fill="#000000" transform="matrix(1.00, 0.00, -0.00, -1.00, 186.0, 89.0)">&gt;</text><text xml:space="preserve" font-family="Menlo-Regular" font-size="23.0" fill="#000000" transform="matrix(1.00, 0.00, -0.00, -1.00, 199.9, 89.0)"> </text><text xml:space="preserve" font-family="Menlo-Regular" font-size="23.0" fill="#C81B13" transform="matrix(1.00, 0.00, -0.00, -1.00, 213.7, 89.0)">"</text><text xml:space="preserve" font-family="Menlo-Regular" font-size="23.0" fill="#C81B13" transform="matrix(1.00, 0.00, -0.00, -1.00, 227.6, 89.0)">$</text><text xml:space="preserve" font-family="Menlo-Regular" font-size="23.0" fill="#C81B13" transform="matrix(1.00, 0.00, -0.00, -1.00, 241.4, 89.0)">{</text><text xml:space="preserve" font-family="Menlo-Regular" font-size="23.0" fill="#C81B13" transform="matrix(1.00, 0.00, -0.00, -1.00, 255.3, 89.0)">D</text><text xml:space="preserve" font-family="Menlo-Regular" font-size="23.0" fill="#C81B13" transform="matrix(1.00, 0.00, -0.00, -1.00, 269.1, 89.0)">V</text><text xml:space="preserve" font-family="Menlo-Regular" font-size="23.0" fill="#C81B13" transform="matrix(1.00, 0.00, -0.00, -1.00, 283.0, 89.0)">C</text><text xml:space="preserve" font-family="Menlo-Regular" font-size="23.0" fill="#C81B13" transform="matrix(1.00, 0.00, -0.00, -1.00, 296.8, 89.0)">S</text><text xml:space="preserve" font-family="Menlo-Regular" font-size="23.0" fill="#C81B13" transform="matrix(1.00, 0.00, -0.00, -1.00, 310.7, 89.0)">H</text><text xml:space="preserve" font-family="Menlo-Regular" font-size="23.0" fill="#C81B13" transform="matrix(1.00, 0.00, -0.00, -1.00, 324.5, 89.0)">}</text><text xml:space="preserve" font-family="Menlo-Regular" font-size="23.0" fill="#C81B13" transform="matrix(1.00, 0.00, -0.00, -1.00, 338.4, 89.0)">/</text><text xml:space="preserve" font-family="Menlo-Regular" font-size="23.0" fill="#C81B13" transform="matrix(1.00, 0.00, -0.00, -1.00, 352.2, 89.0)">c</text><text xml:space="preserve" font-family="Menlo-Regular" font-size="23.0" fill="#C81B13" transform="matrix(1.00, 0.00, -0.00, -1.00, 366.1, 89.0)">o</text><text xml:space="preserve" font-family="Menlo-Regular" font-size="23.0" fill="#C81B13" transform="matrix(1.00, 0.00, -0.00, -1.00, 379.9, 89.0)">m</text><text xml:space="preserve" font-family="Menlo-Regular" font-size="23.0" fill="#C81B13" transform="matrix(1.00, 0.00, -0.00, -1.00, 393.8, 89.0)">m</text><text xml:space="preserve" font-family="Menlo-Regular" font-size="23.0" fill="#C81B13" transform="matrix(1.00, 0.00, -0.00, -1.00, 407.6, 89.0)">i</text><text xml:space="preserve" font-family="Menlo-Regular" font-size="23.0" fill="#C81B13" transform="matrix(1.00, 0.00, -0.00, -1.00, 421.4, 89.0)">t</text><text xml:space="preserve" font-family="Menlo-Regular" font-size="23.0" fill="#C81B13" transform="matrix(1.00, 0.00, -0.00, -1.00, 435.3, 89.0)">.</text><text xml:space="preserve" font-family="Menlo-Regular" font-size="23.0" fill="#C81B13" transform="matrix(1.00, 0.00, -0.00, -1.00, 449.1, 89.0)">l</text><text xml:space="preserve" font-family="Menlo-Regular" font-size="23.0" fill="#C81B13" transform="matrix(1.00, 0.00, -0.00, -1.00, 463.0, 89.0)">a</text><text xml:space="preserve" font-family="Menlo-Regular" font-size="23.0" fill="#C81B13" transform="matrix(1.00, 0.00, -0.00, -1.00, 476.8, 89.0)">s</text><text xml:space="preserve" font-family="Menlo-Regular" font-size="23.0" fill="#C81B13" transform="matrix(1.00, 0.00, -0.00, -1.00, 490.7, 89.0)">t</text><text xml:space="preserve" font-family="Menlo-Regular" font-size="23.0" fill="#C81B13" transform="matrix(1.00, 0.00, -0.00, -1.00, 504.5, 89.0)">"</text><text xml:space="preserve" font-family="Menlo-Regular" font-size="23.0" fill="#000000" transform="matrix(1.00, 0.00, -0.00, -1.00, 518.3, 89.0)">;</text><text xml:space="preserve" font-family="Menlo-Regular" font-size="23.0" fill="#000000" transform="matrix(1.00, 0.00, -0.00, -1.00, 532.2, 89.0)"> </text><text xml:space="preserve" font-family="Menlo-Regular" font-size="23.0" fill="#000000" transform="matrix(1.00, 0.00, -0.00, -1.00, 6.0, 63.0)"> </text><text xml:space="preserve" font-family="Menlo-Regular" font-size="23.0" fill="#000000" transform="matrix(1.00, 0.00, -0.00, -1.00, 19.8, 63.0)"> </text><text xml:space="preserve" font-family="Menlo-Regular" font-size="23.0" fill="#000000" transform="matrix(1.00, 0.00, -0.00, -1.00, 33.7, 63.0)"> </text><text xml:space="preserve" font-family="Menlo-Regular" font-size="23.0" fill="#000000" transform="matrix(1.00, 0.00, -0.00, -1.00, 47.5, 63.0)"> </text><text xml:space="preserve" font-family="Menlo-Regular" font-size="23.0" fill="#C32275" transform="matrix(1.00, 0.00, -0.00, -1.00, 61.4, 63.0)">f</text><text xml:space="preserve" font-family="Menlo-Regular" font-size="23.0" fill="#C32275" transform="matrix(1.00, 0.00, -0.00, -1.00, 75.2, 63.0)">i</text><text xml:space="preserve" font-family="Menlo-Regular" font-size="23.0" fill="#000000" transform="matrix(1.00, 0.00, -0.00, -1.00, 89.1, 63.0)"> </text><text xml:space="preserve" font-family="Menlo-Regular" font-size="23.0" fill="#000000" transform="matrix(1.00, 0.00, -0.00, -1.00, 6.0, 11.0)"> </text><text xml:space="preserve" font-family="Menlo-Regular" font-size="23.0" fill="#000000" transform="matrix(1.00, 0.00, -0.00, -1.00, 19.8, 11.0)"> </text><text xml:space="preserve" font-family="Menlo-Regular" font-size="23.0" fill="#000000" transform="matrix(1.00, 0.00, -0.00, -1.00, 33.7, 11.0)"> </text><text xml:space="preserve" font-family="Menlo-Regular" font-size="23.0" fill="#000000" transform="matrix(1.00, 0.00, -0.00, -1.00, 47.5, 11.0)"> </text><text xml:space="preserve" font-family="Menlo-Regular" font-size="23.0" fill="#000000" transform="matrix(1.00, 0.00, -0.00, -1.00, 61.4, 11.0)">e</text><text xml:space="preserve" font-family="Menlo-Regular" font-size="23.0" fill="#000000" transform="matrix(1.00, 0.00, -0.00, -1.00, 75.2, 11.0)">c</text><text xml:space="preserve" font-family="Menlo-Regular" font-size="23.0" fill="#000000" transform="matrix(1.00, 0.00, -0.00, -1.00, 89.1, 11.0)">h</text><text xml:space="preserve" font-family="Menlo-Regular" font-size="23.0" fill="#000000" transform="matrix(1.00, 0.00, -0.00, -1.00, 102.9, 11.0)">o</text><text xml:space="preserve" font-family="Menlo-Regular" font-size="23.0" fill="#000000" transform="matrix(1.00, 0.00, -0.00, -1.00, 116.8, 11.0)"> </text><text xml:space="preserve" font-family="Menlo-Regular" font-size="23.0" fill="#C81B13" transform="matrix(1.00, 0.00, -0.00, -1.00, 130.6, 11.0)">"</text><text xml:space="preserve" font-family="Menlo-Regular" font-size="23.0" fill="#C81B13" transform="matrix(1.00, 0.00, -0.00, -1.00, 144.5, 11.0)">c</text><text xml:space="preserve" font-family="Menlo-Regular" font-size="23.0" fill="#C81B13" transform="matrix(1.00, 0.00, -0.00, -1.00, 158.3, 11.0)">o</text><text xml:space="preserve" font-family="Menlo-Regular" font-size="23.0" fill="#C81B13" transform="matrix(1.00, 0.00, -0.00, -1.00, 172.2, 11.0)">m</text><text xml:space="preserve" font-family="Menlo-Regular" font-size="23.0" fill="#C81B13" transform="matrix(1.00, 0.00, -0.00, -1.00, 186.0, 11.0)">m</text><text xml:space="preserve" font-family="Menlo-Regular" font-size="23.0" fill="#C81B13" transform="matrix(1.00, 0.00, -0.00, -1.00, 199.9, 11.0)">e</text><text xml:space="preserve" font-family="Menlo-Regular" font-size="23.0" fill="#C81B13" transform="matrix(1.00, 0.00, -0.00, -1.00, 213.7, 11.0)">n</text><text xml:space="preserve" font-family="Menlo-Regular" font-size="23.0" fill="#C81B13" transform="matrix(1.00, 0.00, -0.00, -1.00, 227.6, 11.0)">t</text><text xml:space="preserve" font-family="Menlo-Regular" font-size="23.0" fill="#C81B13" transform="matrix(1.00, 0.00, -0.00, -1.00, 241.4, 11.0)">:</text><text xml:space="preserve" font-family="Menlo-Regular" font-size="23.0" fill="#C81B13" transform="matrix(1.00, 0.00, -0.00, -1.00, 255.3, 11.0)"> </text><text xml:space="preserve" font-family="Menlo-Regular" font-size="23.0" fill="#C81B13" transform="matrix(1.00, 0.00, -0.00, -1.00, 269.1, 11.0)">$</text><text xml:space="preserve" font-family="Menlo-Regular" font-size="23.0" fill="#C81B13" transform="matrix(1.00, 0.00, -0.00, -1.00, 283.0, 11.0)">{</text><text xml:space="preserve" font-family="Menlo-Regular" font-size="23.0" fill="#C81B13" transform="matrix(1.00, 0.00, -0.00, -1.00, 296.8, 11.0)">1</text><text xml:space="preserve" font-family="Menlo-Regular" font-size="23.0" fill="#C81B13" transform="matrix(1.00, 0.00, -0.00, -1.00, 310.7, 11.0)">:</text><text xml:space="preserve" font-family="Menlo-Regular" font-size="23.0" fill="#C81B13" transform="matrix(1.00, 0.00, -0.00, -1.00, 324.5, 11.0)">-</text><text xml:space="preserve" font-family="Menlo-Regular" font-size="23.0" fill="#C81B13" transform="matrix(1.00, 0.00, -0.00, -1.00, 338.4, 11.0)">(</text><text xml:space="preserve" font-family="Menlo-Regular" font-size="23.0" fill="#C81B13" transform="matrix(1.00, 0.00, -0.00, -1.00, 352.2, 11.0)">n</text><text xml:space="preserve" font-family="Menlo-Regular" font-size="23.0" fill="#C81B13" transform="matrix(1.00, 0.00, -0.00, -1.00, 366.1, 11.0)">o</text><text xml:space="preserve" font-family="Menlo-Regular" font-size="23.0" fill="#C81B13" transform="matrix(1.00, 0.00, -0.00, -1.00, 379.9, 11.0)"> </text><text xml:space="preserve" font-family="Menlo-Regular" font-size="23.0" fill="#C81B13" transform="matrix(1.00, 0.00, -0.00, -1.00, 393.8, 11.0)">c</text><text xml:space="preserve" font-family="Menlo-Regular" font-size="23.0" fill="#C81B13" transform="matrix(1.00, 0.00, -0.00, -1.00, 407.6, 11.0)">o</text><text xml:space="preserve" font-family="Menlo-Regular" font-size="23.0" fill="#C81B13" transform="matrix(1.00, 0.00, -0.00, -1.00, 421.5, 11.0)">m</text><text xml:space="preserve" font-family="Menlo-Regular" font-size="23.0" fill="#C81B13" transform="matrix(1.00, 0.00, -0.00, -1.00, 435.3, 11.0)">m</text><text xml:space="preserve" font-family="Menlo-Regular" font-size="23.0" fill="#C81B13" transform="matrix(1.00, 0.00, -0.00, -1.00, 449.2, 11.0)">e</text><text xml:space="preserve" font-family="Menlo-Regular" font-size="23.0" fill="#C81B13" transform="matrix(1.00, 0.00, -0.00, -1.00, 463.0, 11.0)">n</text><text xml:space="preserve" font-family="Menlo-Regular" font-size="23.0" fill="#C81B13" transform="matrix(1.00, 0.00, -0.00, -1.00, 476.9, 11.0)">t</text><text xml:space="preserve" font-family="Menlo-Regular" font-size="23.0" fill="#C81B13" transform="matrix(1.00, 0.00, -0.00, -1.00, 490.7, 11.0)">)</text><text xml:space="preserve" font-family="Menlo-Regular" font-size="23.0" fill="#C81B13" transform="matrix(1.00, 0.00, -0.00, -1.00, 504.6, 11.0)">}</text><text xml:space="preserve" font-family="Menlo-Regular" font-size="23.0" fill="#C81B13" transform="matrix(1.00, 0.00, -0.00, -1.00, 518.4, 11.0)">"</text><text xml:space="preserve" font-family="Menlo-Regular" font-size="23.0" fill="#000000" transform="matrix(1.00, 0.00, -0.00, -1.00, 532.2, 11.0)"> </text><text xml:space="preserve" font-family="Menlo-Regular" font-size="23.0" fill="#000000" transform="matrix(1.00, 0.00, -0.00, -1.00, 546.0, 11.0)">&gt;</text><text xml:space="preserve" font-family="Menlo-Regular" font-size="23.0" fill="#000000" transform="matrix(1.00, 0.00, -0.00, -1.00, 559.9, 11.0)">&gt;</text><text xml:space="preserve" font-family="Menlo-Regular" font-size="23.0" fill="#000000" transform="matrix(1.00, 0.00, -0.00, -1.00, 573.7, 11.0)"> </text><text xml:space="preserve" font-family="Menlo-Regular" font-size="23.0" fill="#C81B13" transform="matrix(1.00, 0.00, -0.00, -1.00, 587.6, 11.0)">"</text><text xml:space="preserve" font-family="Menlo-Regular" font-size="23.0" fill="#C81B13" transform="matrix(1.00, 0.00, -0.00, -1.00, 601.4, 11.0)">$</text><text xml:space="preserve" font-family="Menlo-Regular" font-size="23.0" fill="#C81B13" transform="matrix(1.00, 0.00, -0.00, -1.00, 615.3, 11.0)">{</text><text xml:space="preserve" font-family="Menlo-Regular" font-size="23.0" fill="#C81B13" transform="matrix(1.00, 0.00, -0.00, -1.00, 629.1, 11.0)">D</text><text xml:space="preserve" font-family="Menlo-Regular" font-size="23.0" fill="#C81B13" transform="matrix(1.00, 0.00, -0.00, -1.00, 643.0, 11.0)">V</text><text xml:space="preserve" font-family="Menlo-Regular" font-size="23.0" fill="#C81B13" transform="matrix(1.00, 0.00, -0.00, -1.00, 656.8, 11.0)">C</text><text xml:space="preserve" font-family="Menlo-Regular" font-size="23.0" fill="#C81B13" transform="matrix(1.00, 0.00, -0.00, -1.00, 670.7, 11.0)">S</text><text xml:space="preserve" font-family="Menlo-Regular" font-size="23.0" fill="#C81B13" transform="matrix(1.00, 0.00, -0.00, -1.00, 684.5, 11.0)">H</text><text xml:space="preserve" font-family="Menlo-Regular" font-size="23.0" fill="#C81B13" transform="matrix(1.00, 0.00, -0.00, -1.00, 698.4, 11.0)">}</text><text xml:space="preserve" font-family="Menlo-Regular" font-size="23.0" fill="#C81B13" transform="matrix(1.00, 0.00, -0.00, -1.00, 712.2, 11.0)">/</text><text xml:space="preserve" font-family="Menlo-Regular" font-size="23.0" fill="#C81B13" transform="matrix(1.00, 0.00, -0.00, -1.00, 726.1, 11.0)">c</text><text xml:space="preserve" font-family="Menlo-Regular" font-size="23.0" fill="#C81B13" transform="matrix(1.00, 0.00, -0.00, -1.00, 739.9, 11.0)">o</text><text xml:space="preserve" font-family="Menlo-Regular" font-size="23.0" fill="#C81B13" transform="matrix(1.00, 0.00, -0.00, -1.00, 753.8, 11.0)">m</text><text xml:space="preserve" font-family="Menlo-Regular" font-size="23.0" fill="#C81B13" transform="matrix(1.00, 0.00, -0.00, -1.00, 767.6, 11.0)">m</text><text xml:space="preserve" font-family="Menlo-Regular" font-size="23.0" fill="#C81B13" transform="matrix(1.00, 0.00, -0.00, -1.00, 781.5, 11.0)">i</text><text xml:space="preserve" font-family="Menlo-Regular" font-size="23.0" fill="#C81B13" transform="matrix(1.00, 0.00, -0.00, -1.00, 795.3, 11.0)">t</text><text xml:space="preserve" font-family="Menlo-Regular" font-size="23.0" fill="#C81B13" transform="matrix(1.00, 0.00, -0.00, -1.00, 809.2, 11.0)">.</text><text xml:space="preserve" font-family="Menlo-Regular" font-size="23.0" fill="#C81B13" transform="matrix(1.00, 0.00, -0.00, -1.00, 823.0, 11.0)">l</text><text xml:space="preserve" font-family="Menlo-Regular" font-size="23.0" fill="#C81B13" transform="matrix(1.00, 0.00, -0.00, -1.00, 836.9, 11.0)">a</text><text xml:space="preserve" font-family="Menlo-Regular" font-size="23.0" fill="#C81B13" transform="matrix(1.00, 0.00, -0.00, -1.00, 850.7, 11.0)">s</text><text xml:space="preserve" font-family="Menlo-Regular" font-size="23.0" fill="#C81B13" transform="matrix(1.00, 0.00, -0.00, -1.00, 864.6, 11.0)">t</text><text xml:space="preserve" font-family="Menlo-Regular" font-size="23.0" fill="#C81B13" transform="matrix(1.00, 0.00, -0.00, -1.00, 878.4, 11.0)">"</text></g></g></g></svg>