<?xml version="1.0" encoding="UTF-8" standalone="no"?><svg xmlns="http://www.w3.org/2000/svg" xmlns:xlink="http://www.w3.org/1999/xlink" clip-rule="evenodd" stroke-miterlimit="4.00" viewBox="0 0 573 29"><desc>SVG generated by Keynote</desc><defs></defs><g transform="matrix(1.00, 0.00, -0.00, -1.00, 0.0, 29.0)"><text xml:space="preserve" font-family="Menlo-Regular" font-size="28.0" fill="#000000" transform="matrix(1.00, 0.00, -0.00, -1.00, -1.0, 6.0)">$</text><text xml:space="preserve" font-family="Menlo-Regular" font-size="28.0" fill="#000000" transform="matrix(1.00, 0.00, -0.00, -1.00, 15.9, 6.0)"> </text><text xml:space="preserve" font-family="Menlo-Regular" font-size="28.0" fill="#000000" transform="matrix(1.00, 0.00, -0.00, -1.00, 32.7, 6.0)">e</text><text xml:space="preserve" font-family="Menlo-Regular" font-size="28.0" fill="#000000" transform="matrix(1.00, 0.00, -0.00, -1.00, 49.6, 6.0)">c</text><text xml:space="preserve" font-family="Menlo-Regular" font-size="28.0" fill="#000000" transform="matrix(1.00, 0.00, -0.00, -1.00, 66.4, 6.0)">h</text><text xml:space="preserve" font-family="Menlo-Regular" font-size="28.0" fill="#000000" transform="matrix(1.00, 0.00, -0.00, -1.00, 83.3, 6.0)">o</text><text xml:space="preserve" font-family="Menlo-Regular" font-size="28.0" fill="#000000" transform="matrix(1.00, 0.00, -0.00, -1.00, 100.2, 6.0)"> </text><text xml:space="preserve" font-family="Menlo-Regular" font-size="28.0" fill="#000000" transform="matrix(1.00, 0.00, -0.00, -1.00, 117.0, 6.0)">"</text><text xml:space="preserve" font-family="Menlo-Regular" font-size="28.0" fill="#000000" transform="matrix(1.00, 0.00, -0.00, -1.00, 133.9, 6.0)">b</text><text xml:space="preserve" font-family="Menlo-Regular" font-size="28.0" fill="#000000" transform="matrix(1.00, 0.00, -0.00, -1.00, 150.7, 6.0)">r</text><text xml:space="preserve" font-family="Menlo-Regular" font-size="28.0" fill="#000000" transform="matrix(1.00, 0.00, -0.00, -1.00, 167.6, 6.0)">a</text><text xml:space="preserve" font-family="Menlo-Regular" font-size="28.0" fill="#000000" transform="matrix(1.00, 0.00, -0.00, -1.00, 184.5, 6.0)">n</text><text xml:space="preserve" font-family="Menlo-Regular" font-size="28.0" fill="#000000" transform="matrix(1.00, 0.00, -0.00, -1.00, 201.3, 6.0)">c</text><text xml:space="preserve" font-family="Menlo-Regular" font-size="28.0" fill="#000000" transform="matrix(1.00, 0.00, -0.00, -1.00, 218.2, 6.0)">h</text><text xml:space="preserve" font-family="Menlo-Regular" font-size="28.0" fill="#000000" transform="matrix(1.00, 0.00, -0.00, -1.00, 235.0, 6.0)"> </text><text xml:space="preserve" font-family="Menlo-Regular" font-size="28.0" fill="#000000" transform="matrix(1.00, 0.00, -0.00, -1.00, 251.9, 6.0)">f</text><text xml:space="preserve" font-family="Menlo-Regular" font-size="28.0" fill="#000000" transform="matrix(1.00, 0.00, -0.00, -1.00, 268.8, 6.0)">i</text><text xml:space="preserve" font-family="Menlo-Regular" font-size="28.0" fill="#000000" transform="matrix(1.00, 0.00, -0.00, -1.00, 285.6, 6.0)">l</text><text xml:space="preserve" font-family="Menlo-Regular" font-size="28.0" fill="#000000" transform="matrix(1.00, 0.00, -0.00, -1.00, 302.5, 6.0)">e</text><text xml:space="preserve" font-family="Menlo-Regular" font-size="28.0" fill="#000000" transform="matrix(1.00, 0.00, -0.00, -1.00, 319.3, 6.0)">"</text><text xml:space="preserve" font-family="Menlo-Regular" font-size="28.0" fill="#000000" transform="matrix(1.00, 0.00, -0.00, -1.00, 336.2, 6.0)"> </text><text xml:space="preserve" font-family="Menlo-Regular" font-size="28.0" fill="#000000" transform="matrix(1.00, 0.00, -0.00, -1.00, 353.1, 6.0)">&gt;</text><text xml:space="preserve" font-family="Menlo-Regular" font-size="28.0" fill="#000000" transform="matrix(1.00, 0.00, -0.00, -1.00, 369.9, 6.0)"> </text><text xml:space="preserve" font-family="Menlo-Regular" font-size="28.0" fill="#000000" transform="matrix(1.00, 0.00, -0.00, -1.00, 386.8, 6.0)">b</text><text xml:space="preserve" font-family="Menlo-Regular" font-size="28.0" fill="#000000" transform="matrix(1.00, 0.00, -0.00, -1.00, 403.6, 6.0)">r</text><text xml:space="preserve" font-family="Menlo-Regular" font-size="28.0" fill="#000000" transform="matrix(1.00, 0.00, -0.00, -1.00, 420.5, 6.0)">a</text><text xml:space="preserve" font-family="Menlo-Regular" font-size="28.0" fill="#000000" transform="matrix(1.00, 0.00, -0.00, -1.00, 437.4, 6.0)">n</text><text xml:space="preserve" font-family="Menlo-Regular" font-size="28.0" fill="#000000" transform="matrix(1.00, 0.00, -0.00, -1.00, 454.2, 6.0)">c</text><text xml:space="preserve" font-family="Menlo-Regular" font-size="28.0" fill="#000000" transform="matrix(1.00, 0.00, -0.00, -1.00, 471.1, 6.0)">h</text><text xml:space="preserve" font-family="Menlo-Regular" font-size="28.0" fill="#000000" transform="matrix(1.00, 0.00, -0.00, -1.00, 487.9, 6.0)">-</text><text xml:space="preserve" font-family="Menlo-Regular" font-size="28.0" fill="#000000" transform="matrix(1.00, 0.00, -0.00, -1.00, 504.8, 6.0)">f</text><text xml:space="preserve" font-family="Menlo-Regular" font-size="28.0" fill="#000000" transform="matrix(1.00, 0.00, -0.00, -1.00, 521.7, 6.0)">i</text><text xml:space="preserve" font-family="Menlo-Regular" font-size="28.0" fill="#000000" transform="matrix(1.00, 0.00, -0.00, -1.00, 538.5, 6.0)">l</text><text xml:space="preserve" font-family="Menlo-Regular" font-size="28.0" fill="#000000" transform="matrix(1.00, 0.00, -0.00, -1.00, 555.4, 6.0)">e</text></g></svg>