<?xml version="1.0" encoding="UTF-8" standalone="no"?><svg xmlns="http://www.w3.org/2000/svg" xmlns:xlink="http://www.w3.org/1999/xlink" clip-rule="evenodd" stroke-miterlimit="4.00" viewBox="0 0 293 54"><desc>SVG generated by Keynote</desc><defs></defs><g transform="matrix(1.00, 0.00, -0.00, -1.00, 0.0, 54.0)"><path d="M 1.5 52.2 L 291.3 52.2 L 291.3 1.2 L 1.5 1.2 Z M 1.5 52.2 " fill="#52575F"></path><g><clipPath id="clip-44"><path d="M -3.5 -3.8 L 296.3 -3.8 L 296.3 57.2 L -3.5 57.2 Z M -3.5 -3.8 "></path></clipPath><g clip-path="url(#clip-44)"><text xml:space="preserve" font-family="Courier" font-size="36.0" fill="#FEFFFE" transform="matrix(1.00, 0.00, -0.00, -1.00, 5.0, 14.0)">c</text><text xml:space="preserve" font-family="Courier" font-size="36.0" fill="#FEFFFE" transform="matrix(1.00, 0.00, -0.00, -1.00, 26.6, 14.0)">a</text><text xml:space="preserve" font-family="Courier" font-size="36.0" fill="#FEFFFE" transform="matrix(1.00, 0.00, -0.00, -1.00, 48.2, 14.0)">t</text><text xml:space="preserve" font-family="Courier" font-size="36.0" fill="#FEFFFE" transform="matrix(1.00, 0.00, -0.00, -1.00, 69.8, 14.0)"> </text><text xml:space="preserve" font-family="Courier" font-size="36.0" fill="#FEFFFE" transform="matrix(1.00, 0.00, -0.00, -1.00, 91.4, 14.0)">.</text><text xml:space="preserve" font-family="Courier" font-size="36.0" fill="#FEFFFE" transform="matrix(1.00, 0.00, -0.00, -1.00, 113.0, 14.0)">g</text><text xml:space="preserve" font-family="Courier" font-size="36.0" fill="#FEFFFE" transform="matrix(1.00, 0.00, -0.00, -1.00, 134.6, 14.0)">i</text><text xml:space="preserve" font-family="Courier" font-size="36.0" fill="#FEFFFE" transform="matrix(1.00, 0.00, -0.00, -1.00, 156.2, 14.0)">t</text><text xml:space="preserve" font-family="Courier" font-size="36.0" fill="#FEFFFE" transform="matrix(1.00, 0.00, -0.00, -1.00, 177.9, 14.0)">/</text><text xml:space="preserve" font-family="Courier" font-size="36.0" fill="#FEFFFE" transform="matrix(1.00, 0.00, -0.00, -1.00, 199.5, 14.0)">H</text><text xml:space="preserve" font-family="Courier" font-size="36.0" fill="#FEFFFE" transform="matrix(1.00, 0.00, -0.00, -1.00, 221.1, 14.0)">E</text><text xml:space="preserve" font-family="Courier" font-size="36.0" fill="#FEFFFE" transform="matrix(1.00, 0.00, -0.00, -1.00, 242.7, 14.0)">A</text><text xml:space="preserve" font-family="Courier" font-size="36.0" fill="#FEFFFE" transform="matrix(1.00, 0.00, -0.00, -1.00, 264.3, 14.0)">D</text></g></g></g></svg>