<?xml version="1.0" encoding="UTF-8" standalone="no"?><svg xmlns="http://www.w3.org/2000/svg" xmlns:xlink="http://www.w3.org/1999/xlink" clip-rule="evenodd" stroke-miterlimit="4.00" viewBox="0 0 336 54"><desc>SVG generated by Keynote</desc><defs></defs><g transform="matrix(1.00, 0.00, -0.00, -1.00, 0.0, 54.0)"><path d="M 1.6 52.5 L 334.7 52.5 L 334.7 1.5 L 1.6 1.5 Z M 1.6 52.5 " fill="#52575F"></path><g><clipPath id="clip-45"><path d="M -3.4 -3.5 L 339.7 -3.5 L 339.7 57.5 L -3.4 57.5 Z M -3.4 -3.5 "></path></clipPath><g clip-path="url(#clip-45)"><text xml:space="preserve" font-family="Courier" font-size="36.0" fill="#FEFFFE" transform="matrix(1.00, 0.00, -0.00, -1.00, 6.0, 14.0)">g</text><text xml:space="preserve" font-family="Courier" font-size="36.0" fill="#FEFFFE" transform="matrix(1.00, 0.00, -0.00, -1.00, 27.6, 14.0)">i</text><text xml:space="preserve" font-family="Courier" font-size="36.0" fill="#FEFFFE" transform="matrix(1.00, 0.00, -0.00, -1.00, 49.2, 14.0)">t</text><text xml:space="preserve" font-family="Courier" font-size="36.0" fill="#FEFFFE" transform="matrix(1.00, 0.00, -0.00, -1.00, 70.8, 14.0)"> </text><text xml:space="preserve" font-family="Courier" font-size="36.0" fill="#FEFFFE" transform="matrix(1.00, 0.00, -0.00, -1.00, 92.4, 14.0)">l</text><text xml:space="preserve" font-family="Courier" font-size="36.0" fill="#FEFFFE" transform="matrix(1.00, 0.00, -0.00, -1.00, 114.0, 14.0)">s</text><text xml:space="preserve" font-family="Courier" font-size="36.0" fill="#FEFFFE" transform="matrix(1.00, 0.00, -0.00, -1.00, 135.6, 14.0)">-</text><text xml:space="preserve" font-family="Courier" font-size="36.0" fill="#FEFFFE" transform="matrix(1.00, 0.00, -0.00, -1.00, 157.2, 14.0)">f</text><text xml:space="preserve" font-family="Courier" font-size="36.0" fill="#FEFFFE" transform="matrix(1.00, 0.00, -0.00, -1.00, 178.9, 14.0)">i</text><text xml:space="preserve" font-family="Courier" font-size="36.0" fill="#FEFFFE" transform="matrix(1.00, 0.00, -0.00, -1.00, 200.5, 14.0)">l</text><text xml:space="preserve" font-family="Courier" font-size="36.0" fill="#FEFFFE" transform="matrix(1.00, 0.00, -0.00, -1.00, 222.1, 14.0)">e</text><text xml:space="preserve" font-family="Courier" font-size="36.0" fill="#FEFFFE" transform="matrix(1.00, 0.00, -0.00, -1.00, 243.7, 14.0)">s</text><text xml:space="preserve" font-family="Courier" font-size="36.0" fill="#FEFFFE" transform="matrix(1.00, 0.00, -0.00, -1.00, 265.3, 14.0)"> </text><text xml:space="preserve" font-family="Courier" font-size="36.0" fill="#FEFFFE" transform="matrix(1.00, 0.00, -0.00, -1.00, 286.9, 14.0)">-</text><text xml:space="preserve" font-family="Courier" font-size="36.0" fill="#FEFFFE" transform="matrix(1.00, 0.00, -0.00, -1.00, 308.5, 14.0)">s</text></g></g></g></svg>