<?xml version="1.0" encoding="UTF-8" standalone="no"?><svg xmlns="http://www.w3.org/2000/svg" xmlns:xlink="http://www.w3.org/1999/xlink" clip-rule="evenodd" stroke-miterlimit="4.00" viewBox="0 0 583 36"><desc>SVG generated by Keynote</desc><defs></defs><g transform="matrix(1.00, 0.00, -0.00, -1.00, 0.0, 36.0)"><text xml:space="preserve" font-family="Courier" font-size="36.0" fill="#000000" transform="matrix(1.00, 0.00, -0.00, -1.00, -2.0, 9.0)">$</text><text xml:space="preserve" font-family="Courier" font-size="36.0" fill="#000000" transform="matrix(1.00, 0.00, -0.00, -1.00, 19.6, 9.0)"> </text><text xml:space="preserve" font-family="Courier" font-size="36.0" fill="#000000" transform="matrix(1.00, 0.00, -0.00, -1.00, 41.2, 9.0)">c</text><text xml:space="preserve" font-family="Courier" font-size="36.0" fill="#000000" transform="matrix(1.00, 0.00, -0.00, -1.00, 62.8, 9.0)">p</text><text xml:space="preserve" font-family="Courier" font-size="36.0" fill="#000000" transform="matrix(1.00, 0.00, -0.00, -1.00, 84.4, 9.0)"> </text><text xml:space="preserve" font-family="Courier" font-size="36.0" fill="#000000" transform="matrix(1.00, 0.00, -0.00, -1.00, 106.0, 9.0)">-</text><text xml:space="preserve" font-family="Courier" font-size="36.0" fill="#000000" transform="matrix(1.00, 0.00, -0.00, -1.00, 127.6, 9.0)">p</text><text xml:space="preserve" font-family="Courier" font-size="36.0" fill="#000000" transform="matrix(1.00, 0.00, -0.00, -1.00, 149.2, 9.0)"> </text><text xml:space="preserve" font-family="Courier" font-size="36.0" fill="#000000" transform="matrix(1.00, 0.00, -0.00, -1.00, 170.9, 9.0)">m</text><text xml:space="preserve" font-family="Courier" font-size="36.0" fill="#000000" transform="matrix(1.00, 0.00, -0.00, -1.00, 192.5, 9.0)">y</text><text xml:space="preserve" font-family="Courier" font-size="36.0" fill="#000000" transform="matrix(1.00, 0.00, -0.00, -1.00, 214.1, 9.0)">-</text><text xml:space="preserve" font-family="Courier" font-size="36.0" fill="#000000" transform="matrix(1.00, 0.00, -0.00, -1.00, 235.7, 9.0)">f</text><text xml:space="preserve" font-family="Courier" font-size="36.0" fill="#000000" transform="matrix(1.00, 0.00, -0.00, -1.00, 257.3, 9.0)">i</text><text xml:space="preserve" font-family="Courier" font-size="36.0" fill="#000000" transform="matrix(1.00, 0.00, -0.00, -1.00, 278.9, 9.0)">l</text><text xml:space="preserve" font-family="Courier" font-size="36.0" fill="#000000" transform="matrix(1.00, 0.00, -0.00, -1.00, 300.5, 9.0)">e</text><text xml:space="preserve" font-family="Courier" font-size="36.0" fill="#000000" transform="matrix(1.00, 0.00, -0.00, -1.00, 322.1, 9.0)"> </text><text xml:space="preserve" font-family="Courier" font-size="36.0" fill="#000000" transform="matrix(1.00, 0.00, -0.00, -1.00, 343.7, 9.0)">m</text><text xml:space="preserve" font-family="Courier" font-size="36.0" fill="#000000" transform="matrix(1.00, 0.00, -0.00, -1.00, 365.3, 9.0)">y</text><text xml:space="preserve" font-family="Courier" font-size="36.0" fill="#000000" transform="matrix(1.00, 0.00, -0.00, -1.00, 386.9, 9.0)">-</text><text xml:space="preserve" font-family="Courier" font-size="36.0" fill="#000000" transform="matrix(1.00, 0.00, -0.00, -1.00, 408.5, 9.0)">f</text><text xml:space="preserve" font-family="Courier" font-size="36.0" fill="#000000" transform="matrix(1.00, 0.00, -0.00, -1.00, 430.1, 9.0)">i</text><text xml:space="preserve" font-family="Courier" font-size="36.0" fill="#000000" transform="matrix(1.00, 0.00, -0.00, -1.00, 451.7, 9.0)">l</text><text xml:space="preserve" font-family="Courier" font-size="36.0" fill="#000000" transform="matrix(1.00, 0.00, -0.00, -1.00, 473.4, 9.0)">e</text><text xml:space="preserve" font-family="Courier" font-size="36.0" fill="#000000" transform="matrix(1.00, 0.00, -0.00, -1.00, 495.0, 9.0)">.</text><text xml:space="preserve" font-family="Courier" font-size="36.0" fill="#000000" transform="matrix(1.00, 0.00, -0.00, -1.00, 516.6, 9.0)">b</text><text xml:space="preserve" font-family="Courier" font-size="36.0" fill="#000000" transform="matrix(1.00, 0.00, -0.00, -1.00, 538.2, 9.0)">a</text><text xml:space="preserve" font-family="Courier" font-size="36.0" fill="#000000" transform="matrix(1.00, 0.00, -0.00, -1.00, 559.8, 9.0)">k</text></g></svg>