<?xml version="1.0" encoding="UTF-8" standalone="no"?><svg xmlns="http://www.w3.org/2000/svg" xmlns:xlink="http://www.w3.org/1999/xlink" clip-rule="evenodd" stroke-miterlimit="4.00" viewBox="0 0 259 35"><desc>SVG generated by Keynote</desc><defs></defs><g transform="matrix(1.00, 0.00, -0.00, -1.00, 0.0, 35.0)"><text xml:space="preserve" font-family="Helvetica-Light" font-size="27.0" fill="#000000" transform="matrix(1.00, 0.00, -0.00, -1.00, 0.0, 12.2)">•</text><text xml:space="preserve" font-family="Courier" font-size="36.0" fill="#000000" transform="matrix(1.00, 0.00, -0.00, -1.00, 35.0, 9.0)">g</text><text xml:space="preserve" font-family="Courier" font-size="36.0" fill="#000000" transform="matrix(1.00, 0.00, -0.00, -1.00, 56.6, 9.0)">i</text><text xml:space="preserve" font-family="Courier" font-size="36.0" fill="#000000" transform="matrix(1.00, 0.00, -0.00, -1.00, 78.2, 9.0)">t</text><text xml:space="preserve" font-family="Courier" font-size="36.0" fill="#000000" transform="matrix(1.00, 0.00, -0.00, -1.00, 99.8, 9.0)"> </text><text xml:space="preserve" font-family="Courier" font-size="36.0" fill="#000000" transform="matrix(1.00, 0.00, -0.00, -1.00, 121.4, 9.0)">c</text><text xml:space="preserve" font-family="Courier" font-size="36.0" fill="#000000" transform="matrix(1.00, 0.00, -0.00, -1.00, 143.0, 9.0)">o</text><text xml:space="preserve" font-family="Courier" font-size="36.0" fill="#000000" transform="matrix(1.00, 0.00, -0.00, -1.00, 164.6, 9.0)">m</text><text xml:space="preserve" font-family="Courier" font-size="36.0" fill="#000000" transform="matrix(1.00, 0.00, -0.00, -1.00, 186.2, 9.0)">m</text><text xml:space="preserve" font-family="Courier" font-size="36.0" fill="#000000" transform="matrix(1.00, 0.00, -0.00, -1.00, 207.9, 9.0)">i</text><text xml:space="preserve" font-family="Courier" font-size="36.0" fill="#000000" transform="matrix(1.00, 0.00, -0.00, -1.00, 229.5, 9.0)">t</text><text xml:space="preserve" font-family="Helvetica-Light" font-size="36.0" fill="#000000" transform="matrix(1.00, 0.00, -0.00, -1.00, 251.0, 9.0)">:</text></g></svg>