<?xml version="1.0" encoding="UTF-8" standalone="no"?><svg xmlns="http://www.w3.org/2000/svg" xmlns:xlink="http://www.w3.org/1999/xlink" clip-rule="evenodd" stroke-miterlimit="4.00" viewBox="0 0 1024 768"><desc>SVG generated by Keynote</desc><defs></defs><g transform="matrix(1.00, 0.00, -0.00, -1.00, 0.0, 768.0)"><path d="M 0.0 768.0 L 1024.0 768.0 L 1024.0 0.0 L 0.0 0.0 Z M 0.0 768.0 " fill="#FEFFFF"></path><text xml:space="preserve" font-family="Helvetica-Light" font-size="80.0" fill="#000000" transform="matrix(1.00, 0.00, -0.00, -1.00, 132.0, 618.0)">O</text><text xml:space="preserve" font-family="Helvetica-Light" font-size="80.0" fill="#000000" transform="matrix(1.00, 0.00, -0.00, -1.00, 194.2, 618.0)">p</text><text xml:space="preserve" font-family="Helvetica-Light" font-size="80.0" fill="#000000" transform="matrix(1.00, 0.00, -0.00, -1.00, 243.1, 618.0)">e</text><text xml:space="preserve" font-family="Helvetica-Light" font-size="80.0" fill="#000000" transform="matrix(1.00, 0.00, -0.00, -1.00, 287.6, 618.0)">n</text><text xml:space="preserve" font-family="Helvetica-Light" font-size="80.0" fill="#000000" transform="matrix(1.00, 0.00, -0.00, -1.00, 332.1, 618.0)"> </text><text xml:space="preserve" font-family="Helvetica-Light" font-size="80.0" fill="#000000" transform="matrix(1.00, 0.00, -0.00, -1.00, 354.3, 618.0)">a</text><text xml:space="preserve" font-family="Helvetica-Light" font-size="80.0" fill="#000000" transform="matrix(1.00, 0.00, -0.00, -1.00, 398.8, 618.0)"> </text><text xml:space="preserve" font-family="Helvetica-Light" font-size="80.0" fill="#000000" transform="matrix(1.00, 0.00, -0.00, -1.00, 421.0, 618.0)">s</text><text xml:space="preserve" font-family="Helvetica-Light" font-size="80.0" fill="#000000" transform="matrix(1.00, 0.00, -0.00, -1.00, 461.0, 618.0)">h</text><text xml:space="preserve" font-family="Helvetica-Light" font-size="80.0" fill="#000000" transform="matrix(1.00, 0.00, -0.00, -1.00, 505.5, 618.0)">e</text><text xml:space="preserve" font-family="Helvetica-Light" font-size="80.0" fill="#000000" transform="matrix(1.00, 0.00, -0.00, -1.00, 550.0, 618.0)">l</text><text xml:space="preserve" font-family="Helvetica-Light" font-size="80.0" fill="#000000" transform="matrix(1.00, 0.00, -0.00, -1.00, 567.8, 618.0)">l</text><text xml:space="preserve" font-family="Helvetica-Light" font-size="80.0" fill="#000000" transform="matrix(1.00, 0.00, -0.00, -1.00, 585.5, 618.0)">,</text><text xml:space="preserve" font-family="Helvetica-Light" font-size="80.0" fill="#000000" transform="matrix(1.00, 0.00, -0.00, -1.00, 607.8, 618.0)"> </text><text xml:space="preserve" font-family="Helvetica-Light" font-size="80.0" fill="#000000" transform="matrix(1.00, 0.00, -0.00, -1.00, 630.0, 618.0)">p</text><text xml:space="preserve" font-family="Helvetica-Light" font-size="80.0" fill="#000000" transform="matrix(1.00, 0.00, -0.00, -1.00, 678.9, 618.0)">l</text><text xml:space="preserve" font-family="Helvetica-Light" font-size="80.0" fill="#000000" transform="matrix(1.00, 0.00, -0.00, -1.00, 696.6, 618.0)">e</text><text xml:space="preserve" font-family="Helvetica-Light" font-size="80.0" fill="#000000" transform="matrix(1.00, 0.00, -0.00, -1.00, 741.1, 618.0)">a</text><text xml:space="preserve" font-family="Helvetica-Light" font-size="80.0" fill="#000000" transform="matrix(1.00, 0.00, -0.00, -1.00, 785.6, 618.0)">s</text><text xml:space="preserve" font-family="Helvetica-Light" font-size="80.0" fill="#000000" transform="matrix(1.00, 0.00, -0.00, -1.00, 825.6, 618.0)">e</text><text xml:space="preserve" font-family="Helvetica-Light" font-size="80.0" fill="#000000" transform="matrix(1.00, 0.00, -0.00, -1.00, 870.1, 618.0)">.</text><text xml:space="preserve" font-family="Courier" font-size="36.0" fill="#000000" transform="matrix(1.00, 0.00, -0.00, -1.00, 4.0, 414.0)">$</text><text xml:space="preserve" font-family="Courier" font-size="36.0" fill="#000000" transform="matrix(1.00, 0.00, -0.00, -1.00, 25.6, 414.0)"> </text><text xml:space="preserve" font-family="Courier" font-size="36.0" fill="#000000" transform="matrix(1.00, 0.00, -0.00, -1.00, 47.2, 414.0)">g</text><text xml:space="preserve" font-family="Courier" font-size="36.0" fill="#000000" transform="matrix(1.00, 0.00, -0.00, -1.00, 68.8, 414.0)">i</text><text xml:space="preserve" font-family="Courier" font-size="36.0" fill="#000000" transform="matrix(1.00, 0.00, -0.00, -1.00, 90.4, 414.0)">t</text><text xml:space="preserve" font-family="Courier" font-size="36.0" fill="#000000" transform="matrix(1.00, 0.00, -0.00, -1.00, 112.0, 414.0)"> </text><text xml:space="preserve" font-family="Courier" font-size="36.0" fill="#000000" transform="matrix(1.00, 0.00, -0.00, -1.00, 133.6, 414.0)">c</text><text xml:space="preserve" font-family="Courier" font-size="36.0" fill="#000000" transform="matrix(1.00, 0.00, -0.00, -1.00, 155.2, 414.0)">l</text><text xml:space="preserve" font-family="Courier" font-size="36.0" fill="#000000" transform="matrix(1.00, 0.00, -0.00, -1.00, 176.9, 414.0)">o</text><text xml:space="preserve" font-family="Courier" font-size="36.0" fill="#000000" transform="matrix(1.00, 0.00, -0.00, -1.00, 198.5, 414.0)">n</text><text xml:space="preserve" font-family="Courier" font-size="36.0" fill="#000000" transform="matrix(1.00, 0.00, -0.00, -1.00, 220.1, 414.0)">e</text><text xml:space="preserve" font-family="Courier" font-size="36.0" fill="#000000" transform="matrix(1.00, 0.00, -0.00, -1.00, 241.7, 414.0)"> </text><text xml:space="preserve" font-family="Courier" font-size="36.0" fill="#000000" transform="matrix(1.00, 0.00, -0.00, -1.00, 263.2, 414.0)">h</text><text xml:space="preserve" font-family="Courier" font-size="36.0" fill="#000000" transform="matrix(1.00, 0.00, -0.00, -1.00, 284.8, 414.0)">t</text><text xml:space="preserve" font-family="Courier" font-size="36.0" fill="#000000" transform="matrix(1.00, 0.00, -0.00, -1.00, 306.5, 414.0)">t</text><text xml:space="preserve" font-family="Courier" font-size="36.0" fill="#000000" transform="matrix(1.00, 0.00, -0.00, -1.00, 328.1, 414.0)">p</text><text xml:space="preserve" font-family="Courier" font-size="36.0" fill="#000000" transform="matrix(1.00, 0.00, -0.00, -1.00, 349.7, 414.0)">s</text><text xml:space="preserve" font-family="Courier" font-size="36.0" fill="#000000" transform="matrix(1.00, 0.00, -0.00, -1.00, 371.3, 414.0)">:</text><text xml:space="preserve" font-family="Courier" font-size="36.0" fill="#000000" transform="matrix(1.00, 0.00, -0.00, -1.00, 392.9, 414.0)">/</text><text xml:space="preserve" font-family="Courier" font-size="36.0" fill="#000000" transform="matrix(1.00, 0.00, -0.00, -1.00, 414.5, 414.0)">/</text><text xml:space="preserve" font-family="Courier" font-size="36.0" fill="#000000" transform="matrix(1.00, 0.00, -0.00, -1.00, 436.1, 414.0)">g</text><text xml:space="preserve" font-family="Courier" font-size="36.0" fill="#000000" transform="matrix(1.00, 0.00, -0.00, -1.00, 457.7, 414.0)">i</text><text xml:space="preserve" font-family="Courier" font-size="36.0" fill="#000000" transform="matrix(1.00, 0.00, -0.00, -1.00, 479.3, 414.0)">t</text><text xml:space="preserve" font-family="Courier" font-size="36.0" fill="#000000" transform="matrix(1.00, 0.00, -0.00, -1.00, 500.9, 414.0)">h</text><text xml:space="preserve" font-family="Courier" font-size="36.0" fill="#000000" transform="matrix(1.00, 0.00, -0.00, -1.00, 522.5, 414.0)">u</text><text xml:space="preserve" font-family="Courier" font-size="36.0" fill="#000000" transform="matrix(1.00, 0.00, -0.00, -1.00, 544.1, 414.0)">b</text><text xml:space="preserve" font-family="Courier" font-size="36.0" fill="#000000" transform="matrix(1.00, 0.00, -0.00, -1.00, 565.7, 414.0)">.</text><text xml:space="preserve" font-family="Courier" font-size="36.0" fill="#000000" transform="matrix(1.00, 0.00, -0.00, -1.00, 587.3, 414.0)">c</text><text xml:space="preserve" font-family="Courier" font-size="36.0" fill="#000000" transform="matrix(1.00, 0.00, -0.00, -1.00, 609.0, 414.0)">o</text><text xml:space="preserve" font-family="Courier" font-size="36.0" fill="#000000" transform="matrix(1.00, 0.00, -0.00, -1.00, 630.6, 414.0)">m</text><text xml:space="preserve" font-family="Courier" font-size="36.0" fill="#000000" transform="matrix(1.00, 0.00, -0.00, -1.00, 652.2, 414.0)">/</text><text xml:space="preserve" font-family="Courier" font-size="36.0" fill="#000000" transform="matrix(1.00, 0.00, -0.00, -1.00, 673.8, 414.0)">s</text><text xml:space="preserve" font-family="Courier" font-size="36.0" fill="#000000" transform="matrix(1.00, 0.00, -0.00, -1.00, 695.4, 414.0)">c</text><text xml:space="preserve" font-family="Courier" font-size="36.0" fill="#000000" transform="matrix(1.00, 0.00, -0.00, -1.00, 717.0, 414.0)">o</text><text xml:space="preserve" font-family="Courier" font-size="36.0" fill="#000000" transform="matrix(1.00, 0.00, -0.00, -1.00, 738.6, 414.0)">t</text><text xml:space="preserve" font-family="Courier" font-size="36.0" fill="#000000" transform="matrix(1.00, 0.00, -0.00, -1.00, 760.2, 414.0)">t</text><text xml:space="preserve" font-family="Courier" font-size="36.0" fill="#000000" transform="matrix(1.00, 0.00, -0.00, -1.00, 781.8, 414.0)">w</text><text xml:space="preserve" font-family="Courier" font-size="36.0" fill="#000000" transform="matrix(1.00, 0.00, -0.00, -1.00, 803.4, 414.0)">/</text><text xml:space="preserve" font-family="Courier" font-size="36.0" fill="#000000" transform="matrix(1.00, 0.00, -0.00, -1.00, 825.0, 414.0)">d</text><text xml:space="preserve" font-family="Courier" font-size="36.0" fill="#000000" transform="matrix(1.00, 0.00, -0.00, -1.00, 846.6, 414.0)">v</text><text xml:space="preserve" font-family="Courier" font-size="36.0" fill="#000000" transform="matrix(1.00, 0.00, -0.00, -1.00, 868.2, 414.0)">c</text><text xml:space="preserve" font-family="Courier" font-size="36.0" fill="#000000" transform="matrix(1.00, 0.00, -0.00, -1.00, 889.8, 414.0)">s</text><text xml:space="preserve" font-family="Courier" font-size="36.0" fill="#000000" transform="matrix(1.00, 0.00, -0.00, -1.00, 911.5, 414.0)">h</text><text xml:space="preserve" font-family="Courier" font-size="36.0" fill="#000000" transform="matrix(1.00, 0.00, -0.00, -1.00, 933.1, 414.0)">.</text><text xml:space="preserve" font-family="Courier" font-size="36.0" fill="#000000" transform="matrix(1.00, 0.00, -0.00, -1.00, 954.7, 414.0)">g</text><text xml:space="preserve" font-family="Courier" font-size="36.0" fill="#000000" transform="matrix(1.00, 0.00, -0.00, -1.00, 976.3, 414.0)">i</text><text xml:space="preserve" font-family="Courier" font-size="36.0" fill="#000000" transform="matrix(1.00, 0.00, -0.00, -1.00, 997.9, 414.0)">t</text><g><clipPath id="clip-3"><path d="M 262.2 405.9 L 1019.4 405.9 L 1019.4 410.0 L 262.2 410.0 Z M 262.2 405.9 "></path></clipPath><g clip-path="url(#clip-3)"><path d="M 263.2 44.6 L 1019.4 44.6 " fill="none" stroke="#000000" stroke-width="2.07" stroke-miterlimit="0.00" transform="matrix(1.00, 0.00, 0.00, -1.00, 0.0, 452.5)"></path></g></g><text xml:space="preserve" font-family="Courier" font-size="36.0" fill="#000000" transform="matrix(1.00, 0.00, -0.00, -1.00, 4.0, 371.0)">$</text><text xml:space="preserve" font-family="Courier" font-size="36.0" fill="#000000" transform="matrix(1.00, 0.00, -0.00, -1.00, 25.6, 371.0)"> </text><text xml:space="preserve" font-family="Courier" font-size="36.0" fill="#000000" transform="matrix(1.00, 0.00, -0.00, -1.00, 47.2, 371.0)">c</text><text xml:space="preserve" font-family="Courier" font-size="36.0" fill="#000000" transform="matrix(1.00, 0.00, -0.00, -1.00, 68.8, 371.0)">d</text><text xml:space="preserve" font-family="Courier" font-size="36.0" fill="#000000" transform="matrix(1.00, 0.00, -0.00, -1.00, 90.4, 371.0)"> </text><text xml:space="preserve" font-family="Courier" font-size="36.0" fill="#000000" transform="matrix(1.00, 0.00, -0.00, -1.00, 112.0, 371.0)">d</text><text xml:space="preserve" font-family="Courier" font-size="36.0" fill="#000000" transform="matrix(1.00, 0.00, -0.00, -1.00, 133.6, 371.0)">v</text><text xml:space="preserve" font-family="Courier" font-size="36.0" fill="#000000" transform="matrix(1.00, 0.00, -0.00, -1.00, 155.2, 371.0)">c</text><text xml:space="preserve" font-family="Courier" font-size="36.0" fill="#000000" transform="matrix(1.00, 0.00, -0.00, -1.00, 176.9, 371.0)">s</text><text xml:space="preserve" font-family="Courier" font-size="36.0" fill="#000000" transform="matrix(1.00, 0.00, -0.00, -1.00, 198.5, 371.0)">h</text><text xml:space="preserve" font-family="Courier" font-size="36.0" fill="#000000" transform="matrix(1.00, 0.00, -0.00, -1.00, 4.0, 328.0)">$</text><text xml:space="preserve" font-family="Courier" font-size="36.0" fill="#000000" transform="matrix(1.00, 0.00, -0.00, -1.00, 25.6, 328.0)"> </text><text xml:space="preserve" font-family="Courier" font-size="36.0" fill="#000000" transform="matrix(1.00, 0.00, -0.00, -1.00, 47.2, 328.0)">s</text><text xml:space="preserve" font-family="Courier" font-size="36.0" fill="#000000" transform="matrix(1.00, 0.00, -0.00, -1.00, 68.8, 328.0)">o</text><text xml:space="preserve" font-family="Courier" font-size="36.0" fill="#000000" transform="matrix(1.00, 0.00, -0.00, -1.00, 90.4, 328.0)">u</text><text xml:space="preserve" font-family="Courier" font-size="36.0" fill="#000000" transform="matrix(1.00, 0.00, -0.00, -1.00, 112.0, 328.0)">r</text><text xml:space="preserve" font-family="Courier" font-size="36.0" fill="#000000" transform="matrix(1.00, 0.00, -0.00, -1.00, 133.6, 328.0)">c</text><text xml:space="preserve" font-family="Courier" font-size="36.0" fill="#000000" transform="matrix(1.00, 0.00, -0.00, -1.00, 155.2, 328.0)">e</text><text xml:space="preserve" font-family="Courier" font-size="36.0" fill="#000000" transform="matrix(1.00, 0.00, -0.00, -1.00, 176.9, 328.0)"> </text><text xml:space="preserve" font-family="Courier" font-size="36.0" fill="#000000" transform="matrix(1.00, 0.00, -0.00, -1.00, 198.5, 328.0)">d</text><text xml:space="preserve" font-family="Courier" font-size="36.0" fill="#000000" transform="matrix(1.00, 0.00, -0.00, -1.00, 220.1, 328.0)">v</text><text xml:space="preserve" font-family="Courier" font-size="36.0" fill="#000000" transform="matrix(1.00, 0.00, -0.00, -1.00, 241.7, 328.0)">c</text><text xml:space="preserve" font-family="Courier" font-size="36.0" fill="#000000" transform="matrix(1.00, 0.00, -0.00, -1.00, 263.3, 328.0)">.</text><text xml:space="preserve" font-family="Courier" font-size="36.0" fill="#000000" transform="matrix(1.00, 0.00, -0.00, -1.00, 284.9, 328.0)">s</text><text xml:space="preserve" font-family="Courier" font-size="36.0" fill="#000000" transform="matrix(1.00, 0.00, -0.00, -1.00, 306.5, 328.0)">h</text></g></svg>