<?xml version="1.0" encoding="UTF-8" standalone="no"?><svg xmlns="http://www.w3.org/2000/svg" xmlns:xlink="http://www.w3.org/1999/xlink" clip-rule="evenodd" stroke-miterlimit="4.00" viewBox="0 0 533 33"><desc>SVG generated by Keynote</desc><defs></defs><g transform="matrix(1.00, 0.00, -0.00, -1.00, 0.0, 33.0)"><text xml:space="preserve" font-family="Menlo-Regular" font-size="28.0" fill="#000000" transform="matrix(1.00, 0.00, -0.00, -1.00, -6.0, 9.0)">[</text><text xml:space="preserve" font-family="Menlo-Regular" font-size="28.0" fill="#000000" transform="matrix(1.00, 0.00, -0.00, -1.00, 10.9, 9.0)">m</text><text xml:space="preserve" font-family="Menlo-Regular" font-size="28.0" fill="#000000" transform="matrix(1.00, 0.00, -0.00, -1.00, 27.7, 9.0)">y</text><text xml:space="preserve" font-family="Menlo-Regular" font-size="28.0" fill="#000000" transform="matrix(1.00, 0.00, -0.00, -1.00, 44.6, 9.0)">-</text><text xml:space="preserve" font-family="Menlo-Regular" font-size="28.0" fill="#000000" transform="matrix(1.00, 0.00, -0.00, -1.00, 61.4, 9.0)">b</text><text xml:space="preserve" font-family="Menlo-Regular" font-size="28.0" fill="#000000" transform="matrix(1.00, 0.00, -0.00, -1.00, 78.3, 9.0)">r</text><text xml:space="preserve" font-family="Menlo-Regular" font-size="28.0" fill="#000000" transform="matrix(1.00, 0.00, -0.00, -1.00, 95.2, 9.0)">a</text><text xml:space="preserve" font-family="Menlo-Regular" font-size="28.0" fill="#000000" transform="matrix(1.00, 0.00, -0.00, -1.00, 112.0, 9.0)">n</text><text xml:space="preserve" font-family="Menlo-Regular" font-size="28.0" fill="#000000" transform="matrix(1.00, 0.00, -0.00, -1.00, 128.9, 9.0)">c</text><text xml:space="preserve" font-family="Menlo-Regular" font-size="28.0" fill="#000000" transform="matrix(1.00, 0.00, -0.00, -1.00, 145.7, 9.0)">h</text><text xml:space="preserve" font-family="Menlo-Regular" font-size="28.0" fill="#000000" transform="matrix(1.00, 0.00, -0.00, -1.00, 162.6, 9.0)"> </text><text xml:space="preserve" font-family="Menlo-Regular" font-size="28.0" fill="#000000" transform="matrix(1.00, 0.00, -0.00, -1.00, 179.5, 9.0)">1</text><text xml:space="preserve" font-family="Menlo-Regular" font-size="28.0" fill="#000000" transform="matrix(1.00, 0.00, -0.00, -1.00, 196.3, 9.0)">4</text><text xml:space="preserve" font-family="Menlo-Regular" font-size="28.0" fill="#000000" transform="matrix(1.00, 0.00, -0.00, -1.00, 213.2, 9.0)">8</text><text xml:space="preserve" font-family="Menlo-Regular" font-size="28.0" fill="#000000" transform="matrix(1.00, 0.00, -0.00, -1.00, 230.0, 9.0)">4</text><text xml:space="preserve" font-family="Menlo-Regular" font-size="28.0" fill="#000000" transform="matrix(1.00, 0.00, -0.00, -1.00, 246.9, 9.0)">b</text><text xml:space="preserve" font-family="Menlo-Regular" font-size="28.0" fill="#000000" transform="matrix(1.00, 0.00, -0.00, -1.00, 263.8, 9.0)">a</text><text xml:space="preserve" font-family="Menlo-Regular" font-size="28.0" fill="#000000" transform="matrix(1.00, 0.00, -0.00, -1.00, 280.6, 9.0)">f</text><text xml:space="preserve" font-family="Menlo-Regular" font-size="28.0" fill="#000000" transform="matrix(1.00, 0.00, -0.00, -1.00, 297.5, 9.0)">]</text><text xml:space="preserve" font-family="Menlo-Regular" font-size="28.0" fill="#000000" transform="matrix(1.00, 0.00, -0.00, -1.00, 314.3, 9.0)"> </text><text xml:space="preserve" font-family="Menlo-Regular" font-size="28.0" fill="#000000" transform="matrix(1.00, 0.00, -0.00, -1.00, 331.2, 9.0)">t</text><text xml:space="preserve" font-family="Menlo-Regular" font-size="28.0" fill="#000000" transform="matrix(1.00, 0.00, -0.00, -1.00, 348.1, 9.0)">h</text><text xml:space="preserve" font-family="Menlo-Regular" font-size="28.0" fill="#000000" transform="matrix(1.00, 0.00, -0.00, -1.00, 364.9, 9.0)">i</text><text xml:space="preserve" font-family="Menlo-Regular" font-size="28.0" fill="#000000" transform="matrix(1.00, 0.00, -0.00, -1.00, 381.8, 9.0)">r</text><text xml:space="preserve" font-family="Menlo-Regular" font-size="28.0" fill="#000000" transform="matrix(1.00, 0.00, -0.00, -1.00, 398.6, 9.0)">d</text><text xml:space="preserve" font-family="Menlo-Regular" font-size="28.0" fill="#000000" transform="matrix(1.00, 0.00, -0.00, -1.00, 415.5, 9.0)"> </text><text xml:space="preserve" font-family="Menlo-Regular" font-size="28.0" fill="#000000" transform="matrix(1.00, 0.00, -0.00, -1.00, 432.4, 9.0)">c</text><text xml:space="preserve" font-family="Menlo-Regular" font-size="28.0" fill="#000000" transform="matrix(1.00, 0.00, -0.00, -1.00, 449.2, 9.0)">o</text><text xml:space="preserve" font-family="Menlo-Regular" font-size="28.0" fill="#000000" transform="matrix(1.00, 0.00, -0.00, -1.00, 466.1, 9.0)">m</text><text xml:space="preserve" font-family="Menlo-Regular" font-size="28.0" fill="#000000" transform="matrix(1.00, 0.00, -0.00, -1.00, 482.9, 9.0)">m</text><text xml:space="preserve" font-family="Menlo-Regular" font-size="28.0" fill="#000000" transform="matrix(1.00, 0.00, -0.00, -1.00, 499.8, 9.0)">i</text><text xml:space="preserve" font-family="Menlo-Regular" font-size="28.0" fill="#000000" transform="matrix(1.00, 0.00, -0.00, -1.00, 516.7, 9.0)">t</text></g></svg>