<?xml version="1.0" encoding="UTF-8" standalone="no"?><svg xmlns="http://www.w3.org/2000/svg" xmlns:xlink="http://www.w3.org/1999/xlink" clip-rule="evenodd" stroke-miterlimit="4.00" viewBox="0 0 1024 768"><desc>SVG generated by Keynote</desc><defs></defs><g transform="matrix(1.00, 0.00, -0.00, -1.00, 0.0, 768.0)"><path d="M 0.0 768.0 L 1024.0 768.0 L 1024.0 0.0 L 0.0 0.0 Z M 0.0 768.0 " fill="#FEFFFF"></path><g><clipPath id="clip-8"><path d="M 72.0 744.0 L 952.0 744.0 L 952.0 24.0 L 72.0 24.0 Z M 72.0 743.6 "></path></clipPath><g clip-path="url(#clip-8)"><g><clipPath id="clip-9"><path d="M 72.0 24.0 L 952.0 24.0 L 952.0 744.0 L 72.0 744.0 Z M 72.0 24.0 "></path></clipPath><g clip-path="url(#clip-9)"><path d="M 89.9 738.5 L 934.1 738.5 C 941.8 738.5 948.1 732.2 948.1 724.5 L 948.1 42.0 C 948.1 34.2 941.8 27.9 934.1 27.9 L 89.9 27.9 C 82.2 27.9 75.9 34.2 75.9 42.0 L 75.9 724.5 C 75.9 732.2 82.2 738.5 89.9 738.5 Z M 89.9 738.5 " fill="#CDD4B0"></path><path d="M 46.5 35.5 L 587.5 35.5 C 592.5 35.5 596.5 39.5 596.5 44.5 L 596.5 481.5 C 596.5 486.5 592.5 490.5 587.5 490.5 L 46.5 490.5 C 41.5 490.5 37.5 486.5 37.5 481.5 L 37.5 44.5 C 37.5 39.5 41.5 35.5 46.5 35.5 Z M 46.5 35.5 " fill="none" stroke="#000000" stroke-width="0.25" stroke-miterlimit="0.00" stroke-linecap="round" stroke-linejoin="round" transform="matrix(1.56, 0.00, 0.00, -1.56, 17.4, 794.0)"></path><text xml:space="preserve" font-family="CourierNewPSMT" font-size="14.0" fill="#000000" transform="matrix(1.56, 0.00, -0.00, -1.56, 84.0, 713.0)">t</text><text xml:space="preserve" font-family="CourierNewPSMT" font-size="14.0" fill="#000000" transform="matrix(1.56, 0.00, -0.00, -1.56, 97.1, 713.0)">e</text><text xml:space="preserve" font-family="CourierNewPSMT" font-size="14.0" fill="#000000" transform="matrix(1.56, 0.00, -0.00, -1.56, 110.2, 713.0)">s</text><text xml:space="preserve" font-family="CourierNewPSMT" font-size="14.0" fill="#000000" transform="matrix(1.56, 0.00, -0.00, -1.56, 123.3, 713.0)">t</text><text xml:space="preserve" font-family="CourierNewPSMT" font-size="14.0" fill="#000000" transform="matrix(1.56, 0.00, -0.00, -1.56, 136.4, 713.0)">-</text><text xml:space="preserve" font-family="CourierNewPSMT" font-size="14.0" fill="#000000" transform="matrix(1.56, 0.00, -0.00, -1.56, 149.5, 713.0)">r</text><text xml:space="preserve" font-family="CourierNewPSMT" font-size="14.0" fill="#000000" transform="matrix(1.56, 0.00, -0.00, -1.56, 162.7, 713.0)">e</text><text xml:space="preserve" font-family="CourierNewPSMT" font-size="14.0" fill="#000000" transform="matrix(1.56, 0.00, -0.00, -1.56, 175.8, 713.0)">p</text><text xml:space="preserve" font-family="CourierNewPSMT" font-size="14.0" fill="#000000" transform="matrix(1.56, 0.00, -0.00, -1.56, 188.9, 713.0)">o</text><path d="M 119.6 696.4 L 920.0 696.4 C 927.8 696.4 934.1 690.1 934.1 682.3 L 934.1 196.6 C 934.1 188.8 927.8 182.5 920.0 182.5 L 119.6 182.5 C 111.8 182.5 105.5 188.8 105.5 196.6 L 105.5 682.3 C 105.5 690.1 111.8 696.4 119.6 696.4 Z M 119.6 696.4 " fill="#A0C4C8"></path><path d="M 65.5 62.5 L 578.5 62.5 C 583.5 62.5 587.5 66.5 587.5 71.5 L 587.5 382.5 C 587.5 387.5 583.5 391.5 578.5 391.5 L 65.5 391.5 C 60.5 391.5 56.5 387.5 56.5 382.5 L 56.5 71.5 C 56.5 66.5 60.5 62.5 65.5 62.5 Z M 65.5 62.5 " fill="none" stroke="#000000" stroke-width="0.25" stroke-miterlimit="0.00" stroke-linecap="round" stroke-linejoin="round" transform="matrix(1.56, 0.00, 0.00, -1.56, 17.4, 794.0)"></path><text xml:space="preserve" font-family="CourierNewPSMT" font-size="14.0" fill="#000000" transform="matrix(1.56, 0.00, -0.00, -1.56, 112.5, 670.3)">.</text><text xml:space="preserve" font-family="CourierNewPSMT" font-size="14.0" fill="#000000" transform="matrix(1.56, 0.00, -0.00, -1.56, 125.6, 670.3)">d</text><text xml:space="preserve" font-family="CourierNewPSMT" font-size="14.0" fill="#000000" transform="matrix(1.56, 0.00, -0.00, -1.56, 138.7, 670.3)">v</text><text xml:space="preserve" font-family="CourierNewPSMT" font-size="14.0" fill="#000000" transform="matrix(1.56, 0.00, -0.00, -1.56, 151.8, 670.3)">c</text><text xml:space="preserve" font-family="CourierNewPSMT" font-size="14.0" fill="#000000" transform="matrix(1.56, 0.00, -0.00, -1.56, 164.9, 670.3)">s</text><text xml:space="preserve" font-family="CourierNewPSMT" font-size="14.0" fill="#000000" transform="matrix(1.56, 0.00, -0.00, -1.56, 178.0, 670.3)">h</text><path d="M 147.7 484.0 L 906.0 484.0 C 913.7 484.0 920.0 477.7 920.0 469.9 L 920.0 210.6 C 920.0 202.9 913.7 196.6 906.0 196.6 L 147.7 196.6 C 139.9 196.6 133.6 202.9 133.6 210.6 L 133.6 469.9 C 133.6 477.7 139.9 484.0 147.7 484.0 Z M 147.7 484.0 " fill="#A69995"></path><path d="M 83.5 198.5 L 569.5 198.5 C 574.5 198.5 578.5 202.5 578.5 207.5 L 578.5 373.5 C 578.5 378.5 574.5 382.5 569.5 382.5 L 83.5 382.5 C 78.5 382.5 74.5 378.5 74.5 373.5 L 74.5 207.5 C 74.5 202.5 78.5 198.5 83.5 198.5 Z M 83.5 198.5 " fill="none" stroke="#000000" stroke-width="0.25" stroke-miterlimit="0.00" stroke-linecap="round" stroke-linejoin="round" transform="matrix(1.56, 0.00, 0.00, -1.56, 17.4, 794.0)"></path><text xml:space="preserve" font-family="CourierNewPSMT" font-size="14.0" fill="#000000" transform="matrix(1.56, 0.00, -0.00, -1.56, 141.3, 458.0)">o</text><text xml:space="preserve" font-family="CourierNewPSMT" font-size="14.0" fill="#000000" transform="matrix(1.56, 0.00, -0.00, -1.56, 154.4, 458.0)">b</text><text xml:space="preserve" font-family="CourierNewPSMT" font-size="14.0" fill="#000000" transform="matrix(1.56, 0.00, -0.00, -1.56, 167.5, 458.0)">j</text><text xml:space="preserve" font-family="CourierNewPSMT" font-size="14.0" fill="#000000" transform="matrix(1.56, 0.00, -0.00, -1.56, 180.6, 458.0)">e</text><text xml:space="preserve" font-family="CourierNewPSMT" font-size="14.0" fill="#000000" transform="matrix(1.56, 0.00, -0.00, -1.56, 193.7, 458.0)">c</text><text xml:space="preserve" font-family="CourierNewPSMT" font-size="14.0" fill="#000000" transform="matrix(1.56, 0.00, -0.00, -1.56, 206.8, 458.0)">t</text><text xml:space="preserve" font-family="CourierNewPSMT" font-size="14.0" fill="#000000" transform="matrix(1.56, 0.00, -0.00, -1.56, 219.9, 458.0)">s</text></g></g></g></g></g></svg>