<?xml version="1.0" encoding="UTF-8" standalone="no"?><svg xmlns="http://www.w3.org/2000/svg" xmlns:xlink="http://www.w3.org/1999/xlink" clip-rule="evenodd" stroke-miterlimit="4.00" viewBox="0 0 992 664"><desc>SVG generated by Keynote</desc><defs></defs><g transform="matrix(1.00, 0.00, -0.00, -1.00, 0.0, 664.0)"><g><clipPath id="clip-75"><path d="M 1.0 1.0 L 991.0 1.0 L 991.0 663.0 L 1.0 663.0 Z M 1.0 1.0 "></path></clipPath><g clip-path="url(#clip-75)"><path d="M 16.8 52.6 L 66.3 52.6 C 73.1 52.6 78.7 47.1 78.7 40.2 L 78.7 15.5 C 78.7 8.6 73.1 3.1 66.3 3.1 L 16.8 3.1 C 10.0 3.1 4.4 8.6 4.4 15.5 L 4.4 40.2 C 4.4 47.1 10.0 52.6 16.8 52.6 Z M 16.8 52.6 " fill="#A0C4C8"></path><path d="M 27.5 494.5 L 63.5 494.5 C 68.5 494.5 72.5 498.5 72.5 503.5 L 72.5 521.5 C 72.5 526.5 68.5 530.5 63.5 530.5 L 27.5 530.5 C 22.5 530.5 18.5 526.5 18.5 521.5 L 18.5 503.5 C 18.5 498.5 22.5 494.5 27.5 494.5 Z M 27.5 494.5 " fill="none" stroke="#000000" stroke-width="0.25" stroke-miterlimit="0.00" stroke-linecap="round" stroke-linejoin="round" transform="matrix(1.38, 0.00, 0.00, -1.38, -21.0, 733.2)"></path><text xml:space="preserve" font-family="CourierNewPSMT" font-size="16.0" fill="#000000" transform="matrix(1.38, 0.00, -0.00, -1.38, 14.5, 23.2)">H</text><text xml:space="preserve" font-family="CourierNewPSMT" font-size="16.0" fill="#000000" transform="matrix(1.38, 0.00, -0.00, -1.38, 27.7, 23.2)">E</text><text xml:space="preserve" font-family="CourierNewPSMT" font-size="16.0" fill="#000000" transform="matrix(1.38, 0.00, -0.00, -1.38, 40.9, 23.2)">A</text><text xml:space="preserve" font-family="CourierNewPSMT" font-size="16.0" fill="#000000" transform="matrix(1.38, 0.00, -0.00, -1.38, 54.1, 23.2)">D</text><path d="M 16.8 144.8 L 115.8 144.8 C 122.6 144.8 128.2 139.3 128.2 132.4 L 128.2 107.7 C 128.2 100.8 122.6 95.3 115.8 95.3 L 16.8 95.3 C 10.0 95.3 4.4 100.8 4.4 107.7 L 4.4 132.4 C 4.4 139.3 10.0 144.8 16.8 144.8 Z M 16.8 144.8 " fill="#A0C4C8"></path><path d="M 27.5 427.5 L 99.5 427.5 C 104.5 427.5 108.5 431.5 108.5 436.5 L 108.5 454.5 C 108.5 459.5 104.5 463.5 99.5 463.5 L 27.5 463.5 C 22.5 463.5 18.5 459.5 18.5 454.5 L 18.5 436.5 C 18.5 431.5 22.5 427.5 27.5 427.5 Z M 27.5 427.5 " fill="none" stroke="#000000" stroke-width="0.25" stroke-miterlimit="0.00" stroke-linecap="round" stroke-linejoin="round" transform="matrix(1.38, 0.00, 0.00, -1.38, -21.0, 733.2)"></path><text xml:space="preserve" font-family="CourierNewPSMT" font-size="16.0" fill="#000000" transform="matrix(1.38, 0.00, -0.00, -1.38, 26.0, 114.5)">m</text><text xml:space="preserve" font-family="CourierNewPSMT" font-size="16.0" fill="#000000" transform="matrix(1.38, 0.00, -0.00, -1.38, 39.2, 114.5)">a</text><text xml:space="preserve" font-family="CourierNewPSMT" font-size="16.0" fill="#000000" transform="matrix(1.38, 0.00, -0.00, -1.38, 52.4, 114.5)">s</text><text xml:space="preserve" font-family="CourierNewPSMT" font-size="16.0" fill="#000000" transform="matrix(1.38, 0.00, -0.00, -1.38, 65.6, 114.5)">t</text><text xml:space="preserve" font-family="CourierNewPSMT" font-size="16.0" fill="#000000" transform="matrix(1.38, 0.00, -0.00, -1.38, 78.8, 114.5)">e</text><text xml:space="preserve" font-family="CourierNewPSMT" font-size="16.0" fill="#000000" transform="matrix(1.38, 0.00, -0.00, -1.38, 92.0, 114.5)">r</text><path d="M 147.4 535.7 L 246.4 535.7 C 253.3 535.7 258.8 530.1 258.8 523.3 L 258.8 498.5 C 258.8 491.7 253.3 486.1 246.4 486.1 L 147.4 486.1 C 140.6 486.1 135.1 491.7 135.1 498.5 L 135.1 523.3 C 135.1 530.1 140.6 535.7 147.4 535.7 Z M 147.4 535.7 " fill="#FEFCD3"></path><path d="M 122.5 143.5 L 194.5 143.5 C 199.5 143.5 203.5 147.5 203.5 152.5 L 203.5 170.5 C 203.5 175.5 199.5 179.5 194.5 179.5 L 122.5 179.5 C 117.5 179.5 113.5 175.5 113.5 170.5 L 113.5 152.5 C 113.5 147.5 117.5 143.5 122.5 143.5 Z M 122.5 143.5 " fill="none" stroke="#000000" stroke-width="0.25" stroke-miterlimit="0.00" stroke-linecap="round" stroke-linejoin="round" transform="matrix(1.38, 0.00, 0.00, -1.38, -21.0, 733.2)"></path><text xml:space="preserve" font-family="CourierNewPSMT" font-size="16.0" fill="#000000" transform="matrix(1.38, 0.00, -0.00, -1.38, 149.7, 505.4)">0</text><text xml:space="preserve" font-family="CourierNewPSMT" font-size="16.0" fill="#000000" transform="matrix(1.38, 0.00, -0.00, -1.38, 162.9, 505.4)">5</text><text xml:space="preserve" font-family="CourierNewPSMT" font-size="16.0" fill="#000000" transform="matrix(1.38, 0.00, -0.00, -1.38, 176.2, 505.4)">d</text><text xml:space="preserve" font-family="CourierNewPSMT" font-size="16.0" fill="#000000" transform="matrix(1.38, 0.00, -0.00, -1.38, 189.4, 505.4)">7</text><text xml:space="preserve" font-family="CourierNewPSMT" font-size="16.0" fill="#000000" transform="matrix(1.38, 0.00, -0.00, -1.38, 202.6, 505.4)">d</text><text xml:space="preserve" font-family="CourierNewPSMT" font-size="16.0" fill="#000000" transform="matrix(1.38, 0.00, -0.00, -1.38, 215.8, 505.4)">a</text><text xml:space="preserve" font-family="CourierNewPSMT" font-size="16.0" fill="#000000" transform="matrix(1.38, 0.00, -0.00, -1.38, 229.0, 505.4)">2</text><path d="M 320.7 535.7 L 419.7 535.7 C 426.5 535.7 432.1 530.1 432.1 523.3 L 432.1 498.5 C 432.1 491.7 426.5 486.1 419.7 486.1 L 320.7 486.1 C 313.9 486.1 308.3 491.7 308.3 498.5 L 308.3 523.3 C 308.3 530.1 313.9 535.7 320.7 535.7 Z M 320.7 535.7 " fill="#ADD0AB"></path><path d="M 248.5 143.5 L 320.5 143.5 C 325.5 143.5 329.5 147.5 329.5 152.5 L 329.5 170.5 C 329.5 175.5 325.5 179.5 320.5 179.5 L 248.5 179.5 C 243.5 179.5 239.5 175.5 239.5 170.5 L 239.5 152.5 C 239.5 147.5 243.5 143.5 248.5 143.5 Z M 248.5 143.5 " fill="none" stroke="#000000" stroke-width="0.25" stroke-miterlimit="0.00" stroke-linecap="round" stroke-linejoin="round" transform="matrix(1.38, 0.00, 0.00, -1.38, -21.0, 733.2)"></path><text xml:space="preserve" font-family="CourierNewPSMT" font-size="16.0" fill="#000000" transform="matrix(1.38, 0.00, -0.00, -1.38, 329.6, 505.4)">5</text><text xml:space="preserve" font-family="CourierNewPSMT" font-size="16.0" fill="#000000" transform="matrix(1.38, 0.00, -0.00, -1.38, 342.8, 505.4)">0</text><text xml:space="preserve" font-family="CourierNewPSMT" font-size="16.0" fill="#000000" transform="matrix(1.38, 0.00, -0.00, -1.38, 356.0, 505.4)">8</text><text xml:space="preserve" font-family="CourierNewPSMT" font-size="16.0" fill="#000000" transform="matrix(1.38, 0.00, -0.00, -1.38, 369.2, 505.4)">d</text><text xml:space="preserve" font-family="CourierNewPSMT" font-size="16.0" fill="#000000" transform="matrix(1.38, 0.00, -0.00, -1.38, 382.4, 505.4)">1</text><text xml:space="preserve" font-family="CourierNewPSMT" font-size="16.0" fill="#000000" transform="matrix(1.38, 0.00, -0.00, -1.38, 395.6, 505.4)">8</text><path d="M 555.8 535.7 L 654.8 535.7 C 661.6 535.7 667.2 530.1 667.2 523.3 L 667.2 498.5 C 667.2 491.7 661.6 486.1 654.8 486.1 L 555.8 486.1 C 549.0 486.1 543.4 491.7 543.4 498.5 L 543.4 523.3 C 543.4 530.1 549.0 535.7 555.8 535.7 Z M 555.8 535.7 " fill="#FFEDD3"></path><path d="M 419.5 143.5 L 491.5 143.5 C 496.5 143.5 500.5 147.5 500.5 152.5 L 500.5 170.5 C 500.5 175.5 496.5 179.5 491.5 179.5 L 419.5 179.5 C 414.5 179.5 410.5 175.5 410.5 170.5 L 410.5 152.5 C 410.5 147.5 414.5 143.5 419.5 143.5 Z M 419.5 143.5 " fill="none" stroke="#000000" stroke-width="0.25" stroke-miterlimit="0.00" stroke-linecap="round" stroke-linejoin="round" transform="matrix(1.38, 0.00, 0.00, -1.38, -21.0, 733.2)"></path><text xml:space="preserve" font-family="CourierNewPSMT" font-size="16.0" fill="#000000" transform="matrix(1.38, 0.00, -0.00, -1.38, 564.7, 505.4)">7</text><text xml:space="preserve" font-family="CourierNewPSMT" font-size="16.0" fill="#000000" transform="matrix(1.38, 0.00, -0.00, -1.38, 577.9, 505.4)">a</text><text xml:space="preserve" font-family="CourierNewPSMT" font-size="16.0" fill="#000000" transform="matrix(1.38, 0.00, -0.00, -1.38, 591.1, 505.4)">1</text><text xml:space="preserve" font-family="CourierNewPSMT" font-size="16.0" fill="#000000" transform="matrix(1.38, 0.00, -0.00, -1.38, 604.3, 505.4)">c</text><text xml:space="preserve" font-family="CourierNewPSMT" font-size="16.0" fill="#000000" transform="matrix(1.38, 0.00, -0.00, -1.38, 617.5, 505.4)">6</text><text xml:space="preserve" font-family="CourierNewPSMT" font-size="16.0" fill="#000000" transform="matrix(1.38, 0.00, -0.00, -1.38, 630.7, 505.4)">1</text><path d="M 716.7 610.0 L 976.6 610.0 C 983.4 610.0 988.9 604.5 988.9 597.6 L 988.9 498.5 C 988.9 491.7 983.4 486.1 976.6 486.1 L 716.7 486.1 C 709.9 486.1 704.3 491.7 704.3 498.5 L 704.3 597.6 C 704.3 604.5 709.9 610.0 716.7 610.0 Z M 716.7 610.0 " fill="#ADD0AB"></path><path d="M 536.5 89.5 L 725.5 89.5 C 730.5 89.5 734.5 93.5 734.5 98.5 L 734.5 170.5 C 734.5 175.5 730.5 179.5 725.5 179.5 L 536.5 179.5 C 531.5 179.5 527.5 175.5 527.5 170.5 L 527.5 98.5 C 527.5 93.5 531.5 89.5 536.5 89.5 Z M 536.5 89.5 " fill="none" stroke="#000000" stroke-width="0.25" stroke-miterlimit="0.00" stroke-linecap="round" stroke-linejoin="round" transform="matrix(1.38, 0.00, 0.00, -1.38, -21.0, 733.2)"></path><text xml:space="preserve" font-family="CourierNewPSMT" font-size="14.0" fill="#000000" transform="matrix(1.38, 0.00, -0.00, -1.38, 710.2, 587.5)">7</text><text xml:space="preserve" font-family="CourierNewPSMT" font-size="14.0" fill="#000000" transform="matrix(1.38, 0.00, -0.00, -1.38, 721.8, 587.5)">a</text><text xml:space="preserve" font-family="CourierNewPSMT" font-size="14.0" fill="#000000" transform="matrix(1.38, 0.00, -0.00, -1.38, 733.3, 587.5)">1</text><text xml:space="preserve" font-family="CourierNewPSMT" font-size="14.0" fill="#000000" transform="matrix(1.38, 0.00, -0.00, -1.38, 744.9, 587.5)">c</text><text xml:space="preserve" font-family="CourierNewPSMT" font-size="14.0" fill="#000000" transform="matrix(1.38, 0.00, -0.00, -1.38, 756.4, 587.5)">6</text><text xml:space="preserve" font-family="CourierNewPSMT" font-size="14.0" fill="#000000" transform="matrix(1.38, 0.00, -0.00, -1.38, 768.0, 587.5)">1</text><text xml:space="preserve" font-family="CourierNewPSMT" font-size="14.0" fill="#000000" transform="matrix(1.38, 0.00, -0.00, -1.38, 779.5, 587.5)">:</text><text xml:space="preserve" font-family="CourierNewPSMT" font-size="14.0" fill="#000000" transform="matrix(1.38, 0.00, -0.00, -1.38, 791.1, 587.5)"> </text><text xml:space="preserve" font-family="CourierNewPSMT" font-size="14.0" fill="#000000" transform="matrix(1.38, 0.00, -0.00, -1.38, 802.6, 587.5)">s</text><text xml:space="preserve" font-family="CourierNewPSMT" font-size="14.0" fill="#000000" transform="matrix(1.38, 0.00, -0.00, -1.38, 814.2, 587.5)">o</text><text xml:space="preserve" font-family="CourierNewPSMT" font-size="14.0" fill="#000000" transform="matrix(1.38, 0.00, -0.00, -1.38, 825.7, 587.5)">m</text><text xml:space="preserve" font-family="CourierNewPSMT" font-size="14.0" fill="#000000" transform="matrix(1.38, 0.00, -0.00, -1.38, 837.3, 587.5)">e</text><text xml:space="preserve" font-family="CourierNewPSMT" font-size="14.0" fill="#000000" transform="matrix(1.38, 0.00, -0.00, -1.38, 848.8, 587.5)">-</text><text xml:space="preserve" font-family="CourierNewPSMT" font-size="14.0" fill="#000000" transform="matrix(1.38, 0.00, -0.00, -1.38, 860.4, 587.5)">f</text><text xml:space="preserve" font-family="CourierNewPSMT" font-size="14.0" fill="#000000" transform="matrix(1.38, 0.00, -0.00, -1.38, 872.0, 587.5)">i</text><text xml:space="preserve" font-family="CourierNewPSMT" font-size="14.0" fill="#000000" transform="matrix(1.38, 0.00, -0.00, -1.38, 883.5, 587.5)">l</text><text xml:space="preserve" font-family="CourierNewPSMT" font-size="14.0" fill="#000000" transform="matrix(1.38, 0.00, -0.00, -1.38, 895.1, 587.5)">e</text><path d="M 202.8 161.5 L 228.9 161.5 " fill="none" stroke="#000000" stroke-width="1.00" stroke-miterlimit="0.00" stroke-linecap="round" stroke-linejoin="round" transform="matrix(1.38, 0.00, 0.00, -1.38, -21.0, 733.2)"></path><path d="M 304.7 510.9 L 293.7 515.0 L 293.7 506.8 Z M 304.7 510.9 " fill="#000000"></path><path d="M 236.9 161.5 L 228.9 158.5 L 228.9 164.5 Z M 236.9 161.5 " fill="none" stroke="#000000" stroke-width="1.00" stroke-miterlimit="0.00" transform="matrix(1.38, 0.00, 0.00, -1.38, -21.0, 733.2)"></path><path d="M 49.9 493.8 L 55.5 473.2 " fill="none" stroke="#000000" stroke-width="1.00" stroke-miterlimit="0.00" stroke-linecap="round" stroke-linejoin="round" transform="matrix(1.38, 0.00, 0.00, -1.38, -21.0, 733.2)"></path><path d="M 58.2 92.6 L 51.3 83.0 L 59.3 80.9 Z M 58.2 92.6 " fill="#000000"></path><path d="M 57.6 465.5 L 52.6 472.4 L 58.4 474.0 Z M 57.6 465.5 " fill="none" stroke="#000000" stroke-width="1.00" stroke-miterlimit="0.00" transform="matrix(1.38, 0.00, 0.00, -1.38, -21.0, 733.2)"></path><path d="M 414.2 486.1 L 414.2 535.7 L 418.7 535.7 C 425.5 535.7 432.1 530.1 432.1 523.3 L 432.1 498.5 C 432.1 491.7 425.5 486.1 418.7 486.1 Z M 414.1 486.1 " fill="#CDD4B0"></path><path d="M 316.5 179.5 L 316.5 143.5 L 319.8 143.5 C 324.8 143.5 329.5 147.5 329.5 152.5 L 329.5 170.5 C 329.5 175.5 324.8 179.5 319.8 179.5 Z M 316.4 179.5 " fill="none" stroke="#000000" stroke-width="0.25" stroke-miterlimit="0.00" stroke-linecap="round" stroke-linejoin="round" transform="matrix(1.38, 0.00, 0.00, -1.38, -21.0, 733.2)"></path><path d="M 325.0 152.5 L 399.9 152.5 " fill="none" stroke="#000000" stroke-width="1.00" stroke-miterlimit="0.00" stroke-linecap="round" stroke-linejoin="round" transform="matrix(1.38, 0.00, 0.00, -1.38, -21.0, 733.2)"></path><path d="M 539.8 523.3 L 528.8 527.4 L 528.8 519.2 Z M 539.8 523.3 " fill="#000000"></path><path d="M 407.9 152.5 L 399.9 149.5 L 399.9 155.5 Z M 407.9 152.5 " fill="none" stroke="#000000" stroke-width="1.00" stroke-miterlimit="0.00" transform="matrix(1.38, 0.00, 0.00, -1.38, -21.0, 733.2)"></path><path d="M 424.9 525.6 C 426.2 524.4 426.2 522.3 424.9 521.0 C 423.6 519.7 421.5 519.7 420.2 521.0 C 418.9 522.3 418.9 524.4 420.2 525.6 C 421.5 526.9 423.6 526.9 424.9 525.6 " fill="#000000"></path><path d="M 324.3 150.8 C 325.2 151.7 325.2 153.3 324.3 154.2 C 323.4 155.1 321.8 155.1 320.9 154.2 C 320.0 153.3 320.0 151.7 320.9 150.8 C 321.8 149.9 323.4 149.9 324.3 150.8 " fill="none" stroke="#000000" stroke-width="1.00" stroke-miterlimit="0.00" transform="matrix(1.38, 0.00, 0.00, -1.38, -21.0, 733.2)"></path><text xml:space="preserve" font-family="HelveticaNeue" font-size="16.0" fill="#000000" transform="matrix(1.38, 0.00, -0.00, -1.38, 568.3, 633.6)">o</text><text xml:space="preserve" font-family="HelveticaNeue" font-size="16.0" fill="#000000" transform="matrix(1.38, 0.00, -0.00, -1.38, 580.9, 633.6)">b</text><text xml:space="preserve" font-family="HelveticaNeue" font-size="16.0" fill="#000000" transform="matrix(1.38, 0.00, -0.00, -1.38, 593.9, 633.6)">j</text><text xml:space="preserve" font-family="HelveticaNeue" font-size="16.0" fill="#000000" transform="matrix(1.38, 0.00, -0.00, -1.38, 598.8, 633.6)">e</text><text xml:space="preserve" font-family="HelveticaNeue" font-size="16.0" fill="#000000" transform="matrix(1.38, 0.00, -0.00, -1.38, 610.6, 633.6)">c</text><text xml:space="preserve" font-family="HelveticaNeue" font-size="16.0" fill="#000000" transform="matrix(1.38, 0.00, -0.00, -1.38, 622.5, 633.6)">t</text><text xml:space="preserve" font-family="HelveticaNeue" font-size="16.0" fill="#000000" transform="matrix(1.38, 0.00, -0.00, -1.38, 629.4, 633.6)">s</text><text xml:space="preserve" font-family="HelveticaNeue" font-size="16.0" fill="#000000" transform="matrix(1.38, 0.00, -0.00, -1.38, 345.0, 633.6)">t</text><text xml:space="preserve" font-family="HelveticaNeue" font-size="16.0" fill="#000000" transform="matrix(1.38, 0.00, -0.00, -1.38, 351.9, 633.6)">r</text><text xml:space="preserve" font-family="HelveticaNeue" font-size="16.0" fill="#000000" transform="matrix(1.38, 0.00, -0.00, -1.38, 358.8, 633.6)">e</text><text xml:space="preserve" font-family="HelveticaNeue" font-size="16.0" fill="#000000" transform="matrix(1.38, 0.00, -0.00, -1.38, 370.6, 633.6)">e</text><text xml:space="preserve" font-family="HelveticaNeue" font-size="16.0" fill="#000000" transform="matrix(1.38, 0.00, -0.00, -1.38, 382.4, 633.6)">s</text><text xml:space="preserve" font-family="HelveticaNeue" font-size="16.0" fill="#000000" transform="matrix(1.38, 0.00, -0.00, -1.38, 153.6, 633.6)">c</text><text xml:space="preserve" font-family="HelveticaNeue" font-size="16.0" fill="#000000" transform="matrix(1.38, 0.00, -0.00, -1.38, 165.4, 633.6)">o</text><text xml:space="preserve" font-family="HelveticaNeue" font-size="16.0" fill="#000000" transform="matrix(1.38, 0.00, -0.00, -1.38, 178.0, 633.6)">m</text><text xml:space="preserve" font-family="HelveticaNeue" font-size="16.0" fill="#000000" transform="matrix(1.38, 0.00, -0.00, -1.38, 196.8, 633.6)">m</text><text xml:space="preserve" font-family="HelveticaNeue" font-size="16.0" fill="#000000" transform="matrix(1.38, 0.00, -0.00, -1.38, 215.5, 633.6)">i</text><text xml:space="preserve" font-family="HelveticaNeue" font-size="16.0" fill="#000000" transform="matrix(1.38, 0.00, -0.00, -1.38, 220.4, 633.6)">t</text><text xml:space="preserve" font-family="HelveticaNeue" font-size="16.0" fill="#000000" transform="matrix(1.38, 0.00, -0.00, -1.38, 227.3, 633.6)">s</text><text xml:space="preserve" font-family="HelveticaNeue" font-size="16.0" fill="#000000" transform="matrix(1.38, 0.00, -0.00, -1.38, 819.0, 633.6)">i</text><text xml:space="preserve" font-family="HelveticaNeue" font-size="16.0" fill="#000000" transform="matrix(1.38, 0.00, -0.00, -1.38, 823.8, 633.6)">n</text><text xml:space="preserve" font-family="HelveticaNeue" font-size="16.0" fill="#000000" transform="matrix(1.38, 0.00, -0.00, -1.38, 836.1, 633.6)">d</text><text xml:space="preserve" font-family="HelveticaNeue" font-size="16.0" fill="#000000" transform="matrix(1.38, 0.00, -0.00, -1.38, 849.1, 633.6)">e</text><text xml:space="preserve" font-family="HelveticaNeue" font-size="16.0" fill="#000000" transform="matrix(1.38, 0.00, -0.00, -1.38, 860.9, 633.6)">x</text><text xml:space="preserve" font-family="HelveticaNeue" font-size="16.0" fill="#000000" transform="matrix(1.38, 0.00, -0.00, -1.38, 34.4, 633.6)">r</text><text xml:space="preserve" font-family="HelveticaNeue" font-size="16.0" fill="#000000" transform="matrix(1.38, 0.00, -0.00, -1.38, 41.4, 633.6)">e</text><text xml:space="preserve" font-family="HelveticaNeue" font-size="16.0" fill="#000000" transform="matrix(1.38, 0.00, -0.00, -1.38, 53.2, 633.6)">f</text><text xml:space="preserve" font-family="HelveticaNeue" font-size="16.0" fill="#000000" transform="matrix(1.38, 0.00, -0.00, -1.38, 59.7, 633.6)">s</text><path d="M 555.8 610.0 L 654.8 610.0 C 661.6 610.0 667.2 604.5 667.2 597.6 L 667.2 572.9 C 667.2 566.0 661.6 560.5 654.8 560.5 L 555.8 560.5 C 549.0 560.5 543.4 566.0 543.4 572.9 L 543.4 597.6 C 543.4 604.5 549.0 610.0 555.8 610.0 Z M 555.8 610.0 " fill="#FFEDD3"></path><path d="M 419.5 89.5 L 491.5 89.5 C 496.5 89.5 500.5 93.5 500.5 98.5 L 500.5 116.5 C 500.5 121.5 496.5 125.5 491.5 125.5 L 419.5 125.5 C 414.5 125.5 410.5 121.5 410.5 116.5 L 410.5 98.5 C 410.5 93.5 414.5 89.5 419.5 89.5 Z M 419.5 89.5 " fill="none" stroke="#000000" stroke-width="0.25" stroke-miterlimit="0.00" stroke-linecap="round" stroke-linejoin="round" transform="matrix(1.38, 0.00, 0.00, -1.38, -21.0, 733.2)"></path><text xml:space="preserve" font-family="CourierNewPSMT" font-size="16.0" fill="#000000" transform="matrix(1.38, 0.00, -0.00, -1.38, 564.7, 580.6)">f</text><text xml:space="preserve" font-family="CourierNewPSMT" font-size="16.0" fill="#000000" transform="matrix(1.38, 0.00, -0.00, -1.38, 577.9, 580.6)">d</text><text xml:space="preserve" font-family="CourierNewPSMT" font-size="16.0" fill="#000000" transform="matrix(1.38, 0.00, -0.00, -1.38, 591.1, 580.6)">4</text><text xml:space="preserve" font-family="CourierNewPSMT" font-size="16.0" fill="#000000" transform="matrix(1.38, 0.00, -0.00, -1.38, 604.3, 580.6)">8</text><text xml:space="preserve" font-family="CourierNewPSMT" font-size="16.0" fill="#000000" transform="matrix(1.38, 0.00, -0.00, -1.38, 617.5, 580.6)">0</text><text xml:space="preserve" font-family="CourierNewPSMT" font-size="16.0" fill="#000000" transform="matrix(1.38, 0.00, -0.00, -1.38, 630.7, 580.6)">b</text><path d="M 555.8 461.4 L 654.8 461.4 C 661.6 461.4 667.2 455.8 667.2 449.0 L 667.2 424.2 C 667.2 417.4 661.6 411.8 654.8 411.8 L 555.8 411.8 C 549.0 411.8 543.4 417.4 543.4 424.2 L 543.4 449.0 C 543.4 455.8 549.0 461.4 555.8 461.4 Z M 555.8 461.4 " fill="#FFEDD3"></path><path d="M 419.5 197.5 L 491.5 197.5 C 496.5 197.5 500.5 201.5 500.5 206.5 L 500.5 224.5 C 500.5 229.5 496.5 233.5 491.5 233.5 L 419.5 233.5 C 414.5 233.5 410.5 229.5 410.5 224.5 L 410.5 206.5 C 410.5 201.5 414.5 197.5 419.5 197.5 Z M 419.5 197.5 " fill="none" stroke="#000000" stroke-width="0.25" stroke-miterlimit="0.00" stroke-linecap="round" stroke-linejoin="round" transform="matrix(1.38, 0.00, 0.00, -1.38, -21.0, 733.2)"></path><text xml:space="preserve" font-family="CourierNewPSMT" font-size="16.0" fill="#000000" transform="matrix(1.38, 0.00, -0.00, -1.38, 564.7, 431.1)">1</text><text xml:space="preserve" font-family="CourierNewPSMT" font-size="16.0" fill="#000000" transform="matrix(1.38, 0.00, -0.00, -1.38, 577.9, 431.1)">7</text><text xml:space="preserve" font-family="CourierNewPSMT" font-size="16.0" fill="#000000" transform="matrix(1.38, 0.00, -0.00, -1.38, 591.1, 431.1)">d</text><text xml:space="preserve" font-family="CourierNewPSMT" font-size="16.0" fill="#000000" transform="matrix(1.38, 0.00, -0.00, -1.38, 604.3, 431.1)">5</text><text xml:space="preserve" font-family="CourierNewPSMT" font-size="16.0" fill="#000000" transform="matrix(1.38, 0.00, -0.00, -1.38, 617.5, 431.1)">d</text><text xml:space="preserve" font-family="CourierNewPSMT" font-size="16.0" fill="#000000" transform="matrix(1.38, 0.00, -0.00, -1.38, 630.7, 431.1)">9</text><path d="M 63.5 425.1 L 63.5 160.9 L 102.9 161.2 " fill="none" stroke="#000000" stroke-width="1.00" stroke-miterlimit="0.00" stroke-linecap="round" stroke-linejoin="round" transform="matrix(1.38, 0.00, 0.00, -1.38, -21.0, 733.2)"></path><path d="M 131.5 511.3 L 120.5 515.5 L 120.4 507.3 Z M 131.5 511.3 " fill="#000000"></path><path d="M 110.9 161.2 L 102.9 158.2 L 102.9 164.2 Z M 110.9 161.2 " fill="none" stroke="#000000" stroke-width="1.00" stroke-miterlimit="0.00" transform="matrix(1.38, 0.00, 0.00, -1.38, -21.0, 733.2)"></path><path d="M 63.3 147.2 C 64.6 148.4 66.7 148.4 68.0 147.2 C 69.2 145.9 69.2 143.8 68.0 142.5 C 66.7 141.2 64.6 141.2 63.3 142.5 C 62.0 143.8 62.0 145.9 63.3 147.2 " fill="#000000"></path><path d="M 61.3 425.8 C 62.2 424.9 63.8 424.9 64.7 425.8 C 65.6 426.7 65.6 428.3 64.7 429.2 C 63.8 430.1 62.2 430.1 61.3 429.2 C 60.4 428.3 60.4 426.7 61.3 425.8 " fill="none" stroke="#000000" stroke-width="1.00" stroke-miterlimit="0.00" transform="matrix(1.38, 0.00, 0.00, -1.38, -21.0, 733.2)"></path></g></g></g></svg>