<?xml version="1.0" encoding="UTF-8" standalone="no"?><svg xmlns="http://www.w3.org/2000/svg" xmlns:xlink="http://www.w3.org/1999/xlink" clip-rule="evenodd" stroke-miterlimit="4.00" viewBox="0 0 79 17"><desc>SVG generated by Keynote</desc><defs></defs><g transform="matrix(1.00, 0.00, -0.00, -1.00, 0.0, 17.0)"><text xml:space="preserve" font-family="Helvetica-Light" font-size="17.0" fill="#000000" transform="matrix(1.00, 0.00, -0.00, -1.00, 1.0, 3.0)">"</text><text xml:space="preserve" font-family="Helvetica-Light" font-size="17.0" fill="#000000" transform="matrix(1.00, 0.00, -0.00, -1.00, 5.7, 3.0)">s</text><text xml:space="preserve" font-family="Helvetica-Light" font-size="17.0" fill="#000000" transform="matrix(1.00, 0.00, -0.00, -1.00, 14.2, 3.0)">o</text><text xml:space="preserve" font-family="Helvetica-Light" font-size="17.0" fill="#000000" transform="matrix(1.00, 0.00, -0.00, -1.00, 23.7, 3.0)">m</text><text xml:space="preserve" font-family="Helvetica-Light" font-size="17.0" fill="#000000" transform="matrix(1.00, 0.00, -0.00, -1.00, 37.8, 3.0)">e</text><text xml:space="preserve" font-family="Helvetica-Light" font-size="17.0" fill="#000000" transform="matrix(1.00, 0.00, -0.00, -1.00, 47.3, 3.0)"> </text><text xml:space="preserve" font-family="Helvetica-Light" font-size="17.0" fill="#000000" transform="matrix(1.00, 0.00, -0.00, -1.00, 52.0, 3.0)">ï¬</text><text xml:space="preserve" font-family="Helvetica-Light" font-size="17.0" fill="#000000" transform="matrix(1.00, 0.00, -0.00, -1.00, 60.5, 3.0)">l</text><text xml:space="preserve" font-family="Helvetica-Light" font-size="17.0" fill="#000000" transform="matrix(1.00, 0.00, -0.00, -1.00, 64.3, 3.0)">e</text><text xml:space="preserve" font-family="Helvetica-Light" font-size="17.0" fill="#000000" transform="matrix(1.00, 0.00, -0.00, -1.00, 73.7, 3.0)">"</text></g></svg>