<?xml version="1.0" encoding="UTF-8" standalone="no"?><svg xmlns="http://www.w3.org/2000/svg" xmlns:xlink="http://www.w3.org/1999/xlink" clip-rule="evenodd" stroke-miterlimit="4.00" viewBox="0 0 92 20"><desc>SVG generated by Keynote</desc><defs></defs><g transform="matrix(1.00, 0.00, -0.00, -1.00, 0.0, 20.0)"><text xml:space="preserve" font-family="Helvetica-Light" font-size="17.0" fill="#000000" transform="matrix(1.00, 0.00, -0.00, -1.00, 1.0, 5.0)">"</text><text xml:space="preserve" font-family="Helvetica-Light" font-size="17.0" fill="#000000" transform="matrix(1.00, 0.00, -0.00, -1.00, 5.7, 5.0)">a</text><text xml:space="preserve" font-family="Helvetica-Light" font-size="17.0" fill="#000000" transform="matrix(1.00, 0.00, -0.00, -1.00, 15.2, 5.0)"> </text><text xml:space="preserve" font-family="Helvetica-Light" font-size="17.0" fill="#000000" transform="matrix(1.00, 0.00, -0.00, -1.00, 19.9, 5.0)">g</text><text xml:space="preserve" font-family="Helvetica-Light" font-size="17.0" fill="#000000" transform="matrix(1.00, 0.00, -0.00, -1.00, 30.3, 5.0)">o</text><text xml:space="preserve" font-family="Helvetica-Light" font-size="17.0" fill="#000000" transform="matrix(1.00, 0.00, -0.00, -1.00, 39.7, 5.0)">o</text><text xml:space="preserve" font-family="Helvetica-Light" font-size="17.0" fill="#000000" transform="matrix(1.00, 0.00, -0.00, -1.00, 49.2, 5.0)">d</text><text xml:space="preserve" font-family="Helvetica-Light" font-size="17.0" fill="#000000" transform="matrix(1.00, 0.00, -0.00, -1.00, 59.6, 5.0)"> </text><text xml:space="preserve" font-family="Helvetica-Light" font-size="17.0" fill="#000000" transform="matrix(1.00, 0.00, -0.00, -1.00, 64.3, 5.0)">ï¬</text><text xml:space="preserve" font-family="Helvetica-Light" font-size="17.0" fill="#000000" transform="matrix(1.00, 0.00, -0.00, -1.00, 72.8, 5.0)">l</text><text xml:space="preserve" font-family="Helvetica-Light" font-size="17.0" fill="#000000" transform="matrix(1.00, 0.00, -0.00, -1.00, 76.6, 5.0)">e</text><text xml:space="preserve" font-family="Helvetica-Light" font-size="17.0" fill="#000000" transform="matrix(1.00, 0.00, -0.00, -1.00, 86.0, 5.0)">"</text></g></svg>